<svg width="74" height="74" viewBox="0 0 74 74" fill="none" xmlns="http://www.w3.org/2000/svg">
<g clip-path="url(#clip0)">
<path d="M72.5547 21.9258H44.0786L43.9228 21.5549C44.2074 20.7995 44.3638 19.9826 44.3638 19.1295C44.3638 17.1061 43.4881 15.2836 42.0959 14.0212V8.05084C42.0959 6.78958 41.6052 5.60284 40.7121 4.70799C39.8201 3.8154 38.6328 3.32422 37.3692 3.32422C34.7643 3.32422 32.6443 5.44476 32.6443 8.05084V14.2053C31.3655 15.4575 30.5701 17.202 30.5701 19.1295C30.5701 20.0012 30.7343 20.8351 31.0307 21.6035L30.8947 21.9258H10.0698V9.17322C10.0698 8.37491 9.42276 7.72791 8.62445 7.72791C3.86903 7.72791 0 11.5653 0 16.2812V62.206C0 66.9123 3.86903 70.7413 8.62445 70.7413H72.5547C73.353 70.7413 74 70.0943 74 69.296V23.3712C74 22.5728 73.353 21.9258 72.5547 21.9258ZM35.1488 15.8651C36.4964 14.9053 38.3482 14.885 39.7162 15.816C40.7759 16.5375 41.4731 17.7536 41.4731 19.1295C41.4731 19.8725 41.2693 20.5686 40.9153 21.1659C40.8707 21.241 40.8239 21.315 40.7742 21.3872C40.2345 22.1754 39.4215 22.762 38.4718 23.0081C37.035 23.3796 35.479 22.9059 34.4876 21.805C33.8497 21.0948 33.4607 20.157 33.4607 19.1295C33.4607 17.8253 34.0868 16.6651 35.0539 15.9329C35.0855 15.9097 35.1171 15.8877 35.1488 15.8651ZM48.9063 50.2675L44.5885 39.9635C45.7758 39.3994 46.8168 38.7338 47.7156 38.0445L52.2667 48.8758L48.9063 50.2675ZM27.8381 45.8712L24.5043 44.4614L27.1662 38.1658C28.0712 38.8445 29.1151 39.4949 30.3024 40.0425L29.0598 42.9817L27.8381 45.8712ZM26.7123 48.5337L25.2354 52.0256L24.4789 47.5892L26.7123 48.5337ZM33.0395 24.4128C33.9586 25.184 35.0883 25.7215 36.2728 25.9236C36.2661 25.94 36.261 25.9637 36.2502 25.9772L31.4316 37.3726C30.3482 36.8611 29.3161 36.2006 28.3383 35.3943L32.9966 24.3789C33.0107 24.3902 33.026 24.4009 33.0395 24.4128ZM39.0567 26.762L39.1443 26.5542L39.4954 25.7237C40.41 25.4437 41.2496 24.9779 41.966 24.3603L46.5458 35.2605C46.5306 35.273 46.5159 35.2859 46.5007 35.2989C45.5415 36.1046 44.5286 36.7663 43.4666 37.2857L39.0567 26.762ZM37.4827 30.4859L40.7465 38.2754C39.6586 38.5447 38.5294 38.6853 37.3608 38.6892C36.261 38.6853 35.1967 38.5616 34.1681 38.3234L37.4827 30.4859ZM35.5349 12.5042V8.05084C35.5349 7.03856 36.3581 6.21484 37.3692 6.21484C37.8604 6.21484 38.3217 6.40567 38.6666 6.75006C39.0138 7.0984 39.2052 7.56023 39.2052 8.05084V12.4523C38.0095 12.1423 36.7211 12.1598 35.5349 12.5042ZM2.89062 16.2812C2.89062 13.652 4.71477 11.4349 7.17914 10.8009V53.756C5.59325 54.0231 4.09373 54.7435 2.89062 55.8094V16.2812ZM71.1094 67.8506H8.62445C5.46283 67.8506 2.89062 65.3185 2.89062 62.206C2.89062 59.0743 5.46283 56.5264 8.62445 56.5264C9.42276 56.5264 10.0698 55.8794 10.0698 55.0811V24.8165H29.6724L26.1336 33.1857C25.4781 32.3863 25.1479 31.8217 25.1434 31.8138C24.7482 31.1205 23.8657 30.8789 23.1724 31.2741C22.4786 31.6687 22.2369 32.5517 22.6321 33.245C22.7066 33.376 23.4429 34.6373 24.8837 36.1413L21.8417 43.3357L21.464 43.1759C20.7289 42.8654 19.881 43.2092 19.5699 43.9443C19.2594 44.6794 19.6032 45.5273 20.3383 45.8384L21.3178 46.2528L23.2097 57.3992C23.3175 58.0327 23.8296 58.5188 24.4676 58.5933C24.524 58.5995 24.5799 58.6029 24.6352 58.6029C25.1609 58.6029 25.6441 58.3138 25.8982 57.8526C25.9168 57.8193 25.9343 57.7854 25.9507 57.7498C25.9558 57.7397 25.962 57.7306 25.9659 57.7205L29.3748 49.6589L30.3318 50.0637C30.5159 50.1416 30.7061 50.1783 30.8941 50.1783C31.4576 50.1783 31.9928 49.8469 32.226 49.2953C32.537 48.5602 32.1926 47.7122 31.4576 47.4012L30.5006 46.9964L33.0271 41.0226C34.3132 41.3608 35.7241 41.5663 37.2625 41.5793C37.2766 41.5798 37.2913 41.5798 37.306 41.5798H37.4155C37.4302 41.5798 37.4443 41.5798 37.459 41.5793C39.0709 41.5657 40.5416 41.3399 41.8768 40.9724L46.7959 52.7127C47.0997 53.4359 47.959 53.7888 48.6822 53.4895L50.3872 52.7827L51.3391 55.3069H39.8568C39.0584 55.3069 38.4114 55.9545 38.4114 56.7522C38.4114 57.5505 39.0584 58.1975 39.8568 58.1975H53.4178C53.4212 58.1975 53.4252 58.1981 53.4286 58.1981C53.432 58.1981 53.4353 58.1975 53.4382 58.1975H57.4365C58.2348 58.1975 58.8818 57.5505 58.8818 56.7522C58.8818 55.9545 58.2348 55.3069 57.4365 55.3069H54.4284L53.0593 51.6767L54.7158 50.9907C55.0709 50.8434 55.3532 50.5605 55.4994 50.2048C55.6457 49.8492 55.644 49.45 55.4955 49.0955L49.9881 35.9832C51.33 34.5497 52.0177 33.3709 52.0894 33.245C52.484 32.5528 52.243 31.6738 51.5519 31.2775C50.8615 30.8811 49.979 31.1205 49.5804 31.8104C49.5748 31.8195 49.2931 32.301 48.7358 33.0022L45.2976 24.8165H71.1094V67.8506Z" fill="black"/>
<path d="M62.9823 57.3061C63.2138 57.8611 63.784 58.2275 64.387 58.1959C64.9826 58.1643 65.5076 57.7617 65.6911 57.1943C65.8763 56.623 65.6753 55.9709 65.196 55.6062C64.7076 55.2347 64.0256 55.2132 63.5141 55.5514C62.9433 55.9291 62.7249 56.6766 62.9823 57.3061Z" fill="black"/>
</g>
<defs>
<clipPath id="clip0">
<rect width="74" height="74" fill="white"/>
</clipPath>
</defs>
</svg>
