<svg width="36" height="26" viewBox="0 0 36 26" fill="none" xmlns="http://www.w3.org/2000/svg">
<path d="M4.09089 5.90911H31.9091C34.1655 5.90911 36 4.58361 36 2.95458C36 1.32556 34.1655 0 31.9091 0H4.09089C1.83454 0 0 1.3255 0 2.95453C0 4.58356 1.83454 5.90911 4.09089 5.90911Z" fill="white"/>
<path d="M31.9091 10.0454H4.09089C1.83454 10.0454 0 11.3709 0 13C0 14.6291 1.83454 15.9545 4.09089 15.9545H31.9091C34.1655 15.9545 36 14.629 36 13C36 11.371 34.1655 10.0454 31.9091 10.0454Z" fill="white"/>
<path d="M31.9091 20.0911H4.09089C1.83454 20.0911 0 21.4166 0 23.0456C0 24.6746 1.83454 26.0001 4.09089 26.0001H31.9091C34.1655 26.0001 36 24.6746 36 23.0456C36 21.4166 34.1655 20.0911 31.9091 20.0911Z" fill="white"/>
</svg>
