<svg width="236" height="462" viewBox="0 0 236 462" fill="none" xmlns="http://www.w3.org/2000/svg">
<path d="M35.2577 99.248C35.2577 100.016 34.9857 100.635 34.4417 101.104C33.8977 101.573 33.2044 101.867 32.3617 101.984V102.032C33.407 102.139 34.207 102.432 34.7617 102.912C35.327 103.381 35.6097 103.995 35.6097 104.752C35.6097 105.755 35.199 106.576 34.3777 107.216C33.567 107.845 32.3724 108.16 30.7937 108.16C29.9297 108.16 29.1617 108.107 28.4897 108C27.8284 107.893 27.2524 107.739 26.7617 107.536V105.504C27.0924 105.664 27.4657 105.803 27.8817 105.92C28.2977 106.027 28.719 106.112 29.1457 106.176C29.5724 106.229 29.967 106.256 30.3297 106.256C31.343 106.256 32.0737 106.112 32.5217 105.824C32.9804 105.525 33.2097 105.109 33.2097 104.576C33.2097 104.032 32.879 103.637 32.2177 103.392C31.5564 103.136 30.6657 103.008 29.5457 103.008H28.4737V101.12H29.4337C30.3404 101.12 31.0444 101.061 31.5457 100.944C32.047 100.827 32.399 100.656 32.6017 100.432C32.8044 100.208 32.9057 99.9413 32.9057 99.632C32.9057 99.2373 32.7297 98.928 32.3777 98.704C32.0364 98.4693 31.519 98.352 30.8257 98.352C30.239 98.352 29.6844 98.4373 29.1617 98.608C28.6497 98.7787 28.1697 99.0027 27.7217 99.28L26.6657 97.664C27.2524 97.28 27.903 96.976 28.6177 96.752C29.3324 96.528 30.1804 96.416 31.1617 96.416C32.4524 96.416 33.455 96.6827 34.1697 97.216C34.895 97.7493 35.2577 98.4267 35.2577 99.248ZM41.1367 99.088C42.31 99.088 43.206 99.344 43.8247 99.856C44.454 100.357 44.7687 101.131 44.7687 102.176V108H43.1047L42.6407 106.816H42.5767C42.2034 107.285 41.8087 107.627 41.3927 107.84C40.9767 108.053 40.406 108.16 39.6807 108.16C38.902 108.16 38.2567 107.936 37.7447 107.488C37.2327 107.029 36.9767 106.331 36.9767 105.392C36.9767 104.464 37.302 103.781 37.9527 103.344C38.6034 102.896 39.5794 102.651 40.8807 102.608L42.4007 102.56V102.176C42.4007 101.717 42.278 101.381 42.0327 101.168C41.798 100.955 41.4674 100.848 41.0407 100.848C40.614 100.848 40.198 100.912 39.7927 101.04C39.3874 101.157 38.982 101.307 38.5767 101.488L37.7927 99.872C38.262 99.6267 38.7794 99.4347 39.3447 99.296C39.9207 99.1573 40.518 99.088 41.1367 99.088ZM42.4007 103.952L41.4727 103.984C40.7047 104.005 40.1714 104.144 39.8727 104.4C39.574 104.656 39.4247 104.992 39.4247 105.408C39.4247 105.771 39.5314 106.032 39.7447 106.192C39.958 106.341 40.2354 106.416 40.5767 106.416C41.0887 106.416 41.5207 106.267 41.8727 105.968C42.2247 105.659 42.4007 105.227 42.4007 104.672V103.952ZM48.5369 108H45.9609L48.3129 104.544C47.8649 104.363 47.4649 104.069 47.1129 103.664C46.7716 103.248 46.6009 102.683 46.6009 101.968C46.6009 101.093 46.9316 100.427 47.5929 99.968C48.2543 99.4987 49.1023 99.264 50.1369 99.264H54.2009V108H51.8169V104.752H50.5049L48.5369 108ZM48.9369 101.984C48.9369 102.347 49.0809 102.635 49.3689 102.848C49.6569 103.051 50.0303 103.152 50.4889 103.152H51.8169V100.944H50.1849C49.7583 100.944 49.4436 101.051 49.2409 101.264C49.0383 101.467 48.9369 101.707 48.9369 101.984ZM64.4373 101.552C64.4373 102.021 64.288 102.421 63.9893 102.752C63.7013 103.083 63.2693 103.296 62.6933 103.392V103.456C63.3013 103.531 63.7866 103.739 64.1493 104.08C64.5226 104.421 64.7093 104.859 64.7093 105.392C64.7093 105.893 64.576 106.341 64.3093 106.736C64.0533 107.131 63.6426 107.44 63.0773 107.664C62.512 107.888 61.7706 108 60.8533 108H56.6933V99.264H60.8533C61.536 99.264 62.144 99.3387 62.6773 99.488C63.2213 99.6267 63.648 99.8613 63.9573 100.192C64.2773 100.523 64.4373 100.976 64.4373 101.552ZM62.0213 101.744C62.0213 101.211 61.6 100.944 60.7573 100.944H59.0773V102.672H60.4853C60.9866 102.672 61.3653 102.603 61.6213 102.464C61.888 102.315 62.0213 102.075 62.0213 101.744ZM62.2453 105.264C62.2453 104.923 62.112 104.677 61.8453 104.528C61.5786 104.368 61.1786 104.288 60.6453 104.288H59.0773V106.352H60.6933C61.1413 106.352 61.5093 106.272 61.7973 106.112C62.096 105.941 62.2453 105.659 62.2453 105.264ZM72.4838 99.264H75.1078L71.6518 103.456L75.4118 108H72.7078L69.1398 103.568V108H66.7558V99.264H69.1398V103.504L72.4838 99.264ZM80.2461 99.088C81.4194 99.088 82.3154 99.344 82.9341 99.856C83.5634 100.357 83.8781 101.131 83.8781 102.176V108H82.2141L81.7501 106.816H81.6861C81.3127 107.285 80.9181 107.627 80.5021 107.84C80.0861 108.053 79.5154 108.16 78.7901 108.16C78.0114 108.16 77.3661 107.936 76.8541 107.488C76.3421 107.029 76.0861 106.331 76.0861 105.392C76.0861 104.464 76.4114 103.781 77.0621 103.344C77.7127 102.896 78.6887 102.651 79.9901 102.608L81.5101 102.56V102.176C81.5101 101.717 81.3874 101.381 81.1421 101.168C80.9074 100.955 80.5767 100.848 80.1501 100.848C79.7234 100.848 79.3074 100.912 78.9021 101.04C78.4967 101.157 78.0914 101.307 77.6861 101.488L76.9021 99.872C77.3714 99.6267 77.8887 99.4347 78.4541 99.296C79.0301 99.1573 79.6274 99.088 80.2461 99.088ZM81.5101 103.952L80.5821 103.984C79.8141 104.005 79.2807 104.144 78.9821 104.4C78.6834 104.656 78.5341 104.992 78.5341 105.408C78.5341 105.771 78.6407 106.032 78.8541 106.192C79.0674 106.341 79.3447 106.416 79.6861 106.416C80.1981 106.416 80.6301 106.267 80.9821 105.968C81.3341 105.659 81.5101 105.227 81.5101 104.672V103.952Z" fill="black"/>
<path d="M49.4922 65.5703C48.6621 65.5703 47.9883 66.2441 47.9883 67.0742C47.9883 67.9043 48.6621 68.5781 49.4922 68.5781C50.3223 68.5781 50.9961 67.9043 50.9961 67.0742C50.9961 66.2441 50.3223 65.5703 49.4922 65.5703Z" fill="black"/>
<path d="M86.4883 11.4297H44.9805V9.92578C44.9805 5.77946 41.6073 2.40625 37.4609 2.40625H31.4453C27.299 2.40625 23.9258 5.77946 23.9258 9.92578V11.4297H18.5117C16.0238 11.4297 14 13.4535 14 15.9414V70.082C14 72.5699 16.0238 74.5938 18.5117 74.5938H86.4883C88.9762 74.5938 91 72.5699 91 70.082V15.9414C91 13.4535 88.9762 11.4297 86.4883 11.4297ZM26.9336 9.92578C26.9336 7.43787 28.9574 5.41406 31.4453 5.41406H37.4609C39.9488 5.41406 41.9727 7.43787 41.9727 9.92578V61.0586C41.9727 63.5465 39.9488 65.5703 37.4609 65.5703H31.4453C28.9574 65.5703 26.9336 63.5465 26.9336 61.0586V9.92578ZM87.9922 70.082C87.9922 70.9115 87.3178 71.5859 86.4883 71.5859H18.5117C17.6822 71.5859 17.0078 70.9115 17.0078 70.082V15.9414C17.0078 15.1119 17.6822 14.4375 18.5117 14.4375H23.9258V61.0586C23.9258 65.2049 27.299 68.5781 31.4453 68.5781H37.4609C41.6073 68.5781 44.9805 65.2049 44.9805 61.0586V14.4375H86.4883C87.3178 14.4375 87.9922 15.1119 87.9922 15.9414V70.082Z" fill="black"/>
<path d="M79.5703 17.4453H49.4922C48.6615 17.4453 47.9883 18.1185 47.9883 18.9492V24.9648C47.9883 25.7955 48.6615 26.4688 49.4922 26.4688H79.5703C80.401 26.4688 81.0742 25.7955 81.0742 24.9648V18.9492C81.0742 18.1185 80.401 17.4453 79.5703 17.4453ZM78.0664 23.4609H50.9961V20.4531H78.0664V23.4609Z" fill="black"/>
<path d="M52.5 38.5C54.9879 38.5 57.0117 36.4762 57.0117 33.9883C57.0117 31.5004 54.9879 29.4766 52.5 29.4766C50.0121 29.4766 47.9883 31.5004 47.9883 33.9883C47.9883 36.4762 50.0121 38.5 52.5 38.5ZM52.5 32.4844C53.3295 32.4844 54.0039 33.1588 54.0039 33.9883C54.0039 34.8178 53.3295 35.4922 52.5 35.4922C51.6705 35.4922 50.9961 34.8178 50.9961 33.9883C50.9961 33.1588 51.6705 32.4844 52.5 32.4844Z" fill="black"/>
<path d="M64.5312 38.5C67.0192 38.5 69.043 36.4762 69.043 33.9883C69.043 31.5004 67.0192 29.4766 64.5312 29.4766C62.0433 29.4766 60.0195 31.5004 60.0195 33.9883C60.0195 36.4762 62.0433 38.5 64.5312 38.5ZM64.5312 32.4844C65.3607 32.4844 66.0352 33.1588 66.0352 33.9883C66.0352 34.8178 65.3607 35.4922 64.5312 35.4922C63.7018 35.4922 63.0273 34.8178 63.0273 33.9883C63.0273 33.1588 63.7018 32.4844 64.5312 32.4844Z" fill="black"/>
<path d="M76.5625 29.4766C74.0746 29.4766 72.0508 31.5004 72.0508 33.9883C72.0508 36.4762 74.0746 38.5 76.5625 38.5C79.0504 38.5 81.0742 36.4762 81.0742 33.9883C81.0742 31.5004 79.0504 29.4766 76.5625 29.4766ZM76.5625 35.4922C75.733 35.4922 75.0586 34.8178 75.0586 33.9883C75.0586 33.1588 75.733 32.4844 76.5625 32.4844C77.392 32.4844 78.0664 33.1588 78.0664 33.9883C78.0664 34.8178 77.392 35.4922 76.5625 35.4922Z" fill="black"/>
<path d="M52.5 50.5312C54.9879 50.5312 57.0117 48.5074 57.0117 46.0195C57.0117 43.5316 54.9879 41.5078 52.5 41.5078C50.0121 41.5078 47.9883 43.5316 47.9883 46.0195C47.9883 48.5074 50.0121 50.5312 52.5 50.5312ZM52.5 44.5156C53.3295 44.5156 54.0039 45.19 54.0039 46.0195C54.0039 46.849 53.3295 47.5234 52.5 47.5234C51.6705 47.5234 50.9961 46.849 50.9961 46.0195C50.9961 45.19 51.6705 44.5156 52.5 44.5156Z" fill="black"/>
<path d="M64.5312 50.5312C67.0192 50.5312 69.043 48.5074 69.043 46.0195C69.043 43.5316 67.0192 41.5078 64.5312 41.5078C62.0433 41.5078 60.0195 43.5316 60.0195 46.0195C60.0195 48.5074 62.0433 50.5312 64.5312 50.5312ZM64.5312 44.5156C65.3607 44.5156 66.0352 45.19 66.0352 46.0195C66.0352 46.849 65.3607 47.5234 64.5312 47.5234C63.7018 47.5234 63.0273 46.849 63.0273 46.0195C63.0273 45.19 63.7018 44.5156 64.5312 44.5156Z" fill="black"/>
<path d="M76.5625 41.5078C74.0746 41.5078 72.0508 43.5316 72.0508 46.0195C72.0508 48.5074 74.0746 50.5312 76.5625 50.5312C79.0504 50.5312 81.0742 48.5074 81.0742 46.0195C81.0742 43.5316 79.0504 41.5078 76.5625 41.5078ZM76.5625 47.5234C75.733 47.5234 75.0586 46.849 75.0586 46.0195C75.0586 45.19 75.733 44.5156 76.5625 44.5156C77.392 44.5156 78.0664 45.19 78.0664 46.0195C78.0664 46.849 77.392 47.5234 76.5625 47.5234Z" fill="black"/>
<path d="M57.0117 58.0508C57.0117 55.5629 54.9879 53.5391 52.5 53.5391C50.0121 53.5391 47.9883 55.5629 47.9883 58.0508C47.9883 60.5387 50.0121 62.5625 52.5 62.5625C54.9879 62.5625 57.0117 60.5387 57.0117 58.0508ZM52.5 59.5547C51.6705 59.5547 50.9961 58.8803 50.9961 58.0508C50.9961 57.2213 51.6705 56.5469 52.5 56.5469C53.3295 56.5469 54.0039 57.2213 54.0039 58.0508C54.0039 58.8803 53.3295 59.5547 52.5 59.5547Z" fill="black"/>
<path d="M64.5312 62.5625C67.0192 62.5625 69.043 60.5387 69.043 58.0508C69.043 55.5629 67.0192 53.5391 64.5312 53.5391C62.0433 53.5391 60.0195 55.5629 60.0195 58.0508C60.0195 60.5387 62.0433 62.5625 64.5312 62.5625ZM64.5312 56.5469C65.3607 56.5469 66.0352 57.2213 66.0352 58.0508C66.0352 58.8803 65.3607 59.5547 64.5312 59.5547C63.7018 59.5547 63.0273 58.8803 63.0273 58.0508C63.0273 57.2213 63.7018 56.5469 64.5312 56.5469Z" fill="black"/>
<path d="M76.5625 53.5391C74.0746 53.5391 72.0508 55.5629 72.0508 58.0508C72.0508 60.5387 74.0746 62.5625 76.5625 62.5625C79.0504 62.5625 81.0742 60.5387 81.0742 58.0508C81.0742 55.5629 79.0504 53.5391 76.5625 53.5391ZM76.5625 59.5547C75.733 59.5547 75.0586 58.8803 75.0586 58.0508C75.0586 57.2213 75.733 56.5469 76.5625 56.5469C77.392 56.5469 78.0664 57.2213 78.0664 58.0508C78.0664 58.8803 77.392 59.5547 76.5625 59.5547Z" fill="black"/>
<path d="M79.5703 65.5703H55.5078C54.6771 65.5703 54.0039 66.2435 54.0039 67.0742C54.0039 67.9049 54.6771 68.5781 55.5078 68.5781H79.5703C80.401 68.5781 81.0742 67.9049 81.0742 67.0742C81.0742 66.2435 80.401 65.5703 79.5703 65.5703Z" fill="black"/>
<path d="M156.079 217.576V226.984H157.599V232.328H155.263V229H148.111V232.328H145.775V226.984H146.655C147.061 226.184 147.439 225.331 147.791 224.424C148.143 223.507 148.458 222.488 148.735 221.368C149.023 220.248 149.253 218.984 149.423 217.576H156.079ZM153.663 219.592H151.343C151.247 220.328 151.093 221.128 150.879 221.992C150.677 222.845 150.431 223.704 150.143 224.568C149.855 225.421 149.541 226.227 149.199 226.984H153.663V219.592ZM167.098 224.616C167.098 226.067 166.714 227.187 165.946 227.976C165.189 228.765 164.154 229.16 162.842 229.16C162.031 229.16 161.306 228.984 160.666 228.632C160.037 228.28 159.541 227.768 159.178 227.096C158.815 226.413 158.634 225.587 158.634 224.616C158.634 223.165 159.013 222.051 159.77 221.272C160.527 220.493 161.567 220.104 162.89 220.104C163.711 220.104 164.437 220.28 165.066 220.632C165.695 220.984 166.191 221.496 166.554 222.168C166.917 222.829 167.098 223.645 167.098 224.616ZM161.066 224.616C161.066 225.48 161.205 226.136 161.482 226.584C161.77 227.021 162.234 227.24 162.874 227.24C163.503 227.24 163.957 227.021 164.234 226.584C164.522 226.136 164.666 225.48 164.666 224.616C164.666 223.752 164.522 223.107 164.234 222.68C163.957 222.243 163.498 222.024 162.858 222.024C162.229 222.024 161.77 222.243 161.482 222.68C161.205 223.107 161.066 223.752 161.066 224.616ZM175.1 220.264V222.056H171.452V229H169.068V220.264H175.1ZM184.489 224.616C184.489 226.067 184.105 227.187 183.337 227.976C182.579 228.765 181.545 229.16 180.233 229.16C179.422 229.16 178.697 228.984 178.057 228.632C177.427 228.28 176.931 227.768 176.569 227.096C176.206 226.413 176.025 225.587 176.025 224.616C176.025 223.165 176.403 222.051 177.161 221.272C177.918 220.493 178.958 220.104 180.281 220.104C181.102 220.104 181.827 220.28 182.457 220.632C183.086 220.984 183.582 221.496 183.945 222.168C184.307 222.829 184.489 223.645 184.489 224.616ZM178.457 224.616C178.457 225.48 178.595 226.136 178.873 226.584C179.161 227.021 179.625 227.24 180.265 227.24C180.894 227.24 181.347 227.021 181.625 226.584C181.913 226.136 182.057 225.48 182.057 224.616C182.057 223.752 181.913 223.107 181.625 222.68C181.347 222.243 180.889 222.024 180.249 222.024C179.619 222.024 179.161 222.243 178.873 222.68C178.595 223.107 178.457 223.752 178.457 224.616ZM194.203 222.552C194.203 223.021 194.054 223.421 193.755 223.752C193.467 224.083 193.035 224.296 192.459 224.392V224.456C193.067 224.531 193.552 224.739 193.915 225.08C194.288 225.421 194.475 225.859 194.475 226.392C194.475 226.893 194.342 227.341 194.075 227.736C193.819 228.131 193.408 228.44 192.843 228.664C192.278 228.888 191.536 229 190.619 229H186.459V220.264H190.619C191.302 220.264 191.91 220.339 192.443 220.488C192.987 220.627 193.414 220.861 193.723 221.192C194.043 221.523 194.203 221.976 194.203 222.552ZM191.787 222.744C191.787 222.211 191.366 221.944 190.523 221.944H188.843V223.672H190.251C190.752 223.672 191.131 223.603 191.387 223.464C191.654 223.315 191.787 223.075 191.787 222.744ZM192.011 226.264C192.011 225.923 191.878 225.677 191.611 225.528C191.344 225.368 190.944 225.288 190.411 225.288H188.843V227.352H190.459C190.907 227.352 191.275 227.272 191.563 227.112C191.862 226.941 192.011 226.659 192.011 226.264ZM204.457 224.616C204.457 226.067 204.073 227.187 203.305 227.976C202.548 228.765 201.513 229.16 200.201 229.16C199.391 229.16 198.665 228.984 198.025 228.632C197.396 228.28 196.9 227.768 196.537 227.096C196.175 226.413 195.993 225.587 195.993 224.616C195.993 223.165 196.372 222.051 197.129 221.272C197.887 220.493 198.927 220.104 200.249 220.104C201.071 220.104 201.796 220.28 202.425 220.632C203.055 220.984 203.551 221.496 203.913 222.168C204.276 222.829 204.457 223.645 204.457 224.616ZM198.425 224.616C198.425 225.48 198.564 226.136 198.841 226.584C199.129 227.021 199.593 227.24 200.233 227.24C200.863 227.24 201.316 227.021 201.593 226.584C201.881 226.136 202.025 225.48 202.025 224.616C202.025 223.752 201.881 223.107 201.593 222.68C201.316 222.243 200.857 222.024 200.217 222.024C199.588 222.024 199.129 222.243 198.841 222.68C198.564 223.107 198.425 223.752 198.425 224.616ZM211.292 220.104C212.273 220.104 213.068 220.488 213.676 221.256C214.284 222.013 214.588 223.133 214.588 224.616C214.588 226.099 214.273 227.229 213.644 228.008C213.014 228.776 212.209 229.16 211.228 229.16C210.598 229.16 210.097 229.048 209.724 228.824C209.35 228.589 209.046 228.328 208.812 228.04H208.684C208.769 228.488 208.812 228.915 208.812 229.32V232.84H206.428V220.264H208.364L208.7 221.4H208.812C209.046 221.048 209.361 220.744 209.756 220.488C210.15 220.232 210.662 220.104 211.292 220.104ZM210.524 222.008C209.905 222.008 209.468 222.2 209.212 222.584C208.966 222.968 208.833 223.555 208.812 224.344V224.6C208.812 225.443 208.934 226.093 209.18 226.552C209.436 227 209.894 227.224 210.556 227.224C211.1 227.224 211.5 227 211.756 226.552C212.022 226.093 212.156 225.437 212.156 224.584C212.156 222.867 211.612 222.008 210.524 222.008Z" fill="black"/>
<path d="M177.706 135.193H194.974C195.812 135.193 196.491 134.514 196.491 133.677C196.491 132.839 195.812 132.16 194.974 132.16H177.706C176.869 132.16 176.19 132.839 176.19 133.677C176.19 134.514 176.869 135.193 177.706 135.193Z" fill="black"/>
<path d="M177.706 141.641H194.974C195.812 141.641 196.491 140.962 196.491 140.124C196.491 139.287 195.812 138.608 194.974 138.608H177.706C176.869 138.608 176.19 139.287 176.19 140.124C176.19 140.962 176.869 141.641 177.706 141.641Z" fill="black"/>
<path d="M217.042 161.671L208.208 150.323V128.683C208.208 128.435 208.146 128.189 208.029 127.97C208 127.915 207.847 127.61 207.763 127.61L198.638 118.446C198.319 118.181 197.992 118 197.563 118H154.069C151.747 118 149.858 119.896 149.858 122.227V130.63C149.858 131.467 150.537 132.146 151.374 132.146C152.212 132.146 152.891 131.467 152.891 130.63V122.227C152.891 121.568 153.419 121.033 154.069 121.033H196.046V125.972C196.046 128.303 197.935 130.199 200.258 130.199H205.174V146.426L204.812 145.961C203.986 144.897 202.733 144.286 201.375 144.286C200.413 144.286 199.503 144.594 198.743 145.175L190.739 151.29C189.821 151.991 189.234 153.01 189.086 154.158C189.065 154.325 189.054 154.492 189.052 154.658C186.004 154.426 182.856 154.66 179.794 156.656L179.663 156.742L171.942 155.558C171.957 155.291 171.948 155.022 171.913 154.752C171.764 153.606 171.178 152.59 170.262 151.89L162.257 145.777C161.498 145.195 160.588 144.887 159.626 144.887C158.269 144.887 157.016 145.497 156.186 146.561L152.891 150.796V142.984C152.891 142.146 152.212 141.467 151.374 141.467C150.537 141.467 149.858 142.146 149.858 142.984V154.694L143.961 162.271C143.25 163.183 142.94 164.317 143.089 165.465C143.238 166.612 143.826 167.628 144.741 168.324L149.858 172.237V183.441C149.858 185.771 151.747 187.667 154.069 187.667H166.033C166.564 188.685 167.493 189.497 168.602 189.859C168.974 189.98 169.35 190.043 169.722 190.055C169.868 190.667 170.173 191.257 170.64 191.775C171.366 192.58 172.424 193.095 173.585 193.095C174.425 193.095 175.319 192.824 176.179 192.198L177.865 193.776C178.734 194.592 179.829 195 180.913 195C182.012 195 183.1 194.582 183.931 193.747C184.424 193.255 184.806 192.668 185.055 192.049C185.472 192.174 185.881 192.234 186.273 192.234C187.388 192.234 188.372 191.764 189.078 191.038C189.656 190.443 190.071 189.651 190.256 188.807C190.311 188.81 190.366 188.812 190.421 188.813C190.436 188.813 190.451 188.813 190.465 188.813C191.592 188.813 192.675 188.398 193.471 187.667H203.992C206.317 187.667 208.208 185.771 208.208 183.441V173.875C208.223 173.864 208.238 173.854 208.253 173.843L216.258 167.726C217.174 167.029 217.761 166.015 217.91 164.871C218.06 163.722 217.752 162.586 217.042 161.671ZM200.258 127.166C199.608 127.166 199.079 126.63 199.079 125.972V123.188L203.04 127.166H200.258ZM190.338 157.835L200.956 171.476C199.835 173.493 199.24 174.135 196.537 176.298L186.937 167.736L183.902 164.964C183.44 164.542 182.765 164.448 182.204 164.726L177.361 167.135C176.04 167.705 174.783 167.181 174.326 166.338C173.707 165.197 174.63 163.637 176.734 162.267L181.45 159.198C184.003 157.534 186.68 157.406 190.338 157.835ZM146.58 165.913C146.313 165.709 146.141 165.411 146.097 165.075C146.054 164.737 146.144 164.404 146.354 164.135L158.579 148.425C158.829 148.104 159.211 147.921 159.626 147.921C159.827 147.921 160.127 147.967 160.414 148.186L168.421 154.301C168.689 154.506 168.861 154.805 168.905 155.142C168.943 155.432 168.881 155.718 168.734 155.962C168.722 155.979 168.711 155.996 168.7 156.014C168.684 156.038 168.668 156.062 168.65 156.085L156.42 171.795C156.172 172.115 155.79 172.298 155.374 172.298C155.172 172.298 154.872 172.252 154.587 172.034L146.58 165.913ZM160.848 177.607C160.849 177.606 160.851 177.605 160.852 177.604L165.912 173.097C166.332 172.723 166.754 172.525 167.132 172.525C167.682 172.525 168.094 172.945 168.245 173.335C168.407 173.756 168.311 174.131 167.96 174.449L167.089 175.238C167.084 175.241 167.08 175.245 167.076 175.249C167.072 175.252 167.067 175.256 167.063 175.26C166.81 175.49 166.536 175.738 166.254 175.993L162.362 179.516C162.136 179.721 161.917 179.825 161.713 179.825C161.289 179.825 160.793 179.396 160.585 178.85C160.395 178.35 160.482 177.933 160.845 177.61L160.848 177.607ZM154.069 184.634C153.419 184.634 152.891 184.099 152.891 183.441V174.546C153.62 175.058 154.473 175.331 155.374 175.331C155.913 175.331 156.434 175.234 156.92 175.052L157.944 176.456C157.381 177.49 157.295 178.731 157.751 179.929C158.399 181.633 159.925 182.79 161.575 182.852C161.626 183.094 161.697 183.336 161.794 183.575C161.949 183.959 162.152 184.313 162.391 184.635H154.069V184.634ZM166.449 183.114C166.225 183.312 166.012 183.408 165.799 183.408C165.35 183.408 164.826 182.983 164.606 182.439C164.365 181.841 164.649 181.567 164.74 181.479C164.805 181.417 164.884 181.341 164.966 181.251C165.227 181.017 166.952 179.454 168.233 178.293L169.104 177.504C169.509 177.151 169.919 176.963 170.289 176.963C170.876 176.963 171.315 177.416 171.474 177.836C171.632 178.255 171.538 178.621 171.194 178.924L170.884 179.198C170.882 179.2 170.879 179.202 170.877 179.204C170.876 179.205 170.875 179.206 170.874 179.207L166.449 183.114ZM170.922 186.36C170.901 186.379 170.881 186.399 170.861 186.418L170.509 186.736C170.202 187.014 169.895 187.09 169.543 186.975C169.092 186.828 168.698 186.395 168.604 185.945C168.524 185.554 168.68 185.192 169.077 184.841L169.578 184.402C169.595 184.387 169.61 184.371 169.626 184.355L172.906 181.46C174.017 180.483 174.705 181.009 174.949 181.282C175.022 181.363 175.639 182.094 174.889 182.772L172.873 184.597C172.852 184.615 172.83 184.632 172.81 184.651C172.802 184.658 172.796 184.666 172.788 184.673L170.945 186.341C170.938 186.348 170.929 186.353 170.922 186.36ZM176.606 187.773L175.232 189.011C175.226 189.017 175.22 189.022 175.214 189.028L174.618 189.565C173.678 190.41 173.098 189.972 172.892 189.744C172.735 189.569 172.43 189.116 172.928 188.637L174.927 186.829C175.079 186.698 175.23 186.592 175.386 186.508C176.182 186.084 176.615 186.579 176.728 186.74C176.876 186.951 177.057 187.366 176.606 187.773ZM196.646 181.797C196.554 182.173 196.286 182.444 195.91 182.54C195.284 182.699 194.489 182.346 193.76 181.593C193.708 181.535 193.654 181.477 193.598 181.422L187.932 175.805C187.337 175.216 186.377 175.22 185.787 175.815C185.198 176.409 185.202 177.37 185.797 177.959L191.453 183.567C191.46 183.575 191.467 183.581 191.474 183.589C191.703 183.823 191.83 184.137 191.831 184.475C191.832 184.827 191.699 185.156 191.455 185.4C191.214 185.641 190.841 185.784 190.45 185.78C190.111 185.777 189.802 185.664 189.583 185.466C189.488 185.344 189.385 185.225 189.272 185.111L185.13 180.948C184.539 180.354 183.579 180.351 182.985 180.942C182.391 181.533 182.389 182.493 182.98 183.087L186.907 187.034C186.955 187.104 187.008 187.172 187.068 187.235L187.233 187.405C187.442 187.81 187.307 188.508 186.904 188.923C186.277 189.567 185.392 188.992 184.761 188.398L182.987 186.723C182.378 186.148 181.418 186.175 180.843 186.784C180.268 187.393 180.296 188.353 180.905 188.928L182.261 190.209C182.264 190.211 182.266 190.214 182.269 190.217C182.299 190.245 182.343 190.287 182.346 190.437C182.351 190.788 182.121 191.268 181.784 191.605C181.296 192.095 180.487 192.078 179.94 191.564L178.463 190.182L178.638 190.025C180.117 188.69 180.352 186.623 179.21 184.997C178.844 184.475 178.386 184.069 177.873 183.786C178.603 182.338 178.395 180.581 177.208 179.257C176.544 178.517 175.609 178.01 174.566 177.894C174.535 177.517 174.452 177.138 174.311 176.764C173.8 175.413 172.669 174.417 171.337 174.068C171.392 173.467 171.308 172.847 171.075 172.244C170.44 170.598 168.856 169.491 167.132 169.491C165.999 169.491 164.879 169.955 163.894 170.832L160.076 174.232L159.25 173.098L170.667 158.431L175.847 159.225L175.08 159.725C170.833 162.488 170.529 165.7 171.66 167.784C172.562 169.447 174.357 170.397 176.261 170.397C177.046 170.397 177.851 170.235 178.618 169.895C178.638 169.886 178.659 169.877 178.679 169.867L182.624 167.905L184.899 169.982C184.901 169.984 184.904 169.986 184.906 169.988C184.908 169.99 184.91 169.992 184.912 169.994L195.471 179.412C196.374 180.218 196.814 181.109 196.646 181.797ZM205.175 183.441C205.175 184.099 204.644 184.635 203.992 184.635L198.088 184.795C198.825 184.242 199.366 183.445 199.592 182.516C199.92 181.172 199.588 179.756 198.678 178.468C201.023 176.578 201.976 175.641 203.051 173.894C203.669 174.346 204.398 174.626 205.174 174.704V183.441H205.175ZM214.903 164.478C214.859 164.813 214.688 165.109 214.419 165.314L206.412 171.433C206.128 171.649 205.828 171.695 205.627 171.695C205.21 171.695 204.827 171.511 204.578 171.191L192.351 155.483C192.142 155.216 192.052 154.882 192.095 154.545C192.139 154.206 192.311 153.906 192.581 153.7L200.584 147.585C200.871 147.366 201.173 147.32 201.375 147.32C201.789 147.32 202.169 147.503 202.418 147.823L214.647 163.533C214.856 163.802 214.947 164.138 214.903 164.478Z" fill="black"/>
<path d="M151.374 138.151C152.212 138.151 152.891 137.472 152.891 136.634V136.604C152.891 135.767 152.212 135.088 151.374 135.088C150.537 135.088 149.858 135.767 149.858 136.604V136.634C149.858 137.472 150.536 138.151 151.374 138.151Z" fill="black"/>
<path d="M36.4877 342.272C36.4877 343.456 36.2904 344.491 35.8957 345.376C35.5117 346.251 34.9197 346.933 34.1197 347.424C33.3197 347.915 32.2957 348.16 31.0477 348.16C29.8104 348.16 28.7864 347.915 27.9757 347.424C27.1757 346.933 26.5784 346.245 26.1837 345.36C25.7997 344.475 25.6077 343.44 25.6077 342.256C25.6077 341.072 25.7997 340.043 26.1837 339.168C26.5784 338.293 27.1757 337.616 27.9757 337.136C28.7864 336.645 29.8157 336.4 31.0637 336.4C32.301 336.4 33.3197 336.645 34.1197 337.136C34.9197 337.616 35.5117 338.299 35.8957 339.184C36.2904 340.059 36.4877 341.088 36.4877 342.272ZM28.1517 342.272C28.1517 343.467 28.381 344.411 28.8397 345.104C29.2984 345.787 30.0344 346.128 31.0477 346.128C32.0824 346.128 32.8237 345.787 33.2717 345.104C33.7197 344.411 33.9437 343.467 33.9437 342.272C33.9437 341.067 33.7197 340.123 33.2717 339.44C32.8237 338.757 32.0877 338.416 31.0637 338.416C30.0397 338.416 29.2984 338.757 28.8397 339.44C28.381 340.123 28.1517 341.067 28.1517 342.272ZM46.5981 339.264V348H44.2141V341.056H41.0461V348H38.6621V339.264H46.5981ZM56.9236 348H54.5396V341.056H52.3476C52.2089 342.763 52.0222 344.139 51.7876 345.184C51.5636 346.219 51.2489 346.976 50.8436 347.456C50.4382 347.925 49.8942 348.16 49.2116 348.16C48.6569 348.16 48.2036 348.075 47.8516 347.904V346C48.0969 346.107 48.3529 346.16 48.6196 346.16C48.8116 346.16 48.9876 346.064 49.1476 345.872C49.3076 345.68 49.4569 345.333 49.5956 344.832C49.7449 344.331 49.8782 343.632 49.9956 342.736C50.1129 341.829 50.2196 340.672 50.3156 339.264H56.9236V348ZM62.9961 339.088C64.1694 339.088 65.0654 339.344 65.6841 339.856C66.3134 340.357 66.6281 341.131 66.6281 342.176V348H64.9641L64.5001 346.816H64.4361C64.0627 347.285 63.6681 347.627 63.2521 347.84C62.8361 348.053 62.2654 348.16 61.5401 348.16C60.7614 348.16 60.1161 347.936 59.6041 347.488C59.0921 347.029 58.8361 346.331 58.8361 345.392C58.8361 344.464 59.1614 343.781 59.8121 343.344C60.4627 342.896 61.4387 342.651 62.7401 342.608L64.2601 342.56V342.176C64.2601 341.717 64.1374 341.381 63.8921 341.168C63.6574 340.955 63.3267 340.848 62.9001 340.848C62.4734 340.848 62.0574 340.912 61.6521 341.04C61.2467 341.157 60.8414 341.307 60.4361 341.488L59.6521 339.872C60.1214 339.627 60.6387 339.435 61.2041 339.296C61.7801 339.157 62.3774 339.088 62.9961 339.088ZM64.2601 343.952L63.3321 343.984C62.5641 344.005 62.0307 344.144 61.7321 344.4C61.4334 344.656 61.2841 344.992 61.2841 345.408C61.2841 345.771 61.3907 346.032 61.6041 346.192C61.8174 346.341 62.0947 346.416 62.4361 346.416C62.9481 346.416 63.3801 346.267 63.7321 345.968C64.0841 345.659 64.2601 345.227 64.2601 344.672V343.952ZM76.3003 341.056H73.4363V348H71.0523V341.056H68.1883V339.264H76.3003V341.056ZM81.4961 339.088C82.6694 339.088 83.5654 339.344 84.1841 339.856C84.8134 340.357 85.1281 341.131 85.1281 342.176V348H83.4641L83.0001 346.816H82.9361C82.5627 347.285 82.1681 347.627 81.7521 347.84C81.3361 348.053 80.7654 348.16 80.0401 348.16C79.2614 348.16 78.6161 347.936 78.1041 347.488C77.5921 347.029 77.3361 346.331 77.3361 345.392C77.3361 344.464 77.6614 343.781 78.3121 343.344C78.9627 342.896 79.9387 342.651 81.2401 342.608L82.7601 342.56V342.176C82.7601 341.717 82.6374 341.381 82.3921 341.168C82.1574 340.955 81.8267 340.848 81.4001 340.848C80.9734 340.848 80.5574 340.912 80.1521 341.04C79.7467 341.157 79.3414 341.307 78.9361 341.488L78.1521 339.872C78.6214 339.627 79.1387 339.435 79.7041 339.296C80.2801 339.157 80.8774 339.088 81.4961 339.088ZM82.7601 343.952L81.8321 343.984C81.0641 344.005 80.5307 344.144 80.2321 344.4C79.9334 344.656 79.7841 344.992 79.7841 345.408C79.7841 345.771 79.8907 346.032 80.1041 346.192C80.3174 346.341 80.5947 346.416 80.9361 346.416C81.4481 346.416 81.8801 346.267 82.2321 345.968C82.5841 345.659 82.7601 345.227 82.7601 344.672V343.952Z" fill="black"/>
<g clip-path="url(#clip0)">
<path d="M41.9499 295.938C41.9304 295.842 41.9018 295.747 41.8642 295.656C41.8266 295.565 41.78 295.478 41.7258 295.397C41.6717 295.314 41.6085 295.238 41.5393 295.168C41.4702 295.099 41.3935 295.036 41.3107 294.982C41.2295 294.928 41.1423 294.881 41.0506 294.844C40.9603 294.806 40.8656 294.776 40.7693 294.758C40.5753 294.719 40.3753 294.719 40.1828 294.758C40.0866 294.776 39.9918 294.806 39.9001 294.844C39.8098 294.881 39.7226 294.928 39.6414 294.982C39.5587 295.036 39.482 295.099 39.4128 295.168C39.3436 295.238 39.2805 295.314 39.2263 295.397C39.1707 295.478 39.1256 295.565 39.088 295.656C39.0504 295.747 39.0203 295.842 39.0022 295.938C38.9827 296.035 38.9722 296.134 38.9722 296.232C38.9722 296.329 38.9827 296.429 39.0022 296.525C39.0203 296.621 39.0504 296.716 39.088 296.806C39.1256 296.898 39.1707 296.985 39.2263 297.066C39.2805 297.149 39.3436 297.226 39.4128 297.295C39.482 297.364 39.5587 297.427 39.6414 297.481C39.7226 297.536 39.8098 297.582 39.9001 297.62C39.9918 297.658 40.0866 297.688 40.1828 297.706C40.2791 297.725 40.3783 297.736 40.4761 297.736C40.5738 297.736 40.6731 297.725 40.7693 297.706C40.8656 297.688 40.9603 297.658 41.0506 297.62C41.1423 297.582 41.2295 297.536 41.3107 297.481C41.3935 297.427 41.4702 297.364 41.5393 297.295C41.6085 297.226 41.6717 297.149 41.7258 297.066C41.78 296.985 41.8266 296.898 41.8642 296.806C41.9018 296.716 41.9304 296.621 41.9499 296.525C41.9695 296.429 41.98 296.329 41.98 296.232C41.98 296.134 41.9695 296.035 41.9499 295.938Z" fill="black"/>
<path d="M85.1786 296.402C85.1728 296.387 85.1668 296.372 85.1605 296.357C83.7763 293.118 80.5299 291.921 76.688 293.233L66.2106 296.13C65.6049 294.296 64.0939 292.735 61.9574 291.942C61.9442 291.937 61.931 291.932 61.9176 291.928L50.4005 288.019C49.4419 286.78 46.4392 283.609 40.8172 283.609C36.8882 283.609 33.4125 286.305 31.4241 289.243H17.5039C16.6733 289.243 16 289.916 16 290.746V309.707C16 310.538 16.6733 311.211 17.5039 311.211H26.4457C27.2763 311.211 27.9496 310.538 27.9496 309.707V308.409H32.1429C32.9735 308.409 33.6468 307.735 33.6468 306.905V306.472C36.0913 306.685 36.8953 307.149 39.1403 308.444C40.8668 309.439 43.4762 310.944 48.1753 313.057C48.1971 313.066 48.2192 313.076 48.2414 313.084C49.1432 313.439 50.9063 313.997 53.0799 313.997C54.5928 313.997 56.305 313.726 58.0625 312.93L81.2213 304.638C81.2625 304.623 81.3031 304.606 81.3428 304.588C83.5561 303.57 86.8543 300.7 85.1786 296.402ZM24.9418 308.203H19.0078V292.25H24.9418V308.203ZM30.639 305.401H27.9496V292.25H30.639V305.401ZM80.141 301.83L56.9926 310.118C56.9723 310.125 56.9448 310.136 56.9248 310.144C56.9044 310.152 56.8842 310.161 56.8641 310.17C53.6402 311.652 50.5757 310.765 49.3747 310.298C44.8356 308.255 42.413 306.858 40.6429 305.838C38.1819 304.418 36.996 303.735 33.6468 303.458V291.345C35.0724 289.009 37.8369 286.617 40.8173 286.617C45.9285 286.617 48.0943 289.941 48.1794 290.076C48.363 290.374 48.6453 290.599 48.9772 290.712L60.9295 294.769C62.8384 295.485 63.8472 297.12 63.3836 298.75C63.1696 299.503 62.6751 300.127 61.9914 300.508C61.3136 300.886 60.5301 300.979 59.7832 300.773L46.3093 296.503C45.517 296.252 44.6721 296.69 44.4213 297.482C44.1703 298.274 44.6088 299.119 45.4006 299.37L58.898 303.647C58.9123 303.652 58.9266 303.656 58.941 303.66C59.4799 303.814 60.0285 303.889 60.5738 303.889C61.5721 303.889 62.5594 303.635 63.4555 303.136C64.841 302.364 65.8429 301.098 66.2766 299.573C66.3112 299.451 66.3419 299.329 66.3685 299.207L77.6603 296.079C79.2912 295.522 81.432 295.321 82.3851 297.517C83.3717 300.094 80.8075 301.512 80.141 301.83Z" fill="black"/>
<path d="M69.9992 256.783C69.9797 256.687 69.9511 256.592 69.912 256.5C69.8744 256.41 69.8293 256.323 69.7737 256.241C69.7195 256.159 69.6563 256.082 69.5872 256.013C69.518 255.944 69.4413 255.88 69.3586 255.826C69.2774 255.772 69.1901 255.726 69.0999 255.688C69.0082 255.65 68.9134 255.62 68.8187 255.602C68.6247 255.563 68.4246 255.563 68.2306 255.602C68.1344 255.62 68.0396 255.65 67.9494 255.688C67.8577 255.726 67.7705 255.772 67.6892 255.826C67.6065 255.88 67.5298 255.944 67.4606 256.013C67.3915 256.082 67.3283 256.159 67.2742 256.241C67.22 256.323 67.1734 256.41 67.1358 256.5C67.0982 256.592 67.0681 256.687 67.0501 256.783C67.0305 256.879 67.02 256.978 67.02 257.076C67.02 257.174 67.0305 257.273 67.0501 257.369C67.0681 257.466 67.0982 257.56 67.1358 257.651C67.1734 257.742 67.22 257.83 67.2742 257.911C67.3283 257.993 67.3915 258.07 67.4606 258.139C67.5298 258.209 67.6065 258.272 67.6892 258.326C67.7705 258.38 67.8577 258.427 67.9494 258.464C68.0396 258.502 68.1344 258.53 68.2306 258.55C68.3269 258.569 68.4262 258.58 68.5239 258.58C68.6217 258.58 68.7209 258.569 68.8187 258.55C68.9134 258.53 69.0082 258.502 69.0999 258.464C69.1901 258.427 69.2774 258.38 69.3586 258.326C69.4413 258.272 69.518 258.209 69.5872 258.139C69.6563 258.07 69.7195 257.993 69.7737 257.911C69.8293 257.83 69.8744 257.742 69.912 257.651C69.9511 257.56 69.9797 257.466 69.9992 257.369C70.0188 257.273 70.0278 257.174 70.0278 257.076C70.0278 256.978 70.0188 256.879 69.9992 256.783Z" fill="black"/>
<path d="M91.4961 242.097H82.5543C81.7237 242.097 81.0504 242.77 81.0504 243.601V244.899H76.8571C76.0265 244.899 75.3532 245.573 75.3532 246.403V246.836C72.9087 246.623 72.1048 246.159 69.8599 244.865C68.1334 243.869 65.524 242.364 60.8247 240.251C60.8029 240.242 60.7809 240.232 60.7585 240.224C59.2289 239.622 55.2199 238.438 50.9382 240.378L44.8865 242.545L39.7854 237.444C39.1981 236.857 38.2458 236.857 37.6585 237.444L20.9113 254.191C20.3696 254.733 20.2657 255.672 20.9113 256.318L49.5287 284.935C49.9867 285.393 51.0589 285.532 51.6557 284.935L66.9452 269.646C67.3426 269.68 67.7551 269.699 68.1827 269.699C72.1118 269.699 75.5873 267.004 77.5757 264.066H91.4961C92.3267 264.066 93 263.392 93 262.562V243.601C93 242.77 92.3267 242.097 91.4961 242.097ZM38.7218 240.634L42.1495 244.062C41.1306 244.692 39.9526 245.029 38.7218 245.029C37.4908 245.029 36.313 244.692 35.2941 244.062L38.7218 240.634ZM27.5294 258.682L24.1017 255.254L27.5294 251.827C28.1596 252.846 28.4967 254.024 28.4967 255.254C28.4967 256.485 28.1597 257.663 27.5294 258.682ZM50.5923 281.745L47.1652 278.318C49.2576 277.027 51.9267 277.027 54.0192 278.318L50.5923 281.745ZM56.1861 276.151C52.8627 273.741 48.3218 273.741 44.9985 276.151L29.6961 260.849C30.8705 259.234 31.5045 257.293 31.5045 255.254C31.5045 253.215 30.8707 251.275 29.6961 249.66L33.1276 246.229C34.7428 247.403 36.6828 248.037 38.7219 248.037C40.7611 248.037 42.7011 247.403 44.3163 246.229L47.5691 249.482C46.8673 249.585 46.1828 249.816 45.5446 250.172C44.4666 250.773 43.6208 251.672 43.0941 252.76C41.3977 253.075 39.8272 253.896 38.5952 255.128C35.2527 258.47 35.2527 263.909 38.5953 267.252C40.2665 268.923 42.4617 269.758 44.6571 269.758C46.8524 269.758 49.0478 268.923 50.7191 267.252C51.8064 266.164 52.5681 264.828 52.9496 263.371L58.0274 265.095C57.4558 267.743 58.0413 270.529 59.6205 272.717L56.1861 276.151ZM47.0426 261.366C47.0558 261.371 47.0691 261.376 47.0825 261.38L50.0897 262.401C49.8626 263.426 49.3487 264.368 48.5922 265.125C46.4224 267.294 42.8918 267.295 40.7223 265.125C38.5525 262.955 38.5525 259.425 40.7223 257.255C41.2456 256.731 41.8633 256.322 42.5363 256.044C42.8139 258.355 44.4774 260.414 47.0426 261.366ZM61.7875 270.55C61.207 269.604 60.8785 268.524 60.8267 267.422C61.547 267.943 62.4274 268.453 63.4789 268.858L61.7875 270.55ZM75.353 261.962C73.9276 264.299 71.1632 266.691 68.1827 266.691C67.6251 266.691 67.1025 266.651 66.6138 266.58C66.6119 266.58 66.6099 266.58 66.608 266.579C63.3601 266.108 61.613 264.262 61.0372 263.531C61.0065 263.486 60.8758 263.315 60.8564 263.286C60.6812 262.973 60.394 262.721 60.0276 262.597L48.0704 258.539C46.1622 257.823 45.1535 256.189 45.6158 254.559C45.6161 254.558 45.6165 254.557 45.6168 254.556C45.6172 254.555 45.6175 254.553 45.6178 254.552C45.8327 253.802 46.3263 253.179 47.0085 252.799C47.6861 252.421 48.4695 252.328 49.2167 252.535L62.6906 256.805C63.4826 257.056 64.3278 256.617 64.5786 255.825C64.8295 255.033 64.3911 254.188 63.5993 253.937L52.8832 250.541L52.7896 250.448C52.7887 250.447 52.7878 250.446 52.7868 250.445L47.2389 244.897L52.0075 243.19C52.0235 243.184 52.0434 243.176 52.0593 243.17C52.0634 243.168 52.0712 243.165 52.0751 243.164C52.0956 243.155 52.1157 243.147 52.1357 243.137C55.3595 241.656 58.4239 242.543 59.625 243.01C64.1643 245.052 66.5871 246.449 68.3572 247.47C70.8182 248.889 72.004 249.573 75.353 249.85V261.962ZM81.0504 261.058H78.361V247.907H81.0504V261.058ZM89.9922 261.058H84.0583V245.105H89.9922V261.058Z" fill="black"/>
</g>
<path d="M148.65 442.576V451.984H150.17V457.328H147.834V454H140.682V457.328H138.346V451.984H139.226C139.631 451.184 140.01 450.331 140.362 449.424C140.714 448.507 141.028 447.488 141.306 446.368C141.594 445.248 141.823 443.984 141.994 442.576H148.65ZM146.234 444.592H143.914C143.818 445.328 143.663 446.128 143.45 446.992C143.247 447.845 143.002 448.704 142.714 449.568C142.426 450.421 142.111 451.227 141.77 451.984H146.234V444.592ZM159.668 449.616C159.668 451.067 159.284 452.187 158.516 452.976C157.759 453.765 156.724 454.16 155.412 454.16C154.602 454.16 153.876 453.984 153.236 453.632C152.607 453.28 152.111 452.768 151.748 452.096C151.386 451.413 151.204 450.587 151.204 449.616C151.204 448.165 151.583 447.051 152.34 446.272C153.098 445.493 154.138 445.104 155.46 445.104C156.282 445.104 157.007 445.28 157.636 445.632C158.266 445.984 158.762 446.496 159.124 447.168C159.487 447.829 159.668 448.645 159.668 449.616ZM153.636 449.616C153.636 450.48 153.775 451.136 154.052 451.584C154.34 452.021 154.804 452.24 155.444 452.24C156.074 452.24 156.527 452.021 156.804 451.584C157.092 451.136 157.236 450.48 157.236 449.616C157.236 448.752 157.092 448.107 156.804 447.68C156.527 447.243 156.068 447.024 155.428 447.024C154.799 447.024 154.34 447.243 154.052 447.68C153.775 448.107 153.636 448.752 153.636 449.616ZM165.191 454.16C163.889 454.16 162.881 453.803 162.167 453.088C161.463 452.363 161.111 451.227 161.111 449.68C161.111 448.613 161.292 447.744 161.655 447.072C162.017 446.4 162.519 445.904 163.159 445.584C163.809 445.264 164.556 445.104 165.399 445.104C165.996 445.104 166.513 445.163 166.951 445.28C167.399 445.397 167.788 445.536 168.119 445.696L167.415 447.536C167.041 447.387 166.689 447.264 166.359 447.168C166.039 447.072 165.719 447.024 165.399 447.024C164.161 447.024 163.543 447.904 163.543 449.664C163.543 450.539 163.703 451.184 164.023 451.6C164.353 452.016 164.812 452.224 165.399 452.224C165.9 452.224 166.343 452.16 166.727 452.032C167.111 451.893 167.484 451.707 167.847 451.472V453.504C167.484 453.739 167.1 453.904 166.695 454C166.3 454.107 165.799 454.16 165.191 454.16ZM177.089 447.056H174.225V454H171.841V447.056H168.977V445.264H177.089V447.056ZM182.285 445.088C183.458 445.088 184.354 445.344 184.973 445.856C185.602 446.357 185.917 447.131 185.917 448.176V454H184.253L183.789 452.816H183.725C183.352 453.285 182.957 453.627 182.541 453.84C182.125 454.053 181.554 454.16 180.829 454.16C180.05 454.16 179.405 453.936 178.893 453.488C178.381 453.029 178.125 452.331 178.125 451.392C178.125 450.464 178.45 449.781 179.101 449.344C179.752 448.896 180.728 448.651 182.029 448.608L183.549 448.56V448.176C183.549 447.717 183.426 447.381 183.181 447.168C182.946 446.955 182.616 446.848 182.189 446.848C181.762 446.848 181.346 446.912 180.941 447.04C180.536 447.157 180.13 447.307 179.725 447.488L178.941 445.872C179.41 445.627 179.928 445.435 180.493 445.296C181.069 445.157 181.666 445.088 182.285 445.088ZM183.549 449.952L182.621 449.984C181.853 450.005 181.32 450.144 181.021 450.4C180.722 450.656 180.573 450.992 180.573 451.408C180.573 451.771 180.68 452.032 180.893 452.192C181.106 452.341 181.384 452.416 181.725 452.416C182.237 452.416 182.669 452.267 183.021 451.968C183.373 451.659 183.549 451.227 183.549 450.672V449.952ZM196.101 447.552C196.101 448.021 195.952 448.421 195.653 448.752C195.365 449.083 194.933 449.296 194.357 449.392V449.456C194.965 449.531 195.451 449.739 195.813 450.08C196.187 450.421 196.373 450.859 196.373 451.392C196.373 451.893 196.24 452.341 195.973 452.736C195.717 453.131 195.307 453.44 194.741 453.664C194.176 453.888 193.435 454 192.517 454H188.357V445.264H192.517C193.2 445.264 193.808 445.339 194.341 445.488C194.885 445.627 195.312 445.861 195.621 446.192C195.941 446.523 196.101 446.976 196.101 447.552ZM193.685 447.744C193.685 447.211 193.264 446.944 192.421 446.944H190.741V448.672H192.149C192.651 448.672 193.029 448.603 193.285 448.464C193.552 448.315 193.685 448.075 193.685 447.744ZM193.909 451.264C193.909 450.923 193.776 450.677 193.509 450.528C193.243 450.368 192.843 450.288 192.309 450.288H190.741V452.352H192.357C192.805 452.352 193.173 452.272 193.461 452.112C193.76 451.941 193.909 451.659 193.909 451.264ZM204.148 445.264H206.772L203.316 449.456L207.076 454H204.372L200.804 449.568V454H198.42V445.264H200.804V449.504L204.148 445.264ZM211.91 445.088C213.083 445.088 213.979 445.344 214.598 445.856C215.227 446.357 215.542 447.131 215.542 448.176V454H213.878L213.414 452.816H213.35C212.977 453.285 212.582 453.627 212.166 453.84C211.75 454.053 211.179 454.16 210.454 454.16C209.675 454.16 209.03 453.936 208.518 453.488C208.006 453.029 207.75 452.331 207.75 451.392C207.75 450.464 208.075 449.781 208.726 449.344C209.377 448.896 210.353 448.651 211.654 448.608L213.174 448.56V448.176C213.174 447.717 213.051 447.381 212.806 447.168C212.571 446.955 212.241 446.848 211.814 446.848C211.387 446.848 210.971 446.912 210.566 447.04C210.161 447.157 209.755 447.307 209.35 447.488L208.566 445.872C209.035 445.627 209.553 445.435 210.118 445.296C210.694 445.157 211.291 445.088 211.91 445.088ZM213.174 449.952L212.246 449.984C211.478 450.005 210.945 450.144 210.646 450.4C210.347 450.656 210.198 450.992 210.198 451.408C210.198 451.771 210.305 452.032 210.518 452.192C210.731 452.341 211.009 452.416 211.35 452.416C211.862 452.416 212.294 452.267 212.646 451.968C212.998 451.659 213.174 451.227 213.174 450.672V449.952Z" fill="black"/>
<g clip-path="url(#clip1)">
<path fill-rule="evenodd" clip-rule="evenodd" d="M198.264 402.017C200.462 402.017 202.452 402.908 203.893 404.349C204.983 405.439 205.758 406.845 206.071 408.416H210.445C210.977 408.416 211.466 408.341 211.905 408.201C212.793 407.918 213.539 407.374 214.063 406.667C214.58 405.969 214.878 405.103 214.878 404.162C214.878 403.683 214.806 403.196 214.653 402.714L212.353 395.497H203.768C202.906 395.497 202.207 394.798 202.207 393.935C202.207 393.074 202.906 392.375 203.768 392.375H211.358L210.694 390.29C210.236 388.852 209.632 387.495 208.796 386.533C208.091 385.722 207.182 385.199 205.993 385.199H199.825V398.192C199.825 399.055 199.126 399.754 198.264 399.754C197.402 399.754 196.703 399.055 196.703 398.192V378.784C196.703 377.514 196.182 376.359 195.344 375.52C194.506 374.682 193.35 374.161 192.081 374.161H154.085C152.816 374.161 151.66 374.682 150.822 375.52C149.983 376.359 149.463 377.514 149.463 378.784V379.393H164.918C165.78 379.393 166.479 380.092 166.479 380.954C166.479 381.816 165.78 382.515 164.918 382.515H149.462V394.991H164.917C165.78 394.991 166.479 395.69 166.479 396.552C166.479 397.414 165.78 398.113 164.917 398.113H149.462V403.795C149.462 405.064 149.983 406.219 150.822 407.058C151.66 407.896 152.815 408.416 154.085 408.416H156.789C157.101 406.845 157.877 405.439 158.967 404.349C160.407 402.908 162.398 402.017 164.596 402.017C166.794 402.017 168.784 402.908 170.225 404.349C171.315 405.439 172.09 406.845 172.403 408.416H190.456C190.769 406.845 191.544 405.439 192.635 404.349C194.076 402.908 196.065 402.017 198.264 402.017ZM170.991 395.048C171.821 395.048 172.494 395.721 172.494 396.552C172.494 397.383 171.821 398.056 170.991 398.056C170.16 398.056 169.487 397.383 169.487 396.552C169.487 395.721 170.16 395.048 170.991 395.048ZM170.991 379.45C171.821 379.45 172.494 380.124 172.494 380.954C172.494 381.784 171.821 382.458 170.991 382.458C170.16 382.458 169.487 381.784 169.487 380.954C169.487 380.124 170.16 379.45 170.991 379.45ZM142.561 382.515C141.699 382.515 141 381.816 141 380.954C141 380.092 141.699 379.393 142.561 379.393H146.341V378.783C146.341 376.652 147.211 374.715 148.614 373.313C150.017 371.91 151.954 371.039 154.085 371.039H192.081C194.212 371.039 196.148 371.91 197.551 373.313C198.954 374.716 199.825 376.652 199.825 378.783V382.076H205.993C208.203 382.076 209.871 383.025 211.149 384.495C212.296 385.815 213.084 387.55 213.657 389.351C214.977 393.493 216.296 397.634 217.616 401.775C217.877 402.595 218 403.397 218 404.162C218 405.782 217.475 407.29 216.564 408.52C215.66 409.74 214.374 410.677 212.844 411.165C212.082 411.407 211.276 411.539 210.445 411.539H206.071C205.758 413.11 204.983 414.516 203.893 415.606C202.452 417.047 200.462 417.938 198.264 417.938C196.066 417.938 194.076 417.047 192.635 415.606C191.545 414.516 190.769 413.11 190.456 411.539H172.403C172.091 413.11 171.315 414.516 170.225 415.606C168.784 417.047 166.794 417.938 164.596 417.938C162.398 417.938 160.408 417.047 158.967 415.606C157.877 414.516 157.101 413.11 156.789 411.539H154.085C151.954 411.539 150.017 410.668 148.614 409.265C147.211 407.862 146.341 405.926 146.341 403.794V398.113H142.561C141.699 398.113 141 397.414 141 396.552C141 395.69 141.699 394.991 142.561 394.991H146.341V382.515H142.561ZM154.604 390.314C153.742 390.314 153.043 389.615 153.043 388.753C153.043 387.89 153.741 387.191 154.604 387.191H176.96C177.823 387.191 178.522 387.89 178.522 388.753C178.522 389.615 177.823 390.314 176.96 390.314H154.604ZM208.55 405.97C207.688 405.97 206.989 405.271 206.989 404.408C206.989 403.546 207.688 402.847 208.55 402.847H211.012C211.874 402.847 212.573 403.546 212.573 404.408C212.573 405.271 211.874 405.97 211.012 405.97H208.55ZM198.25 411.539C197.388 411.539 196.689 410.84 196.689 409.977C196.689 409.116 197.388 408.416 198.25 408.416C199.12 408.416 199.825 409.104 199.825 409.977C199.825 410.851 199.12 411.539 198.25 411.539ZM164.596 411.539C163.734 411.539 163.035 410.84 163.035 409.977C163.035 409.116 163.734 408.416 164.596 408.416C165.466 408.416 166.171 409.104 166.171 409.977C166.171 410.851 165.466 411.539 164.596 411.539ZM168.017 406.557C168.893 407.432 169.434 408.641 169.434 409.978C169.434 411.314 168.893 412.524 168.017 413.399C167.142 414.275 165.932 414.816 164.596 414.816C163.26 414.816 162.05 414.275 161.175 413.399C160.299 412.524 159.758 411.314 159.758 409.978C159.758 408.641 160.299 407.432 161.175 406.557C162.05 405.681 163.26 405.14 164.596 405.14C165.932 405.14 167.142 405.681 168.017 406.557ZM201.685 406.557C202.56 407.432 203.102 408.641 203.102 409.978C203.102 411.314 202.56 412.524 201.685 413.399C200.81 414.275 199.6 414.816 198.264 414.816C196.928 414.816 195.718 414.275 194.842 413.399C193.967 412.524 193.425 411.314 193.425 409.978C193.425 408.641 193.967 407.432 194.842 406.557C195.718 405.681 196.928 405.14 198.264 405.14C199.6 405.14 200.81 405.681 201.685 406.557Z" fill="black"/>
</g>
<path d="M111 38C181 38 181 38 181 108" stroke="black" stroke-width="2" stroke-dasharray="8 4"/>
<path d="M125 157C55 157 55 157 55 227" stroke="black" stroke-width="2" stroke-dasharray="8 4"/>
<path d="M111 276C181 276 181 276 181 346" stroke="black" stroke-width="2" stroke-dasharray="8 4"/>
<defs>
<clipPath id="clip0">
<rect x="16" y="237" width="77" height="77" fill="white"/>
</clipPath>
<clipPath id="clip1">
<rect x="141" y="356" width="77" height="77" fill="white"/>
</clipPath>
</defs>
</svg>
