<svg width="476" height="75" viewBox="0 0 476 75" fill="none" xmlns="http://www.w3.org/2000/svg">
<path d="M73 25L132 25" stroke="black" stroke-width="2" stroke-dasharray="8 4"/>
<path d="M208 25L268 25" stroke="black" stroke-width="2" stroke-dasharray="8 4"/>
<path d="M344 25L403 25" stroke="black" stroke-width="2" stroke-dasharray="8 4"/>
<path d="M33.0469 42.5781C32.5079 42.5781 32.0703 43.0157 32.0703 43.5547C32.0703 44.0937 32.5079 44.5312 33.0469 44.5312C33.5859 44.5312 34.0234 44.0937 34.0234 43.5547C34.0234 43.0157 33.5859 42.5781 33.0469 42.5781Z" fill="black"/>
<path d="M57.0703 7.42189H30.1172V6.44533C30.1172 3.75292 27.9268 1.56252 25.2344 1.56252H21.3281C18.6357 1.56252 16.4453 3.75292 16.4453 6.44533V7.42189H12.9297C11.3142 7.42189 10 8.73606 10 10.3516V45.5078C10 47.1234 11.3142 48.4375 12.9297 48.4375H57.0703C58.6858 48.4375 60 47.1234 60 45.5078V10.3516C60 8.73606 58.6858 7.42189 57.0703 7.42189ZM18.3984 6.44533C18.3984 4.8298 19.7126 3.51564 21.3281 3.51564H25.2344C26.8499 3.51564 28.1641 4.8298 28.1641 6.44533V39.6485C28.1641 41.264 26.8499 42.5782 25.2344 42.5782H21.3281C19.7126 42.5782 18.3984 41.264 18.3984 39.6485V6.44533ZM58.0469 45.5078C58.0469 46.0465 57.6089 46.4844 57.0703 46.4844H12.9297C12.3911 46.4844 11.9531 46.0465 11.9531 45.5078V10.3516C11.9531 9.81295 12.3911 9.37502 12.9297 9.37502H16.4453V39.6485C16.4453 42.3409 18.6357 44.5313 21.3281 44.5313H25.2344C27.9268 44.5313 30.1172 42.3409 30.1172 39.6485V9.37502H57.0703C57.6089 9.37502 58.0469 9.81295 58.0469 10.3516V45.5078Z" fill="black"/>
<path d="M52.5781 11.3281H33.0469C32.5075 11.3281 32.0703 11.7653 32.0703 12.3047V16.2109C32.0703 16.7503 32.5075 17.1875 33.0469 17.1875H52.5781C53.1175 17.1875 53.5547 16.7503 53.5547 16.2109V12.3047C53.5547 11.7653 53.1175 11.3281 52.5781 11.3281ZM51.6016 15.2344H34.0234V13.2812H51.6016V15.2344Z" fill="black"/>
<path d="M35 25C36.6155 25 37.9297 23.6859 37.9297 22.0703C37.9297 20.4548 36.6155 19.1406 35 19.1406C33.3845 19.1406 32.0703 20.4548 32.0703 22.0703C32.0703 23.6859 33.3845 25 35 25ZM35 21.0938C35.5386 21.0938 35.9766 21.5317 35.9766 22.0703C35.9766 22.609 35.5386 23.0469 35 23.0469C34.4614 23.0469 34.0234 22.609 34.0234 22.0703C34.0234 21.5317 34.4614 21.0938 35 21.0938Z" fill="black"/>
<path d="M42.8125 25C44.428 25 45.7422 23.6859 45.7422 22.0703C45.7422 20.4548 44.428 19.1406 42.8125 19.1406C41.197 19.1406 39.8828 20.4548 39.8828 22.0703C39.8828 23.6859 41.197 25 42.8125 25ZM42.8125 21.0938C43.3511 21.0938 43.7891 21.5317 43.7891 22.0703C43.7891 22.609 43.3511 23.0469 42.8125 23.0469C42.2739 23.0469 41.8359 22.609 41.8359 22.0703C41.8359 21.5317 42.2739 21.0938 42.8125 21.0938Z" fill="black"/>
<path d="M50.625 19.1406C49.0095 19.1406 47.6953 20.4548 47.6953 22.0703C47.6953 23.6859 49.0095 25 50.625 25C52.2405 25 53.5547 23.6859 53.5547 22.0703C53.5547 20.4548 52.2405 19.1406 50.625 19.1406ZM50.625 23.0469C50.0864 23.0469 49.6484 22.609 49.6484 22.0703C49.6484 21.5317 50.0864 21.0938 50.625 21.0938C51.1636 21.0938 51.6016 21.5317 51.6016 22.0703C51.6016 22.609 51.1636 23.0469 50.625 23.0469Z" fill="black"/>
<path d="M35 32.8125C36.6155 32.8125 37.9297 31.4983 37.9297 29.8828C37.9297 28.2673 36.6155 26.9531 35 26.9531C33.3845 26.9531 32.0703 28.2673 32.0703 29.8828C32.0703 31.4983 33.3845 32.8125 35 32.8125ZM35 28.9062C35.5386 28.9062 35.9766 29.3442 35.9766 29.8828C35.9766 30.4214 35.5386 30.8594 35 30.8594C34.4614 30.8594 34.0234 30.4214 34.0234 29.8828C34.0234 29.3442 34.4614 28.9062 35 28.9062Z" fill="black"/>
<path d="M42.8125 32.8125C44.428 32.8125 45.7422 31.4983 45.7422 29.8828C45.7422 28.2673 44.428 26.9531 42.8125 26.9531C41.197 26.9531 39.8828 28.2673 39.8828 29.8828C39.8828 31.4983 41.197 32.8125 42.8125 32.8125ZM42.8125 28.9062C43.3511 28.9062 43.7891 29.3442 43.7891 29.8828C43.7891 30.4214 43.3511 30.8594 42.8125 30.8594C42.2739 30.8594 41.8359 30.4214 41.8359 29.8828C41.8359 29.3442 42.2739 28.9062 42.8125 28.9062Z" fill="black"/>
<path d="M50.625 26.9531C49.0095 26.9531 47.6953 28.2673 47.6953 29.8828C47.6953 31.4983 49.0095 32.8125 50.625 32.8125C52.2405 32.8125 53.5547 31.4983 53.5547 29.8828C53.5547 28.2673 52.2405 26.9531 50.625 26.9531ZM50.625 30.8594C50.0864 30.8594 49.6484 30.4214 49.6484 29.8828C49.6484 29.3442 50.0864 28.9062 50.625 28.9062C51.1636 28.9062 51.6016 29.3442 51.6016 29.8828C51.6016 30.4214 51.1636 30.8594 50.625 30.8594Z" fill="black"/>
<path d="M37.9297 37.6953C37.9297 36.0798 36.6155 34.7656 35 34.7656C33.3845 34.7656 32.0703 36.0798 32.0703 37.6953C32.0703 39.3108 33.3845 40.625 35 40.625C36.6155 40.625 37.9297 39.3108 37.9297 37.6953ZM35 38.6719C34.4614 38.6719 34.0234 38.2339 34.0234 37.6953C34.0234 37.1567 34.4614 36.7187 35 36.7187C35.5386 36.7187 35.9766 37.1567 35.9766 37.6953C35.9766 38.2339 35.5386 38.6719 35 38.6719Z" fill="black"/>
<path d="M42.8125 40.625C44.428 40.625 45.7422 39.3108 45.7422 37.6953C45.7422 36.0798 44.428 34.7656 42.8125 34.7656C41.197 34.7656 39.8828 36.0798 39.8828 37.6953C39.8828 39.3108 41.197 40.625 42.8125 40.625ZM42.8125 36.7187C43.3511 36.7187 43.7891 37.1567 43.7891 37.6953C43.7891 38.2339 43.3511 38.6719 42.8125 38.6719C42.2739 38.6719 41.8359 38.2339 41.8359 37.6953C41.8359 37.1567 42.2739 36.7187 42.8125 36.7187Z" fill="black"/>
<path d="M50.625 34.7656C49.0095 34.7656 47.6953 36.0798 47.6953 37.6953C47.6953 39.3108 49.0095 40.625 50.625 40.625C52.2405 40.625 53.5547 39.3108 53.5547 37.6953C53.5547 36.0798 52.2405 34.7656 50.625 34.7656ZM50.625 38.6719C50.0864 38.6719 49.6484 38.2339 49.6484 37.6953C49.6484 37.1567 50.0864 36.7187 50.625 36.7187C51.1636 36.7187 51.6016 37.1567 51.6016 37.6953C51.6016 38.2339 51.1636 38.6719 50.625 38.6719Z" fill="black"/>
<path d="M52.5781 42.5781H36.9531C36.4137 42.5781 35.9766 43.0153 35.9766 43.5547C35.9766 44.0941 36.4137 44.5312 36.9531 44.5312H52.5781C53.1175 44.5312 53.5547 44.0941 53.5547 43.5547C53.5547 43.0153 53.1175 42.5781 52.5781 42.5781Z" fill="black"/>
<path d="M168.186 11.1644H179.399C179.943 11.1644 180.384 10.7235 180.384 10.1798C180.384 9.63593 179.943 9.19501 179.399 9.19501H168.186C167.642 9.19501 167.201 9.63593 167.201 10.1798C167.201 10.7236 167.642 11.1644 168.186 11.1644Z" fill="black"/>
<path d="M168.186 15.3511H179.399C179.943 15.3511 180.384 14.9102 180.384 14.3665C180.384 13.8226 179.943 13.3817 179.399 13.3817H168.186C167.642 13.3817 167.201 13.8226 167.201 14.3665C167.201 14.9103 167.642 15.3511 168.186 15.3511Z" fill="black"/>
<path d="M193.728 28.3579L187.992 20.9889V6.93672C187.992 6.77588 187.951 6.61602 187.876 6.47412C187.857 6.43809 187.757 6.24033 187.703 6.24033L181.777 0.289844C181.57 0.117285 181.358 0 181.08 0H152.837C151.329 0 150.102 1.23105 150.102 2.74453V8.20127C150.102 8.74512 150.543 9.18604 151.087 9.18604C151.631 9.18604 152.072 8.74512 152.072 8.20127V2.74453C152.072 2.31719 152.415 1.96934 152.837 1.96934H180.095V5.17676C180.095 6.69023 181.321 7.92129 182.829 7.92129H186.022V18.4584L185.787 18.1562C185.25 17.4653 184.437 17.069 183.555 17.069C182.93 17.069 182.339 17.2686 181.846 17.6459L176.648 21.6167C176.052 22.0724 175.671 22.7337 175.575 23.479C175.561 23.5876 175.554 23.6961 175.553 23.8039C173.574 23.653 171.53 23.8055 169.542 25.1016L169.456 25.157L164.442 24.3881C164.452 24.2151 164.446 24.0401 164.424 23.8646C164.327 23.121 163.947 22.4612 163.352 22.0066L158.154 18.037C157.661 17.659 157.07 17.4592 156.445 17.4592C155.564 17.4592 154.75 17.855 154.211 18.5458L152.072 21.2959V16.2232C152.072 15.6794 151.631 15.2385 151.087 15.2385C150.543 15.2385 150.102 15.6794 150.102 16.2232V23.8271L146.273 28.7475C145.811 29.3394 145.61 30.0759 145.707 30.8213C145.804 31.5659 146.185 32.2259 146.779 32.6782L150.102 35.2186V42.4939C150.102 44.0073 151.329 45.2386 152.837 45.2386H160.605C160.951 45.8996 161.554 46.4264 162.274 46.6614C162.515 46.7403 162.759 46.7813 163.001 46.7893C163.096 47.1862 163.294 47.5695 163.597 47.9059C164.068 48.4286 164.756 48.7632 165.51 48.7631C166.055 48.7631 166.636 48.5867 167.194 48.1805L168.288 49.205C168.853 49.7352 169.564 49.9999 170.268 49.9999C170.981 49.9997 171.688 49.7284 172.227 49.1866C172.547 48.8667 172.796 48.4854 172.957 48.0836C173.229 48.1651 173.494 48.204 173.748 48.2039C174.472 48.2038 175.111 47.8984 175.57 47.427C175.945 47.0407 176.215 46.5267 176.335 45.9788C176.37 45.9805 176.406 45.9821 176.442 45.9824C176.451 45.9825 176.461 45.9826 176.471 45.9826C177.202 45.9826 177.905 45.7133 178.423 45.2386H185.254C186.764 45.2386 187.992 44.0073 187.992 42.4939V36.2823C188.001 36.2753 188.012 36.2691 188.021 36.2617L193.219 32.2895C193.814 31.837 194.195 31.1786 194.292 30.4356C194.39 29.6897 194.189 28.9522 193.728 28.3579ZM182.829 5.95195C182.407 5.95195 182.064 5.6041 182.064 5.17676V3.36914L184.636 5.95195H182.829ZM176.388 25.8671L183.283 34.7244C182.555 36.0342 182.168 36.451 180.413 37.8559L174.18 32.2958L172.209 30.4963C171.909 30.2221 171.471 30.1607 171.106 30.3417L167.961 31.9057C167.104 32.2759 166.288 31.9357 165.991 31.3883C165.588 30.6472 166.188 29.6344 167.555 28.7451L170.617 26.7522C172.275 25.6714 174.012 25.5884 176.388 25.8671ZM147.974 31.1124C147.8 30.98 147.689 30.7866 147.66 30.5682C147.632 30.3488 147.691 30.1324 147.827 29.9579L155.765 19.7565C155.928 19.5483 156.176 19.429 156.445 19.429C156.576 19.429 156.771 19.4588 156.957 19.6014L162.156 23.572C162.33 23.7052 162.442 23.8991 162.47 24.1184C162.495 24.3065 162.455 24.4923 162.359 24.6509C162.352 24.6618 162.344 24.6728 162.338 24.6842C162.327 24.6998 162.317 24.7154 162.305 24.7305L154.363 34.932C154.202 35.1394 153.954 35.2584 153.684 35.2584C153.553 35.2584 153.358 35.2286 153.173 35.0873L147.974 31.1124ZM157.238 38.7062C157.239 38.7053 157.24 38.7044 157.241 38.7037L160.527 35.7774C160.8 35.5343 161.074 35.4057 161.319 35.4057C161.676 35.4057 161.944 35.6786 162.042 35.9321C162.147 36.2054 162.085 36.4489 161.857 36.6555L161.291 37.1674C161.288 37.1697 161.285 37.172 161.283 37.1744C161.28 37.1769 161.277 37.1794 161.274 37.1819C161.11 37.3309 160.932 37.492 160.749 37.6581L158.222 39.9456C158.075 40.0784 157.933 40.1459 157.8 40.1459C157.525 40.1459 157.203 39.8677 157.068 39.5127C156.944 39.1883 157.001 38.9175 157.236 38.7079L157.238 38.7062ZM152.837 43.2691C152.415 43.2691 152.072 42.9213 152.072 42.4938V36.7185C152.545 37.0507 153.099 37.2277 153.684 37.2277C154.034 37.2277 154.373 37.1646 154.688 37.0465L155.353 37.9587C154.987 38.63 154.931 39.4357 155.227 40.2134C155.649 41.3201 156.639 42.0713 157.71 42.1115C157.744 42.2686 157.79 42.4257 157.853 42.5811C157.954 42.8307 158.086 43.0605 158.24 43.2692H152.837V43.2691ZM160.876 42.2817C160.73 42.4103 160.592 42.4729 160.454 42.4729C160.162 42.4729 159.822 42.1965 159.679 41.8437C159.522 41.4552 159.707 41.2771 159.766 41.2201C159.808 41.1797 159.859 41.1304 159.912 41.0721C160.082 40.92 161.203 39.905 162.034 39.1514L162.6 38.6393C162.863 38.4095 163.129 38.2876 163.369 38.2876C163.75 38.2876 164.035 38.5816 164.138 38.8548C164.241 39.1268 164.18 39.3645 163.957 39.5613L163.756 39.7391C163.754 39.7405 163.752 39.7418 163.751 39.7432C163.75 39.7438 163.75 39.7443 163.749 39.7449L160.876 42.2817ZM163.78 44.3896C163.766 44.4018 163.754 44.4147 163.74 44.4271L163.512 44.6335C163.313 44.8145 163.113 44.8637 162.885 44.7892C162.592 44.6937 162.336 44.4121 162.275 44.1198C162.223 43.8661 162.324 43.6311 162.582 43.4033L162.907 43.1183C162.918 43.1085 162.928 43.0979 162.939 43.0878L165.068 41.2075C165.79 40.5731 166.236 40.9147 166.395 41.0921C166.443 41.1447 166.843 41.6196 166.356 42.0598L165.047 43.2447C165.033 43.2567 165.019 43.2678 165.006 43.2799C165.001 43.2845 164.997 43.2897 164.992 43.2943L163.795 44.3773C163.79 44.3817 163.785 44.385 163.78 44.3896ZM167.471 45.3071L166.579 46.111C166.575 46.1146 166.571 46.1185 166.567 46.1222L166.18 46.4711C165.57 47.0195 165.193 46.7349 165.06 46.5869C164.957 46.4733 164.759 46.179 165.083 45.8684L166.381 44.6938C166.48 44.6092 166.577 44.5401 166.679 44.4859C167.196 44.2103 167.477 44.5316 167.55 44.6366C167.647 44.7735 167.764 45.0428 167.471 45.3071ZM180.484 41.4264C180.424 41.6709 180.25 41.8469 180.006 41.9089C179.599 42.0123 179.083 41.7831 178.61 41.2942C178.576 41.2563 178.541 41.2191 178.505 41.183L174.826 37.5359C174.439 37.153 173.816 37.1558 173.433 37.5419C173.05 37.9281 173.053 38.5517 173.439 38.9346L177.112 42.5761C177.117 42.5809 177.121 42.5854 177.125 42.59C177.274 42.7423 177.357 42.9459 177.358 43.1655C177.358 43.3942 177.272 43.6075 177.113 43.7664C176.957 43.923 176.714 44.0155 176.461 44.0129C176.241 44.0107 176.04 43.9376 175.898 43.8092C175.836 43.7297 175.769 43.6524 175.696 43.5785L173.006 40.8751C172.623 40.4895 171.999 40.4878 171.613 40.8715C171.228 41.2551 171.226 41.8786 171.61 42.2643L174.16 44.8274C174.191 44.8728 174.225 44.9166 174.265 44.9575L174.372 45.0683C174.507 45.3314 174.42 45.7845 174.158 46.0538C173.751 46.4719 173.176 46.0986 172.767 45.7127L171.615 44.6252C171.219 44.2517 170.596 44.2697 170.222 44.665C169.849 45.0605 169.867 45.6839 170.263 46.0572L171.143 46.8887C171.145 46.8904 171.147 46.8925 171.148 46.8942C171.168 46.9124 171.197 46.9396 171.198 47.037C171.202 47.2652 171.052 47.5765 170.833 47.7953C170.516 48.1137 169.991 48.1024 169.636 47.7686L168.677 46.8716L168.79 46.7695C169.751 45.9027 169.904 44.5602 169.162 43.5047C168.924 43.1658 168.627 42.9021 168.294 42.7179C168.768 41.7777 168.633 40.6369 167.862 39.7774C167.431 39.2965 166.824 38.9673 166.146 38.8922C166.126 38.6477 166.073 38.4014 165.981 38.1584C165.649 37.2811 164.915 36.6346 164.05 36.4077C164.085 36.0177 164.031 35.6149 163.88 35.2233C163.467 34.1544 162.438 33.436 161.319 33.436C160.583 33.436 159.856 33.7371 159.217 34.3066L156.738 36.5146L156.201 35.7782L163.615 26.254L166.978 26.7697L166.48 27.0941C163.723 28.8883 163.525 30.9737 164.259 32.3273C164.845 33.4071 166.011 34.0242 167.247 34.0241C167.757 34.024 168.279 33.9191 168.778 33.6981C168.791 33.6923 168.804 33.6862 168.817 33.6797L171.379 32.4056L172.856 33.7547C172.858 33.756 172.859 33.7569 172.861 33.7582C172.862 33.7596 172.863 33.761 172.865 33.7624L179.721 39.8778C180.308 40.401 180.593 40.9798 180.484 41.4264ZM186.022 42.4939C186.022 42.9214 185.678 43.2692 185.254 43.2692L181.42 43.3734C181.899 43.0146 182.25 42.4969 182.397 41.8935C182.61 41.0206 182.395 40.101 181.804 39.2647C183.326 38.0376 183.945 37.4293 184.643 36.2951C185.044 36.5881 185.518 36.7698 186.022 36.8209V42.4939H186.022ZM192.339 30.1803C192.31 30.398 192.2 30.5905 192.025 30.7233L186.825 34.6966C186.641 34.8373 186.447 34.8669 186.316 34.8669C186.045 34.8669 185.797 34.7473 185.635 34.5396L177.695 24.3394C177.56 24.1659 177.501 23.9496 177.529 23.7303C177.557 23.5104 177.669 23.3156 177.844 23.1818L183.042 19.2109C183.228 19.0688 183.423 19.0389 183.555 19.0389C183.824 19.0389 184.071 19.1575 184.232 19.3653L192.173 29.5667C192.309 29.7418 192.368 29.9596 192.339 30.1803Z" fill="black"/>
<path d="M151.087 13.0849C151.631 13.0849 152.072 12.644 152.072 12.1002V12.0808C152.072 11.537 151.631 11.0961 151.087 11.0961C150.543 11.0961 150.103 11.537 150.103 12.0808V12.1002C150.103 12.6441 150.543 13.0849 151.087 13.0849Z" fill="black"/>
<g clip-path="url(#clip0)">
<path d="M297.851 38.2716C297.838 38.2091 297.819 38.1476 297.795 38.088C297.771 38.0294 297.74 37.9728 297.705 37.92C297.67 37.8663 297.629 37.8165 297.584 37.7716C297.539 37.7267 297.489 37.6857 297.436 37.6505C297.383 37.6154 297.326 37.5851 297.267 37.5607C297.208 37.5363 297.146 37.5167 297.084 37.505C296.958 37.4796 296.828 37.4796 296.703 37.505C296.641 37.5167 296.579 37.5363 296.52 37.5607C296.461 37.5851 296.404 37.6154 296.352 37.6505C296.298 37.6857 296.248 37.7267 296.203 37.7716C296.158 37.8165 296.117 37.8663 296.082 37.92C296.046 37.9728 296.017 38.0294 295.992 38.088C295.968 38.1476 295.948 38.2091 295.937 38.2716C295.924 38.3341 295.917 38.3986 295.917 38.462C295.917 38.5255 295.924 38.59 295.937 38.6525C295.948 38.715 295.968 38.7765 295.992 38.8351C296.017 38.8947 296.046 38.9513 296.082 39.004C296.117 39.0577 296.158 39.1076 296.203 39.1525C296.248 39.1974 296.298 39.2384 296.352 39.2736C296.404 39.3088 296.461 39.3391 296.52 39.3635C296.579 39.3879 296.641 39.4075 296.703 39.4192C296.766 39.4319 296.83 39.4387 296.894 39.4387C296.957 39.4387 297.021 39.4319 297.084 39.4192C297.146 39.4075 297.208 39.3879 297.267 39.3635C297.326 39.3391 297.383 39.3087 297.436 39.2736C297.489 39.2384 297.539 39.1974 297.584 39.1525C297.629 39.1076 297.67 39.0577 297.705 39.004C297.74 38.9513 297.771 38.8947 297.795 38.8351C297.819 38.7765 297.838 38.715 297.851 38.6525C297.863 38.59 297.87 38.5255 297.87 38.462C297.87 38.3986 297.863 38.3341 297.851 38.2716Z" fill="black"/>
<path d="M325.921 38.5725C325.917 38.5628 325.913 38.5531 325.909 38.5435C325.011 36.4403 322.903 35.663 320.408 36.515L313.604 38.3964C313.211 37.2052 312.23 36.1916 310.842 35.6767C310.834 35.6736 310.825 35.6705 310.817 35.6675L303.338 33.1293C302.716 32.3247 300.766 30.2659 297.115 30.2659C294.564 30.2659 292.307 32.0161 291.016 33.9238H281.977C281.437 33.9238 281 34.361 281 34.9004V47.2126C281 47.7519 281.437 48.1891 281.977 48.1891H287.783C288.322 48.1891 288.759 47.7519 288.759 47.2126V46.3694H291.482C292.022 46.3694 292.459 45.9322 292.459 45.3928V45.1118C294.046 45.2503 294.568 45.5513 296.026 46.392C297.147 47.0384 298.842 48.0155 301.893 49.3875C301.907 49.3938 301.922 49.3999 301.936 49.4055C302.522 49.6359 303.666 49.9978 305.078 49.9978C306.06 49.9978 307.172 49.8223 308.313 49.305L323.351 43.9207C323.378 43.9111 323.405 43.9004 323.43 43.8884C324.868 43.2272 327.009 41.3636 325.921 38.5725ZM286.806 46.2359H282.953V35.8768H286.806V46.2359ZM290.506 44.4162H288.759V35.8768H290.506V44.4162ZM322.65 42.0971L307.619 47.4791C307.605 47.4838 307.587 47.4908 307.575 47.4961C307.561 47.5014 307.548 47.5071 307.535 47.5131C305.442 48.4752 303.452 47.8992 302.672 47.596C299.724 46.2697 298.151 45.3626 297.002 44.6998C295.404 43.7783 294.634 43.3341 292.459 43.1546V35.2891C293.385 33.7719 295.18 32.2189 297.115 32.2189C300.434 32.2189 301.84 34.3776 301.896 34.4647C302.015 34.6587 302.198 34.8048 302.414 34.878L310.175 37.5122C311.415 37.9774 312.07 39.0389 311.769 40.0975C311.63 40.5864 311.308 40.9919 310.865 41.2392C310.424 41.4844 309.916 41.5451 309.431 41.4109L300.681 38.6382C300.167 38.4753 299.618 38.76 299.455 39.2742C299.292 39.7883 299.577 40.3372 300.091 40.5002L308.856 43.2776C308.865 43.2805 308.874 43.2834 308.884 43.286C309.234 43.3855 309.59 43.4347 309.944 43.4347C310.592 43.4347 311.233 43.2696 311.815 42.9454C312.715 42.4441 313.366 41.6224 313.647 40.6317C313.67 40.5526 313.69 40.4735 313.707 40.3944L321.039 38.3632C322.098 38.0014 323.488 37.8711 324.107 39.2965C324.748 40.9701 323.083 41.8907 322.65 42.0971Z" fill="black"/>
<path d="M316.064 12.8461C316.052 12.7836 316.033 12.722 316.008 12.6625C315.983 12.6039 315.954 12.5472 315.918 12.4945C315.883 12.4408 315.842 12.391 315.797 12.3461C315.752 12.3011 315.702 12.2601 315.648 12.225C315.596 12.1898 315.539 12.1595 315.48 12.1351C315.421 12.1107 315.359 12.0912 315.298 12.0795C315.172 12.0541 315.042 12.0541 314.916 12.0795C314.854 12.0912 314.792 12.1107 314.733 12.1351C314.674 12.1595 314.617 12.1898 314.564 12.225C314.511 12.2601 314.461 12.3011 314.416 12.3461C314.371 12.391 314.33 12.4408 314.295 12.4945C314.26 12.5472 314.229 12.6039 314.205 12.6625C314.181 12.722 314.161 12.7836 314.149 12.8461C314.137 12.9086 314.13 12.973 314.13 13.0365C314.13 13.1 314.137 13.1644 314.149 13.2269C314.161 13.2894 314.181 13.351 314.205 13.4095C314.229 13.4691 314.26 13.5258 314.295 13.5785C314.33 13.6322 314.371 13.682 314.416 13.7269C314.461 13.7718 314.511 13.8129 314.564 13.848C314.617 13.8832 314.674 13.9134 314.733 13.9379C314.792 13.9623 314.854 13.9808 314.916 13.9935C314.979 14.0062 315.043 14.0131 315.106 14.0131C315.17 14.0131 315.234 14.0062 315.298 13.9935C315.359 13.9808 315.421 13.9623 315.48 13.9379C315.539 13.9134 315.596 13.8832 315.648 13.848C315.702 13.8129 315.752 13.7718 315.797 13.7269C315.842 13.682 315.883 13.6322 315.918 13.5785C315.954 13.5258 315.983 13.4691 316.008 13.4095C316.033 13.351 316.052 13.2894 316.064 13.2269C316.077 13.1644 316.083 13.1 316.083 13.0365C316.083 12.973 316.077 12.9086 316.064 12.8461Z" fill="black"/>
<path d="M330.023 3.30964H324.217C323.678 3.30964 323.24 3.74685 323.24 4.2862V5.12937H320.518C319.978 5.12937 319.541 5.56658 319.541 6.10593V6.38699C317.954 6.24841 317.432 5.94743 315.974 5.10681C314.853 4.46032 313.158 3.48327 310.107 2.1113C310.093 2.10486 310.078 2.0989 310.064 2.09323C309.071 1.70241 306.467 0.933469 303.687 2.19353L299.757 3.60056L296.445 0.288254C296.064 -0.0930939 295.445 -0.0930939 295.064 0.288254L284.189 11.163C283.837 11.5148 283.77 12.1249 284.189 12.5441L302.772 31.1268C303.069 31.4243 303.765 31.5142 304.153 31.1268L314.081 21.1987C314.339 21.221 314.607 21.233 314.885 21.233C317.436 21.233 319.693 19.4828 320.984 17.5752H330.023C330.563 17.5752 331 17.138 331 16.5986V4.2862C331 3.74685 330.563 3.30964 330.023 3.30964ZM295.754 2.35984L297.98 4.58562C297.318 4.9948 296.554 5.21374 295.754 5.21374C294.955 5.21374 294.19 4.9949 293.529 4.58562L295.754 2.35984ZM288.487 14.0794L286.261 11.8535L288.487 9.62771C288.896 10.2893 289.115 11.0543 289.115 11.8535C289.115 12.6527 288.896 13.4177 288.487 14.0794ZM303.462 29.0552L301.237 26.8298C302.596 25.9913 304.329 25.9913 305.688 26.8298L303.462 29.0552ZM307.095 25.4229C304.937 23.8575 301.988 23.8575 299.83 25.4229L289.893 15.4862C290.656 14.4374 291.068 13.1775 291.068 11.8535C291.068 10.5294 290.656 9.2696 289.893 8.22077L292.122 5.99265C293.171 6.75525 294.43 7.16697 295.754 7.16697C297.079 7.16697 298.338 6.75525 299.387 5.99265L301.499 8.10486C301.044 8.17214 300.599 8.32234 300.185 8.55329C299.485 8.94333 298.935 9.52742 298.593 10.2341C297.492 10.4381 296.472 10.9714 295.672 11.7713C293.502 13.9418 293.502 17.4733 295.672 19.6438C296.757 20.729 298.183 21.2717 299.608 21.2717C301.034 21.2717 302.459 20.7291 303.545 19.6438C304.251 18.9378 304.745 18.07 304.993 17.1243L308.29 18.2433C307.919 19.9629 308.299 21.7719 309.325 23.1927L307.095 25.4229ZM301.157 15.822C301.166 15.8252 301.175 15.8283 301.183 15.8312L303.136 16.494C302.989 17.1595 302.655 17.7715 302.164 18.2628C300.755 19.6716 298.462 19.6718 297.053 18.2628C295.644 16.8539 295.644 14.5614 297.053 13.1524C297.393 12.8124 297.794 12.5467 298.231 12.3665C298.412 13.8667 299.492 15.2039 301.157 15.822ZM310.732 21.7855C310.355 21.1713 310.142 20.4702 310.108 19.7547C310.576 20.0928 311.148 20.4242 311.83 20.6872L310.732 21.7855ZM319.541 16.2093C318.615 17.7266 316.82 19.2797 314.885 19.2797C314.523 19.2797 314.183 19.2539 313.866 19.208C313.865 19.2078 313.864 19.2076 313.862 19.2074C311.753 18.901 310.619 17.7024 310.245 17.2278C310.225 17.1985 310.14 17.0875 310.127 17.069C310.014 16.8657 309.827 16.7022 309.589 16.6215L301.825 13.9862C300.586 13.5212 299.931 12.4601 300.231 11.4019C300.231 11.4012 300.231 11.4006 300.232 11.3999C300.232 11.3991 300.232 11.3982 300.232 11.3974C300.372 10.9101 300.692 10.5059 301.135 10.2592C301.575 10.0139 302.084 9.9531 302.569 10.0876L311.318 12.8601C311.833 13.0233 312.382 12.7384 312.544 12.2242C312.707 11.71 312.423 11.1612 311.909 10.9982L304.95 8.79314L304.889 8.7324C304.889 8.73181 304.888 8.73113 304.887 8.73054L301.285 5.128L304.381 4.01921C304.392 4.0154 304.405 4.01062 304.415 4.00642C304.418 4.00534 304.423 4.00339 304.425 4.00232C304.439 3.99695 304.452 3.99128 304.465 3.98532C306.558 3.02322 308.548 3.59909 309.328 3.90241C312.275 5.22868 313.849 6.13581 314.998 6.79861C316.596 7.72019 317.366 8.16423 319.541 8.34382V16.2093V16.2093ZM323.24 15.6218H321.494V7.08249H323.24V15.6218ZM329.047 15.6218H325.194V5.26277H329.047V15.6218Z" fill="black"/>
</g>
<g clip-path="url(#clip1)">
<path fill-rule="evenodd" clip-rule="evenodd" d="M453.184 29.8813C454.612 29.8813 455.904 30.46 456.839 31.3953C457.547 32.1033 458.051 33.0162 458.254 34.0366H461.094C461.44 34.0366 461.757 33.9874 462.042 33.8966C462.619 33.7131 463.104 33.3599 463.444 32.9006C463.779 32.4474 463.972 31.8848 463.972 31.274C463.972 30.9628 463.926 30.6465 463.826 30.3337L462.333 25.6474H456.759C456.199 25.6474 455.745 25.1934 455.745 24.6334C455.745 24.0738 456.199 23.6198 456.759 23.6198H461.687L461.256 22.2664C460.958 21.3322 460.566 20.4514 460.023 19.8265C459.565 19.2997 458.976 18.9602 458.203 18.9602H454.198V27.3975C454.198 27.9575 453.744 28.4115 453.185 28.4115C452.625 28.4115 452.171 27.9575 452.171 27.3975V14.7945C452.171 13.9702 451.833 13.2198 451.288 12.6755C450.744 12.1311 449.994 11.7931 449.169 11.7931H424.496C423.673 11.7931 422.922 12.1311 422.378 12.6755C421.833 13.2198 421.495 13.9702 421.495 14.7945V15.1905H431.531C432.091 15.1905 432.545 15.6441 432.545 16.2041C432.545 16.7637 432.091 17.2176 431.531 17.2176H421.495V25.3189H431.531C432.091 25.3189 432.545 25.7729 432.545 26.3325C432.545 26.8925 432.091 27.3464 431.531 27.3464H421.495V31.0356C421.495 31.8596 421.833 32.6099 422.378 33.1543C422.922 33.6987 423.672 34.0366 424.496 34.0366H426.252C426.455 33.0162 426.959 32.1033 427.667 31.3953C428.602 30.46 429.895 29.8813 431.322 29.8813C432.749 29.8813 434.042 30.46 434.977 31.3953C435.685 32.1033 436.189 33.0162 436.391 34.0366H448.114C448.317 33.0162 448.821 32.1033 449.529 31.3953C450.465 30.46 451.757 29.8813 453.184 29.8813V29.8813ZM435.474 25.3559C436.014 25.3559 436.451 25.7931 436.451 26.3325C436.451 26.8719 436.014 27.309 435.474 27.309C434.935 27.309 434.498 26.8719 434.498 26.3325C434.498 25.7931 434.935 25.3559 435.474 25.3559ZM435.474 15.2275C436.014 15.2275 436.451 15.6647 436.451 16.2041C436.451 16.7431 436.014 17.1806 435.474 17.1806C434.935 17.1806 434.498 16.7431 434.498 16.2041C434.498 15.6647 434.935 15.2275 435.474 15.2275ZM417.014 17.2176C416.454 17.2176 416 16.7637 416 16.2041C416 15.6441 416.454 15.1901 417.014 15.1901H419.468V14.7942C419.468 13.4106 420.033 12.1529 420.944 11.2419C421.855 10.331 423.113 9.76562 424.496 9.76562H449.169C450.553 9.76562 451.81 10.331 452.721 11.2419C453.632 12.1532 454.198 13.4106 454.198 14.7942V16.9327H458.203C459.639 16.9327 460.721 17.5488 461.551 18.5036C462.296 19.3604 462.808 20.4872 463.18 21.6564C464.037 24.3458 464.894 27.0348 465.751 29.7237C465.92 30.2566 466 30.777 466 31.274C466 32.3257 465.659 33.3054 465.067 34.1042C464.481 34.8961 463.646 35.5045 462.652 35.8211C462.157 35.9787 461.634 36.0641 461.094 36.0641H458.254C458.051 37.0846 457.547 37.9974 456.839 38.7054C455.904 39.6408 454.612 40.2195 453.184 40.2195C451.757 40.2195 450.465 39.6408 449.529 38.7054C448.821 37.9974 448.318 37.0846 448.114 36.0641H436.392C436.189 37.0846 435.685 37.9974 434.977 38.7054C434.042 39.6408 432.749 40.2195 431.322 40.2195C429.895 40.2195 428.603 39.6408 427.667 38.7054C426.959 37.9974 426.455 37.0846 426.252 36.0641H424.496C423.113 36.0641 421.855 35.4984 420.944 34.5875C420.033 33.6765 419.468 32.4192 419.468 31.0352V27.346H417.014C416.454 27.346 416 26.8925 416 26.3325C416 25.7729 416.454 25.3189 417.014 25.3189H419.468V17.2176H417.014ZM424.834 22.2816C424.274 22.2816 423.82 21.8277 423.82 21.2681C423.82 20.7081 424.274 20.2541 424.834 20.2541H439.351C439.911 20.2541 440.365 20.7081 440.365 21.2681C440.365 21.8277 439.911 22.2816 439.351 22.2816H424.834ZM459.864 32.4478C459.304 32.4478 458.85 31.9939 458.85 31.4339C458.85 30.8742 459.304 30.4203 459.864 30.4203H461.462C462.022 30.4203 462.476 30.8742 462.476 31.4339C462.476 31.9939 462.022 32.4478 461.462 32.4478H459.864ZM453.175 36.0641C452.615 36.0641 452.161 35.6102 452.161 35.0502C452.161 34.4906 452.615 34.0366 453.175 34.0366C453.74 34.0366 454.198 34.483 454.198 35.0502C454.198 35.6178 453.74 36.0641 453.175 36.0641ZM431.322 36.0641C430.762 36.0641 430.309 35.6102 430.309 35.0502C430.309 34.4906 430.762 34.0366 431.322 34.0366C431.887 34.0366 432.345 34.483 432.345 35.0502C432.345 35.6178 431.887 36.0641 431.322 36.0641ZM433.544 32.8289C434.112 33.3973 434.464 34.1827 434.464 35.0506C434.464 35.9184 434.112 36.7039 433.544 37.2723C432.975 37.8406 432.19 38.1924 431.322 38.1924C430.454 38.1924 429.669 37.8406 429.1 37.2723C428.532 36.7039 428.18 35.9184 428.18 35.0506C428.18 34.1827 428.532 33.3973 429.1 32.8289C429.669 32.2605 430.454 31.9088 431.322 31.9088C432.19 31.9088 432.975 32.2605 433.544 32.8289V32.8289ZM455.406 32.8289C455.974 33.3973 456.326 34.1827 456.326 35.0506C456.326 35.9184 455.974 36.7039 455.406 37.2723C454.837 37.8406 454.052 38.1924 453.184 38.1924C452.317 38.1924 451.531 37.8406 450.962 37.2723C450.394 36.7039 450.042 35.9184 450.042 35.0506C450.042 34.1827 450.394 33.3973 450.962 32.8289C451.531 32.2605 452.317 31.9088 453.184 31.9088C454.052 31.9088 454.837 32.2605 455.406 32.8289V32.8289Z" fill="black"/>
</g>
<path d="M17.288 63.342C17.288 64.014 17.05 64.5553 16.574 64.966C16.098 65.3767 15.4913 65.6333 14.754 65.736V65.778C15.6686 65.8713 16.3686 66.128 16.854 66.548C17.3486 66.9587 17.596 67.4953 17.596 68.158C17.596 69.0353 17.2366 69.754 16.518 70.314C15.8086 70.8647 14.7633 71.14 13.382 71.14C12.626 71.14 11.954 71.0933 11.366 71C10.7873 70.9067 10.2833 70.7713 9.85398 70.594V68.816C10.1433 68.956 10.47 69.0773 10.834 69.18C11.198 69.2733 11.5666 69.348 11.94 69.404C12.3133 69.4507 12.6586 69.474 12.976 69.474C13.8626 69.474 14.502 69.348 14.894 69.096C15.2953 68.8347 15.496 68.4707 15.496 68.004C15.496 67.528 15.2066 67.1827 14.628 66.968C14.0493 66.744 13.27 66.632 12.29 66.632H11.352V64.98H12.192C12.9853 64.98 13.6013 64.9287 14.04 64.826C14.4786 64.7233 14.7866 64.574 14.964 64.378C15.1413 64.182 15.23 63.9487 15.23 63.678C15.23 63.3327 15.076 63.062 14.768 62.866C14.4693 62.6607 14.0166 62.558 13.41 62.558C12.8966 62.558 12.4113 62.6327 11.954 62.782C11.506 62.9313 11.086 63.1273 10.694 63.37L9.76998 61.956C10.2833 61.62 10.8526 61.354 11.478 61.158C12.1033 60.962 12.8453 60.864 13.704 60.864C14.8333 60.864 15.7106 61.0973 16.336 61.564C16.9706 62.0307 17.288 62.6233 17.288 63.342ZM22.4321 63.202C23.4588 63.202 24.2428 63.426 24.7841 63.874C25.3348 64.3127 25.6101 64.9893 25.6101 65.904V71H24.1541L23.7481 69.964H23.6921C23.3654 70.3747 23.0201 70.6733 22.6561 70.86C22.2921 71.0467 21.7928 71.14 21.1581 71.14C20.4768 71.14 19.9121 70.944 19.4641 70.552C19.0161 70.1507 18.7921 69.5393 18.7921 68.718C18.7921 67.906 19.0768 67.3087 19.6461 66.926C20.2154 66.534 21.0694 66.3193 22.2081 66.282L23.5381 66.24V65.904C23.5381 65.5027 23.4308 65.2087 23.2161 65.022C23.0108 64.8353 22.7214 64.742 22.3481 64.742C21.9748 64.742 21.6108 64.798 21.2561 64.91C20.9014 65.0127 20.5468 65.1433 20.1921 65.302L19.5061 63.888C19.9168 63.6733 20.3694 63.5053 20.8641 63.384C21.3681 63.2627 21.8908 63.202 22.4321 63.202ZM23.5381 67.458L22.7261 67.486C22.0541 67.5047 21.5874 67.626 21.3261 67.85C21.0648 68.074 20.9341 68.368 20.9341 68.732C20.9341 69.0493 21.0274 69.278 21.2141 69.418C21.4008 69.5487 21.6434 69.614 21.9421 69.614C22.3901 69.614 22.7681 69.4833 23.0761 69.222C23.3841 68.9513 23.5381 68.5733 23.5381 68.088V67.458ZM28.9073 71H26.6533L28.7113 67.976C28.3193 67.8173 27.9693 67.5607 27.6613 67.206C27.3627 66.842 27.2133 66.3473 27.2133 65.722C27.2133 64.9567 27.5027 64.3733 28.0813 63.972C28.66 63.5613 29.402 63.356 30.3073 63.356H33.8633V71H31.7773V68.158H30.6293L28.9073 71ZM29.2573 65.736C29.2573 66.0533 29.3833 66.3053 29.6353 66.492C29.8873 66.6693 30.214 66.758 30.6153 66.758H31.7773V64.826H30.3493C29.976 64.826 29.7007 64.9193 29.5233 65.106C29.346 65.2833 29.2573 65.4933 29.2573 65.736ZM42.8201 65.358C42.8201 65.7687 42.6895 66.1187 42.4281 66.408C42.1761 66.6973 41.7981 66.884 41.2941 66.968V67.024C41.8261 67.0893 42.2508 67.2713 42.5681 67.57C42.8948 67.8687 43.0581 68.2513 43.0581 68.718C43.0581 69.1567 42.9415 69.5487 42.7081 69.894C42.4841 70.2393 42.1248 70.51 41.6301 70.706C41.1355 70.902 40.4868 71 39.6841 71H36.0441V63.356H39.6841C40.2815 63.356 40.8135 63.4213 41.2801 63.552C41.7561 63.6733 42.1295 63.8787 42.4001 64.168C42.6801 64.4573 42.8201 64.854 42.8201 65.358ZM40.7061 65.526C40.7061 65.0593 40.3375 64.826 39.6001 64.826H38.1301V66.338H39.3621C39.8008 66.338 40.1321 66.2773 40.3561 66.156C40.5895 66.0253 40.7061 65.8153 40.7061 65.526ZM40.9021 68.606C40.9021 68.3073 40.7855 68.0927 40.5521 67.962C40.3188 67.822 39.9688 67.752 39.5021 67.752H38.1301V69.558H39.5441C39.9361 69.558 40.2581 69.488 40.5101 69.348C40.7715 69.1987 40.9021 68.9513 40.9021 68.606ZM49.8608 63.356H52.1568L49.1328 67.024L52.4228 71H50.0568L46.9348 67.122V71H44.8488V63.356H46.9348V67.066L49.8608 63.356ZM56.6528 63.202C57.6795 63.202 58.4635 63.426 59.0048 63.874C59.5555 64.3127 59.8308 64.9893 59.8308 65.904V71H58.3748L57.9688 69.964H57.9128C57.5861 70.3747 57.2408 70.6733 56.8768 70.86C56.5128 71.0467 56.0135 71.14 55.3788 71.14C54.6975 71.14 54.1328 70.944 53.6848 70.552C53.2368 70.1507 53.0128 69.5393 53.0128 68.718C53.0128 67.906 53.2975 67.3087 53.8668 66.926C54.4361 66.534 55.2901 66.3193 56.4288 66.282L57.7588 66.24V65.904C57.7588 65.5027 57.6515 65.2087 57.4368 65.022C57.2315 64.8353 56.9421 64.742 56.5688 64.742C56.1955 64.742 55.8315 64.798 55.4768 64.91C55.1221 65.0127 54.7675 65.1433 54.4128 65.302L53.7268 63.888C54.1375 63.6733 54.5901 63.5053 55.0848 63.384C55.5888 63.2627 56.1115 63.202 56.6528 63.202ZM57.7588 67.458L56.9468 67.486C56.2748 67.5047 55.8081 67.626 55.5468 67.85C55.2855 68.074 55.1548 68.368 55.1548 68.732C55.1548 69.0493 55.2481 69.278 55.4348 69.418C55.6215 69.5487 55.8641 69.614 56.1628 69.614C56.6108 69.614 56.9888 69.4833 57.2968 69.222C57.6048 68.9513 57.7588 68.5733 57.7588 68.088V67.458Z" fill="black"/>
<path d="M148.632 61.004V69.236H149.962V73.912H147.918V71H141.66V73.912H139.616V69.236H140.386C140.741 68.536 141.072 67.7893 141.38 66.996C141.688 66.1933 141.963 65.302 142.206 64.322C142.458 63.342 142.659 62.236 142.808 61.004H148.632ZM146.518 62.768H144.488C144.404 63.412 144.269 64.112 144.082 64.868C143.905 65.6147 143.69 66.366 143.438 67.122C143.186 67.8687 142.911 68.5733 142.612 69.236H146.518V62.768ZM158.273 67.164C158.273 68.4333 157.937 69.4133 157.265 70.104C156.603 70.7947 155.697 71.14 154.549 71.14C153.84 71.14 153.205 70.986 152.645 70.678C152.095 70.37 151.661 69.922 151.343 69.334C151.026 68.7367 150.867 68.0133 150.867 67.164C150.867 65.8947 151.199 64.9193 151.861 64.238C152.524 63.5567 153.434 63.216 154.591 63.216C155.31 63.216 155.945 63.37 156.495 63.678C157.046 63.986 157.48 64.434 157.797 65.022C158.115 65.6007 158.273 66.3147 158.273 67.164ZM152.995 67.164C152.995 67.92 153.117 68.494 153.359 68.886C153.611 69.2687 154.017 69.46 154.577 69.46C155.128 69.46 155.525 69.2687 155.767 68.886C156.019 68.494 156.145 67.92 156.145 67.164C156.145 66.408 156.019 65.8433 155.767 65.47C155.525 65.0873 155.123 64.896 154.563 64.896C154.013 64.896 153.611 65.0873 153.359 65.47C153.117 65.8433 152.995 66.408 152.995 67.164ZM165.275 63.356V64.924H162.083V71H159.997V63.356H165.275ZM173.49 67.164C173.49 68.4333 173.154 69.4133 172.482 70.104C171.819 70.7947 170.914 71.14 169.766 71.14C169.057 71.14 168.422 70.986 167.862 70.678C167.311 70.37 166.877 69.922 166.56 69.334C166.243 68.7367 166.084 68.0133 166.084 67.164C166.084 65.8947 166.415 64.9193 167.078 64.238C167.741 63.5567 168.651 63.216 169.808 63.216C170.527 63.216 171.161 63.37 171.712 63.678C172.263 63.986 172.697 64.434 173.014 65.022C173.331 65.6007 173.49 66.3147 173.49 67.164ZM168.212 67.164C168.212 67.92 168.333 68.494 168.576 68.886C168.828 69.2687 169.234 69.46 169.794 69.46C170.345 69.46 170.741 69.2687 170.984 68.886C171.236 68.494 171.362 67.92 171.362 67.164C171.362 66.408 171.236 65.8433 170.984 65.47C170.741 65.0873 170.34 64.896 169.78 64.896C169.229 64.896 168.828 65.0873 168.576 65.47C168.333 65.8433 168.212 66.408 168.212 67.164ZM181.99 65.358C181.99 65.7687 181.859 66.1187 181.598 66.408C181.346 66.6973 180.968 66.884 180.464 66.968V67.024C180.996 67.0893 181.421 67.2713 181.738 67.57C182.065 67.8687 182.228 68.2513 182.228 68.718C182.228 69.1567 182.111 69.5487 181.878 69.894C181.654 70.2393 181.295 70.51 180.8 70.706C180.305 70.902 179.657 71 178.854 71H175.214V63.356H178.854C179.451 63.356 179.983 63.4213 180.45 63.552C180.926 63.6733 181.299 63.8787 181.57 64.168C181.85 64.4573 181.99 64.854 181.99 65.358ZM179.876 65.526C179.876 65.0593 179.507 64.826 178.77 64.826H177.3V66.338H178.532C178.971 66.338 179.302 66.2773 179.526 66.156C179.759 66.0253 179.876 65.8153 179.876 65.526ZM180.072 68.606C180.072 68.3073 179.955 68.0927 179.722 67.962C179.489 67.822 179.139 67.752 178.672 67.752H177.3V69.558H178.714C179.106 69.558 179.428 69.488 179.68 69.348C179.941 69.1987 180.072 68.9513 180.072 68.606ZM190.963 67.164C190.963 68.4333 190.627 69.4133 189.955 70.104C189.292 70.7947 188.387 71.14 187.239 71.14C186.529 71.14 185.895 70.986 185.335 70.678C184.784 70.37 184.35 69.922 184.033 69.334C183.715 68.7367 183.557 68.0133 183.557 67.164C183.557 65.8947 183.888 64.9193 184.551 64.238C185.213 63.5567 186.123 63.216 187.281 63.216C187.999 63.216 188.634 63.37 189.185 63.678C189.735 63.986 190.169 64.434 190.487 65.022C190.804 65.6007 190.963 66.3147 190.963 67.164ZM185.685 67.164C185.685 67.92 185.806 68.494 186.049 68.886C186.301 69.2687 186.707 69.46 187.267 69.46C187.817 69.46 188.214 69.2687 188.457 68.886C188.709 68.494 188.835 67.92 188.835 67.164C188.835 66.408 188.709 65.8433 188.457 65.47C188.214 65.0873 187.813 64.896 187.253 64.896C186.702 64.896 186.301 65.0873 186.049 65.47C185.806 65.8433 185.685 66.408 185.685 67.164ZM196.943 63.216C197.801 63.216 198.497 63.552 199.029 64.224C199.561 64.8867 199.827 65.8667 199.827 67.164C199.827 68.4613 199.551 69.4507 199.001 70.132C198.45 70.804 197.745 71.14 196.887 71.14C196.336 71.14 195.897 71.042 195.571 70.846C195.244 70.6407 194.978 70.412 194.773 70.16H194.661C194.735 70.552 194.773 70.9253 194.773 71.28V74.36H192.687V63.356H194.381L194.675 64.35H194.773C194.978 64.042 195.253 63.776 195.599 63.552C195.944 63.328 196.392 63.216 196.943 63.216ZM196.271 64.882C195.729 64.882 195.347 65.05 195.123 65.386C194.908 65.722 194.791 66.2353 194.773 66.926V67.15C194.773 67.8873 194.88 68.4567 195.095 68.858C195.319 69.25 195.72 69.446 196.299 69.446C196.775 69.446 197.125 69.25 197.349 68.858C197.582 68.4567 197.699 67.8827 197.699 67.136C197.699 65.6333 197.223 64.882 196.271 64.882Z" fill="black"/>
<path d="M289.364 65.988C289.364 67.024 289.192 67.9293 288.846 68.704C288.51 69.4693 287.992 70.0667 287.292 70.496C286.592 70.9253 285.696 71.14 284.604 71.14C283.522 71.14 282.626 70.9253 281.916 70.496C281.216 70.0667 280.694 69.4647 280.348 68.69C280.012 67.9153 279.844 67.01 279.844 65.974C279.844 64.938 280.012 64.0373 280.348 63.272C280.694 62.5067 281.216 61.914 281.916 61.494C282.626 61.0647 283.526 60.85 284.618 60.85C285.701 60.85 286.592 61.0647 287.292 61.494C287.992 61.914 288.51 62.5113 288.846 63.286C289.192 64.0513 289.364 64.952 289.364 65.988ZM282.07 65.988C282.07 67.0333 282.271 67.8593 282.672 68.466C283.074 69.0633 283.718 69.362 284.604 69.362C285.51 69.362 286.158 69.0633 286.55 68.466C286.942 67.8593 287.138 67.0333 287.138 65.988C287.138 64.9333 286.942 64.1073 286.55 63.51C286.158 62.9127 285.514 62.614 284.618 62.614C283.722 62.614 283.074 62.9127 282.672 63.51C282.271 64.1073 282.07 64.9333 282.07 65.988ZM298.211 63.356V71H296.125V64.924H293.353V71H291.267V63.356H298.211ZM307.246 71H305.16V64.924H303.242C303.12 66.4173 302.957 67.6213 302.752 68.536C302.556 69.4413 302.28 70.104 301.926 70.524C301.571 70.9347 301.095 71.14 300.498 71.14C300.012 71.14 299.616 71.0653 299.308 70.916V69.25C299.522 69.3433 299.746 69.39 299.98 69.39C300.148 69.39 300.302 69.306 300.442 69.138C300.582 68.97 300.712 68.6667 300.834 68.228C300.964 67.7893 301.081 67.178 301.184 66.394C301.286 65.6007 301.38 64.588 301.464 63.356H307.246V71ZM312.559 63.202C313.586 63.202 314.37 63.426 314.911 63.874C315.462 64.3127 315.737 64.9893 315.737 65.904V71H314.281L313.875 69.964H313.819C313.492 70.3747 313.147 70.6733 312.783 70.86C312.419 71.0467 311.92 71.14 311.285 71.14C310.604 71.14 310.039 70.944 309.591 70.552C309.143 70.1507 308.919 69.5393 308.919 68.718C308.919 67.906 309.204 67.3087 309.773 66.926C310.342 66.534 311.196 66.3193 312.335 66.282L313.665 66.24V65.904C313.665 65.5027 313.558 65.2087 313.343 65.022C313.138 64.8353 312.848 64.742 312.475 64.742C312.102 64.742 311.738 64.798 311.383 64.91C311.028 65.0127 310.674 65.1433 310.319 65.302L309.633 63.888C310.044 63.6733 310.496 63.5053 310.991 63.384C311.495 63.2627 312.018 63.202 312.559 63.202ZM313.665 67.458L312.853 67.486C312.181 67.5047 311.714 67.626 311.453 67.85C311.192 68.074 311.061 68.368 311.061 68.732C311.061 69.0493 311.154 69.278 311.341 69.418C311.528 69.5487 311.77 69.614 312.069 69.614C312.517 69.614 312.895 69.4833 313.203 69.222C313.511 68.9513 313.665 68.5733 313.665 68.088V67.458ZM324.2 64.924H321.694V71H319.608V64.924H317.102V63.356H324.2V64.924ZM328.747 63.202C329.773 63.202 330.557 63.426 331.099 63.874C331.649 64.3127 331.925 64.9893 331.925 65.904V71H330.469L330.063 69.964H330.007C329.68 70.3747 329.335 70.6733 328.971 70.86C328.607 71.0467 328.107 71.14 327.473 71.14C326.791 71.14 326.227 70.944 325.779 70.552C325.331 70.1507 325.107 69.5393 325.107 68.718C325.107 67.906 325.391 67.3087 325.961 66.926C326.53 66.534 327.384 66.3193 328.523 66.282L329.853 66.24V65.904C329.853 65.5027 329.745 65.2087 329.531 65.022C329.325 64.8353 329.036 64.742 328.663 64.742C328.289 64.742 327.925 64.798 327.571 64.91C327.216 65.0127 326.861 65.1433 326.507 65.302L325.821 63.888C326.231 63.6733 326.684 63.5053 327.179 63.384C327.683 63.2627 328.205 63.202 328.747 63.202ZM329.853 67.458L329.041 67.486C328.369 67.5047 327.902 67.626 327.641 67.85C327.379 68.074 327.249 68.368 327.249 68.732C327.249 69.0493 327.342 69.278 327.529 69.418C327.715 69.5487 327.958 69.614 328.257 69.614C328.705 69.614 329.083 69.4833 329.391 69.222C329.699 68.9513 329.853 68.5733 329.853 68.088V67.458Z" fill="black"/>
<path d="M415.756 61.004V69.236H417.086V73.912H415.042V71H408.784V73.912H406.74V69.236H407.51C407.865 68.536 408.196 67.7893 408.504 66.996C408.812 66.1933 409.087 65.302 409.33 64.322C409.582 63.342 409.783 62.236 409.932 61.004H415.756ZM413.642 62.768H411.612C411.528 63.412 411.393 64.112 411.206 64.868C411.029 65.6147 410.814 66.366 410.562 67.122C410.31 67.8687 410.035 68.5733 409.736 69.236H413.642V62.768ZM425.397 67.164C425.397 68.4333 425.061 69.4133 424.389 70.104C423.727 70.7947 422.821 71.14 421.673 71.14C420.964 71.14 420.329 70.986 419.769 70.678C419.219 70.37 418.785 69.922 418.467 69.334C418.15 68.7367 417.991 68.0133 417.991 67.164C417.991 65.8947 418.323 64.9193 418.985 64.238C419.648 63.5567 420.558 63.216 421.715 63.216C422.434 63.216 423.069 63.37 423.619 63.678C424.17 63.986 424.604 64.434 424.921 65.022C425.239 65.6007 425.397 66.3147 425.397 67.164ZM420.119 67.164C420.119 67.92 420.241 68.494 420.483 68.886C420.735 69.2687 421.141 69.46 421.701 69.46C422.252 69.46 422.649 69.2687 422.891 68.886C423.143 68.494 423.269 67.92 423.269 67.164C423.269 66.408 423.143 65.8433 422.891 65.47C422.649 65.0873 422.247 64.896 421.687 64.896C421.137 64.896 420.735 65.0873 420.483 65.47C420.241 65.8433 420.119 66.408 420.119 67.164ZM430.229 71.14C429.091 71.14 428.209 70.8273 427.583 70.202C426.967 69.5673 426.659 68.5733 426.659 67.22C426.659 66.2867 426.818 65.526 427.135 64.938C427.453 64.35 427.891 63.916 428.451 63.636C429.021 63.356 429.674 63.216 430.411 63.216C430.934 63.216 431.387 63.2673 431.769 63.37C432.161 63.4727 432.502 63.594 432.791 63.734L432.175 65.344C431.849 65.2133 431.541 65.106 431.251 65.022C430.971 64.938 430.691 64.896 430.411 64.896C429.329 64.896 428.787 65.666 428.787 67.206C428.787 67.9713 428.927 68.536 429.207 68.9C429.497 69.264 429.898 69.446 430.411 69.446C430.85 69.446 431.237 69.39 431.573 69.278C431.909 69.1567 432.236 68.9933 432.553 68.788V70.566C432.236 70.7713 431.9 70.916 431.545 71C431.2 71.0933 430.761 71.14 430.229 71.14ZM440.641 64.924H438.135V71H436.049V64.924H433.543V63.356H440.641V64.924ZM445.187 63.202C446.214 63.202 446.998 63.426 447.539 63.874C448.09 64.3127 448.365 64.9893 448.365 65.904V71H446.909L446.503 69.964H446.447C446.12 70.3747 445.775 70.6733 445.411 70.86C445.047 71.0467 444.548 71.14 443.913 71.14C443.232 71.14 442.667 70.944 442.219 70.552C441.771 70.1507 441.547 69.5393 441.547 68.718C441.547 67.906 441.832 67.3087 442.401 66.926C442.97 66.534 443.824 66.3193 444.963 66.282L446.293 66.24V65.904C446.293 65.5027 446.186 65.2087 445.971 65.022C445.766 64.8353 445.476 64.742 445.103 64.742C444.73 64.742 444.366 64.798 444.011 64.91C443.656 65.0127 443.302 65.1433 442.947 65.302L442.261 63.888C442.672 63.6733 443.124 63.5053 443.619 63.384C444.123 63.2627 444.646 63.202 445.187 63.202ZM446.293 67.458L445.481 67.486C444.809 67.5047 444.342 67.626 444.081 67.85C443.82 68.074 443.689 68.368 443.689 68.732C443.689 69.0493 443.782 69.278 443.969 69.418C444.156 69.5487 444.398 69.614 444.697 69.614C445.145 69.614 445.523 69.4833 445.831 69.222C446.139 68.9513 446.293 68.5733 446.293 68.088V67.458ZM457.276 65.358C457.276 65.7687 457.146 66.1187 456.884 66.408C456.632 66.6973 456.254 66.884 455.75 66.968V67.024C456.282 67.0893 456.707 67.2713 457.024 67.57C457.351 67.8687 457.514 68.2513 457.514 68.718C457.514 69.1567 457.398 69.5487 457.164 69.894C456.94 70.2393 456.581 70.51 456.086 70.706C455.592 70.902 454.943 71 454.14 71H450.5V63.356H454.14C454.738 63.356 455.27 63.4213 455.736 63.552C456.212 63.6733 456.586 63.8787 456.856 64.168C457.136 64.4573 457.276 64.854 457.276 65.358ZM455.162 65.526C455.162 65.0593 454.794 64.826 454.056 64.826H452.586V66.338H453.818C454.257 66.338 454.588 66.2773 454.812 66.156C455.046 66.0253 455.162 65.8153 455.162 65.526ZM455.358 68.606C455.358 68.3073 455.242 68.0927 455.008 67.962C454.775 67.822 454.425 67.752 453.958 67.752H452.586V69.558H454C454.392 69.558 454.714 69.488 454.966 69.348C455.228 69.1987 455.358 68.9513 455.358 68.606ZM464.317 63.356H466.613L463.589 67.024L466.879 71H464.513L461.391 67.122V71H459.305V63.356H461.391V67.066L464.317 63.356ZM471.109 63.202C472.136 63.202 472.92 63.426 473.461 63.874C474.012 64.3127 474.287 64.9893 474.287 65.904V71H472.831L472.425 69.964H472.369C472.042 70.3747 471.697 70.6733 471.333 70.86C470.969 71.0467 470.47 71.14 469.835 71.14C469.154 71.14 468.589 70.944 468.141 70.552C467.693 70.1507 467.469 69.5393 467.469 68.718C467.469 67.906 467.754 67.3087 468.323 66.926C468.892 66.534 469.746 66.3193 470.885 66.282L472.215 66.24V65.904C472.215 65.5027 472.108 65.2087 471.893 65.022C471.688 64.8353 471.398 64.742 471.025 64.742C470.652 64.742 470.288 64.798 469.933 64.91C469.578 65.0127 469.224 65.1433 468.869 65.302L468.183 63.888C468.594 63.6733 469.046 63.5053 469.541 63.384C470.045 63.2627 470.568 63.202 471.109 63.202ZM472.215 67.458L471.403 67.486C470.731 67.5047 470.264 67.626 470.003 67.85C469.742 68.074 469.611 68.368 469.611 68.732C469.611 69.0493 469.704 69.278 469.891 69.418C470.078 69.5487 470.32 69.614 470.619 69.614C471.067 69.614 471.445 69.4833 471.753 69.222C472.061 68.9513 472.215 68.5733 472.215 68.088V67.458Z" fill="black"/>
<defs>
<clipPath id="clip0">
<rect x="281" width="50" height="50" fill="white"/>
</clipPath>
<clipPath id="clip1">
<rect x="416" width="50" height="50" fill="white"/>
</clipPath>
</defs>
</svg>
