<svg width="110" height="110" viewBox="0 0 110 110" fill="none" xmlns="http://www.w3.org/2000/svg">
<circle cx="55" cy="55" r="53.5" fill="#4A5DA4" stroke="white" stroke-width="3"/>
<g clip-path="url(#clip0)">
<path d="M40.9373 71.0316C40.1611 71.0316 39.5311 71.6616 39.5311 72.4379C39.5311 73.2141 40.1611 73.8441 40.9373 73.8441C41.7136 73.8441 42.3436 73.2141 42.3436 72.4379C42.3436 71.6616 41.7136 71.0316 40.9373 71.0316Z" fill="white"/>
<path d="M82.3013 45.7189L90.5882 37.432C90.9368 37.0834 91.0773 36.5777 90.9588 36.0993C90.8402 35.6208 90.4797 35.2394 90.0086 35.094L69.8289 28.8657C68.0098 23.0184 62.603 19.0003 56.4061 19.0003C50.6455 19.0003 45.4936 22.511 43.3613 27.8069L19.9874 35.0953C19.5176 35.2418 19.1585 35.6234 19.0408 36.1014C18.9231 36.5793 19.0637 37.0841 19.4117 37.4322L27.9166 45.937L22.5526 54.8773C22.3331 55.243 22.2916 55.6887 22.4395 56.0887C22.5875 56.4888 22.9091 56.8 23.3138 56.9349L31.0936 59.528V81.1564C31.0936 81.7425 31.4572 82.2672 32.0061 82.4731C36.763 84.2568 54.4375 90.8856 54.5324 90.9192C54.8114 91.0175 55.1257 91.0308 55.4321 90.9317C55.4362 90.9303 55.4404 90.9294 55.4445 90.928L80.757 82.4905C81.3312 82.2991 81.7186 81.7617 81.7186 81.1564V58.9489L90.0152 56.3417C90.4843 56.1943 90.8423 55.8127 90.9595 55.3351C91.0765 54.8576 90.9357 54.3536 90.5881 54.0058L82.3013 45.7189ZM70.4686 33.0628C70.4686 32.7055 70.4535 32.349 70.4267 31.9936L86.9493 37.0934L79.9325 44.11L68.4676 40.2888C69.7659 38.1188 70.4686 35.6149 70.4686 33.0628ZM45.7646 29.4026C47.3256 24.863 51.6022 21.8128 56.4061 21.8128C61.5812 21.8128 66.0697 25.3132 67.3211 30.3251C67.5434 31.2157 67.6561 32.1368 67.6561 33.0628C67.6561 35.6748 66.7893 38.1229 65.149 40.1436C63.0007 42.7932 59.814 44.3128 56.4061 44.3128C52.7223 44.3128 49.267 42.5047 47.1624 39.4747C45.8499 37.5895 45.1561 35.3721 45.1561 33.0628C45.1561 31.8069 45.3607 30.5754 45.7646 29.4026ZM23.0449 37.0879L42.4934 31.0236C42.3958 31.6955 42.3436 32.3761 42.3436 33.0627C42.3436 35.3269 42.8799 37.5199 43.9023 39.4986L30.0672 44.11L23.0449 37.0879ZM25.8663 54.821L30.3128 47.4098L52.892 54.9362L48.4456 62.3474C46.0346 61.5437 28.4406 55.679 25.8663 54.821ZM53.5936 87.5648L33.9061 80.182V60.4656C49.3959 65.6015 48.6395 65.4447 49.0708 65.4447C49.5543 65.4447 50.0172 65.1945 50.2769 64.7618L53.5936 59.2337V87.5648ZM54.9998 52.6742L34.1345 45.7192L45.4961 41.9322C48.1553 45.2013 52.1585 47.1253 56.4061 47.1253C60.3354 47.1253 64.0284 45.5083 66.6847 42.6592L75.8652 45.7191L54.9998 52.6742ZM78.9061 80.1429L56.4061 87.6429V58.1651L61.3914 64.3962C61.7541 64.8494 62.3578 65.0331 62.9111 64.8592L78.9061 59.8329V80.1429ZM62.9862 61.8877L57.3578 54.8528L79.9325 47.3279L86.9587 54.3541L62.9862 61.8877Z" fill="white"/>
<path d="M49.8687 74.1528L46.7412 72.98C46.0141 72.7075 45.2035 73.0757 44.9307 73.8029C44.658 74.5302 45.0265 75.3408 45.7536 75.6135L48.8811 76.7863C49.6098 77.0594 50.4194 76.6892 50.6917 75.9633C50.9643 75.2362 50.5959 74.4255 49.8687 74.1528Z" fill="white"/>
<path d="M49.8686 80.1603L41.4311 76.9963C40.7039 76.7236 39.8934 77.092 39.6206 77.8192C39.3478 78.5464 39.7163 79.3571 40.4435 79.6298L48.881 82.7938C49.0437 82.8549 49.2105 82.8838 49.3746 82.8838C49.944 82.8838 50.4798 82.5355 50.6916 81.9709C50.9644 81.2436 50.5959 80.433 49.8686 80.1603Z" fill="white"/>
<path d="M64.4319 27.8495C63.8827 27.3002 62.9923 27.3004 62.443 27.8495L54.9999 35.2928L53.1817 33.4747C52.6326 32.9255 51.7422 32.9255 51.1929 33.4747C50.6436 34.0238 50.6437 34.9142 51.1929 35.4635L54.0055 38.2759C54.5547 38.825 55.4451 38.825 55.9944 38.2759L64.4319 29.8384C64.981 29.2892 64.981 28.3988 64.4319 27.8495Z" fill="white"/>
</g>
<defs>
<clipPath id="clip0">
<rect x="19" y="19" width="72" height="72" fill="white"/>
</clipPath>
</defs>
</svg>
