<svg width="110" height="110" viewBox="0 0 110 110" fill="none" xmlns="http://www.w3.org/2000/svg">
<circle cx="55" cy="55" r="53.5" fill="#4A5DA4" stroke="white" stroke-width="3"/>
<g clip-path="url(#clip0)">
<path d="M31.9547 43.2903C32.1911 43.2903 32.4307 43.2305 32.6506 43.105L38.575 39.7224C39.2494 39.3373 39.484 38.4784 39.099 37.8038C38.7139 37.1294 37.8551 36.8948 37.1804 37.2798L31.256 40.6624C30.5816 41.0475 30.347 41.9064 30.7321 42.581C30.9917 43.0355 31.4663 43.2903 31.9547 43.2903Z" fill="white"/>
<path d="M31.2632 29.6532L37.1832 33.0431C37.4036 33.1693 37.6438 33.2292 37.8807 33.2292C38.3684 33.2292 38.8426 32.9751 39.1025 32.5216C39.4884 31.8475 39.2548 30.9883 38.5809 30.6024L32.6609 27.2125C31.9867 26.8267 31.1276 27.0601 30.7418 27.7341C30.3558 28.4081 30.5893 29.2672 31.2632 29.6532Z" fill="white"/>
<path d="M78.102 69.5223C78.8787 69.5223 79.5083 68.8927 79.5083 68.1161C79.5083 67.3394 78.8787 66.7098 78.102 66.7098C77.3254 66.7098 76.6958 67.3394 76.6958 68.1161C76.6958 68.8927 77.3254 69.5223 78.102 69.5223Z" fill="white"/>
<path d="M78.0864 49.7533C78.8631 49.7533 79.4927 49.1237 79.4927 48.347C79.4927 47.5704 78.8631 46.9408 78.0864 46.9408C77.3098 46.9408 76.6802 47.5704 76.6802 48.347C76.6802 49.1237 77.3098 49.7533 78.0864 49.7533Z" fill="white"/>
<path d="M66.5312 29.0547C67.3079 29.0547 67.9375 28.4251 67.9375 27.6484C67.9375 26.8718 67.3079 26.2422 66.5312 26.2422C65.7546 26.2422 65.125 26.8718 65.125 27.6484C65.125 28.4251 65.7546 29.0547 66.5312 29.0547Z" fill="white"/>
<path d="M90.2925 66.883L79.4846 60.6942L79.4883 54.6767C79.4897 54.3012 79.3435 53.9483 79.0777 53.6825C78.8119 53.4167 78.4589 53.269 78.082 53.269C77.3072 53.269 76.6772 53.9005 76.6772 54.6753L76.673 60.6609L66.4733 66.4844L56.4143 60.7253L56.4217 49.1639L67.2372 42.9894C67.6745 42.739 67.9459 42.2708 67.9459 41.7673L67.9417 33.9753C67.9403 33.2005 67.3103 32.5705 66.5341 32.5705C65.7592 32.5705 65.1278 33.2019 65.1292 33.9767L65.1334 40.9517L55.0321 46.719L44.9075 40.9215L44.9154 28.564C44.9156 28.0596 44.6458 27.5936 44.2079 27.3429L32.665 20.7329C32.2325 20.4851 31.7015 20.4849 31.2688 20.7321L19.7173 27.3274C19.2793 27.5776 19.0087 28.0432 19.0083 28.5477L19 41.7527C18.9997 42.2571 19.2696 42.7232 19.7075 42.9739L30.5148 49.1624L30.5069 61.5199C30.5066 62.0244 30.7765 62.4904 31.2144 62.7411L41.9445 68.8855L41.9365 81.4362C41.9362 81.9407 42.2061 82.4067 42.644 82.6574L54.1869 89.2672C54.4035 89.3913 54.6445 89.4531 54.8857 89.4531C55.1261 89.4531 55.3669 89.3915 55.5829 89.2681L67.1344 82.6727C67.5724 82.4226 67.843 81.957 67.8434 81.4524L67.8514 68.9999L78.1055 63.1451L88.1875 68.9185V82.5625C88.1875 83.3392 88.8171 83.9688 89.5938 83.9688C90.3704 83.9688 91 83.3392 91 82.5625V68.1032C91 67.599 90.7301 67.1334 90.2925 66.883ZM21.8204 29.3652L31.9651 23.5731L42.1023 29.3778L42.095 40.8879L31.8947 46.7116L21.8131 40.9386L21.8204 29.3652ZM33.3272 49.196L43.5274 43.3721L53.6092 49.1451L53.6019 60.7187L43.4572 66.5107L33.32 60.7059L33.3272 49.196ZM65.0312 80.635L54.8865 86.427L44.7493 80.6223L44.7566 69.0489L54.9013 63.2568L65.0385 69.0615L65.0312 80.635Z" fill="white"/>
<path d="M60.1168 76.9636L54.1924 80.3462C53.518 80.7312 53.2834 81.5901 53.6684 82.2647C53.9279 82.7192 54.4025 82.9739 54.8909 82.9739C55.1273 82.9739 55.3669 82.9141 55.5868 82.7885L61.5112 79.4059C62.1857 79.0209 62.4202 78.162 62.0352 77.4874C61.6502 76.8131 60.7915 76.5784 60.1168 76.9636Z" fill="white"/>
<path d="M53.678 67.4175C53.2921 68.0915 53.5257 68.9507 54.1996 69.3366L60.1196 72.7265C60.34 72.8526 60.5801 72.9125 60.8171 72.9125C61.3048 72.9125 61.779 72.6584 62.0388 72.2049C62.4247 71.5309 62.1911 70.6717 61.5173 70.2858L55.5972 66.8959C54.9229 66.5102 54.0639 66.7436 53.678 67.4175Z" fill="white"/>
<path d="M48.9748 70.0926H48.9739C48.1977 70.0926 47.5681 70.7216 47.5677 71.498L47.5633 78.1766C47.5629 78.9532 48.1921 79.5832 48.9687 79.5837H48.9696C49.7458 79.5837 50.3754 78.9547 50.3758 78.1783L50.3802 71.4997C50.3806 70.7232 49.7515 70.0932 48.9748 70.0926Z" fill="white"/>
<path d="M84.7197 70.2859L84.2922 70.0412C84.0798 69.9189 83.838 69.8542 83.5947 69.8542C83.0912 69.8542 82.623 70.1256 82.3727 70.563C82.052 71.1213 82.1519 71.8244 82.6145 72.2716L82.6103 80.8553C82.6103 81.6316 83.2417 82.263 84.0166 82.263C84.7914 82.263 85.4228 81.633 85.4242 80.8567C85.4242 80.8567 85.4228 80.8567 85.4228 80.8553L85.4284 71.5066C85.4284 71.0031 85.157 70.5362 84.7197 70.2859Z" fill="white"/>
</g>
<defs>
<clipPath id="clip0">
<rect x="19" y="19" width="72" height="72" fill="white"/>
</clipPath>
</defs>
</svg>
