<svg width="20" height="20" viewBox="0 0 20 20" fill="none" xmlns="http://www.w3.org/2000/svg">
<g clip-path="url(#clip0)">
<path d="M12.3438 10.1562C12.1281 10.1562 11.9531 10.3313 11.9531 10.5469C11.9531 10.7625 12.1281 10.9375 12.3438 10.9375C12.5594 10.9375 12.7344 10.7625 12.7344 10.5469C12.7344 10.3313 12.5594 10.1562 12.3438 10.1562Z" fill="white"/>
<path d="M3.99157 14.4447L0.0853168 19.3666C-0.00791442 19.4839 -0.0256146 19.6443 0.0395404 19.7792C0.104695 19.9142 0.241414 20 0.391256 20H19.61C19.7598 20 19.8966 19.9142 19.9617 19.7792C20.027 19.6443 20.0092 19.4839 19.9159 19.3666L16.0097 14.4447C15.9357 14.3513 15.8229 14.2969 15.7038 14.2969H12.282L15.2033 9.71497C15.8885 8.68759 16.2506 7.48947 16.2506 6.25C16.2506 2.8038 13.447 0 10.0006 0C6.55428 0 3.75063 2.8038 3.75063 6.25C3.75063 7.48947 4.11272 8.68744 4.79799 9.71497L7.71929 14.2969H4.29751C4.17833 14.2969 4.06572 14.3513 3.99157 14.4447ZM2.53313 17.5391H4.89504L3.56203 19.2188H1.19997L2.53313 17.5391ZM8.21749 15.0781L9.28835 16.7578H6.51247L7.84563 15.0781H8.21749ZM11.7839 15.0781H12.1558L13.4888 16.7578H10.7131L11.7839 15.0781ZM14.1089 17.5391L15.4419 19.2188H4.55935L5.89251 17.5391H14.1089ZM16.4394 19.2188L15.1062 17.5391H17.4683L18.8013 19.2188H16.4394ZM16.8482 16.7578H14.4863L13.1531 15.0781H15.5152L16.8482 16.7578ZM5.45015 9.28467C4.84942 8.38531 4.53188 7.33597 4.53188 6.25C4.53188 3.23456 6.98519 0.78125 10.0006 0.78125C13.0161 0.78125 15.4694 3.23456 15.4694 6.25C15.4694 7.33597 15.1518 8.38531 14.5513 9.28467C14.5496 9.28696 14.5482 9.28925 14.5467 9.29153C14.2902 9.69391 10.1982 16.1121 10.0006 16.4218C9.50365 15.6422 5.96071 10.0853 5.45458 9.29153C5.45321 9.28925 5.45168 9.28696 5.45015 9.28467ZM6.84817 15.0781L5.51516 16.7578H3.1531L4.48626 15.0781H6.84817Z" fill="white"/>
<path d="M10 10.1562C12.1445 10.1562 13.9062 8.41965 13.9062 6.25C13.9062 4.09607 12.1539 2.34375 10 2.34375C7.84607 2.34375 6.09375 4.09607 6.09375 6.25C6.09375 8.42026 7.85614 10.1562 10 10.1562ZM10 3.125C11.7232 3.125 13.125 4.52682 13.125 6.25C13.125 7.9892 11.7119 9.375 10 9.375C8.28766 9.375 6.875 7.9892 6.875 6.25C6.875 4.52682 8.27682 3.125 10 3.125Z" fill="white"/>
<path d="M11.6453 11.4892C11.4607 11.3779 11.2205 11.4374 11.1091 11.6222L9.66536 14.0175C9.55397 14.2023 9.61348 14.4423 9.79826 14.5537C9.98381 14.6655 10.2235 14.6048 10.3345 14.4208L11.7782 12.0254C11.8896 11.8407 11.8301 11.6006 11.6453 11.4892Z" fill="white"/>
</g>
<defs>
<clipPath id="clip0">
<rect width="20" height="20" fill="white"/>
</clipPath>
</defs>
</svg>
