<svg width="218" height="43" viewBox="0 0 218 43" fill="none" xmlns="http://www.w3.org/2000/svg">
<path d="M55.228 5.436C55.228 6.02 55.044 6.484 54.676 6.828C54.308 7.164 53.816 7.38 53.2 7.476V7.524C53.92 7.62 54.468 7.844 54.844 8.196C55.22 8.548 55.408 9.008 55.408 9.576C55.408 10.328 55.12 10.94 54.544 11.412C53.968 11.884 53.104 12.12 51.952 12.12C51.488 12.12 51.044 12.084 50.62 12.012C50.204 11.948 49.816 11.828 49.456 11.652V10.668C49.832 10.844 50.24 10.984 50.68 11.088C51.128 11.184 51.548 11.232 51.94 11.232C52.708 11.232 53.288 11.088 53.68 10.8C54.08 10.512 54.28 10.104 54.28 9.576C54.28 9.032 54.048 8.636 53.584 8.388C53.12 8.14 52.472 8.016 51.64 8.016H50.416V7.116H51.58C52.428 7.116 53.06 6.976 53.476 6.696C53.9 6.408 54.112 6.024 54.112 5.544C54.112 5.112 53.952 4.78 53.632 4.548C53.312 4.316 52.896 4.2 52.384 4.2C51.848 4.2 51.4 4.268 51.04 4.404C50.688 4.54 50.344 4.716 50.008 4.932L49.492 4.2C49.828 3.952 50.24 3.744 50.728 3.576C51.224 3.4 51.78 3.312 52.396 3.312C53.324 3.312 54.028 3.512 54.508 3.912C54.988 4.312 55.228 4.82 55.228 5.436ZM62.5947 12L61.5627 9.348H58.1667L57.1467 12H56.0547L59.4027 3.396H60.3747L63.7107 12H62.5947ZM61.2387 8.388L60.2787 5.796C60.2547 5.732 60.2147 5.616 60.1587 5.448C60.1027 5.28 60.0467 5.108 59.9907 4.932C59.9427 4.748 59.9027 4.608 59.8707 4.512C59.8147 4.76 59.7507 5.004 59.6787 5.244C59.6067 5.476 59.5467 5.66 59.4987 5.796L58.5267 8.388H61.2387ZM64.8828 3.432H67.3308C68.4028 3.432 69.2108 3.592 69.7548 3.912C70.3068 4.224 70.5828 4.772 70.5828 5.556C70.5828 6.06 70.4428 6.48 70.1628 6.816C69.8828 7.144 69.4788 7.356 68.9508 7.452V7.512C69.3108 7.568 69.6348 7.672 69.9228 7.824C70.2188 7.976 70.4508 8.192 70.6188 8.472C70.7868 8.752 70.8708 9.116 70.8708 9.564C70.8708 10.34 70.6028 10.94 70.0668 11.364C69.5388 11.788 68.8148 12 67.8948 12H64.8828V3.432ZM65.9628 7.08H67.5468C68.2828 7.08 68.7868 6.964 69.0588 6.732C69.3308 6.492 69.4668 6.14 69.4668 5.676C69.4668 5.204 69.2988 4.868 68.9628 4.668C68.6348 4.46 68.1068 4.356 67.3788 4.356H65.9628V7.08ZM65.9628 7.98V11.088H67.6908C68.4508 11.088 68.9788 10.94 69.2748 10.644C69.5708 10.348 69.7188 9.96 69.7188 9.48C69.7188 9.032 69.5628 8.672 69.2508 8.4C68.9468 8.12 68.3988 7.98 67.6068 7.98H65.9628ZM80.1634 7.704C80.1634 8.592 80.0114 9.368 79.7074 10.032C79.4114 10.688 78.9714 11.2 78.3874 11.568C77.8034 11.936 77.0794 12.12 76.2154 12.12C75.3274 12.12 74.5874 11.936 73.9954 11.568C73.4114 11.2 72.9754 10.684 72.6874 10.02C72.3994 9.356 72.2554 8.58 72.2554 7.692C72.2554 6.812 72.3994 6.044 72.6874 5.388C72.9754 4.732 73.4114 4.22 73.9954 3.852C74.5874 3.484 75.3314 3.3 76.2274 3.3C77.0834 3.3 77.8034 3.484 78.3874 3.852C78.9714 4.212 79.4114 4.724 79.7074 5.388C80.0114 6.044 80.1634 6.816 80.1634 7.704ZM73.3954 7.704C73.3954 8.784 73.6234 9.636 74.0794 10.26C74.5354 10.876 75.2474 11.184 76.2154 11.184C77.1914 11.184 77.9034 10.876 78.3514 10.26C78.7994 9.636 79.0234 8.784 79.0234 7.704C79.0234 6.624 78.7994 5.78 78.3514 5.172C77.9034 4.556 77.1954 4.248 76.2274 4.248C75.2594 4.248 74.5434 4.556 74.0794 5.172C73.6234 5.78 73.3954 6.624 73.3954 7.704ZM87.6001 3.432V11.04H88.6921V14.256H87.6601V12H81.7681V14.256H80.7361V11.04H81.3961C81.6841 10.544 81.9561 9.988 82.2121 9.372C82.4761 8.756 82.7081 8.112 82.9081 7.44C83.1081 6.76 83.2721 6.08 83.4001 5.4C83.5281 4.72 83.6081 4.064 83.6401 3.432H87.6001ZM86.5321 4.404H84.5881C84.5561 4.868 84.4761 5.392 84.3481 5.976C84.2281 6.56 84.0721 7.16 83.8801 7.776C83.6961 8.384 83.4881 8.972 83.2561 9.54C83.0321 10.108 82.7921 10.608 82.5361 11.04H86.5321V4.404ZM95.5101 3.432C96.6301 3.432 97.4461 3.652 97.9581 4.092C98.4701 4.532 98.7261 5.152 98.7261 5.952C98.7261 6.424 98.6181 6.868 98.4021 7.284C98.1941 7.692 97.8381 8.024 97.3341 8.28C96.8381 8.536 96.1621 8.664 95.3061 8.664H94.3221V12H93.2421V3.432H95.5101ZM95.4141 4.356H94.3221V7.74H95.1861C96.0021 7.74 96.6101 7.608 97.0101 7.344C97.4101 7.08 97.6101 6.632 97.6101 6C97.6101 5.448 97.4341 5.036 97.0821 4.764C96.7301 4.492 96.1741 4.356 95.4141 4.356ZM105.296 12H100.508V3.432H105.296V4.38H101.588V7.056H105.08V7.992H101.588V11.052H105.296V12ZM112.24 5.436C112.24 6.02 112.056 6.484 111.688 6.828C111.32 7.164 110.828 7.38 110.212 7.476V7.524C110.932 7.62 111.48 7.844 111.856 8.196C112.232 8.548 112.42 9.008 112.42 9.576C112.42 10.328 112.132 10.94 111.556 11.412C110.98 11.884 110.116 12.12 108.964 12.12C108.5 12.12 108.056 12.084 107.632 12.012C107.216 11.948 106.828 11.828 106.468 11.652V10.668C106.844 10.844 107.252 10.984 107.692 11.088C108.14 11.184 108.56 11.232 108.952 11.232C109.72 11.232 110.3 11.088 110.692 10.8C111.092 10.512 111.292 10.104 111.292 9.576C111.292 9.032 111.06 8.636 110.596 8.388C110.132 8.14 109.484 8.016 108.652 8.016H107.428V7.116H108.592C109.44 7.116 110.072 6.976 110.488 6.696C110.912 6.408 111.124 6.024 111.124 5.544C111.124 5.112 110.964 4.78 110.644 4.548C110.324 4.316 109.908 4.2 109.396 4.2C108.86 4.2 108.412 4.268 108.052 4.404C107.7 4.54 107.356 4.716 107.02 4.932L106.504 4.2C106.84 3.952 107.252 3.744 107.74 3.576C108.236 3.4 108.792 3.312 109.408 3.312C110.336 3.312 111.04 3.512 111.52 3.912C112 4.312 112.24 4.82 112.24 5.436ZM114.242 3.432H115.25V8.136C115.25 8.4 115.246 8.696 115.238 9.024C115.23 9.352 115.218 9.652 115.202 9.924C115.194 10.196 115.182 10.396 115.166 10.524H115.214L119.93 3.432H121.13V12H120.122V7.344C120.122 7.048 120.126 6.732 120.134 6.396C120.15 6.06 120.166 5.752 120.182 5.472C120.198 5.192 120.21 4.992 120.218 4.872H120.17L115.442 12H114.242V3.432ZM129.993 12H128.913V8.004H124.521V12H123.441V3.432H124.521V7.056H128.913V3.432H129.993V12ZM139.812 7.704C139.812 8.592 139.66 9.368 139.356 10.032C139.06 10.688 138.62 11.2 138.036 11.568C137.452 11.936 136.728 12.12 135.864 12.12C134.976 12.12 134.236 11.936 133.644 11.568C133.06 11.2 132.624 10.684 132.336 10.02C132.048 9.356 131.904 8.58 131.904 7.692C131.904 6.812 132.048 6.044 132.336 5.388C132.624 4.732 133.06 4.22 133.644 3.852C134.236 3.484 134.98 3.3 135.876 3.3C136.732 3.3 137.452 3.484 138.036 3.852C138.62 4.212 139.06 4.724 139.356 5.388C139.66 6.044 139.812 6.816 139.812 7.704ZM133.044 7.704C133.044 8.784 133.272 9.636 133.728 10.26C134.184 10.876 134.896 11.184 135.864 11.184C136.84 11.184 137.552 10.876 138 10.26C138.448 9.636 138.672 8.784 138.672 7.704C138.672 6.624 138.448 5.78 138 5.172C137.552 4.556 136.844 4.248 135.876 4.248C134.908 4.248 134.192 4.556 133.728 5.172C133.272 5.78 133.044 6.624 133.044 7.704ZM141.711 3.432H144.159C145.231 3.432 146.039 3.592 146.583 3.912C147.135 4.224 147.411 4.772 147.411 5.556C147.411 6.06 147.271 6.48 146.991 6.816C146.711 7.144 146.307 7.356 145.779 7.452V7.512C146.139 7.568 146.463 7.672 146.751 7.824C147.047 7.976 147.279 8.192 147.447 8.472C147.615 8.752 147.699 9.116 147.699 9.564C147.699 10.34 147.431 10.94 146.895 11.364C146.367 11.788 145.643 12 144.723 12H141.711V3.432ZM142.791 7.08H144.375C145.111 7.08 145.615 6.964 145.887 6.732C146.159 6.492 146.295 6.14 146.295 5.676C146.295 5.204 146.127 4.868 145.791 4.668C145.463 4.46 144.935 4.356 144.207 4.356H142.791V7.08ZM142.791 7.98V11.088H144.519C145.279 11.088 145.807 10.94 146.103 10.644C146.399 10.348 146.547 9.96 146.547 9.48C146.547 9.032 146.391 8.672 146.079 8.4C145.775 8.12 145.227 7.98 144.435 7.98H142.791ZM149.516 12V3.432H150.596V7.056H151.916C152.716 7.056 153.344 7.164 153.8 7.38C154.264 7.596 154.592 7.888 154.784 8.256C154.984 8.624 155.084 9.036 155.084 9.492C155.084 10.244 154.84 10.852 154.352 11.316C153.872 11.772 153.104 12 152.048 12H149.516ZM156.404 12V3.432H157.484V12H156.404ZM150.596 11.088H151.952C152.64 11.088 153.148 10.956 153.476 10.692C153.804 10.428 153.968 10.028 153.968 9.492C153.968 8.94 153.788 8.556 153.428 8.34C153.076 8.116 152.532 8.004 151.796 8.004H150.596V11.088ZM165.636 12H164.412L162.144 8.28L159.84 12H158.7L161.544 7.536L158.88 3.432H160.08L162.18 6.792L164.292 3.432H165.432L162.78 7.512L165.636 12ZM173.637 4.26C172.717 4.26 171.993 4.568 171.465 5.184C170.937 5.8 170.673 6.644 170.673 7.716C170.673 8.78 170.917 9.624 171.405 10.248C171.901 10.864 172.641 11.172 173.625 11.172C174.001 11.172 174.357 11.14 174.693 11.076C175.029 11.012 175.357 10.932 175.677 10.836V11.772C175.357 11.892 175.025 11.98 174.681 12.036C174.345 12.092 173.941 12.12 173.469 12.12C172.597 12.12 171.869 11.94 171.285 11.58C170.701 11.22 170.261 10.708 169.965 10.044C169.677 9.38 169.533 8.6 169.533 7.704C169.533 6.84 169.689 6.08 170.001 5.424C170.321 4.76 170.789 4.244 171.405 3.876C172.021 3.5 172.769 3.312 173.649 3.312C174.553 3.312 175.341 3.48 176.013 3.816L175.581 4.728C175.317 4.608 175.021 4.5 174.693 4.404C174.373 4.308 174.021 4.26 173.637 4.26ZM181.327 12L178.507 4.488H178.459C178.483 4.736 178.503 5.072 178.519 5.496C178.535 5.912 178.543 6.348 178.543 6.804V12H177.547V3.432H179.143L181.783 10.452H181.831L184.519 3.432H186.103V12H185.035V6.732C185.035 6.316 185.043 5.904 185.059 5.496C185.083 5.088 185.103 4.756 185.119 4.5H185.071L182.215 12H181.327ZM193.222 12H188.434V3.432H193.222V4.38H189.514V7.056H193.006V7.992H189.514V11.052H193.222V12ZM198.774 4.26C197.854 4.26 197.13 4.568 196.602 5.184C196.074 5.8 195.81 6.644 195.81 7.716C195.81 8.78 196.054 9.624 196.542 10.248C197.038 10.864 197.778 11.172 198.762 11.172C199.138 11.172 199.494 11.14 199.83 11.076C200.166 11.012 200.494 10.932 200.814 10.836V11.772C200.494 11.892 200.162 11.98 199.818 12.036C199.482 12.092 199.078 12.12 198.606 12.12C197.734 12.12 197.006 11.94 196.422 11.58C195.838 11.22 195.398 10.708 195.102 10.044C194.814 9.38 194.67 8.6 194.67 7.704C194.67 6.84 194.826 6.08 195.138 5.424C195.458 4.76 195.926 4.244 196.542 3.876C197.158 3.5 197.906 3.312 198.786 3.312C199.69 3.312 200.478 3.48 201.15 3.816L200.717 4.728C200.454 4.608 200.158 4.5 199.83 4.404C199.51 4.308 199.158 4.26 198.774 4.26ZM207.472 12H202.684V3.432H207.472V4.38H203.764V7.056H207.256V7.992H203.764V11.052H207.472V12ZM209.364 3.432H210.372V8.136C210.372 8.4 210.368 8.696 210.36 9.024C210.352 9.352 210.34 9.652 210.324 9.924C210.316 10.196 210.304 10.396 210.288 10.524H210.336L215.052 3.432H216.252V12H215.243V7.344C215.243 7.048 215.248 6.732 215.256 6.396C215.272 6.06 215.288 5.752 215.304 5.472C215.32 5.192 215.332 4.992 215.34 4.872H215.292L210.564 12H209.364V3.432ZM215.196 0.767999C215.14 1.368 214.936 1.824 214.584 2.136C214.24 2.44 213.688 2.592 212.928 2.592C212.144 2.592 211.588 2.44 211.26 2.136C210.94 1.832 210.76 1.376 210.72 0.767999H211.704C211.744 1.2 211.856 1.492 212.04 1.644C212.232 1.788 212.536 1.86 212.952 1.86C213.32 1.86 213.608 1.784 213.816 1.632C214.032 1.472 214.16 1.184 214.2 0.767999H215.196ZM50.176 17.432H51.184V22.136C51.184 22.4 51.18 22.696 51.172 23.024C51.164 23.352 51.152 23.652 51.136 23.924C51.128 24.196 51.116 24.396 51.1 24.524H51.148L55.864 17.432H57.064V26H56.056V21.344C56.056 21.048 56.06 20.732 56.068 20.396C56.084 20.06 56.1 19.752 56.116 19.472C56.132 19.192 56.144 18.992 56.152 18.872H56.104L51.376 26H50.176V17.432ZM64.7601 17.432C65.8801 17.432 66.6961 17.652 67.2081 18.092C67.7201 18.532 67.9761 19.152 67.9761 19.952C67.9761 20.424 67.8681 20.868 67.6521 21.284C67.4441 21.692 67.0881 22.024 66.5841 22.28C66.0881 22.536 65.4121 22.664 64.5561 22.664H63.5721V26H62.4921V17.432H64.7601ZM64.6641 18.356H63.5721V21.74H64.4361C65.2521 21.74 65.8601 21.608 66.2601 21.344C66.6601 21.08 66.8601 20.632 66.8601 20C66.8601 19.448 66.6841 19.036 66.3321 18.764C65.9801 18.492 65.4241 18.356 64.6641 18.356ZM74.5458 26H69.7578V17.432H74.5458V18.38H70.8378V21.056H74.3298V21.992H70.8378V25.052H74.5458V26ZM81.4897 19.436C81.4897 20.02 81.3057 20.484 80.9377 20.828C80.5697 21.164 80.0777 21.38 79.4617 21.476V21.524C80.1817 21.62 80.7297 21.844 81.1057 22.196C81.4817 22.548 81.6697 23.008 81.6697 23.576C81.6697 24.328 81.3817 24.94 80.8057 25.412C80.2297 25.884 79.3657 26.12 78.2137 26.12C77.7497 26.12 77.3057 26.084 76.8817 26.012C76.4657 25.948 76.0777 25.828 75.7177 25.652V24.668C76.0937 24.844 76.5017 24.984 76.9417 25.088C77.3897 25.184 77.8097 25.232 78.2017 25.232C78.9697 25.232 79.5497 25.088 79.9417 24.8C80.3417 24.512 80.5417 24.104 80.5417 23.576C80.5417 23.032 80.3097 22.636 79.8457 22.388C79.3817 22.14 78.7337 22.016 77.9017 22.016H76.6777V21.116H77.8417C78.6897 21.116 79.3217 20.976 79.7377 20.696C80.1617 20.408 80.3737 20.024 80.3737 19.544C80.3737 19.112 80.2137 18.78 79.8937 18.548C79.5737 18.316 79.1577 18.2 78.6457 18.2C78.1097 18.2 77.6617 18.268 77.3017 18.404C76.9497 18.54 76.6057 18.716 76.2697 18.932L75.7537 18.2C76.0897 17.952 76.5017 17.744 76.9897 17.576C77.4857 17.4 78.0417 17.312 78.6577 17.312C79.5857 17.312 80.2897 17.512 80.7697 17.912C81.2497 18.312 81.4897 18.82 81.4897 19.436ZM83.4924 17.432H84.5004V22.136C84.5004 22.4 84.4964 22.696 84.4884 23.024C84.4804 23.352 84.4684 23.652 84.4524 23.924C84.4444 24.196 84.4324 24.396 84.4164 24.524H84.4644L89.1804 17.432H90.3804V26H89.3724V21.344C89.3724 21.048 89.3764 20.732 89.3844 20.396C89.4004 20.06 89.4164 19.752 89.4324 19.472C89.4484 19.192 89.4604 18.992 89.4684 18.872H89.4204L84.6924 26H83.4924V17.432ZM99.2433 26H98.1633V22.004H93.7713V26H92.6913V17.432H93.7713V21.056H98.1633V17.432H99.2433V26ZM109.062 21.704C109.062 22.592 108.91 23.368 108.606 24.032C108.31 24.688 107.87 25.2 107.286 25.568C106.702 25.936 105.978 26.12 105.114 26.12C104.226 26.12 103.486 25.936 102.894 25.568C102.31 25.2 101.874 24.684 101.586 24.02C101.298 23.356 101.154 22.58 101.154 21.692C101.154 20.812 101.298 20.044 101.586 19.388C101.874 18.732 102.31 18.22 102.894 17.852C103.486 17.484 104.23 17.3 105.126 17.3C105.982 17.3 106.702 17.484 107.286 17.852C107.87 18.212 108.31 18.724 108.606 19.388C108.91 20.044 109.062 20.816 109.062 21.704ZM102.294 21.704C102.294 22.784 102.522 23.636 102.978 24.26C103.434 24.876 104.146 25.184 105.114 25.184C106.09 25.184 106.802 24.876 107.25 24.26C107.698 23.636 107.922 22.784 107.922 21.704C107.922 20.624 107.698 19.78 107.25 19.172C106.802 18.556 106.094 18.248 105.126 18.248C104.158 18.248 103.442 18.556 102.978 19.172C102.522 19.78 102.294 20.624 102.294 21.704ZM113.31 26H112.23V18.38H109.554V17.432H115.974V18.38H113.31V26ZM122.054 26H117.266V17.432H122.054V18.38H118.346V21.056H121.838V21.992H118.346V25.052H122.054V26ZM129.754 26H128.53L126.262 22.28L123.958 26H122.818L125.662 21.536L122.998 17.432H124.198L126.298 20.792L128.41 17.432H129.55L126.898 21.512L129.754 26ZM137.517 26H136.437V22.004H132.045V26H130.965V17.432H132.045V21.056H136.437V17.432H137.517V26ZM139.871 17.432H140.879V22.136C140.879 22.4 140.875 22.696 140.867 23.024C140.859 23.352 140.847 23.652 140.831 23.924C140.823 24.196 140.811 24.396 140.795 24.524H140.843L145.559 17.432H146.759V26H145.751V21.344C145.751 21.048 145.755 20.732 145.763 20.396C145.779 20.06 145.795 19.752 145.811 19.472C145.827 19.192 145.839 18.992 145.847 18.872H145.799L141.071 26H139.871V17.432ZM155.118 26H154.038V22.484C153.574 22.644 153.138 22.776 152.73 22.88C152.33 22.976 151.882 23.024 151.386 23.024C150.586 23.024 149.966 22.84 149.526 22.472C149.086 22.096 148.866 21.556 148.866 20.852V17.432H149.946V20.696C149.946 21.16 150.066 21.508 150.306 21.74C150.554 21.964 150.95 22.076 151.494 22.076C151.966 22.076 152.39 22.032 152.766 21.944C153.142 21.856 153.566 21.736 154.038 21.584V17.432H155.118V26ZM162.237 26H157.449V17.432H162.237V18.38H158.529V21.056H162.021V21.992H158.529V25.052H162.237V26ZM167.789 18.26C166.869 18.26 166.145 18.568 165.617 19.184C165.089 19.8 164.825 20.644 164.825 21.716C164.825 22.78 165.069 23.624 165.557 24.248C166.053 24.864 166.793 25.172 167.777 25.172C168.153 25.172 168.509 25.14 168.845 25.076C169.181 25.012 169.509 24.932 169.829 24.836V25.772C169.509 25.892 169.177 25.98 168.833 26.036C168.497 26.092 168.093 26.12 167.621 26.12C166.749 26.12 166.021 25.94 165.437 25.58C164.853 25.22 164.413 24.708 164.117 24.044C163.829 23.38 163.685 22.6 163.685 21.704C163.685 20.84 163.841 20.08 164.153 19.424C164.473 18.76 164.941 18.244 165.557 17.876C166.173 17.5 166.921 17.312 167.801 17.312C168.705 17.312 169.493 17.48 170.165 17.816L169.733 18.728C169.469 18.608 169.173 18.5 168.845 18.404C168.525 18.308 168.173 18.26 167.789 18.26ZM177.951 26H176.655L172.779 21.656V26H171.699V17.432H172.779V21.584L176.559 17.432H177.783L174.063 21.596L177.951 26ZM179.129 17.432H180.137V22.136C180.137 22.4 180.133 22.696 180.125 23.024C180.117 23.352 180.105 23.652 180.089 23.924C180.081 24.196 180.069 24.396 180.053 24.524H180.101L184.817 17.432H186.017V26H185.009V21.344C185.009 21.048 185.013 20.732 185.021 20.396C185.037 20.06 185.053 19.752 185.069 19.472C185.085 19.192 185.097 18.992 185.105 18.872H185.057L180.329 26H179.129V17.432ZM194.148 26H192.924L190.656 22.28L188.352 26H187.212L190.056 21.536L187.392 17.432H188.592L190.692 20.792L192.804 17.432H193.944L191.292 21.512L194.148 26ZM50.176 31.432H51.184V36.136C51.184 36.4 51.18 36.696 51.172 37.024C51.164 37.352 51.152 37.652 51.136 37.924C51.128 38.196 51.116 38.396 51.1 38.524H51.148L55.864 31.432H57.064V40H56.056V35.344C56.056 35.048 56.06 34.732 56.068 34.396C56.084 34.06 56.1 33.752 56.116 33.472C56.132 33.192 56.144 32.992 56.152 32.872H56.104L51.376 40H50.176V31.432ZM64.4389 33.436C64.4389 34.02 64.2549 34.484 63.8869 34.828C63.5189 35.164 63.0269 35.38 62.4109 35.476V35.524C63.1309 35.62 63.6789 35.844 64.0549 36.196C64.4309 36.548 64.6189 37.008 64.6189 37.576C64.6189 38.328 64.3309 38.94 63.7549 39.412C63.1789 39.884 62.3149 40.12 61.1629 40.12C60.6989 40.12 60.2549 40.084 59.8309 40.012C59.4149 39.948 59.0269 39.828 58.6669 39.652V38.668C59.0429 38.844 59.4509 38.984 59.8909 39.088C60.3389 39.184 60.7589 39.232 61.1509 39.232C61.9189 39.232 62.4989 39.088 62.8909 38.8C63.2909 38.512 63.4909 38.104 63.4909 37.576C63.4909 37.032 63.2589 36.636 62.7949 36.388C62.3309 36.14 61.6829 36.016 60.8509 36.016H59.6269V35.116H60.7909C61.6389 35.116 62.2709 34.976 62.6869 34.696C63.1109 34.408 63.3229 34.024 63.3229 33.544C63.3229 33.112 63.1629 32.78 62.8429 32.548C62.5229 32.316 62.1069 32.2 61.5949 32.2C61.0589 32.2 60.6109 32.268 60.2509 32.404C59.8989 32.54 59.5549 32.716 59.2189 32.932L58.7029 32.2C59.0389 31.952 59.4509 31.744 59.9389 31.576C60.4349 31.4 60.9909 31.312 61.6069 31.312C62.5349 31.312 63.2389 31.512 63.7189 31.912C64.1989 32.312 64.4389 32.82 64.4389 33.436ZM72.2016 31.432V39.04H73.2936V42.256H72.2616V40H66.3696V42.256H65.3376V39.04H65.9976C66.2856 38.544 66.5576 37.988 66.8136 37.372C67.0776 36.756 67.3096 36.112 67.5096 35.44C67.7096 34.76 67.8736 34.08 68.0016 33.4C68.1296 32.72 68.2096 32.064 68.2416 31.432H72.2016ZM71.1336 32.404H69.1896C69.1576 32.868 69.0776 33.392 68.9496 33.976C68.8296 34.56 68.6736 35.16 68.4816 35.776C68.2976 36.384 68.0896 36.972 67.8576 37.54C67.6336 38.108 67.3936 38.608 67.1376 39.04H71.1336V32.404ZM79.5145 40H74.7265V31.432H79.5145V32.38H75.8065V35.056H79.2985V35.992H75.8065V39.052H79.5145V40ZM87.5625 40H86.4825V32.38H83.7705C83.6985 32.972 83.6185 33.596 83.5305 34.252C83.4425 34.9 83.3545 35.52 83.2665 36.112C83.1785 36.704 83.0905 37.208 83.0025 37.624C82.8985 38.16 82.7705 38.616 82.6185 38.992C82.4665 39.368 82.2625 39.652 82.0065 39.844C81.7585 40.036 81.4305 40.132 81.0225 40.132C80.8865 40.132 80.7465 40.116 80.6025 40.084C80.4665 40.06 80.3465 40.028 80.2425 39.988V39.088C80.3305 39.128 80.4305 39.164 80.5425 39.196C80.6545 39.22 80.7745 39.232 80.9025 39.232C81.1425 39.232 81.3305 39.136 81.4665 38.944C81.6105 38.744 81.7225 38.5 81.8025 38.212C81.8825 37.916 81.9505 37.624 82.0065 37.336C82.0705 37.032 82.1465 36.588 82.2345 36.004C82.3305 35.412 82.4305 34.724 82.5345 33.94C82.6465 33.156 82.7585 32.32 82.8705 31.432H87.5625V40ZM89.9026 31.432H90.9106V36.136C90.9106 36.4 90.9066 36.696 90.8986 37.024C90.8906 37.352 90.8786 37.652 90.8626 37.924C90.8546 38.196 90.8426 38.396 90.8266 38.524H90.8746L95.5906 31.432H96.7906V40H95.7826V35.344C95.7826 35.048 95.7866 34.732 95.7946 34.396C95.8106 34.06 95.8266 33.752 95.8426 33.472C95.8586 33.192 95.8706 32.992 95.8786 32.872H95.8306L91.1026 40H89.9026V31.432ZM99.1135 31.432H100.122V36.136C100.122 36.4 100.118 36.696 100.11 37.024C100.102 37.352 100.09 37.652 100.074 37.924C100.066 38.196 100.054 38.396 100.038 38.524H100.086L104.802 31.432H106.002V40H104.993V35.344C104.993 35.048 104.998 34.732 105.006 34.396C105.022 34.06 105.038 33.752 105.054 33.472C105.07 33.192 105.082 32.992 105.09 32.872H105.042L100.314 40H99.1135V31.432ZM104.946 28.768C104.89 29.368 104.686 29.824 104.334 30.136C103.99 30.44 103.438 30.592 102.678 30.592C101.894 30.592 101.338 30.44 101.01 30.136C100.69 29.832 100.51 29.376 100.47 28.768H101.454C101.494 29.2 101.606 29.492 101.79 29.644C101.982 29.788 102.286 29.86 102.702 29.86C103.07 29.86 103.358 29.784 103.566 29.632C103.782 29.472 103.91 29.184 103.95 28.768H104.946Z" fill="white"/>
<path d="M33.3781 9.49686L34.1556 13.3485C34.4579 14.8095 35.7537 15.872 37.2222 15.872H37.9997V9.18695C36.4016 9.14268 34.8898 9.2755 33.3781 9.49686Z" fill="white"/>
<path d="M24.7687 19.855L26.0368 19.1096C27.3487 18.3642 27.9609 16.7858 27.4799 15.3827L26.2992 11.6997C23.3694 12.8397 20.6582 14.4181 18.2532 16.3473L20.8332 19.1973C21.8389 20.3373 23.4569 20.6003 24.7687 19.855Z" fill="white"/>
<path d="M15.9789 29.1941L16.7223 27.9226C17.4657 26.6073 17.2033 24.985 16.1101 23.9765L13.2678 21.3896C11.3437 23.8012 9.76951 26.5196 8.63257 29.4572L12.262 30.641C13.7051 31.0795 15.2356 30.5095 15.9789 29.1941Z" fill="white"/>
<path d="M12.6509 40.2204C12.6509 38.7479 11.6715 37.4486 10.3248 37.1455L6.81521 36.3659C6.61116 37.8817 6.48873 39.3975 6.48873 40.9999H12.6509V40.2204Z" fill="white"/>
<path d="M17.4997 41.0002H24.9997C24.9997 33.7657 30.7406 27.992 37.9558 27.992H37.9995V20.4067H37.9558C26.5427 20.4067 17.4997 29.5566 17.4997 41.0002Z" fill="white"/>
<path d="M6.50001 41C6.50001 39.4216 6.74193 37.9449 6.96083 36.4103C7.31106 34.0426 7.92396 31.7627 8.79953 29.5704C9.93778 26.6327 11.5138 23.9143 13.4401 21.5028C14.9286 19.6613 16.5922 17.9513 18.4309 16.4606C20.8387 14.5314 23.553 12.9529 26.4862 11.8129C28.6751 10.936 30.9516 10.3222 33.3594 9.97144C34.8917 9.75221 36.424 9.62067 38 9.62067V3C17.03 3 0 19.998 0 41H6.50001Z" fill="white"/>
</svg>
