<svg width="20" height="20" viewBox="0 0 20 20" fill="none" xmlns="http://www.w3.org/2000/svg">
<g clip-path="url(#clip0)">
<path d="M18.3963 7.50678L17.1101 6.22V3.67012C17.1101 2.80847 16.4091 2.10745 15.5474 2.10745H13.0003L11.0089 0.114934C10.9357 0.0416842 10.8363 0.0004688 10.7327 0.000429734L9.27736 0C9.27732 0 9.27728 0 9.27724 0C9.17367 0 9.07433 0.0411372 9.00108 0.114348L7.00672 2.10749H4.45246C3.59081 2.10749 2.8898 2.8085 2.8898 3.67016V6.22411L1.60442 7.50651C1.22411 7.88663 1.01463 8.39211 1.01463 8.92986V17.9877C1.01463 18.5297 1.23044 19.022 1.58016 19.3842C1.5877 19.3932 1.59556 19.4021 1.60403 19.4106C1.61247 19.419 1.6213 19.4268 1.63029 19.4343C1.99247 19.7841 2.48483 20 3.02696 20H8.24197C8.45774 20 8.63264 19.8251 8.63264 19.6093C8.63264 19.3936 8.45774 19.2187 8.24197 19.2187H3.02692C2.82975 19.2187 2.64344 19.1718 2.47803 19.089L7.08279 14.4843L8.58193 15.9825C8.96197 16.3624 9.4671 16.5715 10.0044 16.5715H10.005C10.5425 16.5714 11.0478 16.3619 11.4277 15.9817L12.9206 14.4878L17.5218 19.089C17.3565 19.1718 17.1701 19.2187 16.9729 19.2187H11.758C11.5422 19.2187 11.3673 19.3936 11.3673 19.6093C11.3673 19.8251 11.5422 20 11.758 20H16.973C17.5151 20 18.0074 19.7842 18.3696 19.4344C18.3786 19.4269 18.3875 19.419 18.396 19.4106C18.4045 19.4021 18.4123 19.3932 18.4199 19.3842C18.7695 19.022 18.9854 18.5297 18.9854 17.9877V8.92928C18.9853 8.39203 18.7762 7.88686 18.3963 7.50678ZM17.1101 7.3252L17.8437 8.05911C17.9114 8.12689 17.97 8.20135 18.0194 8.28073L17.1101 9.1906V7.3252ZM9.43894 0.781373L10.5707 0.781764L11.8956 2.10749H8.112L9.43894 0.781373ZM2.15651 8.05942L2.88983 7.32778V9.18931L1.98079 8.28085C2.03021 8.20151 2.08881 8.12708 2.15651 8.05942ZM1.92555 18.5366C1.84281 18.3712 1.79597 18.1849 1.79597 17.9877V9.20071L6.53015 13.932L1.92555 18.5366ZM10.8751 15.4294C10.6427 15.662 10.3336 15.7901 10.0048 15.7902C10.0047 15.7902 10.0046 15.7902 10.0045 15.7902C9.6758 15.7902 9.36678 15.6622 9.13429 15.4299L3.67117 9.97013V3.67012C3.67117 3.23929 4.02168 2.88879 4.4525 2.88879H15.5474C15.9783 2.88879 16.3288 3.23929 16.3288 3.67012V6.33189C16.3251 6.36295 16.3251 6.39428 16.3288 6.42534V9.97236L10.8751 15.4294ZM18.204 17.9877C18.204 18.1849 18.1571 18.3712 18.0744 18.5366L13.473 13.9352L18.204 9.20138V17.9877Z" fill="white"/>
<path d="M9.99993 19.2185C9.89718 19.2185 9.79639 19.2603 9.72373 19.333C9.65106 19.4056 9.60926 19.5064 9.60926 19.6092C9.60926 19.7119 9.65106 19.8127 9.72373 19.8854C9.79639 19.9584 9.89718 19.9998 9.99993 19.9998C10.1027 19.9998 10.2035 19.9584 10.2761 19.8854C10.3488 19.8127 10.3906 19.7119 10.3906 19.6092C10.3906 19.5064 10.3488 19.4056 10.2761 19.333C10.2035 19.2603 10.1027 19.2185 9.99993 19.2185Z" fill="white"/>
<path d="M9.99998 4.5271C7.96609 4.5271 6.31142 6.18173 6.31142 8.21562C6.31142 10.2773 7.98875 11.9547 10.0505 11.9547H12.4249C12.6407 11.9547 12.8156 11.7797 12.8156 11.564C12.8156 11.3483 12.6407 11.1733 12.4249 11.1733H10.0505C8.41958 11.1733 7.09276 9.8465 7.09276 8.21562C7.09276 6.6126 8.39692 5.30843 9.99998 5.30843C11.603 5.30843 12.9072 6.6126 12.9072 8.21562V9.01621C12.9072 9.3239 12.6569 9.5742 12.3492 9.5742C12.0415 9.5742 11.7911 9.3239 11.7911 9.01621V8.11194C11.7911 7.04233 10.921 6.17216 9.85137 6.17216C8.72664 6.17216 7.81166 7.08718 7.81166 8.21191C7.81166 9.3366 8.72668 10.2516 9.85137 10.2516H10.4728C10.6886 10.2516 10.8635 10.0767 10.8635 9.86095C10.8635 9.64523 10.6886 9.47029 10.4728 9.47029H9.85137C9.15751 9.47029 8.59299 8.90577 8.59299 8.21187C8.59299 7.51801 9.15751 6.95349 9.85137 6.95349C10.4901 6.95349 11.0098 7.4732 11.0098 8.11194V9.01621C11.0098 9.75473 11.6106 10.3555 12.3492 10.3555C13.0877 10.3555 13.6885 9.75473 13.6885 9.01621V8.21562C13.6885 6.18173 12.0338 4.5271 9.99998 4.5271Z" fill="white"/>
</g>
<defs>
<clipPath id="clip0">
<rect width="20" height="20" fill="white"/>
</clipPath>
</defs>
</svg>
