<svg width="30" height="29" viewBox="0 0 30 29" fill="none" xmlns="http://www.w3.org/2000/svg">
<path d="M28.678 21.1245L24.2247 17.4679C24.2041 17.4511 24.1823 17.4356 24.1596 17.4216C22.9913 16.7035 21.4912 16.8625 20.5117 17.8082L18.0837 20.1526C17.9155 20.3152 17.6646 20.3632 17.4446 20.2756C14.7029 19.1804 12.4506 17.5316 10.7503 15.3755C9.45366 13.7314 8.98624 12.4249 8.92461 12.2408C8.91728 12.2014 8.90559 12.1623 8.8891 12.124C8.79813 11.9116 8.84785 11.6697 9.01649 11.5073L11.4443 9.16229C12.4238 8.21644 12.5883 6.7679 11.8446 5.63973C11.8386 5.63066 11.8324 5.62181 11.826 5.61296L8.61002 1.29743C7.5982 -0.218369 5.39424 -0.447365 4.0715 0.829704L3.5853 1.2992L3.58415 1.30031L1.8483 2.97652C-0.22162 4.97553 -0.560267 7.97925 0.869246 11.6635C2.09369 14.8195 4.54488 18.2735 7.77119 21.3889C11.0738 24.578 14.7474 26.9888 18.1151 28.1772C21.4484 29.3531 24.9941 29.498 27.5037 27.0744L29.1408 25.4938C30.4576 24.2221 30.2278 22.1078 28.678 21.1245ZM23.4979 18.3578L27.9473 22.0113C27.9677 22.0281 27.9895 22.0436 28.0121 22.0575C28.9625 22.6419 29.1064 23.9251 28.3111 24.6929L28.1897 24.8104L20.6008 19.3237L21.3411 18.6091C21.9197 18.0502 22.8014 17.9491 23.4979 18.3578ZM7.63005 1.91981C7.63601 1.92889 7.64219 1.93796 7.64861 1.94659L10.8632 6.26056C11.3 6.93561 11.1989 7.79738 10.6149 8.36136L9.89748 9.05432L4.76323 1.76361L4.90094 1.63064C5.69944 0.859573 7.02722 1.00538 7.63005 1.91981ZM18.5174 27.1132C15.3069 25.9803 11.785 23.6629 8.60063 20.588C5.49002 17.5845 3.13438 14.2739 1.96744 11.2662C1.0915 9.00852 0.503792 5.87669 2.67773 3.77767L3.91891 2.57893L9.05315 9.86963L8.18728 10.7062C7.69466 11.181 7.53978 11.8837 7.78563 12.5094C7.97076 13.2431 8.82265 14.7659 9.6821 15.8881C10.9469 17.5396 13.2425 19.8227 16.9962 21.3223C17.6559 21.5858 18.4081 21.4411 18.9131 20.9537L19.7629 20.1329L27.3518 25.6195L26.6743 26.2735C24.3438 28.5241 20.9523 27.9723 18.5174 27.1132Z" fill="white"/>
</svg>
