<svg width="110" height="110" viewBox="0 0 110 110" fill="none" xmlns="http://www.w3.org/2000/svg">
<circle cx="55" cy="55" r="53.5" fill="#4A5DA4" stroke="white" stroke-width="3"/>
<g clip-path="url(#clip0)">
<path d="M35.7948 88.6865C35.2153 88.6865 34.6834 88.3186 34.4785 87.7764C34.269 87.2213 34.4411 86.569 34.9018 86.1936C35.3646 85.8166 36.0285 85.7737 36.5363 86.0869C37.0144 86.3819 37.2748 86.9561 37.1815 87.5102C37.0683 88.1798 36.4753 88.6865 35.7948 88.6865Z" fill="white"/>
<path d="M89.5826 66.515C88.4939 65.4263 87.0465 64.8266 85.5069 64.8266C84.8377 64.8266 84.1858 64.94 83.5734 65.1575C83.4368 65.0346 83.3014 64.9141 83.2495 64.8716C80.9506 62.9913 77.6318 63.1583 75.5298 65.2602L68.887 71.9031C68.3314 72.4583 66.0641 73.762 65.4046 73.8446H61.3495C60.6384 73.8446 60.3588 73.3029 60.2901 73.1368C60.2319 72.9962 60.0901 72.5586 60.3529 72.1224L63.5646 71.1921C65.3011 70.6891 66.6414 69.3498 67.15 67.6093C67.6484 65.9037 67.2521 64.0944 66.0886 62.7686C66.0343 62.7069 65.9786 62.6456 65.9214 62.5851C64.9893 61.6009 63.274 61.4983 60.0017 62.231C57.696 62.7472 55.0319 63.6095 53.2029 64.2421C49.2321 65.6154 46.1524 68.6699 44.7863 72.5278H43.3582V71.4249C43.3582 70.6482 42.7286 70.0186 41.952 70.0186H20.4062C19.6296 70.0186 19 70.6482 19 71.4249V87.2804C19 88.0571 19.6296 88.6866 20.4062 88.6866H29.4113C30.1879 88.6866 30.8175 88.0571 30.8175 87.2804C30.8175 86.5037 30.1879 85.8741 29.4113 85.8741H21.8125V72.8311H40.5455V87.2804C40.5455 88.0571 41.175 88.6866 41.9517 88.6866C42.7284 88.6866 43.3579 88.0571 43.3579 87.2804V86.1775H47.5609C51.696 87.5876 55.9678 88.2979 60.2977 88.2979C61.248 88.2978 62.2016 88.2636 63.1566 88.1951C68.5214 87.8101 73.6557 86.3625 78.4168 83.8926C79.5573 83.301 79.9675 83.0178 80.2061 82.7873L88.9176 74.7014C88.9304 74.6896 88.943 74.6775 88.9552 74.6653C90.0221 73.5989 90.7467 72.1849 90.9436 70.786C91.1748 69.141 90.6916 67.6241 89.5826 66.515ZM77.5184 67.249C78.4961 66.2711 79.9879 66.1108 81.1347 66.8117L74.788 73.1582C74.3455 73.6009 73.7568 73.8447 73.1309 73.8447H70.9227L77.5184 67.249ZM78.2416 80.775C78.2475 80.7691 78.254 80.7624 78.2613 80.7557C78.2547 80.7622 78.2481 80.7685 78.2416 80.775ZM88.1584 70.3946C88.0459 71.1941 87.6183 72.0182 86.9838 72.6593L78.2791 80.7388C78.2777 80.7401 78.2765 80.7412 78.2753 80.7425C78.2215 80.7824 77.9686 80.9572 77.1218 81.3965C68.2917 85.9771 57.8051 86.7348 48.3521 83.4761L48.2545 83.4423C48.107 83.3914 47.9521 83.3655 47.796 83.3655H43.3579V75.3408H45.8225C46.4608 75.3408 47.0191 74.9109 47.1821 74.2937C48.0911 70.8529 50.6854 68.0891 54.1219 66.9006C61.6394 64.3008 63.617 64.5295 63.9647 64.613C63.9681 64.617 63.9718 64.621 63.9751 64.625C64.5074 65.2315 64.6806 66.0319 64.45 66.8207C64.2126 67.6326 63.5891 68.257 62.7818 68.4909L59.1528 69.5419C58.925 69.608 58.7175 69.7305 58.5497 69.8984C57.3957 71.0525 57.0668 72.7058 57.6913 74.2134C58.3157 75.7209 59.7175 76.6574 61.3493 76.6574H73.1309C74.5082 76.6574 75.8029 76.121 76.7768 75.1472L83.4202 68.5038C83.9777 67.9464 84.7186 67.6394 85.5069 67.6394C86.2951 67.6394 87.0365 67.9465 87.5939 68.5038C88.077 68.9869 88.2668 69.623 88.1584 70.3946Z" fill="white"/>
<path d="M75.2 39.5001C77.8467 39.5001 80 37.3692 80 34.75C80 32.1309 77.8467 30 75.2 30H68.8C67.9163 30 67.2 30.7089 67.2 31.5833V36.3334H65.6C64.7163 36.3334 64 37.0423 64 37.9167C64 38.7912 64.7163 39.5001 65.6 39.5001H67.2V42.6669H65.6C64.7163 42.6669 64 43.3758 64 44.2503C64 45.1248 64.7163 45.8336 65.6 45.8336H67.2V47.4167C67.2 48.2911 67.9163 49 68.8 49C69.6837 49 70.4 48.2911 70.4 47.4167V45.8336H75.2C76.0835 45.8336 76.8 45.1248 76.8 44.2503C76.8 43.3758 76.0835 42.6669 75.2 42.6669H70.4V39.5001H75.2ZM70.4 33.1667H75.2C76.0822 33.1667 76.8 33.877 76.8 34.75C76.8 35.6231 76.0822 36.3334 75.2 36.3334H70.4V33.1667Z" fill="white"/>
<path d="M71.7182 58.4363C61.3968 58.4363 53 50.0393 53 39.7181C53 29.3968 61.3969 21 71.7182 21C82.0393 21 90.4363 29.397 90.4363 39.7181C90.4363 50.0393 82.0393 58.4363 71.7182 58.4363ZM71.7182 23.8125C62.9478 23.8125 55.8125 30.9478 55.8125 39.7181C55.8125 48.4884 62.9478 55.6238 71.7182 55.6238C80.4885 55.6238 87.6238 48.4885 87.6238 39.7181C87.6238 30.9476 80.4885 23.8125 71.7182 23.8125Z" fill="white"/>
</g>
<defs>
<clipPath id="clip0">
<rect x="19" y="19" width="72" height="72" fill="white"/>
</clipPath>
</defs>
</svg>
