<svg width="110" height="110" viewBox="0 0 110 110" fill="none" xmlns="http://www.w3.org/2000/svg">
<circle cx="55" cy="55" r="53.5" fill="#4A5DA4" stroke="white" stroke-width="3"/>
<g clip-path="url(#clip0)">
<path d="M34.0469 45.7188C34.0469 57.35 43.5095 66.8126 55.1407 66.8126C66.7719 66.8126 76.2345 57.35 76.2345 45.7188C76.2345 34.0875 66.7719 24.625 55.1407 24.625C43.5095 24.625 34.0469 34.0875 34.0469 45.7188ZM55.1407 27.4375C65.2212 27.4375 73.422 35.6383 73.422 45.7188C73.422 55.7993 65.2212 64.0001 55.1407 64.0001C45.0602 64.0001 36.8594 55.7993 36.8594 45.7188C36.8594 35.6383 45.0602 27.4375 55.1407 27.4375Z" fill="white"/>
<path d="M42.1174 43.2117L47.5683 48.5824L46.3142 56.1306C46.2269 56.6563 46.4438 57.1858 46.875 57.4989C47.3057 57.812 47.8765 57.8543 48.3494 57.6093L55.1406 54.0827L61.9313 57.6093C62.4004 57.8527 62.9711 57.8148 63.4057 57.4989C63.8369 57.1858 64.0538 56.6563 63.9665 56.1306L62.7124 48.5824L68.1633 43.2117C68.5429 42.8382 68.6785 42.2823 68.5138 41.7753C68.349 41.2688 67.9122 40.8991 67.3855 40.8194L59.8208 39.6807L56.398 32.8357C56.1602 32.3594 55.6729 32.0584 55.1406 32.0584C54.6078 32.0584 54.1211 32.3594 53.8827 32.8357L50.4599 39.6807L42.8952 40.8194C42.3685 40.8985 41.9317 41.2688 41.7669 41.7753C41.6022 42.2823 41.7384 42.8382 42.1174 43.2117ZM51.6008 42.3531C52.0535 42.285 52.4446 42.001 52.6495 41.5918L55.1406 36.6089L57.6318 41.5918C57.8367 42.001 58.2278 42.285 58.6804 42.3531L64.1862 43.1821L60.2185 47.0904C59.8928 47.4118 59.7434 47.8716 59.8181 48.3231L60.731 53.8168L55.7883 51.2504C55.5856 51.145 55.3631 51.0922 55.1406 51.0922C54.9182 51.0922 54.6957 51.145 54.4924 51.2504L49.5497 53.8168L50.4626 48.3231C50.5379 47.8716 50.3885 47.4118 50.0622 47.0904L46.095 43.1821L51.6008 42.3531Z" fill="white"/>
<path d="M56.5469 20.4063C56.5469 21.183 55.9174 21.8125 55.1406 21.8125C54.3639 21.8125 53.7344 21.183 53.7344 20.4063C53.7344 19.6295 54.3639 19 55.1406 19C55.9174 19 56.5469 19.6295 56.5469 20.4063Z" fill="white"/>
<path d="M48.5131 19.8289C36.6836 22.8485 28.4219 33.4948 28.4219 45.7188C28.4219 53.3109 31.6139 60.4647 37.2175 65.531L28.7454 80.462C28.4729 80.9427 28.507 81.5381 28.8322 81.9842C29.1574 82.4308 29.7133 82.6455 30.2544 82.5329L39.8757 80.5351L43.2573 90.0641C43.4407 90.5826 43.9104 90.9457 44.4586 90.9946C45.0068 91.0435 45.5325 90.7672 45.8045 90.2887L55.1406 73.8751L64.4763 90.2887C64.7279 90.7309 65.1959 90.9996 65.698 90.9996C65.7392 90.9996 65.7809 90.9979 65.8221 90.9946C66.3703 90.9457 66.84 90.5821 67.024 90.0641L70.4051 80.5351L80.0264 82.5329C80.5669 82.645 81.1233 82.4302 81.4485 81.9842C81.7743 81.5381 81.8078 80.9427 81.5353 80.462L73.0632 65.531C78.6668 60.4647 81.8589 53.3109 81.8589 45.7188C81.8589 33.4948 73.5972 22.8485 61.7682 19.8289C61.015 19.6367 60.2498 20.0909 60.0576 20.8435C59.8653 21.5961 60.3196 22.3618 61.0722 22.5541C71.6553 25.2556 79.0469 34.7813 79.0469 45.7188C79.0469 59.0304 68.2358 69.6251 55.1406 69.6251C42.0361 69.6251 31.2344 59.0216 31.2344 45.7188C31.2344 34.7813 38.6254 25.2556 49.2086 22.5541C49.9611 22.3618 50.4154 21.5961 50.2237 20.8435C50.0314 20.0909 49.2662 19.6367 48.5131 19.8289ZM44.88 86.2265L42.1163 78.4389C41.8812 77.7764 41.1935 77.3891 40.5052 77.5319L32.7252 79.1475L39.4302 67.3306C43.3397 70.1727 47.9688 71.9042 52.7824 72.3327L44.88 86.2265ZM69.7756 77.5319C69.0878 77.3891 68.3995 77.7764 68.1644 78.4389L65.4013 86.2265L57.4983 72.3327C62.3125 71.9042 66.9411 70.1727 70.8511 67.3306L77.5561 79.1475L69.7756 77.5319Z" fill="white"/>
</g>
<defs>
<clipPath id="clip0">
<rect x="19" y="19" width="72" height="72" fill="white"/>
</clipPath>
</defs>
</svg>
