<svg width="62" height="60" viewBox="0 0 62 60" fill="none" xmlns="http://www.w3.org/2000/svg">
<path d="M62 20.4189C62 16.9264 60.225 13.8216 57.4905 11.8829C60.0889 11.1874 62 8.90698 62 6.20879C62 2.95998 59.2296 0.316772 55.8242 0.316772H11.1406C4.99766 0.316772 0 5.0848 0 10.9455C0 14.4381 1.77499 17.5428 4.50953 19.4815C1.9111 20.177 0 22.4575 0 25.1556C0 27.8544 1.91243 30.1337 4.51195 30.8286C1.77608 32.7672 0 35.8722 0 39.3658C0 42.8584 1.77499 45.9631 4.50953 47.9018C1.9111 48.5973 0 50.8778 0 53.5759C0 56.8248 2.77038 59.468 6.17578 59.468H50.8594C57.0023 59.468 62 54.6999 62 48.8392C62 45.3466 60.225 42.2419 57.4905 40.3032C60.0889 39.6077 62 37.3273 62 34.6291C62 31.9303 60.0876 29.651 57.488 28.9561C60.2239 27.0175 62 23.9125 62 20.4189ZM59.5781 34.6291C59.5781 36.6039 57.8941 38.2105 55.8242 38.2105H11.1406C10.4718 38.2105 9.92969 38.7278 9.92969 39.3658C9.92969 40.0037 10.4718 40.5211 11.1406 40.5211H50.8594C55.6669 40.5211 59.5781 44.2526 59.5781 48.8392C59.5781 53.4259 55.6669 57.1574 50.8594 57.1574H6.17578C4.10593 57.1574 2.42188 55.5508 2.42188 53.5759C2.42188 51.6011 4.10593 49.9945 6.17578 49.9945H46.2578C46.925 49.9945 47.4688 49.4758 47.4688 48.8392C47.4688 48.2027 46.925 47.6839 46.2578 47.6839H11.1406C6.33308 47.6839 2.42188 43.9524 2.42188 39.3658C2.42188 34.7792 6.33308 31.0477 11.1406 31.0477H55.8242C57.8941 31.0477 59.5781 32.6542 59.5781 34.6291ZM50.8594 28.7371H6.17578C4.10593 28.7371 2.42188 27.1305 2.42188 25.1556C2.42188 23.1808 4.10593 21.5742 6.17578 21.5742H51.1016C51.7704 21.5742 52.3125 21.0569 52.3125 20.4189C52.3125 19.781 51.7704 19.2636 51.1016 19.2636H11.1406C6.33308 19.2636 2.42188 15.5321 2.42188 10.9455C2.42188 6.35886 6.33308 2.62737 11.1406 2.62737H55.8242C57.8941 2.62737 59.5781 4.23392 59.5781 6.20879C59.5781 8.18365 57.8941 9.7902 55.8242 9.7902H11.1406C10.4718 9.7902 9.92969 10.3075 9.92969 10.9455C9.92969 11.5835 10.4718 12.1008 11.1406 12.1008H50.8594C55.6669 12.1008 59.5781 15.8323 59.5781 20.4189C59.5781 25.0056 55.6669 28.7371 50.8594 28.7371Z" fill="white"/>
</svg>
