<svg width="62" height="62" viewBox="0 0 62 62" fill="none" xmlns="http://www.w3.org/2000/svg">
<g clip-path="url(#clip0)">
<path d="M42.143 18.7875C41.4733 18.7875 40.9297 19.3286 40.9297 19.9979C40.9297 20.6668 41.4733 21.2089 42.143 21.2089C42.8141 21.2089 43.3563 20.6668 43.3563 19.9979C43.3563 19.3286 42.8141 18.7875 42.143 18.7875Z" fill="white"/>
<path d="M20.0978 40.7892C19.4267 40.7892 18.8845 41.3317 18.8845 42.0001C18.8845 42.6699 19.4267 43.2111 20.0978 43.2111C20.7674 43.2111 21.3111 42.6699 21.3111 42.0001C21.3111 41.3317 20.7674 40.7892 20.0978 40.7892Z" fill="white"/>
<path d="M60.6716 7.28752C60.2621 7.19244 59.8318 7.3159 59.536 7.6139L54.506 12.6738H52.0946L49.44 9.92888V7.48855L54.398 2.46647C54.6913 2.16941 54.8108 1.74227 54.7136 1.33595C54.6169 0.930093 54.3174 0.602761 53.9212 0.469369C52.6756 0.0502707 51.3723 -0.162117 50.0466 -0.162117C46.0949 -0.162117 42.5047 1.677 40.1966 4.88362C38.0363 7.88542 37.3704 11.5641 38.3245 15.0848L29.3873 24.0046L14.4977 9.11007V6.18679C14.4977 5.76155 14.274 5.36705 13.9086 5.14851L5.32964 0.0105367C4.8519 -0.275642 4.24098 -0.200431 3.84761 0.192651L0.416223 3.61686C0.0228464 4.00994 -0.0525112 4.61967 0.233753 5.09648L5.38083 13.6587C5.59979 14.0234 5.99459 14.2462 6.42067 14.2466L9.34872 14.2476L24.2397 29.1421L15.3366 38.0278C11.809 37.0761 8.1212 37.7417 5.1121 39.8991C1.9011 42.2013 0.0598145 45.7835 0.0598145 49.7276C0.0598145 51.0502 0.272617 52.3514 0.692535 53.5941C0.826662 53.9919 1.15795 54.2923 1.56744 54.3869C1.97741 54.4819 2.40728 54.3585 2.7035 54.0605L7.73303 49.001H10.1578L12.9204 51.7583V54.1783L7.85105 59.198C7.55246 59.4936 7.42876 59.9226 7.52402 60.3318C7.61881 60.7405 7.91977 61.0711 8.31836 61.205C9.56342 61.6241 10.8673 61.8365 12.1924 61.8365C16.1442 61.8365 19.7329 59.9983 22.0401 56.7936C24.2018 53.7904 24.8686 50.1103 23.915 46.5896L31.0655 39.4531L32.7035 41.2288L31.9518 41.9785C31.4778 42.4516 31.4778 43.2183 31.9518 43.6913C32.4257 44.1639 33.1935 44.1639 33.6679 43.6913L34.3485 43.0121L49.7168 59.6729C49.7282 59.6852 49.74 59.697 49.7519 59.7088C52.5955 62.547 57.2028 62.5479 60.0479 59.7084C62.885 56.8754 62.885 52.2658 60.0479 49.4329C60.0356 49.4206 60.0228 49.4088 60.01 49.3969L43.2905 34.088L43.9635 33.4163C44.4375 32.9438 44.4375 32.177 43.9635 31.704C43.4896 31.231 42.7218 31.231 42.2474 31.704L41.5009 32.4495L39.7184 30.8166L46.9034 23.6456C47.9248 23.9181 48.9788 24.0562 50.0466 24.0562C56.7369 24.0562 62.1792 18.624 62.1792 11.9473C62.1792 10.6242 61.9664 9.32341 61.5465 8.0803C61.4124 7.68249 61.0811 7.38212 60.6716 7.28752ZM10.7109 12.1814C10.4834 11.9539 10.1748 11.838 9.85253 11.838L7.10837 11.8371L2.80208 4.6613L4.89361 2.57385L12.0711 6.87268V9.61148C12.0711 9.93219 12.1986 10.2397 12.4256 10.4667L27.6716 25.7174L25.9554 27.4298L10.7109 12.1814ZM41.5729 35.8023L58.3493 51.1627C60.2233 53.0529 60.2176 56.1134 58.3317 57.9965C56.4416 59.8829 53.3818 59.8886 51.4841 58.0131L36.0657 41.2979L41.5729 35.8023ZM39.7833 34.1632L34.4206 39.5146L32.7826 37.7388L38.0008 32.5304L39.7833 34.1632ZM50.0466 21.6343C48.9855 21.6343 47.9418 21.4645 46.9456 21.1296C46.5091 20.9834 46.0266 21.096 45.7005 21.421C39.6179 27.4917 26.5113 40.5722 21.6851 45.3895C21.359 45.7149 21.2458 46.1965 21.3932 46.6326C22.4017 49.6216 21.9193 52.8098 20.069 55.3807C18.2239 57.944 15.3527 59.4146 12.1924 59.4146C11.8374 59.4146 11.4843 59.3952 11.1346 59.3579L14.9882 55.5415C15.2176 55.3145 15.347 55.0051 15.347 54.682V51.2564C15.347 50.9352 15.219 50.6273 14.9916 50.4002L11.518 46.9334C11.2905 46.7064 10.9819 46.5787 10.6601 46.5787H7.22781C6.9041 46.5787 6.59414 46.7078 6.36617 46.9368L2.54283 50.7829C2.50491 50.4338 2.48595 50.0814 2.48595 49.7271C2.48595 46.5725 3.95899 43.7074 6.52778 41.866C9.10322 40.0193 12.2981 39.5373 15.2935 40.5443C15.73 40.6914 16.2124 40.5784 16.5385 40.2529C16.6053 40.1867 40.5369 16.3014 40.5539 16.2844C40.88 15.959 40.9928 15.4779 40.8459 15.0418C39.8369 12.0527 40.3184 8.86552 42.1673 6.29654C44.0138 3.73086 46.8854 2.25976 50.0462 2.25976C50.4121 2.25976 50.7756 2.2801 51.1358 2.31983L47.3622 6.14233C47.1385 6.36891 47.0134 6.67401 47.0134 6.99188V10.4175C47.0134 10.7316 47.1352 11.0329 47.3537 11.2585L50.7059 14.7253C50.9344 14.9618 51.2495 15.0952 51.5789 15.0952H55.0113C55.3345 15.0952 55.6445 14.9666 55.8724 14.7372L59.6958 10.8915C59.7337 11.2406 59.7526 11.593 59.7526 11.9473C59.7526 17.2886 55.3985 21.6343 50.0466 21.6343Z" fill="white"/>
<path d="M37.8537 22.5664L22.6708 37.7197C22.1973 38.1923 22.1973 38.959 22.6708 39.4321C23.1448 39.9051 23.913 39.9051 24.387 39.4321L39.5699 24.2788C40.0439 23.8062 40.0439 23.0395 39.5699 22.5664C39.096 22.0934 38.3277 22.0934 37.8537 22.5664Z" fill="white"/>
<path d="M53.186 54.7344C53.66 55.206 54.4282 55.206 54.9022 54.7315C55.3752 54.258 55.3738 53.4912 54.8993 53.0192L43.963 42.1392C43.4886 41.6671 42.7198 41.6685 42.2473 42.142C41.7738 42.616 41.7752 43.3823 42.2497 43.8544L53.186 54.7344Z" fill="white"/>
</g>
<defs>
<clipPath id="clip0">
<rect width="62" height="62" fill="white"/>
</clipPath>
</defs>
</svg>
