<svg width="26" height="26" fill="none" xmlns="http://www.w3.org/2000/svg"><g clip-path="url(#clip0)"><path d="M6.17 17.23c.21 0 .38-.17.38-.38v-.838h.839a.38.38 0 100-.762H6.55v-.838a.38.38 0 00-.762 0v.838H4.95a.38.38 0 000 .762h.838v.838c0 .21.17.38.38.38zm5.099.825a.767.767 0 00.388.971c.29.14.62.112.923-.175.977-.924 1.968-1.861 2.942-2.785a.8.8 0 00.256-.677.812.812 0 00-.415-.606c-.46-.264-.919-.53-1.378-.797.25-.589.51-1.195.746-1.804a.76.76 0 00-.084-.707c-.292-.422-.851-.447-1.228-.088-.985.937-1.96 1.855-2.94 2.784a.805.805 0 00-.258.673.795.795 0 00.39.594c.467.283.938.548 1.404.815-.263.63-.506 1.182-.746 1.802zm.95-.31c.2-.48.4-.963.609-1.458a.429.429 0 00-.191-.556c-.544-.312-1.093-.619-1.633-.945-.038-.023-.037-.028-.002-.062 1.043-.987 2.911-2.774 2.996-2.83.016.005.022.012.022.013-.266.687-.562 1.37-.847 2.043a.429.429 0 00.19.557c.54.312 1.08.626 1.62.937.03.017.034.05.015.07-1.037.982-2.907 2.78-3.002 2.83-.008-.003-.018-.01-.017-.015.076-.194.159-.392.24-.584zm8.83-1.733a.38.38 0 100-.762H18.61a.38.38 0 000 .762h2.438zm-3.54 5.654c0 .21.17.38.38.38h4.379a.686.686 0 00.685-.685V8.877a.686.686 0 00-.685-.686H3.732a.686.686 0 00-.685.686v12.484c0 .378.307.686.685.686h12.634a.38.38 0 100-.762H3.81V8.953h18.38v12.332h-4.3a.38.38 0 00-.381.381zM24.857 7.43c.63 0 1.143-.513 1.143-1.143V5.17c0-.63-.512-1.142-1.143-1.142h-1.563V2.902a.89.89 0 00-.889-.888h-.178V.889A.89.89 0 0021.34 0h-2.103a.89.89 0 00-.889.889v1.125h-.178a.89.89 0 00-.888.888v1.126H8.719V2.902a.89.89 0 00-.888-.888h-.178V.889A.89.89 0 006.764 0H4.661a.89.89 0 00-.888.889v1.125h-.178a.89.89 0 00-.889.888v1.126H1.143C.513 4.028 0 4.54 0 5.17v1.117c0 .63.513 1.143 1.143 1.143h.38v2.656a.38.38 0 10.762 0V7.43h21.43v15.379H2.285v-11.2a.38.38 0 10-.762 0v11.2h-.38C.513 22.809 0 23.32 0 23.95v.906C0 25.487.513 26 1.143 26h23.714c.63 0 1.143-.512 1.143-1.143v-.906c0-.63-.512-1.142-1.143-1.142h-.38V7.429h.38zM19.11.889c0-.07.057-.127.127-.127h2.103c.07 0 .127.057.127.127v1.125H19.11V.889zm-1.067 2.013c0-.07.057-.127.127-.127h4.236c.07 0 .127.057.127.127v1.126h-4.49V2.902zM4.534.89c0-.07.057-.127.127-.127h2.103c.07 0 .127.057.127.127v1.125H4.534V.889zM3.468 2.902c0-.07.057-.127.127-.127h4.236c.07 0 .127.057.127.127v1.126h-4.49V2.902zm21.39 20.668c.21 0 .38.171.38.381v.906a.38.38 0 01-.38.381H1.142a.38.38 0 01-.381-.38v-.907c0-.21.17-.38.38-.38h23.715zM1.142 6.668a.38.38 0 01-.381-.38V5.17c0-.21.17-.38.38-.38h23.715c.21 0 .381.17.381.38v1.117a.38.38 0 01-.38.381H1.142z" fill="#919191"/></g><defs><clipPath id="clip0"><path fill="#fff" d="M0 0h26v26H0z"/></clipPath></defs></svg>