<svg width="30" height="30" fill="none" xmlns="http://www.w3.org/2000/svg"><g clip-path="url(#clip0)" fill="#fff"><path d="M15 20a.936.936 0 01-.677-.29l-6.562-6.875c-.569-.595-.146-1.585.677-1.585h3.438V4.064c0-.861.701-1.563 1.562-1.563h3.125c.862 0 1.563.702 1.563 1.563v7.188h3.437c.824 0 1.247.99.678 1.585l-6.563 6.874a.936.936 0 01-.677.29zm12.813 7.5H2.188A2.19 2.19 0 010 25.312v-.625A2.19 2.19 0 012.188 22.5h25.625A2.19 2.19 0 0130 24.688v.625a2.19 2.19 0 01-2.188 2.187z"/></g><defs><clipPath id="clip0"><path fill="#fff" d="M0 0h30v30H0z"/></clipPath></defs></svg>