<svg width="26" height="26" fill="none" xmlns="http://www.w3.org/2000/svg"><path d="M22.435 1.258H5.24V.42A.42.42 0 004.822 0H3.564a.42.42 0 00-.42.42v25.16c0 .232.188.42.42.42h1.258a.42.42 0 00.42-.42V15.517h17.193a.42.42 0 00.42-.42V1.678a.42.42 0 00-.42-.419zM4.588 25.235h-.765V.765h.765v24.47zM22.015 6.29h-4.193v4.194h4.194v4.193h-4.194v-4.193h-4.194v4.193H9.435v-4.193H5.24V6.29h4.194V2.097h4.193V6.29h4.194V2.097h4.194V6.29z" fill="#919191"/><path d="M13.63 6.29H9.435v4.194h4.193V6.291z" fill="#919191"/></svg>