<svg width="26" height="27" fill="none" xmlns="http://www.w3.org/2000/svg"><path d="M24.834 7.624v-.001C21.863 1.087 14.156-1.803 7.62 1.169A13 13 0 000 13.003v4.07a3.013 3.013 0 00.889 2.145L2.64 20.97l.238.656a4.92 4.92 0 004.692 3.182c.091 0 .184-.01.276-.015l.021.06a1.743 1.743 0 002.233 1.046l.07-.026a1.742 1.742 0 001.049-2.23l-3.433-9.49a1.749 1.749 0 00-2.233-1.046l-.07.026a1.733 1.733 0 00-1.135 1.86 5.18 5.18 0 00-1.7 2.119.433.433 0 01-.048-.188v-3.921c0-5.744 4.656-10.4 10.4-10.4 5.744 0 10.4 4.656 10.4 10.4v3.921a.406.406 0 01-.018.09 5.196 5.196 0 00-1.659-2.022 1.733 1.733 0 00-1.134-1.86l-.072-.025a1.747 1.747 0 00-2.23 1.046l-3.433 9.49a1.742 1.742 0 001.047 2.23l.07.026a1.745 1.745 0 002.233-1.047l.022-.06c.091.005.184.016.275.016a4.92 4.92 0 004.692-3.182l.278-.768 1.64-1.64c.57-.568.89-1.34.889-2.145v-4.07a12.897 12.897 0 00-1.166-5.38zM5.281 14.399a.867.867 0 01.496-.452l.07-.025a.878.878 0 011.124.526l3.432 9.49a.874.874 0 01-.526 1.12l-.071.025a.878.878 0 01-1.123-.526l-.13-.363-3.302-9.13a.867.867 0 01.03-.665zm-.661 1.475v-.002l2.92 8.07a4.083 4.083 0 01-3.707-2.273H3.9c.043 0 .082-.008.124-.012.04-.004.07-.004.106-.01.057-.01.113-.025.168-.043.031-.01.062-.016.093-.027.058-.025.114-.053.168-.085.026-.014.053-.024.077-.04a1.349 1.349 0 00.22-2.09l-1.552-1.554a4.263 4.263 0 011.316-1.934zm-2.887-2.871v3.921a1.29 1.29 0 00.381.92l2.13 2.13a.486.486 0 11-.688.686l-2.054-2.055a2.151 2.151 0 01-.635-1.532v-4.07c-.003-1.64.329-3.261.976-4.767h.947a11.295 11.295 0 00-1.057 4.767zM13 1.736a11.273 11.273 0 00-9.758 5.633h-.989c3.111-5.935 10.445-8.225 16.38-5.114a12.134 12.134 0 015.114 5.114h-.989A11.273 11.273 0 0013 1.736zm4.99 21.159l-.47 1.3-.13.362a.878.878 0 01-1.123.527l-.072-.026a.875.875 0 01-.527-1.12l3.433-9.49a.876.876 0 011.122-.526h.001l.072.027c.454.163.69.663.527 1.118l-2.832 7.828zm.544 1.047l1.915-5.295 1.003-2.774a4.278 4.278 0 011.3 1.881l-1.606 1.606a1.354 1.354 0 00.229 2.095c.027.018.056.03.084.044a1.6 1.6 0 00.173.081c.034.013.069.02.103.03a1.266 1.266 0 00.28.049c.03 0 .059.009.087.009.027 0 .052-.006.079-.008.026-.002.043.003.062 0a4.082 4.082 0 01-3.71 2.282zm6.6-6.869a2.153 2.153 0 01-.636 1.532l-1.707 1.708-.347.347a.486.486 0 11-.687-.687l2.13-2.13c.244-.243.38-.574.38-.919v-3.921c0-1.647-.361-3.274-1.057-4.767h.947c.647 1.506.98 3.128.976 4.767v4.07z" fill="#919191"/></svg>