<svg width="26" height="26" fill="none" xmlns="http://www.w3.org/2000/svg"><g clip-path="url(#clip0)"><path d="M25.618 2.85H13.382v-.433a.382.382 0 00-.764 0v.432H.382a.382.382 0 000 .763h12.236v1.335c-.472.16-.814.607-.814 1.133v1.25a4.158 4.158 0 00-3.539 2.14.38.38 0 00-.12.233 4.143 4.143 0 00-.375 1.307l-.574 4.976c-.054.472.03.947.242 1.372l.186.373c.13.259.3.487.5.68a1.6 1.6 0 00-1.017 1.121l-.918 3.67h-.516a.382.382 0 000 .764h1.628a.382.382 0 000-.764h-.325l.871-3.485a.838.838 0 01.815-.636h8.676a.84.84 0 01.815.636l.871 3.485h-.325a.382.382 0 000 .764h1.628a.382.382 0 000-.764h-.516l-.918-3.67a1.6 1.6 0 00-1.018-1.122c.201-.192.371-.42.5-.679l.187-.373c.213-.425.296-.9.242-1.372l-.574-4.976a4.155 4.155 0 00-.374-1.307.38.38 0 00-.12-.233 4.158 4.158 0 00-3.54-2.14V6.08c0-.526-.342-.973-.814-1.133V3.612h12.236a.382.382 0 100-.763zm-7.753 14.195l-.172.344a1.67 1.67 0 01-1.502.928H9.81a1.67 1.67 0 01-1.502-.928l-.172-.344h9.73zm.19-.76a.379.379 0 00-.043-.003h-4.63v-4.91a.382.382 0 10-.764 0v4.91H7.944c0-.07.002-.14.01-.21l.574-4.975c.04-.341.13-.665.26-.965h8.424c.13.3.22.624.26.965l.574 4.975c.008.071.01.142.01.213zm-1.302-6.917H9.247a3.392 3.392 0 012.655-1.278h2.196c1.067 0 2.03.495 2.655 1.278zm-3.32-2.041h-.865V6.08a.433.433 0 01.864 0v1.247z" fill="#fff"/></g><defs><clipPath id="clip0"><path fill="#fff" d="M0 0h26v26H0z"/></clipPath></defs></svg>