<svg width="26" height="26" fill="none" xmlns="http://www.w3.org/2000/svg"><g clip-path="url(#clip0)" fill="#fff" opacity=".5"><path d="M26.319 7.315a2.77 2.77 0 00-2.768-2.768h-4.367a.38.38 0 100 .762h4.367c1.106 0 2.006.9 2.006 2.006 0 1.106-.9 2.006-2.006 2.006h-7.566a.381.381 0 010-.762h7.566c.687 0 1.245-.558 1.245-1.244 0-.686-.558-1.244-1.245-1.244h-6.384l-.762-.762h1.002a.38.38 0 100-.762H15.68l-.035.002-2-2c-.702-.701-1.948-.732-3.51-.086-1.456.602-3.054 1.73-4.498 3.174-1.445 1.444-2.572 3.042-3.174 4.498-.646 1.562-.615 2.808.086 3.51l7.049 7.048a.38.38 0 00.538-.538L4.173 14.19c.515-.018 1.104-.153 1.748-.406l2.277 2.277a1.52 1.52 0 001.078.446 1.525 1.525 0 001.077-2.6l-.305-.305a.381.381 0 01.538-.54l1.454 1.455c.288.288.67.446 1.078.446a1.525 1.525 0 001.077-2.6L11.44 9.609c1.02-1.176 1.817-2.407 2.29-3.55.289-.7.442-1.335.46-1.887l3.626 3.625h-1.831a1.144 1.144 0 000 2.285h4.116l1.729 1.73h.001c.462.463.433 1.44-.08 2.68-.564 1.366-1.633 2.876-3.008 4.251-1.375 1.375-2.885 2.444-4.25 3.008-1.24.513-2.215.542-2.678.082l-.422-.421a.38.38 0 10-.538.538l.418.419h.001l1.616 1.617c.137.137.295.248.472.334.295.143.644.215 1.037.215.578 0 1.254-.155 2-.464 1.457-.602 3.054-1.729 4.499-3.173 1.444-1.445 2.571-3.042 3.173-4.498.646-1.562.616-2.809-.085-3.51l-2.808-2.807h2.373a2.77 2.77 0 002.768-2.768zm-12.663 5.587c.7.709-.37 1.779-1.077 1.078-.782-.648-1.903-2.573-3.07-1.455-.608.609-.31 1.451.305 1.921.703.707-.372 1.78-1.077 1.078l-2.071-2.072c1.401-.69 2.992-1.924 4.262-3.278l2.728 2.728zm-.63-7.135c-.565 1.366-1.633 2.875-3.008 4.25-1.376 1.376-2.885 2.444-4.25 3.009-1.241.513-2.218.542-2.68.08-.463-.463-.434-1.44.08-2.68C3.731 9.06 4.8 7.55 6.174 6.176 7.551 4.8 9.06 3.732 10.425 3.167c.656-.27 1.237-.407 1.708-.407.422 0 .754.11.973.327.462.463.433 1.44-.08 2.68zm4.902 1.066h5.623a.483.483 0 010 .964h-4.658l-.965-.964zm-3.144 15.622c1.456-.602 3.053-1.729 4.498-3.173 1.444-1.445 2.571-3.042 3.173-4.498.289-.699.443-1.334.461-1.886l.53.53c.463.463.434 1.44-.079 2.68-.565 1.366-1.633 2.876-3.008 4.251-1.376 1.375-2.885 2.444-4.25 3.008-.97.401-1.778.506-2.306.313a1.02 1.02 0 01-.374-.233l-.53-.53c.551-.02 1.186-.173 1.885-.462zM3.979 17.037c-.512-.525-.71-.57-.856-.57-.144 0-.341.045-.851.57-.308.316-.649.725-.96 1.152-.49.67-1.312 1.94-1.312 2.925a3.127 3.127 0 003.123 3.123 3.127 3.127 0 003.123-3.123c0-.986-.819-2.256-1.307-2.925a11 11 0 00-.96-1.152zm-.856 6.439a2.364 2.364 0 01-2.361-2.362c0-1.195 1.8-3.399 2.363-3.838.561.435 2.36 2.633 2.36 3.838a2.364 2.364 0 01-2.362 2.362z"/><path d="M9.74 4.006c-1.115.533-2.303 1.4-3.344 2.441-1.042 1.042-1.91 2.23-2.442 3.346-.298.624-.735 1.736-.306 2.165.13.13.321.181.542.181.514 0 1.189-.276 1.626-.485 1.113-.533 2.3-1.4 3.343-2.443 1.043-1.043 1.91-2.23 2.443-3.344.299-.624.736-1.736.305-2.167-.43-.429-1.541.007-2.166.306zm1.078 1.728c-.354.693-1.024 1.765-2.197 2.939-1.174 1.173-2.246 1.842-2.939 2.197-.774.397-1.247.495-1.453.509.014-.207.114-.68.51-1.454.354-.694 1.023-1.767 2.195-2.939C8.106 5.814 9.18 5.145 9.874 4.79c.773-.396 1.247-.495 1.453-.509-.014.206-.112.679-.509 1.453z"/></g><defs><clipPath id="clip0"><path fill="#fff" d="M0 0h26v26H0z"/></clipPath></defs></svg>