<svg width="30" height="30" fill="none" xmlns="http://www.w3.org/2000/svg"><g clip-path="url(#clip0)" fill="#fff"><path d="M19.774 23.182H10.23a.681.681 0 100 1.363h9.545a.681.681 0 100-1.363zm-4.09 2.728H8.865a.681.681 0 100 1.363h6.819a.682.682 0 100-1.364z"/><path d="M27.273 12.273h-1.364V7.5a.681.681 0 00-.682-.682h-.681v-.682a.68.68 0 00-.201-.482L18.892.2a.681.681 0 00-.483-.2H8.182a2.73 2.73 0 00-2.727 2.727v4.091h-.682a.681.681 0 00-.682.682v4.773H2.727A2.73 2.73 0 000 15v6.818a2.73 2.73 0 002.727 2.727h1.147l-.943 2.123A2.37 2.37 0 005.096 30h19.808a2.372 2.372 0 002.165-3.332l-.944-2.122h1.148A2.73 2.73 0 0030 21.817V15a2.73 2.73 0 00-2.727-2.727zM6.818 2.727c0-.751.611-1.363 1.364-1.363h9.545V4.09a2.73 2.73 0 002.728 2.727h2.727v5.455H6.818V2.727zm17.028 20.05l1.977 4.445a1.007 1.007 0 01-.919 1.414H5.096a1.007 1.007 0 01-.919-1.414l1.977-4.445a.682.682 0 00-.624-.959h-.757a.683.683 0 010-1.363h20.454a.683.683 0 010 1.363h-.757a.68.68 0 00-.624.959zm2.063-5.05a1.365 1.365 0 01-1.363-1.363c0-.752.61-1.364 1.363-1.364a1.365 1.365 0 010 2.727z"/></g><defs><clipPath id="clip0"><path fill="#fff" d="M0 0h30v30H0z"/></clipPath></defs></svg>