<svg width="26" height="26" fill="none" xmlns="http://www.w3.org/2000/svg"><path d="M21.282 18.466a8.546 8.546 0 00-.062-5.268L20 9.535a3.748 3.748 0 00-2.642-2.47 20.091 20.091 0 00-1.65-.334V5.417h.542c.598 0 1.083-.486 1.083-1.084V2.167A2.17 2.17 0 0015.167 0h-4.334a2.17 2.17 0 00-2.166 2.167v2.166c0 .598.485 1.084 1.083 1.084h.542V6.73c-.63.102-1.201.221-1.65.334a3.748 3.748 0 00-2.641 2.47L4.78 13.198a8.547 8.547 0 00-.061 5.268 1.882 1.882 0 00-1.469 1.831c0 .864.165 2.971.548 3.925l.238.596A1.87 1.87 0 005.782 26h14.516c.716 0 1.36-.398 1.682-1.04.544-1.09.77-3.368.77-4.347v-.316c0-.895-.63-1.642-1.468-1.831zM9.75 4.333V2.167c0-.597.486-1.084 1.083-1.084h4.334c.597 0 1.083.486 1.083 1.084v2.166h-6.5zm4.875 1.084v1.175A16.005 16.005 0 0013 6.5c-.567 0-1.105.04-1.625.092V5.417h3.25zM5.808 13.54L7.03 9.878a2.666 2.666 0 011.878-1.762c.965-.243 2.46-.533 4.093-.533s3.128.29 4.093.533c.883.222 1.585.88 1.878 1.762l1.22 3.663a7.56 7.56 0 01.392 2.408 7.54 7.54 0 01-.499 2.657 1.86 1.86 0 00-.897.85l-.498.996a17.868 17.868 0 00-.588-.184l.71-1.399a6.536 6.536 0 00.353-4.987l-1.22-3.66a1.61 1.61 0 00-1.115-1.056c-.907-.228-2.308-.5-3.829-.5-1.52 0-2.922.272-3.83.5a1.61 1.61 0 00-1.114 1.053l-1.22 3.664a6.537 6.537 0 00.356 4.992l.707 1.393c-.225.067-.43.131-.588.184l-.498-.996a1.859 1.859 0 00-.898-.85 7.543 7.543 0 01-.498-2.657c0-.82.13-1.63.391-2.408zm12.036 4.841l-.814 1.604A17.902 17.902 0 0013 19.5c-1.54 0-2.947.233-4.03.486l-.811-1.598a5.49 5.49 0 01-.576-2.439c0-.586.094-1.166.28-1.723l1.222-3.665a.522.522 0 01.35-.344c.848-.213 2.155-.467 3.565-.467 1.411 0 2.717.254 3.564.467.157.04.295.175.352.346l1.22 3.663a5.43 5.43 0 01.28 1.723c0 .841-.198 1.684-.572 2.433zm3.823 2.231c0 1.065-.25 3.05-.656 3.863a.794.794 0 01-.713.44H5.782a.794.794 0 01-.74-.5l-.239-.596c-.287-.716-.47-2.565-.47-3.523a.798.798 0 011.511-.356l.713 1.426a.542.542 0 00.686.261c.026-.01 2.648-1.045 5.757-1.045 3.1 0 5.73 1.034 5.757 1.045a.545.545 0 00.686-.26l.713-1.427a.798.798 0 011.51.356v.316z" fill="#919191"/><path d="M18.93 22.58a.542.542 0 00-.682-.344c-.016.005-1.62.514-5.247.514-3.628 0-5.232-.51-5.248-.514a.541.541 0 00-.34 1.028c.07.023 1.753.57 5.588.57s5.518-.547 5.588-.57a.54.54 0 00.341-.683z" fill="#919191"/></svg>