<svg width="30" height="30" fill="none" xmlns="http://www.w3.org/2000/svg"><g clip-path="url(#clip0)" fill="#fff"><path d="M27.793 5a4.062 4.062 0 11-8.125 0 4.062 4.062 0 018.125 0z"/><path d="M23.73 10c-2.757 0-5-2.243-5-5s2.243-5 5-5c2.758 0 5 2.243 5 5s-2.242 5-5 5zm0-8.125A3.129 3.129 0 0020.605 5a3.129 3.129 0 003.125 3.125A3.129 3.129 0 0026.855 5a3.129 3.129 0 00-3.125-3.125zM27.793 25a4.062 4.062 0 11-8.125 0 4.062 4.062 0 018.125 0z"/><path d="M23.73 30c-2.757 0-5-2.242-5-5 0-2.757 2.243-5 5-5 2.758 0 5 2.243 5 5 0 2.758-2.242 5-5 5zm0-8.125A3.129 3.129 0 0020.605 25a3.129 3.129 0 003.125 3.125A3.129 3.129 0 0026.855 25a3.129 3.129 0 00-3.125-3.125zM10.293 15a4.062 4.062 0 11-8.125 0 4.062 4.062 0 018.125 0z"/><path d="M6.23 20c-2.757 0-5-2.242-5-5s2.243-5 5-5c2.758 0 5 2.242 5 5s-2.242 5-5 5zm0-8.125A3.128 3.128 0 003.105 15a3.128 3.128 0 003.125 3.125A3.128 3.128 0 009.356 15a3.128 3.128 0 00-3.126-3.125z"/><path d="M9.18 14.4c-.434 0-.857-.226-1.087-.631a1.252 1.252 0 01.468-1.705L20.16 5.45a1.248 1.248 0 011.705.468 1.252 1.252 0 01-.468 1.705L9.798 14.236a1.241 1.241 0 01-.617.164zm11.601 10.312c-.21 0-.423-.052-.618-.163L8.565 17.936a1.252 1.252 0 01-.468-1.705c.34-.6 1.105-.811 1.705-.467l11.599 6.612a1.251 1.251 0 01-.62 2.336z"/></g><defs><clipPath id="clip0"><path fill="#fff" d="M0 0h30v30H0z"/></clipPath></defs></svg>