<svg width="26" height="26" fill="none" xmlns="http://www.w3.org/2000/svg"><g clip-path="url(#clip0)" fill="#919191"><path d="M22.163 3.786a12.926 12.926 0 00-9.201-3.81 12.927 12.927 0 00-9.202 3.81 12.927 12.927 0 00-3.81 9.201c0 2.737.84 5.355 2.428 7.572a.512.512 0 10.832-.596 11.906 11.906 0 01-2.237-6.976A11.91 11.91 0 014.484 4.51 11.911 11.911 0 0112.962.999c3.202 0 6.212 1.247 8.477 3.511a11.91 11.91 0 013.511 8.477 11.91 11.91 0 01-3.511 8.478 11.911 11.911 0 01-8.477 3.511c-2.553 0-4.99-.791-7.047-2.288a.512.512 0 10-.603.827A12.915 12.915 0 0012.962 26c3.475 0 6.743-1.354 9.2-3.811a12.928 12.928 0 003.812-9.202c0-3.475-1.354-6.743-3.811-9.2z"/><path d="M18.176 18.772h3.192c.176 0 .34-.09.434-.24a10.407 10.407 0 001.594-5.544c0-5.754-4.681-10.436-10.435-10.436-5.754 0-10.436 4.682-10.436 10.436 0 1.967.552 3.885 1.595 5.544.093.15.257.24.433.24h3.192a.512.512 0 00.503-.415 4.79 4.79 0 012.183-3.17l.006 2.423c.001.79.36 1.521.983 2.008a2.503 2.503 0 002.275.427 2.496 2.496 0 001.612-1.493 2.542 2.542 0 00-.179-2.23l-1.011-1.713a4.816 4.816 0 013.557 3.748c.046.24.257.415.502.415zm-3.823-.592a1.478 1.478 0 01-.991.896h-.001a1.479 1.479 0 01-1.31-.265 1.524 1.524 0 01-.59-1.204l-.014-5.51 2.8 4.746c.24.408.279.895.106 1.337zm2.417-3.315a5.836 5.836 0 00-3.33-1.403l-2.068-3.508a.511.511 0 00-.953.261l.01 3.808a5.816 5.816 0 00-3.09 3.725H4.84a9.387 9.387 0 01-1.292-4.76c0-5.19 4.222-9.412 9.412-9.412s9.411 4.222 9.411 9.412c0 1.68-.445 3.32-1.291 4.76h-2.498a5.861 5.861 0 00-1.813-2.883z"/><path d="M19.404 11.666a.512.512 0 101.003-.205 7.566 7.566 0 00-.86-2.264l-.004-.01-.008-.01a7.562 7.562 0 00-2.768-2.766l-.006-.005a7.616 7.616 0 00-3.8-1.018 7.619 7.619 0 00-3.794 1.015l-.006.003-.007.004a7.56 7.56 0 00-2.768 2.767l-.007.01-.004.01a7.564 7.564 0 00-.86 2.264.512.512 0 001.002.205c.109-.533.282-1.04.509-1.514l.56.323a.508.508 0 00.698-.187.512.512 0 00-.187-.7l-.557-.321a6.633 6.633 0 011.702-1.698l.32.555a.511.511 0 10.886-.512l-.32-.555a6.546 6.546 0 012.321-.625v.644a.512.512 0 101.024 0v-.644c.82.064 1.604.281 2.321.625l-.32.555a.512.512 0 00.886.512l.32-.555a6.63 6.63 0 011.702 1.698l-.557.322a.511.511 0 10.512.886l.559-.323c.227.474.4.981.508 1.514zm.496 1.465a.512.512 0 00-.312.653l.003.009a.512.512 0 00.965-.34l-.003-.009a.512.512 0 00-.652-.313zM4.551 21.645a.511.511 0 10-.965.34l.003.009a.512.512 0 10.965-.34l-.003-.009z"/></g><defs><clipPath id="clip0"><path fill="#fff" d="M0 0h26v26H0z"/></clipPath></defs></svg>