<svg fill="none" height="15" viewBox="0 0 20 15" width="20" xmlns="http://www.w3.org/2000/svg" xmlns:xlink="http://www.w3.org/1999/xlink"><linearGradient id="a" gradientUnits="userSpaceOnUse" x1="0" x2="20" y1="7.5" y2="7.5"><stop offset="0" stop-color="#58dce9"/><stop offset="1" stop-color="#b5ffd7"/></linearGradient><path d="m19.6211 4.95312c.1523-.12109.3789-.00781.3789.1836v7.98828c0 1.0352-.8398 1.875-1.875 1.875h-16.25c-1.035156 0-1.875-.8398-1.875-1.875v-7.98438c0-.19531.222656-.30468.378906-.18359.875004.67969 2.035154 1.54297 6.019534 4.4375.82422.60156 2.21484 1.86717 3.60156 1.85937 1.3945.0117 2.8125-1.28124 3.6055-1.85937 3.9843-2.89453 5.1406-3.76172 6.0156-4.44141zm-9.6211 5.04688c.9062.0156 2.2109-1.14062 2.8672-1.61719 5.1836-3.76172 5.5781-4.08984 6.7734-5.02734.2266-.17578.3594-.44922.3594-.73828v-.74219c0-1.035156-.8398-1.875-1.875-1.875h-16.25c-1.035156 0-1.875.839844-1.875 1.875v.74219c0 .28906.132812.55859.359375.73828 1.195315.93359 1.589845 1.26562 6.773435 5.02734.65625.47657 1.96094 1.63279 2.86719 1.61719z" fill="url(#a)"/></svg>