<svg fill="none" height="19" viewBox="0 0 19 19" width="19" xmlns="http://www.w3.org/2000/svg" xmlns:xlink="http://www.w3.org/1999/xlink"><linearGradient id="a" gradientUnits="userSpaceOnUse" x1="0" x2="19" y1="9.5" y2="9.5"><stop offset="0" stop-color="#58dce9"/><stop offset="1" stop-color="#b5ffd7"/></linearGradient><path d="m18.4582 13.4261-4.1564-1.7813c-.1775-.0757-.3749-.0916-.5623-.0454-.1874.0461-.3547.1519-.4767.3015l-1.8407 2.2488c-2.88875-1.362-5.21352-3.6868-6.57553-6.57551l2.24887-1.84066c.1498-.12184.25583-.28917.30203-.47666.04621-.18748.03007-.38492-.04597-.56242l-1.78129-4.15632c-.08345-.191336-.23105-.347556-.41735-.4417211-.1863-.09416554-.39962-.1203747-.60317-.0741083l-3.859444.8906404c-.196249.045318-.371343.155819-.496704.313459-.1253615.15765-.19358721.35313-.19354198.55454 0 9.51876 7.71516998 17.21906 17.21899998 17.21906.2015.0001.3971-.0681.5548-.1934.1577-.1254.2683-.3005.3136-.4968l.8907-3.8595c.0459-.2045.0192-.4187-.0757-.6056-.0949-.187-.252-.335-.4442-.4186z" fill="url(#a)"/></svg>