<svg fill="none" height="132" viewBox="0 0 169 132" width="169" xmlns="http://www.w3.org/2000/svg"><path d="m20.6098 26.8263c4.1992-7.398 9.6537-13.6283 16.336-18.75514 6.6655-5.05227 13.4823-7.57116 20.4586-7.57116 8.0263 0 13.7813 2.79107 17.377 8.28199 3.6372 5.58541 5.4802 13.09141 5.4802 22.62451 0 18.3084-6.8687 36.554-20.6299 54.7758-13.6605 18.0577-32.5512 33.1207-56.72143 45.1197l-2.305118-6.546c16.528148-10.267 29.744748-21.401 39.636748-33.4371 9.9629-12.1227 15.5178-24.2828 16.5793-36.4767l.1042-1.1973-.9227.7701c-4.2425 3.5407-8.6372 6.6184-13.2151 9.2646-4.5331 2.6204-9.2363 3.9245-14.0854 3.9245-4.8479 0-8.4091-1.5145-10.7745-4.4729-2.3823-2.9797-3.6173-7.5041-3.6173-13.6544 0-7.7021 2.1048-15.2605 6.2994-22.6505zm88.2072 0c4.199-7.3977 9.654-13.6277 16.335-18.75441 6.698-5.05337 13.484-7.57189 20.46-7.57189 8.027 0 13.782 2.79143 17.378 8.28303 3.637 5.58627 5.51 13.09247 5.51 22.62347 0 18.3083-6.869 36.5539-20.63 54.7757-13.661 18.0578-32.552 33.1208-56.7232 45.1198l-2.3329-6.547c16.5281-10.266 29.7441-21.4 39.6351-33.4361 9.963-12.1227 15.518-24.2828 16.58-36.4767l.104-1.1973-.923.7701c-4.242 3.5407-8.637 6.6184-13.215 9.2646-4.533 2.6204-9.236 3.9245-14.085 3.9245-4.848 0-8.409-1.5145-10.775-4.4729-2.382-2.9797-3.617-7.5041-3.617-13.6544 0-7.7021 2.105-15.2605 6.299-22.6505z" fill="#fff" stroke="#9dfffe"/></svg>