<svg width="11" height="9" viewBox="0 0 11 9" fill="none" xmlns="http://www.w3.org/2000/svg">
<path d="M9.7435 0.0689364C9.28374 -0.178623 8.77094 0.298813 8.47033 0.581738C7.78073 1.25368 7.1972 2.03173 6.54291 2.73904C5.81791 3.51708 5.14597 4.29513 4.40329 5.05552C3.9789 5.4799 3.51915 5.93966 3.23622 6.47014C2.59964 5.85121 2.05148 5.17927 1.34416 4.63113C0.831364 4.24211 -0.0174109 3.95918 0.000271946 4.89637C0.0356376 6.11651 1.11429 7.42504 1.91001 8.2561C2.24599 8.60976 2.68806 8.9811 3.20086 8.99878C3.81976 9.03415 4.45634 8.29147 4.82768 7.88476C5.48197 7.17745 6.01245 6.3817 6.61364 5.65673C7.39168 4.70186 8.18741 3.76464 8.94777 2.79209C9.42521 2.19087 10.9282 0.705488 9.7435 0.0689364ZM0.778286 4.82564C0.760604 4.82564 0.742921 4.82564 0.707555 4.84329C0.636824 4.82564 0.583776 4.80793 0.513044 4.77256C0.566093 4.7372 0.654507 4.75488 0.778286 4.82564Z" fill="#E1F5FA"/>
</svg>
