<svg width="160" height="53" viewBox="0 0 160 53" fill="none" xmlns="http://www.w3.org/2000/svg">
<path d="M147.257 0H12.7428C12.2614 0 11.78 0 11.2853 0C10.8708 0 10.4697 0.01325 10.0552 0.01325C9.15928 0.03975 8.26341 0.09275 7.38091 0.25175C6.48504 0.41075 5.65603 0.67575 4.84038 1.0865C4.03811 1.49725 3.30269 2.014 2.67424 2.65C2.03243 3.27275 1.49758 4.0015 1.09644 4.7965C0.681932 5.60475 0.414508 6.42625 0.254053 7.314C0.0935985 8.1885 0.0401137 9.07625 0.0133712 9.964C0.0133712 10.3748 0 10.7855 0 11.183C0 11.66 0 12.1503 0 12.6272V40.3595C0 40.8498 0 41.3268 0 41.8037C0 42.2145 0.0133712 42.612 0.0267424 43.0228C0.0534849 43.9105 0.10697 44.7983 0.267424 45.6728C0.427879 46.5605 0.681932 47.3952 1.10981 48.1903C1.51095 48.9852 2.0458 49.7008 2.68761 50.3235C3.31606 50.9595 4.05148 51.4895 4.85375 51.887C5.6694 52.2978 6.49841 52.5628 7.39428 52.7218C8.27678 52.8808 9.18603 52.9338 10.0685 52.9603C10.4697 52.9868 10.8708 53 11.2853 53C11.78 53 12.2614 53 12.7428 53H147.257C147.739 53 148.22 53 148.701 53C149.102 53 149.53 53 149.931 52.9868C150.827 52.9603 151.723 52.9073 152.606 52.7483C153.502 52.5893 154.331 52.3243 155.16 51.9135C155.962 51.516 156.684 50.986 157.326 50.35C157.968 49.7273 158.489 48.9985 158.904 48.2168C159.318 47.4085 159.585 46.587 159.733 45.6993C159.893 44.8248 159.947 43.937 159.987 43.0493C159.987 42.6385 159.987 42.241 159.987 41.8302C160 41.3533 160 40.8763 160 40.386V12.6405C160 12.1503 160 11.6733 159.987 11.1962C159.987 10.7855 159.987 10.388 159.987 9.97725C159.96 9.0895 159.906 8.20175 159.733 7.32725C159.585 6.4395 159.318 5.618 158.904 4.80975C158.489 4.01475 157.954 3.286 157.326 2.66325C156.697 2.0405 155.962 1.5105 155.16 1.09975C154.331 0.689 153.502 0.424 152.606 0.265C151.723 0.106 150.827 0.053 149.931 0.0265C149.53 0.0265 149.102 0.01325 148.701 0.01325C148.233 0 147.739 0 147.257 0Z" fill="#B7B7B7"/>
<path d="M11.2866 51.8473C10.8854 51.8473 10.4843 51.8473 10.0832 51.834C9.33436 51.8075 8.45187 51.7678 7.58274 51.622C6.76709 51.4763 6.04505 51.2378 5.36311 50.8933C4.66781 50.5488 4.03936 50.085 3.49114 49.5418C2.94292 48.9985 2.4883 48.389 2.12728 47.6868C1.77963 47.0243 1.53894 46.2955 1.40523 45.4873C1.24478 44.5995 1.20466 43.6853 1.17792 42.9963C1.16455 42.718 1.16455 41.7905 1.16455 41.7905V11.183C1.16455 11.183 1.17792 10.2688 1.17792 10.0038C1.20466 9.31477 1.24478 8.40052 1.40523 7.52602C1.55232 6.70452 1.793 5.98902 2.14065 5.32652C2.50167 4.63752 2.95629 4.01477 3.50451 3.47152C4.05273 2.91502 4.68118 2.46452 5.36311 2.12002C6.04505 1.77552 6.78046 1.53702 7.56936 1.40452C8.47861 1.23227 9.38785 1.19252 10.0832 1.17927L11.2866 1.16602H148.703L149.919 1.17927C150.601 1.19252 151.524 1.23227 152.406 1.39127C153.209 1.53702 153.944 1.76227 154.639 2.12002C155.321 2.46452 155.95 2.92827 156.498 3.47152C157.046 4.01477 157.501 4.63752 157.862 5.32652C158.21 6.00227 158.437 6.71777 158.584 7.51277C158.744 8.34752 158.784 9.20877 158.811 10.017C158.811 10.388 158.811 10.7988 158.811 11.1963C158.825 11.6998 158.825 12.1635 158.825 12.6405V40.3728C158.825 40.8498 158.825 41.3268 158.811 41.8038C158.811 42.241 158.811 42.6253 158.811 43.036C158.784 43.8178 158.731 44.679 158.584 45.4873C158.45 46.2955 158.21 47.0243 157.862 47.7C157.501 48.389 157.046 49.0118 156.498 49.5418C155.95 50.0983 155.321 50.5488 154.626 50.8933C153.931 51.2378 153.222 51.4763 152.393 51.622C151.537 51.781 150.655 51.8208 149.893 51.834C149.505 51.8473 149.09 51.8473 148.689 51.8473H147.245H11.2866Z" fill="#000001"/>
<path d="M33.1212 26.898C33.0811 23.2542 36.1298 21.4787 36.2768 21.3992C34.552 18.9082 31.8777 18.5637 30.9417 18.5372C28.6954 18.2987 26.5159 19.8622 25.3793 19.8622C24.216 19.8622 22.451 18.5505 20.5523 18.5902C18.1054 18.63 15.8189 20.0345 14.5754 22.2075C11.9947 26.6462 13.9202 33.1652 16.3938 36.7559C17.6374 38.5182 19.0815 40.4792 20.9802 40.3997C22.8388 40.3202 23.5341 39.2337 25.7671 39.2337C27.9867 39.2337 28.6285 40.3997 30.5673 40.3599C32.5596 40.3334 33.8165 38.5977 35.0066 36.8222C36.4373 34.8082 37.0123 32.8207 37.039 32.728C36.9722 32.7147 33.1614 31.2704 33.1212 26.898Z" fill="white"/>
<path d="M29.4693 16.1784C30.4721 14.9462 31.154 13.2634 30.9535 11.5542C29.5094 11.6204 27.7043 12.5479 26.6613 13.7537C25.7387 14.8137 24.9231 16.5627 25.137 18.2057C26.7549 18.3249 28.4263 17.3974 29.4693 16.1784Z" fill="white"/>
<path d="M56.56 35.9603H50.2354L48.7111 40.4123H46.0369L52.0272 23.9558H54.8084L60.7987 40.4123H58.0709L56.56 35.9603ZM50.8906 33.9066H55.9048L53.4311 26.6853H53.3643L50.8906 33.9066Z" fill="white"/>
<path d="M73.7545 34.4101C73.7545 38.1333 71.7355 40.5316 68.7002 40.5316C66.9753 40.5316 65.6114 39.7631 64.8894 38.4381H64.8359V44.3741H62.3489V28.4078H64.7557V30.4086H64.7958C65.4911 29.1233 66.9619 28.2886 68.6467 28.2886C71.7355 28.2886 73.7545 30.6868 73.7545 34.4101ZM71.2006 34.4101C71.2006 31.9853 69.9303 30.3821 68.0049 30.3821C66.1062 30.3821 64.8225 32.0118 64.8225 34.4101C64.8225 36.8216 66.1062 38.4513 68.0049 38.4513C69.9303 38.4513 71.2006 36.8613 71.2006 34.4101Z" fill="white"/>
<path d="M87.0751 34.4101C87.0751 38.1333 85.0561 40.5316 82.0208 40.5316C80.2959 40.5316 78.9321 39.7631 78.21 38.4381H78.1565V44.3741H75.6829V28.4078H78.0897V30.4086H78.1298C78.8251 29.1233 80.2959 28.2886 81.9807 28.2886C85.0561 28.2886 87.0751 30.6868 87.0751 34.4101ZM84.5212 34.4101C84.5212 31.9853 83.251 30.3821 81.3255 30.3821C79.4268 30.3821 78.1432 32.0118 78.1432 34.4101C78.1432 36.8216 79.4268 38.4513 81.3255 38.4513C83.2643 38.4513 84.5212 36.8613 84.5212 34.4101Z" fill="white"/>
<path d="M95.8835 35.828C96.0707 37.4577 97.6619 38.531 99.8548 38.531C101.954 38.531 103.452 37.4577 103.452 35.987C103.452 34.715 102.542 33.9465 100.39 33.4165L98.2369 32.8997C95.1882 32.171 93.7709 30.7532 93.7709 28.461C93.7709 25.6255 96.2713 23.6777 99.8147 23.6777C103.318 23.6777 105.725 25.6255 105.805 28.461H103.291C103.144 26.818 101.767 25.8242 99.7746 25.8242C97.7823 25.8242 96.405 26.8312 96.405 28.2887C96.405 29.4547 97.2742 30.1305 99.4135 30.6605L101.245 31.111C104.655 31.906 106.072 33.2707 106.072 35.669C106.072 38.743 103.599 40.6775 99.6676 40.6775C95.9905 40.6775 93.5035 38.796 93.343 35.8147H95.8835V35.828Z" fill="white"/>
<path d="M111.449 25.5728V28.4083H113.749V30.356H111.449V36.9678C111.449 38.0013 111.904 38.4783 112.92 38.4783C113.174 38.4783 113.575 38.4385 113.736 38.4253V40.3598C113.455 40.426 112.907 40.479 112.359 40.479C109.912 40.479 108.949 39.5648 108.949 37.246V30.3693H107.184V28.4215H108.949V25.5728H111.449Z" fill="white"/>
<path d="M115.071 34.4102C115.071 30.634 117.318 28.2622 120.808 28.2622C124.324 28.2622 126.544 30.634 126.544 34.4102C126.544 38.1997 124.324 40.5582 120.808 40.5582C117.304 40.5582 115.071 38.1997 115.071 34.4102ZM124.03 34.4102C124.03 31.8265 122.827 30.2895 120.821 30.2895C118.815 30.2895 117.612 31.8265 117.612 34.4102C117.612 37.0072 118.802 38.531 120.821 38.531C122.84 38.531 124.03 37.0072 124.03 34.4102Z" fill="white"/>
<path d="M128.619 28.4081H130.986V30.4486H131.04C131.414 29.0971 132.524 28.2756 133.954 28.2756C134.316 28.2756 134.61 28.3286 134.81 28.3684V30.6739C134.61 30.5944 134.182 30.5281 133.7 30.5281C132.096 30.5281 131.106 31.6014 131.106 33.2841V40.3994H128.619V28.4081Z" fill="white"/>
<path d="M146.255 36.888C145.921 39.061 143.782 40.5582 141.041 40.5582C137.524 40.5582 135.331 38.2262 135.331 34.4632C135.331 30.7002 137.524 28.2622 140.934 28.2622C144.276 28.2622 146.389 30.5412 146.389 34.185V35.033H137.845V35.1787C137.845 37.2325 139.142 38.5707 141.107 38.5707C142.485 38.5707 143.568 37.9215 143.902 36.888H146.255ZM137.858 33.2972H143.915C143.862 31.4555 142.672 30.2497 140.947 30.2497C139.235 30.263 137.992 31.4952 137.858 33.2972Z" fill="white"/>
<path d="M49.1253 14.906H50.1949C51.0774 14.906 51.7059 14.3892 51.7059 13.6472C51.7059 12.9185 51.1577 12.4415 50.2083 12.4415C49.2723 12.4415 48.6706 12.9052 48.6038 13.6737H47.4271C47.5073 12.2427 48.577 11.355 50.2484 11.355C51.8129 11.355 52.9227 12.2295 52.9227 13.475C52.9227 14.3495 52.3343 15.0915 51.4786 15.277V15.3697C52.5082 15.4757 53.257 16.178 53.257 17.2777C53.257 18.6292 51.9599 19.623 50.2752 19.623C48.5369 19.623 47.3469 18.6955 47.28 17.2777H48.4701C48.5369 18.033 49.2456 18.5232 50.2752 18.5232C51.3048 18.5232 51.9867 17.98 51.9867 17.1982C51.9867 16.4165 51.3449 15.9262 50.2351 15.9262H49.1386V14.906H49.1253Z" fill="white"/>
<path d="M54.5925 17.7813C54.5925 16.708 55.3948 16.0853 56.8255 16.0058L58.4568 15.913V15.3963C58.4568 14.7603 58.0423 14.4158 57.2267 14.4158C56.5581 14.4158 56.1035 14.6543 55.9698 15.0783H54.8198C54.9402 14.058 55.9163 13.3955 57.2801 13.3955C58.7911 13.3955 59.6468 14.1375 59.6468 15.3963V19.4773H58.4969V18.6425H58.4033C58.0423 19.2388 57.3871 19.5833 56.5982 19.5833C55.4349 19.57 54.5925 18.881 54.5925 17.7813ZM58.4568 17.2778V16.7743L56.986 16.867C56.157 16.92 55.7826 17.1983 55.7826 17.7283C55.7826 18.2715 56.2506 18.5763 56.8924 18.5763C57.8016 18.5763 58.4568 18.0198 58.4568 17.2778Z" fill="white"/>
<path d="M62.8026 14.4952V19.464H61.6125V13.5015H65.5704V14.4952H62.8026Z" fill="white"/>
<path d="M72.7782 16.4828C72.7782 18.3775 71.8155 19.57 70.2912 19.57C69.4354 19.57 68.7535 19.199 68.4326 18.563H68.339V21.4515H67.1489V13.5015H68.2989V14.482H68.3924C68.7535 13.8063 69.4621 13.3955 70.2778 13.3955C71.8155 13.4088 72.7782 14.588 72.7782 16.4828ZM71.5614 16.4828C71.5614 15.224 70.9597 14.4555 69.9569 14.4555C68.954 14.4555 68.3256 15.2373 68.3256 16.4828C68.3256 17.7283 68.954 18.51 69.9435 18.51C70.9597 18.51 71.5614 17.7548 71.5614 16.4828Z" fill="white"/>
<path d="M74.3558 21.6105V20.5902C74.4494 20.6035 74.6366 20.6167 74.7436 20.6167C75.3052 20.6167 75.6261 20.3915 75.8266 19.782L75.9202 19.4905L73.7407 13.5015H75.0377L76.5487 18.245H76.6423L78.1532 13.5015H79.4101L77.1637 19.7157C76.6556 21.1732 76.0807 21.637 74.8505 21.637C74.7569 21.637 74.4761 21.6237 74.3558 21.6105Z" fill="white"/>
<path d="M80.3323 17.7813H81.5089C81.6293 18.3113 82.124 18.5763 82.8193 18.5763C83.6082 18.5763 84.103 18.2318 84.103 17.6885C84.103 17.1188 83.6617 16.8405 82.8193 16.8405H81.9234V15.9263H82.8059C83.528 15.9263 83.889 15.648 83.889 15.1578C83.889 14.7205 83.5414 14.3893 82.8059 14.3893C82.1374 14.3893 81.656 14.6675 81.5758 15.1445H80.4259C80.5462 14.0845 81.4421 13.3955 82.7926 13.3955C84.2233 13.3955 85.0389 14.0315 85.0389 15.0385C85.0389 15.6348 84.6512 16.125 84.0896 16.2575V16.3503C84.8651 16.5358 85.2663 17.026 85.2663 17.6885C85.2663 18.828 84.2902 19.57 82.8059 19.57C81.5089 19.5833 80.4392 18.987 80.3323 17.7813Z" fill="white"/>
<path d="M87.0068 19.4769V13.5144H88.1835V17.6219H88.2771L91.0584 13.5144H92.235V19.4769H91.0584V15.3562H90.9648L88.1835 19.4769H87.0068Z" fill="white"/>
<path d="M98.7172 14.4952H96.8185V19.464H95.6284V14.4952H93.7297V13.5015H98.7172V14.4952Z" fill="white"/>
<path d="M105.109 17.8608C104.842 18.934 103.879 19.5833 102.502 19.5833C100.777 19.5833 99.7205 18.4173 99.7205 16.5093C99.7205 14.6013 100.804 13.3955 102.502 13.3955C104.173 13.3955 105.189 14.535 105.189 16.4033V16.814H100.937V16.8803C100.977 17.927 101.592 18.5895 102.542 18.5895C103.264 18.5895 103.759 18.3378 103.973 17.8608H105.109ZM100.937 15.9395H103.973C103.946 14.9988 103.371 14.3893 102.488 14.3893C101.606 14.3893 101.004 15.012 100.937 15.9395Z" fill="white"/>
<path d="M110.151 13.5015H112.865C114.042 13.5015 114.737 14.0977 114.737 15.0252C114.737 15.6347 114.31 16.178 113.721 16.284V16.3767C114.497 16.4695 115.005 17.026 115.005 17.7547C115.005 18.8015 114.216 19.4772 112.892 19.4772H110.151V13.5015ZM111.328 14.4157V15.966H112.504C113.227 15.966 113.561 15.6877 113.561 15.1842C113.561 14.7205 113.267 14.4157 112.625 14.4157H111.328ZM111.328 16.8272V18.5762H112.732C113.44 18.5762 113.815 18.2715 113.815 17.7017C113.815 17.1055 113.387 16.8272 112.585 16.8272H111.328Z" fill="white"/>
</svg>
