<svg width="160" height="47" viewBox="0 0 160 47" fill="none" xmlns="http://www.w3.org/2000/svg">
<path d="M154.074 47H5.92593C2.66667 47 0 44.3562 0 41.125V5.875C0 2.64375 2.66667 0 5.92593 0H154.074C157.333 0 160 2.64375 160 5.875V41.125C160 44.3562 157.333 47 154.074 47Z" fill="black"/>
<path d="M154.074 0.94C156.824 0.94 159.052 3.149 159.052 5.875V41.125C159.052 43.851 156.824 46.06 154.074 46.06H5.92593C3.1763 46.06 0.948148 43.851 0.948148 41.125V5.875C0.948148 3.149 3.1763 0.94 5.92593 0.94H154.074ZM154.074 0H5.92593C2.66667 0 0 2.64375 0 5.875V41.125C0 44.3562 2.66667 47 5.92593 47H154.074C157.333 47 160 44.3562 160 41.125V5.875C160 2.64375 157.333 0 154.074 0Z" fill="#A6A6A6"/>
<path d="M80.7579 25.5572C77.9727 25.5572 75.6972 27.6604 75.6972 30.5509C75.6972 33.4297 77.9727 35.5447 80.7579 35.5447C83.5431 35.5447 85.8187 33.4297 85.8187 30.5509C85.8187 27.6604 83.5431 25.5572 80.7579 25.5572ZM80.7579 33.5824C79.229 33.5824 77.9135 32.3369 77.9135 30.5509C77.9135 28.7532 79.229 27.5194 80.7579 27.5194C82.2868 27.5194 83.6024 28.7532 83.6024 30.5509C83.6024 32.3369 82.275 33.5824 80.7579 33.5824ZM69.712 25.5572C66.9268 25.5572 64.6513 27.6604 64.6513 30.5509C64.6513 33.4297 66.9268 35.5447 69.712 35.5447C72.4972 35.5447 74.7727 33.4297 74.7727 30.5509C74.7727 27.6604 72.4972 25.5572 69.712 25.5572ZM69.712 33.5824C68.1831 33.5824 66.8675 32.3369 66.8675 30.5509C66.8675 28.7532 68.1831 27.5194 69.712 27.5194C71.2409 27.5194 72.5564 28.7532 72.5564 30.5509C72.5564 32.3369 71.2409 33.5824 69.712 33.5824ZM56.5801 27.0964V29.2114H61.7001C61.5461 30.3982 61.1431 31.2794 60.5387 31.8787C59.792 32.6189 58.6305 33.4297 56.592 33.4297C53.4394 33.4297 50.9742 30.9152 50.9742 27.7897C50.9742 24.6642 53.4394 22.1497 56.592 22.1497C58.2868 22.1497 59.5313 22.8077 60.4438 23.6654L61.949 22.1732C60.669 20.9629 58.9742 20.0347 56.5801 20.0347C52.2661 20.0347 48.6394 23.5127 48.6394 27.8014C48.6394 32.0784 52.2661 35.5682 56.5801 35.5682C58.915 35.5682 60.669 34.8162 62.0438 33.3944C63.4542 31.9962 63.8927 30.0222 63.8927 28.4359C63.8927 27.9424 63.8572 27.4842 63.7742 27.1082H56.5801V27.0964ZM110.281 28.7414C109.866 27.6252 108.586 25.5572 105.967 25.5572C103.371 25.5572 101.214 27.5782 101.214 30.5509C101.214 33.3474 103.348 35.5447 106.216 35.5447C108.527 35.5447 109.866 34.1464 110.411 33.3357L108.693 32.1959C108.124 33.0302 107.342 33.5824 106.216 33.5824C105.09 33.5824 104.284 33.0654 103.774 32.0667L110.518 29.3054L110.281 28.7414ZM103.407 30.4099C103.348 28.4829 104.912 27.4959 106.038 27.4959C106.915 27.4959 107.662 27.9307 107.911 28.5534L103.407 30.4099ZM97.9313 35.2509H100.148V20.5634H97.9313V35.2509ZM94.3046 26.6734H94.2216C93.7238 26.0859 92.7757 25.5572 91.5668 25.5572C89.0424 25.5572 86.7313 27.7544 86.7313 30.5744C86.7313 33.3709 89.0424 35.5564 91.5668 35.5564C92.7639 35.5564 93.7238 35.0277 94.2216 34.4167H94.2927V35.1334C94.2927 37.0487 93.2616 38.0709 91.6024 38.0709C90.2513 38.0709 89.4098 37.1074 89.0661 36.2967L87.1342 37.0957C87.6912 38.4234 89.1609 40.0449 91.6024 40.0449C94.1979 40.0449 96.3905 38.5292 96.3905 34.8397V25.8627H94.2927V26.6734H94.3046ZM91.7564 33.5824C90.2276 33.5824 88.9476 32.3134 88.9476 30.5744C88.9476 28.8119 90.2276 27.5312 91.7564 27.5312C93.2616 27.5312 94.4468 28.8237 94.4468 30.5744C94.4587 32.3134 93.2735 33.5824 91.7564 33.5824ZM120.663 20.5634H115.365V35.2509H117.582V29.6814H120.675C123.128 29.6814 125.534 27.9189 125.534 25.1224C125.534 22.3259 123.105 20.5634 120.663 20.5634ZM120.711 27.6369H117.57V22.5962H120.711C122.37 22.5962 123.306 23.9592 123.306 25.1107C123.306 26.2622 122.37 27.6369 120.711 27.6369ZM134.388 25.5337C132.788 25.5337 131.128 26.2387 130.441 27.7779L132.408 28.5887C132.823 27.7779 133.605 27.5077 134.423 27.5077C135.573 27.5077 136.734 28.1892 136.746 29.3994V29.5522C136.343 29.3289 135.49 28.9882 134.435 28.9882C132.313 28.9882 130.168 30.1397 130.168 32.2899C130.168 34.2522 131.899 35.5212 133.842 35.5212C135.324 35.5212 136.153 34.8632 136.663 34.0877H136.734V35.2274H138.868V29.5992C138.879 26.9907 136.912 25.5337 134.388 25.5337ZM134.115 33.5824C133.392 33.5824 132.385 33.2182 132.385 32.3369C132.385 31.2089 133.641 30.7742 134.731 30.7742C135.703 30.7742 136.165 30.9857 136.746 31.2677C136.58 32.6189 135.395 33.5824 134.115 33.5824ZM146.654 25.8509L144.118 32.2194H144.047L141.416 25.8509H139.033L142.98 34.7574L140.728 39.7042H143.039L149.119 25.8509H146.654ZM126.743 35.2509H128.959V20.5634H126.743V35.2509Z" fill="white"/>
<path d="M12.3738 8.85886C12.0301 9.22311 11.8286 9.78711 11.8286 10.5039V36.4949C11.8286 37.2234 12.0301 37.7874 12.3738 38.1399L12.4568 38.2221L27.1412 23.6756V23.4994V23.3231L12.4568 8.77661L12.3738 8.85886Z" fill="url(#paint0_linear)"/>
<path d="M32.0345 28.5287L27.1396 23.6759V23.4997V23.3234L32.0345 18.4707L32.1411 18.5295L37.9367 21.7959C39.5959 22.7242 39.5959 24.2517 37.9367 25.1917L32.1411 28.4582L32.0345 28.5287Z" fill="url(#paint1_linear)"/>
<path d="M32.14 28.4673L27.1385 23.4971L12.3711 38.1376C12.9163 38.7133 13.817 38.7838 14.8363 38.2081L32.14 28.4673Z" fill="url(#paint2_linear)"/>
<path d="M32.1418 18.5403L14.8263 8.78783C13.807 8.21208 12.9063 8.28258 12.3611 8.85833L27.1403 23.4988L32.1418 18.5403Z" fill="url(#paint3_linear)"/>
<path opacity="0.2" d="M32.0367 28.3521L14.8278 38.0458C13.8678 38.5863 13.0027 38.551 12.4575 38.0575L12.3745 38.1398L12.4575 38.222C13.0145 38.7155 13.8678 38.7508 14.8278 38.2103L32.1434 28.4578L32.0367 28.3521Z" fill="black"/>
<path opacity="0.12" d="M12.3738 37.9768C12.0301 37.6125 11.8286 37.0485 11.8286 36.3318V36.508C11.8286 37.2365 12.0301 37.8005 12.3738 38.153L12.4568 38.0708L12.3738 37.9768Z" fill="black"/>
<path opacity="0.12" d="M37.9375 25.0246L32.0234 28.3498L32.1301 28.4556L37.9257 25.1891C38.7553 24.7191 39.1701 24.1081 39.1701 23.4971C39.1108 24.0493 38.696 24.6016 37.9375 25.0246Z" fill="black"/>
<path opacity="0.25" d="M14.8256 8.95312L37.9367 21.9721C38.6833 22.3951 39.11 22.9356 39.1811 23.4996C39.1811 22.8886 38.7663 22.2659 37.9367 21.8076L14.8256 8.78862C13.1663 7.86037 11.8152 8.63587 11.8152 10.5159V10.6921C11.8152 8.80037 13.1781 8.02487 14.8256 8.95312Z" fill="white"/>
<path d="M49.9093 16.7649H49.0322V14.4032H49.7315C50.3478 13.8744 50.6441 12.9814 50.6322 11.7007V8.22266H55.3848V14.4032H56.1789V16.7649H55.3018V15.2727H49.9093V16.7649ZM51.5567 11.7124C51.5685 12.8287 51.3433 13.7217 50.8811 14.4149H54.4722V9.09216H51.5567V11.7124Z" fill="white" stroke="white" stroke-width="0.2" stroke-miterlimit="10"/>
<path d="M63.3034 14.3575C62.6042 15.0743 61.739 15.4268 60.696 15.4268C59.6531 15.4268 58.7879 15.0743 58.0886 14.3575C57.3894 13.6408 57.0457 12.7713 57.0457 11.749C57.0457 10.7268 57.3894 9.84554 58.0886 9.14054C58.7879 8.42379 59.6531 8.07129 60.696 8.07129C61.7271 8.07129 62.5923 8.42379 63.3034 9.14054C64.0027 9.85729 64.3583 10.7268 64.3583 11.749C64.3583 12.783 64.0027 13.6525 63.3034 14.3575ZM58.7642 13.77C59.2857 14.2988 59.9375 14.5573 60.696 14.5573C61.4545 14.5573 62.1064 14.2988 62.6279 13.77C63.1494 13.2413 63.422 12.5715 63.422 11.749C63.422 10.9265 63.1612 10.2568 62.6279 9.72804C62.1064 9.19929 61.4664 8.92904 60.696 8.92904C59.9375 8.92904 59.2857 9.18754 58.7642 9.71629C58.2427 10.2568 57.9819 10.9265 57.9819 11.749C57.9819 12.5715 58.2427 13.2413 58.7642 13.77Z" fill="white" stroke="white" stroke-width="0.2" stroke-miterlimit="10"/>
<path d="M68.9566 15.4276C67.9136 15.4276 67.0366 15.0751 66.3255 14.3701C65.6143 13.6651 65.2588 12.7956 65.2588 11.7381C65.2588 10.6923 65.6143 9.81108 66.3255 9.10608C67.0366 8.40108 67.9136 8.04858 68.9566 8.04858C70.0232 8.04858 70.9003 8.43633 71.564 9.20008L70.924 9.81108C70.438 9.21183 69.7862 8.91808 68.9447 8.91808C68.1743 8.91808 67.5106 9.17658 66.9773 9.69358C66.444 10.2106 66.1832 10.8921 66.1832 11.7263C66.1832 12.5606 66.444 13.2421 66.9773 13.7591C67.5106 14.2761 68.1625 14.5346 68.9447 14.5346C69.798 14.5346 70.521 14.1938 71.1254 13.5123L71.7654 14.1468C71.4454 14.5346 71.0306 14.8401 70.5447 15.0633C70.0588 15.3218 69.5254 15.4276 68.9566 15.4276Z" fill="white" stroke="white" stroke-width="0.2" stroke-miterlimit="10"/>
<path d="M75.473 15.2727H74.5604V9.09216H72.5693V8.22266H77.4523V9.09216H75.4612V15.2727H75.473Z" fill="white" stroke="white" stroke-width="0.2" stroke-miterlimit="10"/>
<path d="M83.7343 8.22266L81.0439 14.1682C80.6765 15.0024 80.1195 15.4254 79.3846 15.4254C79.1713 15.4254 78.9343 15.3784 78.6735 15.2727L78.9106 14.4384C79.0646 14.5207 79.2187 14.5677 79.3846 14.5677C79.598 14.5677 79.7639 14.5324 79.8824 14.4502C80.0009 14.3679 80.1076 14.2152 80.2024 14.0037L80.4632 13.4397L78.0691 8.22266H79.1476L80.9017 12.2647H80.9372L82.6557 8.22266H83.7343Z" fill="white" stroke="white" stroke-width="0.2" stroke-miterlimit="10"/>
<path d="M84.7642 15.2727V8.22266H89.9079V15.2727H88.9953V9.09216H85.6768V15.2727H84.7642Z" fill="white" stroke="white" stroke-width="0.2" stroke-miterlimit="10"/>
<path d="M91.5322 15.2727V8.22266H92.4448V11.2424H96.0004V8.22266H96.9129V15.2727H96.0004V12.0884H92.4448V15.2727H91.5322Z" fill="white" stroke="white" stroke-width="0.2" stroke-miterlimit="10"/>
<path d="M104.369 14.3575C103.67 15.0743 102.804 15.4268 101.761 15.4268C100.718 15.4268 99.8533 15.0743 99.1541 14.3575C98.4548 13.6408 98.1111 12.7713 98.1111 11.749C98.1111 10.7268 98.4548 9.84554 99.1541 9.14054C99.8533 8.42379 100.718 8.07129 101.761 8.07129C102.793 8.07129 103.658 8.42379 104.369 9.14054C105.068 9.85729 105.424 10.7268 105.424 11.749C105.412 12.783 105.068 13.6525 104.369 14.3575ZM99.8296 13.77C100.351 14.2988 101.003 14.5573 101.761 14.5573C102.52 14.5573 103.172 14.2988 103.693 13.77C104.215 13.2413 104.487 12.5715 104.487 11.749C104.487 10.9265 104.227 10.2568 103.693 9.72804C103.16 9.19929 102.52 8.92904 101.761 8.92904C101.003 8.92904 100.351 9.18754 99.8296 9.71629C99.2963 10.2568 99.0355 10.9265 99.0355 11.749C99.0355 12.5715 99.2963 13.2413 99.8296 13.77Z" fill="white" stroke="white" stroke-width="0.2" stroke-miterlimit="10"/>
<path d="M109.144 15.2727V8.22266H111.716C112.273 8.22266 112.759 8.41066 113.162 8.76316C113.576 9.13916 113.778 9.59741 113.778 10.1379C113.778 10.4787 113.695 10.7724 113.517 11.0192C113.339 11.2777 113.114 11.4657 112.818 11.5949V11.6302C113.173 11.7477 113.458 11.9474 113.683 12.2412C113.908 12.5349 114.027 12.8639 114.027 13.2399C114.027 13.8157 113.813 14.2974 113.387 14.6734C112.948 15.0847 112.439 15.2727 111.858 15.2727H109.144ZM110.056 11.2424H111.716C112.059 11.2424 112.332 11.1249 112.545 10.9017C112.759 10.6784 112.853 10.4317 112.853 10.1614C112.853 9.89116 112.759 9.64441 112.545 9.42116C112.344 9.19791 112.083 9.08041 111.751 9.08041H110.056V11.2424ZM110.056 14.4032H111.893C112.249 14.4032 112.533 14.2857 112.747 14.0389C112.96 13.7922 113.079 13.5337 113.079 13.2399C113.079 12.9462 112.972 12.6877 112.735 12.4527C112.51 12.2177 112.213 12.0884 111.846 12.0884H110.045V14.4032H110.056Z" fill="white" stroke="white" stroke-width="0.2" stroke-miterlimit="10"/>
<defs>
<linearGradient id="paint0_linear" x1="25.837" y1="10.2334" x2="6.11844" y2="30.1229" gradientUnits="userSpaceOnUse">
<stop stop-color="#00A0FF"/>
<stop offset="0.00657445" stop-color="#00A1FF"/>
<stop offset="0.2601" stop-color="#00BEFF"/>
<stop offset="0.5122" stop-color="#00D2FF"/>
<stop offset="0.7604" stop-color="#00DFFF"/>
<stop offset="1" stop-color="#00E3FF"/>
</linearGradient>
<linearGradient id="paint1_linear" x1="40.0988" y1="23.5015" x2="11.421" y2="23.5015" gradientUnits="userSpaceOnUse">
<stop stop-color="#FFE000"/>
<stop offset="0.4087" stop-color="#FFBD00"/>
<stop offset="0.7754" stop-color="#FFA500"/>
<stop offset="1" stop-color="#FF9C00"/>
</linearGradient>
<linearGradient id="paint2_linear" x1="29.4222" y1="26.1951" x2="2.68224" y2="53.1669" gradientUnits="userSpaceOnUse">
<stop stop-color="#FF3A44"/>
<stop offset="1" stop-color="#C31162"/>
</linearGradient>
<linearGradient id="paint3_linear" x1="8.64814" y1="0.20598" x2="20.5887" y2="12.25" gradientUnits="userSpaceOnUse">
<stop stop-color="#32A071"/>
<stop offset="0.0685" stop-color="#2DA771"/>
<stop offset="0.4762" stop-color="#15CF74"/>
<stop offset="0.8009" stop-color="#06E775"/>
<stop offset="1" stop-color="#00F076"/>
</linearGradient>
</defs>
</svg>
