<svg width="278" height="90" viewBox="0 0 278 90" fill="none" xmlns="http://www.w3.org/2000/svg">
<path d="M25.4062 37V14.4531H20.75L13.8438 31.4688H13.7188L6.8125 14.4531H2.14062V37H5.78125V21H5.89062L12.4062 36.8125H15.1562L21.6719 21H21.7812V37H25.4062ZM39.0156 31.7031C35.2031 31.5469 32.7969 29.2812 32.7969 25.6719C32.7969 22.0938 35.2031 19.8125 39.0156 19.6562V31.7031ZM49.1094 25.6875C49.1094 29.25 46.7031 31.5312 42.9062 31.7031V19.6562C46.7031 19.7969 49.1094 22.0781 49.1094 25.6875ZM38.9688 35.0156V37.4062H42.9375V35.0156C49.1406 34.8281 53.1562 31.3125 53.1562 25.6875C53.1562 20.0156 49.1406 16.5 42.9375 16.3281V14.0469H38.9688V16.3281C32.7656 16.5156 28.7344 20.0312 28.7344 25.6719C28.7344 31.3281 32.7656 34.8594 38.9688 35.0156ZM66.4219 14.0781C59.8438 14.0781 55.7188 18.5625 55.7188 25.7344C55.7188 32.9062 59.8438 37.375 66.4219 37.375C72.9844 37.375 77.1094 32.9062 77.1094 25.7344C77.1094 18.5625 72.9844 14.0781 66.4219 14.0781ZM66.4219 17.5156C70.4375 17.5156 73 20.7031 73 25.7344C73 30.75 70.4375 33.9375 66.4219 33.9375C62.3906 33.9375 59.8438 30.75 59.8438 25.7344C59.8438 20.7031 62.3906 17.5156 66.4219 17.5156ZM20.8906 75V52.4531H2.14062V75H6.1875V55.875H16.875V75H20.8906ZM25.1719 52.4531V75H29.2031V67.5469H33.7656C38.3281 67.5469 41.5312 64.5 41.5312 60C41.5312 55.5 38.4219 52.4531 33.9375 52.4531H25.1719ZM29.2031 55.75H32.875C35.7656 55.75 37.4375 57.2969 37.4375 60C37.4375 62.7344 35.75 64.2969 32.8594 64.2969H29.2031V55.75ZM54.8281 52.0781C48.25 52.0781 44.125 56.5625 44.125 63.7344C44.125 70.9062 48.25 75.375 54.8281 75.375C61.3906 75.375 65.5156 70.9062 65.5156 63.7344C65.5156 56.5625 61.3906 52.0781 54.8281 52.0781ZM54.8281 55.5156C58.8438 55.5156 61.4062 58.7031 61.4062 63.7344C61.4062 68.75 58.8438 71.9375 54.8281 71.9375C50.7969 71.9375 48.25 68.75 48.25 63.7344C48.25 58.7031 50.7969 55.5156 54.8281 55.5156ZM78.3594 69.7031C74.5469 69.5469 72.1406 67.2812 72.1406 63.6719C72.1406 60.0938 74.5469 57.8125 78.3594 57.6562V69.7031ZM88.4531 63.6875C88.4531 67.25 86.0469 69.5312 82.25 69.7031V57.6562C86.0469 57.7969 88.4531 60.0781 88.4531 63.6875ZM78.3125 73.0156V75.4062H82.2812V73.0156C88.4844 72.8281 92.5 69.3125 92.5 63.6875C92.5 58.0156 88.4844 54.5 82.2812 54.3281V52.0469H78.3125V54.3281C72.1094 54.5156 68.0781 58.0312 68.0781 63.6719C68.0781 69.3281 72.1094 72.8594 78.3125 73.0156ZM105.547 75.4531C110.734 75.4531 114.359 72.6406 115.219 68.0156H111.219C110.484 70.5 108.406 71.9531 105.562 71.9531C101.656 71.9531 99.1875 68.7812 99.1875 63.7188C99.1875 58.6875 101.672 55.5 105.547 55.5C108.328 55.5 110.547 57.1719 111.219 59.7656H115.203C114.531 55.1406 110.641 52 105.547 52C99.1406 52 95.0625 56.5312 95.0625 63.7188C95.0625 70.9531 99.1094 75.4531 105.547 75.4531ZM128.516 52.0781C121.938 52.0781 117.812 56.5625 117.812 63.7344C117.812 70.9062 121.938 75.375 128.516 75.375C135.078 75.375 139.203 70.9062 139.203 63.7344C139.203 56.5625 135.078 52.0781 128.516 52.0781ZM128.516 55.5156C132.531 55.5156 135.094 58.7031 135.094 63.7344C135.094 68.75 132.531 71.9375 128.516 71.9375C124.484 71.9375 121.938 68.75 121.938 63.7344C121.938 58.7031 124.484 55.5156 128.516 55.5156ZM160.812 75.5625C167.297 75.5625 171.297 70.9844 171.297 63.7188C171.297 56.4375 167.281 51.8906 160.812 51.8906C154.953 51.8906 151.062 55.6562 150.406 61.8281H146.766V52.4531H142.734V75H146.766V65.2188H150.375C150.891 71.6094 154.766 75.5625 160.812 75.5625ZM160.797 55.375C164.719 55.375 167.188 58.6094 167.188 63.7188C167.188 68.7969 164.734 72.0781 160.797 72.0781C156.828 72.0781 154.391 68.7969 154.391 63.7188C154.391 58.6094 156.891 55.375 160.797 55.375ZM179.328 65.1094H182.406C185.234 65.1094 186.922 66.4062 186.922 68.5938C186.922 70.75 185.141 72.2188 182.5 72.2188C179.75 72.2188 177.875 70.8906 177.703 68.7812H173.828C174.031 72.875 177.469 75.5625 182.484 75.5625C187.406 75.5625 191.062 72.6875 191.062 68.8281C191.062 65.7969 189.172 63.6406 186.141 63.2812V63.1562C188.641 62.5938 190.359 60.5 190.359 57.9688C190.359 54.3906 187.172 51.8906 182.562 51.8906C177.719 51.8906 174.578 54.4688 174.375 58.5781H178.141C178.312 56.4531 179.953 55.1406 182.453 55.1406C184.922 55.1406 186.453 56.3906 186.453 58.4219C186.453 60.4531 184.781 61.8594 182.328 61.8594H179.328V65.1094Z" fill="white"/>
<path d="M93.0591 21H94.1572V14.3984H88.7744V21H89.8662V15.3062H93.0591V21ZM98.918 14.2842C97.9595 14.2842 97.1914 14.7729 96.7852 15.5156H96.7598V14.3984H95.7124V23.2026H96.8169V19.9272H96.8423C97.2358 20.6509 97.9976 21.1143 98.9434 21.1143C100.606 21.1143 101.743 19.7686 101.743 17.6992C101.743 15.6299 100.6 14.2842 98.918 14.2842ZM98.7021 20.1431C97.5723 20.1431 96.8105 19.1719 96.8105 17.6992C96.8105 16.2329 97.5723 15.2554 98.7021 15.2554C99.8765 15.2554 100.613 16.2075 100.613 17.6992C100.613 19.1973 99.8765 20.1431 98.7021 20.1431ZM105.71 21.1143C107.532 21.1143 108.763 19.8003 108.763 17.6992C108.763 15.5918 107.532 14.2842 105.71 14.2842C103.882 14.2842 102.65 15.5918 102.65 17.6992C102.65 19.8003 103.882 21.1143 105.71 21.1143ZM105.71 20.1431C104.542 20.1431 103.774 19.2544 103.774 17.6992C103.774 16.144 104.542 15.2554 105.71 15.2554C106.878 15.2554 107.64 16.144 107.64 17.6992C107.64 19.2544 106.878 20.1431 105.71 20.1431ZM113.086 20.1431C111.677 20.105 110.782 19.1846 110.782 17.6992C110.782 16.2075 111.677 15.2871 113.086 15.2554V20.1431ZM116.45 17.6992C116.45 19.1909 115.555 20.1113 114.152 20.1431V15.2554C115.555 15.2935 116.45 16.2139 116.45 17.6992ZM113.086 21.0825V23.2026H114.152V21.0825C116.196 21.0508 117.561 19.7368 117.561 17.6992C117.561 15.6616 116.196 14.354 114.152 14.3159V12.2275H113.086V14.3159C111.029 14.3477 109.671 15.6616 109.671 17.6992C109.671 19.7368 111.029 21.0444 113.086 21.0825ZM121.452 15.2427C122.493 15.2427 123.185 16.0298 123.21 17.1343H119.624C119.694 16.0361 120.417 15.2427 121.452 15.2427ZM123.185 19.1084C123.001 19.7305 122.385 20.1558 121.547 20.1558C120.36 20.1558 119.618 19.3242 119.618 18.061V17.9976H124.353V17.5786C124.353 15.5791 123.255 14.2842 121.471 14.2842C119.649 14.2842 118.481 15.6743 118.481 17.7246C118.481 19.8003 119.63 21.1143 121.522 21.1143C122.963 21.1143 124.08 20.2637 124.271 19.1084H123.185ZM131.043 16.4297C130.847 15.3062 129.875 14.2842 128.282 14.2842C126.454 14.2842 125.261 15.6426 125.261 17.6992C125.261 19.8003 126.46 21.1143 128.295 21.1143C129.78 21.1143 130.84 20.2319 131.056 18.9814H129.964C129.755 19.7114 129.177 20.1431 128.301 20.1431C127.152 20.1431 126.384 19.21 126.384 17.6992C126.384 16.2266 127.14 15.2554 128.289 15.2554C129.222 15.2554 129.761 15.7949 129.952 16.4297H131.043ZM137.67 16.4297C137.474 15.3062 136.502 14.2842 134.909 14.2842C133.081 14.2842 131.888 15.6426 131.888 17.6992C131.888 19.8003 133.087 21.1143 134.922 21.1143C136.407 21.1143 137.467 20.2319 137.683 18.9814H136.591C136.382 19.7114 135.804 20.1431 134.928 20.1431C133.779 20.1431 133.011 19.21 133.011 17.6992C133.011 16.2266 133.767 15.2554 134.916 15.2554C135.849 15.2554 136.388 15.7949 136.579 16.4297H137.67ZM139.924 21L143.225 16.0869H143.275V21H144.367V14.3984H143.275L139.975 19.3115H139.924V14.3984H138.832V21H139.924ZM148.658 21.1143C150.48 21.1143 151.711 19.8003 151.711 17.6992C151.711 15.5918 150.48 14.2842 148.658 14.2842C146.83 14.2842 145.599 15.5918 145.599 17.6992C145.599 19.8003 146.83 21.1143 148.658 21.1143ZM148.658 20.1431C147.49 20.1431 146.722 19.2544 146.722 17.6992C146.722 16.144 147.49 15.2554 148.658 15.2554C149.826 15.2554 150.588 16.144 150.588 17.6992C150.588 19.2544 149.826 20.1431 148.658 20.1431ZM157.285 21H158.376V14.3984H157.285V17.1216H154.028V14.3984H152.937V21H154.028V18.0293H157.285V21ZM162.115 20.1748C161.322 20.1748 160.795 19.7622 160.795 19.1338C160.795 18.5117 161.303 18.1182 162.191 18.061L163.956 17.9531V18.4927C163.956 19.4448 163.156 20.1748 162.115 20.1748ZM161.868 21.1143C162.756 21.1143 163.594 20.6191 163.988 19.8638H164.013V21H165.061V16.436C165.061 15.1221 164.083 14.2842 162.534 14.2842C160.973 14.2842 159.995 15.1602 159.919 16.3027H160.985C161.125 15.6553 161.658 15.2554 162.509 15.2554C163.423 15.2554 163.956 15.7378 163.956 16.5439V17.0962L162.064 17.2041C160.541 17.293 159.671 18.0039 159.671 19.1338C159.671 20.3208 160.554 21.1143 161.868 21.1143ZM168.349 18.0864L168.552 15.3062H170.799V21H171.891V14.3984H167.568L167.314 18.061C167.231 19.2734 166.984 20.0415 166.33 20.0415C166.171 20.0415 166.051 20.0098 165.994 19.9907V20.9873C166.07 21.019 166.197 21.0571 166.387 21.0571C167.777 21.0571 168.215 19.9082 168.349 18.0864ZM175.775 17.4136C176.626 17.4136 177.185 17.9404 177.185 18.7529C177.185 19.5591 176.632 20.0923 175.775 20.0923H174.544V17.4136H175.775ZM173.452 21H175.794C177.305 21 178.276 20.1304 178.276 18.7529C178.276 17.3755 177.305 16.5059 175.794 16.5059H174.544V14.3984H173.452V21ZM183.831 21H184.922V14.3984H183.831V17.1216H180.574V14.3984H179.482V21H180.574V18.0293H183.831V21ZM192.127 21H193.219V14.3984H192.127V21ZM188.801 17.4136C189.651 17.4136 190.21 17.9404 190.21 18.7529C190.21 19.5591 189.658 20.0923 188.801 20.0923H187.569V17.4136H188.801ZM186.478 21H188.82C190.331 21 191.302 20.1304 191.302 18.7529C191.302 17.3755 190.331 16.5059 188.82 16.5059H187.569V14.3984H186.478V21ZM195.859 21L199.16 16.0869H199.211V21H200.303V14.3984H199.211L195.91 19.3115H195.859V14.3984H194.768V21H195.859ZM195.612 11.542C195.612 12.71 196.443 13.5098 197.656 13.5098C198.868 13.5098 199.7 12.71 199.7 11.542H198.887C198.887 12.2783 198.411 12.856 197.656 12.856C196.9 12.856 196.424 12.2783 196.424 11.542H195.612ZM209.983 16.4297C209.786 15.3062 208.815 14.2842 207.222 14.2842C205.394 14.2842 204.2 15.6426 204.2 17.6992C204.2 19.8003 205.4 21.1143 207.234 21.1143C208.72 21.1143 209.78 20.2319 209.996 18.9814H208.904C208.694 19.7114 208.117 20.1431 207.241 20.1431C206.092 20.1431 205.324 19.21 205.324 17.6992C205.324 16.2266 206.079 15.2554 207.228 15.2554C208.161 15.2554 208.701 15.7949 208.891 16.4297H209.983ZM213.887 21.1143C215.708 21.1143 216.94 19.8003 216.94 17.6992C216.94 15.5918 215.708 14.2842 213.887 14.2842C212.059 14.2842 210.827 15.5918 210.827 17.6992C210.827 19.8003 212.059 21.1143 213.887 21.1143ZM213.887 20.1431C212.719 20.1431 211.951 19.2544 211.951 17.6992C211.951 16.144 212.719 15.2554 213.887 15.2554C215.055 15.2554 215.816 16.144 215.816 17.6992C215.816 19.2544 215.055 20.1431 213.887 20.1431ZM223.434 21.1143C225.287 21.1143 226.43 19.8193 226.43 17.6992C226.43 15.5728 225.287 14.2842 223.434 14.2842C221.758 14.2842 220.666 15.3442 220.469 17.1216H219.257V14.3984H218.165V21H219.257V18.0293H220.444C220.564 19.9526 221.682 21.1143 223.434 21.1143ZM223.434 20.1367C222.24 20.1367 221.567 19.248 221.567 17.6992C221.567 16.144 222.24 15.2617 223.434 15.2617C224.627 15.2617 225.3 16.144 225.3 17.6992C225.3 19.248 224.627 20.1367 223.434 20.1367ZM229.864 21.1143C231.413 21.1143 232.441 20.2827 232.441 19.0513C232.441 18.2896 231.99 17.731 231.121 17.5405V17.4897C231.781 17.3374 232.212 16.7407 232.212 16.0679C232.212 15.0078 231.394 14.2842 229.889 14.2842C228.493 14.2842 227.541 14.9761 227.401 16.0679H228.474C228.562 15.541 229.108 15.2046 229.889 15.2046C230.74 15.2046 231.133 15.6045 231.133 16.1567C231.133 16.8042 230.702 17.1216 229.864 17.1216H228.874V18.0229H229.864C230.86 18.0229 231.355 18.3594 231.355 19.1021C231.355 19.7432 230.822 20.2002 229.864 20.2002C229.045 20.2002 228.499 19.8638 228.372 19.2861H227.255C227.369 20.4033 228.417 21.1143 229.864 21.1143ZM89.8662 37V32.3154H89.9106L92.0435 36.8096H92.8877L95.0205 32.3154H95.0649V37H96.1631V30.3984H94.8745L92.5132 35.54H92.4624L90.1138 30.3984H88.7744V37H89.8662ZM98.8037 37L102.104 32.0869H102.155V37H103.247V30.3984H102.155L98.8545 35.3115H98.8037V30.3984H97.7119V37H98.8037ZM107.037 33.5215L110.122 30.3984H108.757L105.938 33.3184H105.888V30.3984H104.796V37H105.888V33.8262H105.938L108.789 37H110.21L107.037 33.5215ZM114.343 30.2842C113.384 30.2842 112.616 30.7729 112.21 31.5156H112.185V30.3984H111.137V39.2026H112.242V35.9272H112.267C112.661 36.6509 113.422 37.1143 114.368 37.1143C116.031 37.1143 117.167 35.7686 117.167 33.6992C117.167 31.6299 116.025 30.2842 114.343 30.2842ZM114.127 36.1431C112.997 36.1431 112.235 35.1719 112.235 33.6992C112.235 32.2329 112.997 31.2554 114.127 31.2554C115.301 31.2554 116.038 32.2075 116.038 33.6992C116.038 35.1973 115.301 36.1431 114.127 36.1431ZM121.135 37.1143C122.957 37.1143 124.188 35.8003 124.188 33.6992C124.188 31.5918 122.957 30.2842 121.135 30.2842C119.307 30.2842 118.075 31.5918 118.075 33.6992C118.075 35.8003 119.307 37.1143 121.135 37.1143ZM121.135 36.1431C119.967 36.1431 119.199 35.2544 119.199 33.6992C119.199 32.144 119.967 31.2554 121.135 31.2554C122.303 31.2554 123.064 32.144 123.064 33.6992C123.064 35.2544 122.303 36.1431 121.135 36.1431ZM128.511 36.1431C127.102 36.105 126.207 35.1846 126.207 33.6992C126.207 32.2075 127.102 31.2871 128.511 31.2554V36.1431ZM131.875 33.6992C131.875 35.1909 130.98 36.1113 129.577 36.1431V31.2554C130.98 31.2935 131.875 32.2139 131.875 33.6992ZM128.511 37.0825V39.2026H129.577V37.0825C131.621 37.0508 132.986 35.7368 132.986 33.6992C132.986 31.6616 131.621 30.354 129.577 30.3159V28.2275H128.511V30.3159C126.454 30.3477 125.096 31.6616 125.096 33.6992C125.096 35.7368 126.454 37.0444 128.511 37.0825ZM135.315 37L138.616 32.0869H138.667V37H139.759V30.3984H138.667L135.366 35.3115H135.315V30.3984H134.224V37H135.315ZM145.656 37H146.748V30.3984H145.656V33.1216H142.399V30.3984H141.308V37H142.399V34.0293H145.656V37ZM150.486 36.1748C149.693 36.1748 149.166 35.7622 149.166 35.1338C149.166 34.5117 149.674 34.1182 150.562 34.061L152.327 33.9531V34.4927C152.327 35.4448 151.527 36.1748 150.486 36.1748ZM150.239 37.1143C151.127 37.1143 151.965 36.6191 152.359 35.8638H152.384V37H153.432V32.436C153.432 31.1221 152.454 30.2842 150.905 30.2842C149.344 30.2842 148.366 31.1602 148.29 32.3027H149.356C149.496 31.6553 150.029 31.2554 150.88 31.2554C151.794 31.2554 152.327 31.7378 152.327 32.5439V33.0962L150.436 33.2041C148.912 33.293 148.042 34.0039 148.042 35.1338C148.042 36.3208 148.925 37.1143 150.239 37.1143ZM159.303 37H160.395V30.3984H159.303V33.1216H156.047V30.3984H154.955V37H156.047V34.0293H159.303V37ZM167.416 32.4297C167.219 31.3062 166.248 30.2842 164.654 30.2842C162.826 30.2842 161.633 31.6426 161.633 33.6992C161.633 35.8003 162.833 37.1143 164.667 37.1143C166.152 37.1143 167.212 36.2319 167.428 34.9814H166.336C166.127 35.7114 165.549 36.1431 164.673 36.1431C163.524 36.1431 162.756 35.21 162.756 33.6992C162.756 32.2266 163.512 31.2554 164.661 31.2554C165.594 31.2554 166.133 31.7949 166.324 32.4297H167.416ZM171.319 37.1143C173.141 37.1143 174.373 35.8003 174.373 33.6992C174.373 31.5918 173.141 30.2842 171.319 30.2842C169.491 30.2842 168.26 31.5918 168.26 33.6992C168.26 35.8003 169.491 37.1143 171.319 37.1143ZM171.319 36.1431C170.151 36.1431 169.383 35.2544 169.383 33.6992C169.383 32.144 170.151 31.2554 171.319 31.2554C172.487 31.2554 173.249 32.144 173.249 33.6992C173.249 35.2544 172.487 36.1431 171.319 36.1431ZM178.27 31.2935C178.962 31.2935 179.336 31.6172 179.336 32.2012C179.336 32.8359 178.937 33.1406 178.105 33.1406H176.689V31.2935H178.27ZM178.194 34.0293C179.159 34.0293 179.622 34.3721 179.622 35.0767C179.622 35.7432 179.19 36.105 178.391 36.105H176.689V34.0293H178.194ZM175.598 37H178.441C179.844 37 180.708 36.27 180.708 35.1021C180.708 34.2769 180.162 33.6738 179.33 33.5596V33.5088C179.939 33.3818 180.416 32.7598 180.416 32.0869C180.416 31.0396 179.66 30.3984 178.422 30.3984H175.598V37ZM187.62 37H188.712V30.3984H187.62V37ZM184.294 33.4136C185.145 33.4136 185.703 33.9404 185.703 34.7529C185.703 35.5591 185.151 36.0923 184.294 36.0923H183.062V33.4136H184.294ZM181.971 37H184.313C185.824 37 186.795 36.1304 186.795 34.7529C186.795 33.3755 185.824 32.5059 184.313 32.5059H183.062V30.3984H181.971V37ZM192.603 34.4863L194.184 37H195.409L193.212 33.6548L195.44 30.3984H194.209L192.641 32.874H192.616L191.029 30.3984H189.797L192.006 33.6992L189.759 37H190.984L192.578 34.4863H192.603ZM201.89 37.1143C203.711 37.1143 204.943 35.8003 204.943 33.6992C204.943 31.5918 203.711 30.2842 201.89 30.2842C200.062 30.2842 198.83 31.5918 198.83 33.6992C198.83 35.8003 200.062 37.1143 201.89 37.1143ZM201.89 36.1431C200.722 36.1431 199.954 35.2544 199.954 33.6992C199.954 32.144 200.722 31.2554 201.89 31.2554C203.058 31.2554 203.819 32.144 203.819 33.6992C203.819 35.2544 203.058 36.1431 201.89 36.1431ZM209.38 30.2842C208.421 30.2842 207.653 30.7729 207.247 31.5156H207.222V30.3984H206.174V39.2026H207.279V35.9272H207.304C207.698 36.6509 208.459 37.1143 209.405 37.1143C211.068 37.1143 212.205 35.7686 212.205 33.6992C212.205 31.6299 211.062 30.2842 209.38 30.2842ZM209.164 36.1431C208.034 36.1431 207.272 35.1719 207.272 33.6992C207.272 32.2329 208.034 31.2554 209.164 31.2554C210.338 31.2554 211.075 32.2075 211.075 33.6992C211.075 35.1973 210.338 36.1431 209.164 36.1431ZM217.676 31.3062V30.3984H213.43V37H214.521V31.3062H217.676ZM220.742 36.1748C219.949 36.1748 219.422 35.7622 219.422 35.1338C219.422 34.5117 219.93 34.1182 220.818 34.061L222.583 33.9531V34.4927C222.583 35.4448 221.783 36.1748 220.742 36.1748ZM220.495 37.1143C221.383 37.1143 222.221 36.6191 222.615 35.8638H222.64V37H223.688V32.436C223.688 31.1221 222.71 30.2842 221.161 30.2842C219.6 30.2842 218.622 31.1602 218.546 32.3027H219.612C219.752 31.6553 220.285 31.2554 221.136 31.2554C222.05 31.2554 222.583 31.7378 222.583 32.5439V33.0962L220.691 33.2041C219.168 33.293 218.298 34.0039 218.298 35.1338C218.298 36.3208 219.181 37.1143 220.495 37.1143ZM229.559 37H230.651V30.3984H229.559V33.1216H226.303V30.3984H225.211V37H226.303V34.0293H229.559V37ZM233.298 37L236.599 32.0869H236.649V37H237.741V30.3984H236.649L233.349 35.3115H233.298V30.3984H232.206V37H233.298ZM241.493 37.1143C243.042 37.1143 244.07 36.2827 244.07 35.0513C244.07 34.2896 243.619 33.731 242.75 33.5405V33.4897C243.41 33.3374 243.841 32.7407 243.841 32.0679C243.841 31.0078 243.022 30.2842 241.518 30.2842C240.122 30.2842 239.169 30.9761 239.03 32.0679H240.103C240.191 31.541 240.737 31.2046 241.518 31.2046C242.369 31.2046 242.762 31.6045 242.762 32.1567C242.762 32.8042 242.331 33.1216 241.493 33.1216H240.502V34.0229H241.493C242.489 34.0229 242.984 34.3594 242.984 35.1021C242.984 35.7432 242.451 36.2002 241.493 36.2002C240.674 36.2002 240.128 35.8638 240.001 35.2861H238.884C238.998 36.4033 240.045 37.1143 241.493 37.1143ZM247.517 36.1748C246.723 36.1748 246.196 35.7622 246.196 35.1338C246.196 34.5117 246.704 34.1182 247.593 34.061L249.357 33.9531V34.4927C249.357 35.4448 248.558 36.1748 247.517 36.1748ZM247.269 37.1143C248.158 37.1143 248.996 36.6191 249.389 35.8638H249.415V37H250.462V32.436C250.462 31.1221 249.484 30.2842 247.936 30.2842C246.374 30.2842 245.396 31.1602 245.32 32.3027H246.387C246.526 31.6553 247.06 31.2554 247.91 31.2554C248.824 31.2554 249.357 31.7378 249.357 32.5439V33.0962L247.466 33.2041C245.942 33.293 245.073 34.0039 245.073 35.1338C245.073 36.3208 245.955 37.1143 247.269 37.1143ZM258.358 38.7456V36.0923H257.305V30.3984H256.213V36.0923H253.077V30.3984H251.985V37H257.33V38.7456H258.358ZM260.44 37L263.741 32.0869H263.792V37H264.884V30.3984H263.792L260.491 35.3115H260.44V30.3984H259.349V37H260.44ZM267.524 37L270.825 32.0869H270.876V37H271.968V30.3984H270.876L267.575 35.3115H267.524V30.3984H266.433V37H267.524ZM267.277 27.542C267.277 28.71 268.108 29.5098 269.321 29.5098C270.533 29.5098 271.365 28.71 271.365 27.542H270.552C270.552 28.2783 270.076 28.856 269.321 28.856C268.565 28.856 268.089 28.2783 268.089 27.542H267.277Z" fill="white"/>
</svg>
