<svg width="38" height="38" viewBox="0 0 38 38" fill="none" xmlns="http://www.w3.org/2000/svg">
<path d="M19 0C8.52357 0 0 8.52357 0 19C0 29.4764 8.52357 38 19 38C25.3609 38 31.5797 34.6775 33.787 30.101C34.5916 28.4339 34.2281 27.2939 33.7803 26.6314C33.0666 25.5723 31.6028 25.0106 29.7391 24.9594V23.9664C29.7391 22.9041 28.875 22.04 27.811 22.04C26.5504 22.04 25.3146 21.8434 24.1465 21.4568C23.4724 21.2238 22.6414 21.4436 22.2564 21.8434L20.0194 23.5319C17.4552 22.1358 15.841 20.5233 14.4631 17.9773L16.0773 15.8278C16.5928 15.314 16.7762 14.5656 16.5548 13.8601C16.1665 12.6837 15.9683 11.4479 15.9683 10.1873C15.9716 9.12496 15.1058 8.26087 14.0435 8.26087H10.189C9.12496 8.26087 8.26087 9.12496 8.26087 10.189C8.26087 20.9694 17.0323 29.7391 27.811 29.7391C28.8734 29.7391 29.7391 28.875 29.7391 27.811V26.5934C31.0113 26.6314 32.0142 26.9668 32.4107 27.555C32.7097 27.9961 32.6717 28.6107 32.3 29.3806C30.3521 33.4185 24.7578 36.3478 19 36.3478C9.43391 36.3478 1.65217 28.5661 1.65217 19C1.65217 9.43391 9.43391 1.65217 19 1.65217C28.5661 1.65217 36.3478 9.43391 36.3478 19C36.3478 19.456 36.7179 19.8261 37.1739 19.8261C37.6299 19.8261 38 19.456 38 19C38 8.52357 29.4764 0 19 0Z" fill="#56CCF2"/>
</svg>
