<svg width="400" height="97" viewBox="0 0 400 97" fill="none" xmlns="http://www.w3.org/2000/svg">
<path d="M383.416 52.6638L379.719 64.9688C379.647 65.1481 379.539 65.3993 379.467 65.6145C379.36 65.9015 379.18 66.1526 379.001 66.3679C378.821 66.5472 378.534 66.7625 378.175 66.9419C377.816 67.0495 377.349 67.193 376.811 67.193H374.155C373.76 67.193 373.293 67.1212 372.755 67.0854C372.216 67.0136 371.821 66.7266 371.462 66.2602C371.103 65.7939 370.924 65.0764 370.888 64.0719C370.888 63.0674 371.139 61.6683 371.714 59.8387C371.893 59.1212 372.18 58.3679 372.539 57.5428C372.826 56.7177 373.293 55.9643 373.832 55.2468C374.37 54.4934 375.016 53.8836 375.77 53.4172C376.524 52.8791 377.457 52.6638 378.606 52.6638H383.416ZM388.98 34.2961L385.678 44.9867H377.206C375.662 44.9867 374.155 45.2378 372.539 45.6324C370.96 46.0629 369.488 46.7446 368.016 47.8208C366.544 48.9329 365.18 50.3679 363.96 52.1616C362.739 53.9912 360.55 56.1795 359.652 59.0495C358.934 61.3096 358.468 63.3544 358.252 65.2916C357.965 67.1571 358.037 68.8073 358.36 70.2423C358.719 71.6414 359.473 72.7176 360.586 73.5428C361.77 74.2961 363.421 74.6549 365.647 74.7266L381.585 74.8342C382.231 74.8342 382.949 74.7625 383.703 74.6549C384.529 74.4755 385.247 74.1885 385.929 73.758C386.683 73.2916 387.329 72.6459 387.975 71.8208C388.549 70.9957 389.088 69.8836 389.518 68.5203L399.929 34.2961H388.98ZM341.165 74.8342H353.406L365.683 34.2961H354.698L341.524 73.6504L341.165 74.8342ZM321.027 59.9463C321.458 58.4037 321.924 57.184 322.391 56.2513C322.786 55.3185 323.396 54.6011 323.971 54.0629C324.545 53.4889 325.335 53.1302 326.16 52.9508C326.986 52.7715 327.991 52.6638 329.176 52.6638C330.468 52.6638 331.473 52.7715 332.191 53.0585C332.909 53.3096 333.376 53.7042 333.591 54.2782C333.842 54.8163 333.878 55.5697 333.77 56.5024C333.663 57.3993 333.376 58.5472 332.945 59.9105C332.694 60.7356 332.406 61.5966 332.047 62.4934C331.688 63.3185 331.222 64.0719 330.647 64.7894C330.073 65.5069 329.355 66.0809 328.422 66.5114C327.488 66.9419 326.232 67.1571 324.76 67.1571C323.935 67.1571 323.289 67.0495 322.75 66.8701C322.176 66.6907 321.745 66.4755 321.386 66.2961C321.099 66.045 320.848 65.8298 320.74 65.5786C320.56 65.3634 320.489 65.2199 320.489 65.1123C320.309 64.8253 320.273 64.2872 320.273 63.5338C320.273 62.7804 320.524 61.5966 321.027 59.9463ZM331.581 43.48C330.36 43.48 329.176 43.5517 327.919 43.5876C326.699 43.6594 325.442 43.767 324.222 43.9464C323.001 44.1257 321.853 45.5966 320.704 45.9912C319.591 46.3858 318.478 46.9957 317.401 47.7132C316.217 48.5383 315.212 49.5428 314.35 50.5831C313.453 51.6952 312.771 52.8432 312.16 53.9553C311.514 55.0674 311.048 56.1795 310.689 57.2558C310.294 58.2603 309.971 59.193 309.755 59.9463C309.576 60.6638 309.289 61.5966 309.037 62.6011C308.75 63.6773 308.571 64.7894 308.499 65.9015C308.427 67.0136 308.499 68.1257 308.678 69.2737C308.858 70.3858 309.325 71.3185 309.971 72.1437C310.617 72.8611 311.335 73.4351 312.268 73.8656C313.166 74.2602 314.171 74.5831 315.284 74.7625C316.396 74.9419 317.581 75.0495 318.766 75.1212C319.95 75.193 321.171 75.2289 322.355 75.2289C323.54 75.2289 324.724 75.1571 326.017 75.1212C327.273 75.0495 328.494 74.9419 329.75 74.6907C330.971 74.5114 332.155 74.2244 333.34 73.7939C334.453 73.3993 335.601 72.8611 336.57 72.1437C337.791 71.3185 338.796 70.3858 339.693 69.2737C340.519 68.1616 341.273 67.0495 341.883 65.9015C342.458 64.7894 342.996 63.6773 343.355 62.6011C343.714 61.5966 344.073 60.6638 344.216 59.9463C344.468 59.193 344.683 58.2244 344.97 57.2558C345.222 56.1795 345.365 55.0674 345.509 53.9553C345.688 51.3006 345.581 50.4755 345.401 49.4351C345.222 48.323 344.647 47.3903 344.001 46.5652C343.355 45.8477 342.601 45.3455 341.704 44.915C340.77 44.4845 339.765 44.1975 338.688 44.0181C337.576 43.767 336.391 43.6594 335.17 43.6235C333.914 43.5159 332.694 43.48 331.581 43.48ZM309.289 52.8073H296.581L293.709 62.0988C293.135 64.036 291.879 65.0405 290.012 65.0405H286.171C284.699 65.0405 283.658 64.6818 282.94 64.1078C282.222 63.462 281.756 62.7087 281.54 61.7401C281.289 60.7356 281.289 59.6952 281.469 58.5472C281.648 57.3634 281.899 56.1795 282.222 55.0674C282.581 53.8477 283.048 52.5921 283.622 51.4082C284.197 50.1885 284.915 49.0405 285.848 48.0719C286.745 47.0674 287.786 46.3141 289.079 45.6683C290.299 45.0943 291.771 44.7356 293.566 44.7356H310.761L313.919 34.2603H290.981C290.73 34.2603 289.868 35.4441 289.151 35.5159C288.397 35.5159 287.571 35.6235 286.566 35.8029C285.561 35.9822 284.52 36.1975 283.335 36.5562C282.151 36.915 281.038 37.4531 279.925 38.1347C278.381 39.0316 277.053 40.1795 275.869 41.471C274.684 42.8342 273.751 44.2333 272.853 45.7759C272.028 47.3185 271.31 48.897 270.735 50.4755C270.089 52.1257 269.551 53.7042 269.084 55.2827C268.438 57.471 267.9 59.6952 267.505 61.9912C267.146 64.3589 267.146 66.4037 267.612 68.2692C268.079 70.1347 269.084 71.6773 270.664 72.9329C272.207 74.1526 274.612 74.7625 277.771 74.7625H296.366C297.084 74.7625 297.766 74.6907 298.556 74.5114C299.309 74.332 300.027 74.1168 300.781 73.6863C301.499 73.2916 302.181 72.6459 302.791 71.8567C303.438 71.1033 303.976 70.0988 304.335 68.8073L309.289 52.8073Z" fill="#C36F3C"/>
<path d="M230.674 74.5831H253.074C254.366 74.5831 255.551 74.332 256.592 73.9374C257.669 73.5428 258.602 72.9329 259.428 72.2513C260.182 71.5338 260.9 70.7087 261.474 69.776C262.012 68.8432 262.479 67.8387 262.766 66.8343C263.053 65.9374 263.233 65.0047 263.305 64.1437C263.412 63.2468 263.233 62.3858 262.874 61.5607C262.587 60.6639 261.941 59.9105 261.115 59.1571C260.218 58.4038 258.997 57.6863 257.346 57.1123L250.597 54.5652C250.418 54.4576 250.202 54.3858 249.879 54.2782C249.592 54.2065 249.305 54.0988 248.982 53.9912C248.731 53.8118 248.515 53.7042 248.336 53.5248C248.156 53.4172 248.084 53.2378 248.156 53.0585C248.228 52.7715 248.407 52.5921 248.695 52.5204C248.982 52.4486 249.233 52.4127 249.413 52.4127C249.52 52.4127 249.664 52.4127 249.772 52.4845C249.951 52.4845 250.059 52.4845 250.166 52.4845H266.356L268.941 43.9105H249.018C246.469 43.9105 244.028 45.489 242.125 46.7446C240.259 48.036 238.823 50.0809 237.961 53.0585C237.244 55.4621 237.244 57.3634 237.961 58.6908C238.715 60.054 240.259 61.0943 242.484 61.9912L248.3 64.036C249.233 64.3948 250.023 64.61 250.489 64.8612C251.028 65.0405 251.315 65.1482 251.495 65.2917C251.674 65.3993 251.746 65.5428 251.746 65.5787C251.674 65.6504 251.674 65.758 251.638 65.9374C251.566 66.2244 251.423 66.4038 251.1 66.5114C250.848 66.619 250.633 66.6908 250.454 66.6908H233.115L230.674 74.5831ZM182.68 74.5831H194.741L200.88 54.5293C201.059 53.9553 201.239 53.4531 201.454 53.1302C201.705 52.7356 202.28 52.5562 203.213 52.5562H206.336L199.623 74.619H211.757L218.469 52.5562H219.69C220.803 52.5562 220.587 52.7356 221.054 53.1302C221.592 53.489 221.951 53.9553 222.059 54.4934C222.239 55.0316 222.239 55.6056 222.131 56.2513C222.023 56.897 221.88 57.471 221.736 58.0809L216.675 74.619H228.808L234.515 55.8567C235.054 54.0988 235.161 51.6235 234.982 50.2603C234.731 48.897 234.264 47.7491 233.438 46.7804C232.685 45.776 231.572 45.0585 230.208 44.5921C228.844 44.1257 227.264 43.8387 225.397 43.8387H199.803C198.977 43.8387 198.152 43.9464 197.29 44.0899C196.465 44.1975 195.567 45.3813 194.813 45.776C193.988 46.2065 193.27 46.7087 192.695 47.4262C192.049 48.0719 190.506 49.0047 190.147 50.1168L182.68 74.5831ZM142.978 74.5831H171.085C172.449 74.5831 173.742 74.4038 175.07 74.0091C176.362 73.6504 177.619 73.0764 178.767 72.1796C179.88 71.3544 180.957 70.2423 181.89 68.8074C182.824 67.4441 183.578 65.758 184.188 63.6773C184.547 62.5652 184.834 61.4531 185.013 60.2692C185.265 59.0854 185.193 57.9015 184.942 56.8612C184.69 55.8208 184.188 54.8522 183.362 53.9912C182.537 53.0943 181.316 52.4486 179.593 51.9822L167.424 48.3948C166.706 48.2154 166.06 47.9643 165.414 47.6773C164.767 47.3903 164.516 46.9239 164.767 46.2782C164.767 46.0988 164.875 45.9195 164.947 45.7401C165.019 45.6325 165.126 45.489 165.306 45.3813C165.557 45.2737 165.844 45.1302 166.203 45.0943C166.598 45.0226 167.137 44.9867 167.855 44.9867H187.849L191.152 34.2961H165.126C163.009 34.2961 160.891 35.5876 159.491 36.3051C158.019 37.0585 156.798 37.9553 155.829 38.9957C154.896 40.0361 154.178 41.2199 153.639 42.4038C153.173 43.5876 152.742 44.628 152.455 45.5966C152.096 46.7087 151.809 47.8208 151.557 49.0764C151.306 50.2603 151.27 51.4441 151.378 52.4845C151.486 53.5966 151.845 54.5293 152.455 55.4262C153.101 56.323 154.106 56.897 155.506 57.2917L169.434 61.5966C170.008 61.776 170.547 61.9912 170.978 62.2423C171.444 62.4934 171.552 62.9598 171.408 63.6056C171.301 63.8925 171.121 64.1437 170.762 64.4307C170.403 64.6459 169.757 64.8253 168.824 64.8253H145.922L142.978 74.5831Z" fill="#8E2215"/>
<path d="M143.265 73.6507H170.259C171.623 73.6507 172.951 73.4713 174.244 73.0767C175.608 72.7179 176.792 72.144 177.941 71.2471C179.126 70.422 180.167 69.3099 181.064 67.9108C181.997 66.5475 182.751 64.8614 183.433 62.7807C183.721 61.6686 184.008 60.5565 184.259 59.3009C184.438 58.117 184.438 57.0049 184.187 55.9646C183.936 54.8883 183.433 53.9556 182.608 53.0946C181.782 52.1978 180.49 51.552 178.839 51.0498L166.598 47.5341C165.952 47.3547 165.234 47.1036 164.587 46.8166C164.013 46.5296 163.762 46.0632 163.941 45.4175C164.013 45.2381 164.049 45.0587 164.121 44.8794C164.193 44.7718 164.3 44.6283 164.516 44.5206C164.695 44.413 164.982 44.2695 165.413 44.2336C165.772 44.1619 166.311 44.126 167.064 44.126H187.059L190.003 34.3682H164.049C161.859 34.3682 160.1 34.7269 158.629 35.4444C157.157 36.1978 155.972 37.0946 155.039 38.135C154.106 39.2112 153.316 40.3233 152.849 41.4713C152.311 42.691 151.916 43.7673 151.665 44.7C151.306 45.8121 151.018 46.9242 150.731 48.1798C150.48 49.3637 150.444 50.5475 150.552 51.5879C150.659 52.7 151.018 53.6327 151.665 54.5296C152.239 55.3547 153.316 56.0005 154.716 56.4309L168.644 60.7359C169.218 60.9153 169.721 61.1305 170.187 61.3816C170.654 61.5969 170.762 62.0991 170.582 62.6731C170.475 63.0318 170.223 63.283 169.864 63.57C169.577 63.7852 168.931 63.9287 167.998 63.9287H146.172L143.265 73.6507ZM182.895 73.6507H193.951L200.018 53.5969C200.197 52.987 200.413 52.5206 200.664 52.1978C200.843 51.7673 201.418 51.6238 202.387 51.6238H206.623L199.91 73.6866H210.93L217.643 51.6238H218.864C219.977 51.6238 220.802 51.8031 221.341 52.1978C221.807 52.5565 222.166 53.0229 222.346 53.561C222.453 54.0991 222.525 54.6731 222.417 55.3188C222.31 55.9646 222.13 56.5386 221.951 57.1484L216.961 73.6866H227.946L233.653 54.8525C234.192 53.1664 234.371 51.6238 234.12 50.2605C233.94 48.8614 233.402 47.7493 232.648 46.7448C231.823 45.8121 230.782 45.0946 229.417 44.6283C228.017 44.0901 226.402 43.8749 224.607 43.8749H199.013C198.187 43.8749 197.29 43.9466 196.5 44.0543C195.602 44.2336 194.777 44.4489 193.951 44.8794C193.197 45.3099 192.479 45.8121 191.833 46.5296C191.259 47.1753 190.756 48.1081 190.433 49.2202L182.895 73.6507ZM230.961 73.6507H252.248C253.54 73.6507 254.797 73.3996 255.838 73.0049C256.914 72.5386 257.848 72.0005 258.602 71.283C259.427 70.5655 260.073 69.7404 260.648 68.8076C261.222 67.8749 261.653 66.8704 261.94 65.8659C262.227 64.9691 262.407 64.0363 262.514 63.1753C262.586 62.2785 262.443 61.4175 262.084 60.5924C261.725 59.6955 261.15 58.9422 260.253 58.1888C259.427 57.4354 258.135 56.7179 256.484 56.1439L249.735 53.6327C249.627 53.5251 249.376 53.4534 249.017 53.3457C248.73 53.274 248.443 53.1664 248.192 52.987C247.904 52.8794 247.725 52.7359 247.545 52.5565C247.366 52.4489 247.294 52.2695 247.366 52.0901C247.438 51.8031 247.581 51.6238 247.904 51.552C248.192 51.4803 248.443 51.4444 248.622 51.4444C248.73 51.4444 248.874 51.4444 248.981 51.5161C249.089 51.5161 249.197 51.5161 249.34 51.5161H265.53L267.899 43.8749H247.94C245.427 43.8749 243.166 44.5206 241.299 45.7762C239.433 46.996 238.069 49.1126 237.171 52.0543C236.417 54.4579 236.417 56.3592 237.171 57.6866C237.889 58.978 239.397 60.0901 241.694 60.987L247.474 63.0318C248.479 63.3906 249.197 63.6058 249.699 63.7852C250.166 64.0005 250.525 64.1439 250.704 64.2516C250.812 64.3592 250.956 64.5027 250.884 64.5386C250.884 64.6103 250.812 64.7179 250.812 64.8973C250.704 65.1843 250.525 65.3637 250.274 65.4713C249.986 65.5789 249.735 65.6507 249.556 65.6507H233.33L230.961 73.6507Z" fill="#A6271A"/>
<path d="M308.032 52.8073H295.324L292.847 60.9149C292.273 62.8522 291.016 63.7849 289.15 63.7849H285.309C283.837 63.7849 282.796 63.4979 282.078 62.888C281.36 62.2423 280.893 61.4889 280.678 60.5203C280.427 59.5158 280.427 58.4755 280.606 57.3275C280.786 56.1436 281.001 54.9598 281.36 53.8477C281.719 52.6279 282.186 51.3723 282.76 50.1885C283.334 48.9687 284.052 47.8208 284.986 46.8163C285.883 45.8118 286.924 45.0584 288.216 44.4127C289.437 43.8387 290.909 43.48 292.704 43.48H309.898L312.734 34.1885H289.796C289.545 34.1885 289.042 34.1885 288.324 34.2602C287.57 34.2602 286.673 34.3679 285.74 34.5472C284.734 34.7266 283.693 34.9777 282.509 35.3006C281.324 35.6593 280.211 36.1974 279.099 36.8432C277.591 37.7759 276.227 38.9598 275.042 40.2513C273.858 41.6145 272.852 43.0136 272.063 44.5562C271.237 46.0988 270.519 47.6773 269.873 49.2557C269.299 50.906 268.76 52.4844 268.294 54.0629C267.576 56.2513 267.109 58.4755 266.714 60.7714C266.355 63.0674 266.355 65.184 266.822 67.0495C267.288 68.9508 268.294 70.4575 269.873 71.6773C271.417 72.8611 273.822 73.5069 276.981 73.5069H295.575C296.293 73.5069 296.975 73.4351 297.765 73.2557C298.519 73.0764 299.237 72.8611 299.991 72.4306C300.709 72.036 301.355 71.3544 302.001 70.601C302.647 69.8477 303.114 68.7714 303.544 67.5517L308.032 52.8073ZM330.754 43.48C329.57 43.48 328.349 43.5517 327.093 43.5876C325.872 43.6593 324.688 43.767 323.431 43.9463C322.211 44.1257 321.026 44.4127 319.842 44.8432C318.729 45.2737 317.616 45.8477 316.539 46.5652C315.355 47.3903 314.349 48.323 313.488 49.4351C312.59 50.5472 311.908 51.6593 311.298 52.7714C310.652 53.8835 310.185 54.9957 309.826 56.0719C309.431 57.0764 309.108 58.0091 308.893 58.7266C308.642 59.48 308.426 60.4486 308.175 61.4172C307.888 62.4575 307.708 63.6055 307.637 64.7176C307.565 65.8297 307.637 66.9418 307.816 68.0539C307.996 69.0943 308.39 70.0988 309.108 70.9239C309.683 71.6414 310.473 72.2154 311.406 72.61C312.303 73.0405 313.272 73.3275 314.421 73.5069C315.534 73.6862 316.647 73.7939 317.867 73.8656C319.052 73.9374 320.272 73.9732 321.457 73.9732C322.642 73.9732 323.79 73.9015 325.118 73.8656C326.339 73.7939 327.595 73.6862 328.816 73.471C330.036 73.2916 331.221 73.0046 332.334 72.5741C333.518 72.1795 334.631 71.6414 335.636 70.9239C336.857 70.0988 337.862 69.0943 338.759 68.0539C339.585 66.9418 340.339 65.8297 340.949 64.7176C341.559 63.6055 342.062 62.4934 342.421 61.4172C342.78 60.4127 343.067 59.48 343.318 58.7266C343.57 58.0091 343.785 57.0764 344.072 56.0719C344.323 54.9957 344.503 53.8835 344.611 52.7714C344.682 51.6593 344.611 50.5472 344.431 49.4351C344.252 48.323 343.785 47.3903 343.067 46.5652C342.493 45.8477 341.703 45.3454 340.841 44.9149C339.908 44.4844 338.903 44.1974 337.79 44.0181C336.749 43.767 335.564 43.6593 334.308 43.6235C333.088 43.5158 331.903 43.48 330.754 43.48ZM320.165 58.6907C320.631 57.2199 321.098 56.0001 321.565 55.0315C321.96 54.0988 322.498 53.3813 323.144 52.8432C323.718 52.2692 324.508 51.9104 325.334 51.7311C326.159 51.5517 327.165 51.4441 328.349 51.4441C329.642 51.4441 330.647 51.5517 331.329 51.8746C332.047 52.0898 332.513 52.5203 332.729 53.0943C332.98 53.6324 333.016 54.3858 332.908 55.3185C332.8 56.2154 332.513 57.3634 332.083 58.6548C331.831 59.5517 331.544 60.4127 331.185 61.2378C330.826 62.1347 330.359 62.888 329.785 63.6055C329.211 64.323 328.421 64.8252 327.488 65.3275C326.59 65.7221 325.37 65.9732 323.898 65.9732C323.072 65.9732 322.426 65.8656 321.852 65.6862C321.313 65.5069 320.919 65.2916 320.56 65.0405C320.272 64.8611 320.021 64.61 319.842 64.3948C319.734 64.1436 319.662 64.036 319.662 63.9284C319.483 63.6414 319.411 63.1033 319.411 62.3499C319.447 61.5965 319.698 60.4127 320.165 58.6907ZM341.523 73.6504H352.58L364.533 34.2961H353.513L341.523 73.6504ZM387.795 34.2961L384.851 43.8387H376.379C374.872 43.8387 373.256 44.0898 371.749 44.4844C370.169 44.9149 368.626 45.5965 367.226 46.6728C365.754 47.7849 364.39 49.2199 363.169 51.0136C361.949 52.8432 360.872 55.175 360.01 58.0091C359.364 60.2333 358.826 62.314 358.61 64.2513C358.323 66.1526 358.395 67.8028 358.718 69.2019C359.077 70.601 359.831 71.6773 360.944 72.5024C362.128 73.2557 363.78 73.6862 366.005 73.6862H380.759C381.477 73.6862 382.159 73.6145 382.949 73.4351C383.702 73.3275 384.492 73.0405 385.174 72.61C385.928 72.1436 386.574 71.4979 387.22 70.6728C387.795 69.8477 388.333 68.7356 388.764 67.3723L398.815 34.2961H387.795ZM382.59 51.48L378.82 63.7849C378.82 63.9643 378.713 64.1795 378.641 64.4306C378.533 64.6459 378.354 64.9687 378.174 65.1481C377.995 65.3992 377.708 65.6145 377.349 65.7221C376.99 65.9015 376.523 66.0091 375.984 66.0091H373.328C372.933 66.0091 372.431 65.9374 371.928 65.9015C371.39 65.8656 370.995 65.5427 370.636 65.0764C370.277 64.61 370.097 63.8925 370.061 62.888C369.99 61.8835 370.277 60.4844 370.815 58.6548C371.067 57.9374 371.354 57.184 371.641 56.3589C372 55.5338 372.467 54.7804 373.005 54.0629C373.544 53.3096 374.19 52.6997 374.943 52.2333C375.697 51.6952 376.631 51.48 377.779 51.48H382.59Z" fill="#FECB1C"/>
<path fill-rule="evenodd" clip-rule="evenodd" d="M183.433 62.7807C183.721 61.6686 184.008 60.5565 184.259 59.3009C184.438 58.117 184.438 57.0049 184.187 55.9646C184.008 55.2471 183.721 54.5655 183.29 53.9197C183.074 53.6327 182.823 53.3457 182.572 53.0946C181.746 52.1978 180.454 51.552 178.803 51.0498L166.562 47.5341C165.916 47.3547 165.269 47.1036 164.623 46.8166C164.623 46.8166 164.623 46.8166 164.552 46.8166C163.977 46.5296 163.726 46.0632 163.905 45.4175L164.085 44.8794C164.157 44.7718 164.264 44.6283 164.48 44.5206C164.659 44.413 164.946 44.2695 165.377 44.2336C165.736 44.1619 166.275 44.126 167.028 44.126H187.023L189.715 35.3009L189.967 34.3682H164.013C161.823 34.3682 160.064 34.7269 158.593 35.4444C157.121 36.1978 155.936 37.0946 155.003 38.135C154.07 39.2112 153.28 40.3233 152.813 41.4713C152.275 42.691 151.88 43.7673 151.629 44.7C151.27 45.8121 150.982 46.9242 150.695 48.1798C150.444 49.3637 150.408 50.5475 150.516 51.5879C150.623 52.7 150.982 53.6327 151.629 54.5296C151.808 54.7807 151.988 54.996 152.203 55.1753C152.777 55.7135 153.603 56.1081 154.68 56.3951L168.608 60.7C169.182 60.8794 169.685 61.0946 170.151 61.3457C170.439 61.5251 170.618 61.7404 170.618 62.0991C170.618 62.2785 170.618 62.4578 170.546 62.6372C170.439 62.996 170.187 63.2471 169.828 63.5341C169.541 63.7493 168.895 63.8928 167.962 63.8928H146.136L143.444 72.8256L144.557 72.7179L180.203 69.0229C180.49 68.7359 180.741 68.3771 180.956 67.9466C182.033 66.5117 182.787 64.8256 183.433 62.7807ZM245.427 62.2785L262.119 60.5206C262.012 60.2336 261.761 59.8749 261.581 59.5161C261.222 59.0498 260.827 58.5834 260.289 58.1529C259.463 57.3995 258.171 56.6821 256.52 56.1081L249.771 53.5969C249.663 53.4892 249.412 53.4175 249.053 53.3099C248.766 53.2381 248.479 53.1305 248.227 52.9511H248.156C247.904 52.8435 247.761 52.7 247.581 52.5206C247.402 52.413 247.33 52.2336 247.402 52.0543C247.474 51.7673 247.617 51.5879 247.94 51.5161C248.227 51.4444 248.479 51.4085 248.658 51.4085L249.017 51.4803H249.376H265.566L267.612 44.7717L267.899 43.839H247.94C245.427 43.839 243.166 44.4848 241.299 45.7404C239.433 46.9601 238.069 49.0767 237.171 52.0184C236.417 54.422 236.417 56.3233 237.171 57.6507C237.889 58.9422 239.397 60.0543 241.694 60.9511L245.427 62.2785ZM200.664 52.1619C200.843 51.7314 201.418 51.5879 202.387 51.5879H206.623L206.336 52.5206L202.028 66.7628L203.141 66.6552L213.371 65.5789L217.607 51.5879H218.828C219.941 51.5879 220.766 51.7673 221.305 52.1619C221.771 52.5206 222.13 52.987 222.31 53.5251C222.417 54.0632 222.489 54.6372 222.382 55.283C222.274 55.9287 222.094 56.5027 221.915 57.1126L219.546 64.9332L220.659 64.8256L230.889 63.7852L233.581 54.8525C234.12 53.1664 234.299 51.6238 234.048 50.2605C233.869 49.0767 233.51 48.0722 232.935 47.283C232.828 47.1036 232.684 46.9242 232.576 46.7448C231.751 45.8121 230.71 45.0946 229.346 44.6283C227.946 44.0901 226.33 43.8749 224.535 43.8749H198.941C198.115 43.8749 197.218 43.9466 196.428 44.0543C195.531 44.2336 194.705 44.4489 193.879 44.8794C193.126 45.3099 192.408 45.8121 191.761 46.5296C191.187 47.1753 190.685 48.1081 190.361 49.2202L184.51 68.5206L185.623 68.413L195.854 67.3726L200.018 53.5969C200.197 52.987 200.449 52.5206 200.664 52.1619Z" fill="#DA2E23"/>
<path fill-rule="evenodd" clip-rule="evenodd" d="M280.499 58.6549C280.499 58.2244 280.571 57.8298 280.607 57.4352C280.786 56.2513 281.002 55.0674 281.361 53.9553C281.72 52.7356 282.186 51.48 282.761 50.2961C283.335 49.0764 284.053 47.9284 284.986 46.9239C285.884 45.9195 286.925 45.1661 288.217 44.5203C289.438 43.9464 290.909 43.5876 292.704 43.5876H309.899L312.376 35.48L312.735 34.2961H289.797L288.325 34.3679C287.571 34.3679 286.674 34.4755 285.74 34.6549C284.735 34.8342 283.694 35.0854 282.509 35.4082C281.325 35.767 280.212 36.3051 279.099 36.9508C277.592 37.8836 276.228 39.0674 275.043 40.3589C273.858 41.7221 272.853 43.1212 272.063 44.6638C271.238 46.2064 270.52 47.7849 269.874 49.3634C269.299 51.0136 268.761 52.5921 268.294 54.1706C267.72 56.1078 267.253 58.045 266.894 60.054L267.971 59.9464L280.499 58.6549ZM295.325 52.8073L293.961 57.2917L295.181 57.184L307.063 55.9284L307.996 52.8073H295.325ZM394.975 46.8881L398.457 35.48L398.816 34.2961H387.795L384.852 43.8387H376.38C374.872 43.8387 373.257 44.0899 371.749 44.4845C370.17 44.915 368.626 45.5966 367.226 46.6728C366.006 47.5697 364.893 48.7177 363.816 50.1526L365.826 49.9015L394.975 46.8881ZM359.58 50.5114L364.175 35.4441L364.534 34.2603H353.514L348.165 51.6594L349.386 51.5517L359.58 50.5114ZM311.407 55.4621L321.924 54.4217C322.283 53.776 322.678 53.2378 323.145 52.8791C323.719 52.3051 324.509 51.9464 325.335 51.767C326.16 51.5876 327.165 51.48 328.35 51.48C329.642 51.48 330.647 51.5876 331.329 51.9105C332.047 52.1257 332.514 52.5562 332.729 53.1302C332.729 53.202 332.765 53.2378 332.765 53.3096L344.611 52.054C344.611 51.1571 344.575 50.2961 344.432 49.3993C344.324 48.7535 344.073 48.1078 343.786 47.4979C343.606 47.1392 343.391 46.7804 343.068 46.4934C342.493 45.776 341.704 45.202 340.842 44.8432C339.909 44.4127 338.904 44.1257 337.791 43.9464C336.75 43.6952 335.565 43.5876 334.309 43.5517C333.088 43.48 331.904 43.4441 330.719 43.4441C329.535 43.4441 328.314 43.5159 327.058 43.5517C325.837 43.6235 324.653 43.7311 323.396 43.9105C322.176 44.0899 320.991 44.3768 319.806 44.8073C318.694 45.2378 317.581 45.8118 316.504 46.5293C315.319 47.3544 314.314 48.2872 313.453 49.3993C312.555 50.5114 311.873 51.6235 311.263 52.7356C310.724 53.7401 310.258 54.6728 309.899 55.6056L311.407 55.4621Z" fill="#F9E01F"/>
<path fill-rule="evenodd" clip-rule="evenodd" d="M71.0039 33.2197L115.588 21.3811H90.4242C89.9575 21.3811 89.0242 21.3811 87.5883 21.4887C86.1884 21.5605 84.5371 21.7398 82.6346 22.0627C80.8038 22.3497 78.7577 22.8161 76.568 23.5336C74.3783 24.1793 72.2244 25.1838 70.1424 26.4753C69.6758 26.7623 69.2091 27.0493 68.7424 27.3721L71.0039 33.2197Z" fill="#E89C1E"/>
<path fill-rule="evenodd" clip-rule="evenodd" d="M71.0044 33.2197L129.84 38.3497L115.588 21.417L71.0044 33.2197Z" fill="#EEC121"/>
<path fill-rule="evenodd" clip-rule="evenodd" d="M129.839 38.3497L134.901 21.417H115.588L129.839 38.3497Z" fill="#EFD629"/>
<path fill-rule="evenodd" clip-rule="evenodd" d="M81.4863 45.417C83.1735 43.5157 85.1837 42.009 87.6247 40.8251C89.9939 39.6412 92.7939 39.1749 96.0964 39.0673L129.875 38.3498L71.0044 33.2197L77.6453 46.5291L78.8299 48.9327C79.5838 47.713 80.4812 46.5291 81.4863 45.417Z" fill="#EBB520"/>
<path fill-rule="evenodd" clip-rule="evenodd" d="M74.666 58.6906C75.3839 56.3229 76.2454 53.991 77.3224 51.6951C77.789 50.7623 78.2557 49.7937 78.8659 48.9327L77.6813 46.5291L71.0404 33.2197L69.9276 66.1166L69.5327 77.5964L98.7887 90.7623L85.9735 77.4529H82.312C79.548 77.4529 77.5018 76.8789 76.1377 75.6951C74.7737 74.5112 73.9121 73.0045 73.4814 71.2108C73.0865 69.3812 73.0147 67.3722 73.3019 65.148C73.5532 62.9955 74.0198 60.8072 74.666 58.6906Z" fill="#EECC22"/>
<path fill-rule="evenodd" clip-rule="evenodd" d="M69.8911 66.1166L71.004 33.2197L57.1118 71.2825L58.0092 73.6861L65.9066 95.9641C66.122 95.9641 66.3015 95.9641 66.5527 95.9641H68.9219L69.4963 77.5605L69.8911 66.1166Z" fill="#EBB520"/>
<path fill-rule="evenodd" clip-rule="evenodd" d="M57.1123 71.2825L71.0044 33.2197L48.6047 63.3901L57.1123 71.2825Z" fill="#E89C1E"/>
<path fill-rule="evenodd" clip-rule="evenodd" d="M48.6047 63.3898L71.0044 33.2194L68.7788 27.4077C67.1994 28.4481 65.7276 29.6319 64.4353 30.9234C63.7174 31.5692 63.143 32.2149 62.4969 32.9324C60.3071 35.4795 58.4764 38.17 56.8969 41.04C55.3175 43.91 53.9534 46.9234 52.8406 49.9727C52.5534 50.8696 52.2303 51.6947 51.9073 52.5557C51.656 53.2732 51.4406 53.9548 51.1893 54.6723C50.7227 56.1431 50.256 57.614 49.7893 59.0849C49.3586 60.5198 48.9996 61.9907 48.6047 63.3898Z" fill="#E3901D"/>
<path fill-rule="evenodd" clip-rule="evenodd" d="M48.4249 87.067L55.5325 74.224L57.112 71.2823L48.5685 63.3899C47.9223 66.1522 47.348 68.9863 46.8813 71.8563C46.7736 72.7531 46.6301 73.6859 46.5942 74.5468C46.307 77.8473 46.4865 80.8966 47.1685 83.659C47.4557 84.8787 47.8865 85.9908 48.4249 87.067Z" fill="#E3901D"/>
<path fill-rule="evenodd" clip-rule="evenodd" d="M65.9069 95.9995L58.0095 73.7215L57.1121 71.3179L55.5327 74.2596L48.425 87.1026C49.502 89.1475 51.0096 91.0488 53.0199 92.5555C55.8916 94.7798 60.1993 95.8919 65.9069 95.9995Z" fill="#EAA91F"/>
<path fill-rule="evenodd" clip-rule="evenodd" d="M68.8862 95.9995H101.768C103.06 95.9995 104.424 95.8202 105.824 95.6049C106.578 95.4255 107.296 95.2462 108.014 94.9592L98.7166 90.7619L69.4606 77.5959L68.8862 95.9995Z" fill="#EAA91F"/>
<path fill-rule="evenodd" clip-rule="evenodd" d="M98.7163 90.7623L101.086 56.574L96.4907 71.8565C95.4138 75.5516 93.0805 77.4529 89.5626 77.4529H85.9011L98.7163 90.7623Z" fill="#E89C1E"/>
<path fill-rule="evenodd" clip-rule="evenodd" d="M98.7168 90.7623L125.137 56.574H101.086L98.7168 90.7623Z" fill="#EFD629"/>
<path fill-rule="evenodd" clip-rule="evenodd" d="M113.901 90.5112C115.086 89.0403 116.019 87.1031 116.737 84.8072L125.137 56.574L98.7168 90.7623L108.014 94.9238C108.732 94.6368 109.378 94.3498 110.096 93.9193C111.424 93.1659 112.717 92.0538 113.901 90.5112Z" fill="#EECC22"/>
<path fill-rule="evenodd" clip-rule="evenodd" d="M44.7276 18.5113H82.6707L76.1374 12.6279L38.3379 14.9239L34.0303 22.027L41.784 24.323C41.2097 24.1078 40.6712 23.8566 40.061 23.6055C38.8764 22.9956 38.4097 22.1347 38.8405 20.9508C38.9123 20.5921 39.02 20.2333 39.1276 19.9463C39.2353 19.7311 39.5225 19.4082 39.8815 19.2288C40.2763 18.9777 40.8148 18.7983 41.5327 18.6907C42.2866 18.5831 43.3635 18.5113 44.7276 18.5113Z" fill="#A6271A"/>
<path fill-rule="evenodd" clip-rule="evenodd" d="M38.3379 14.9238L76.1374 12.6278L88.1988 0L38.3379 14.9238Z" fill="#C3291E"/>
<path fill-rule="evenodd" clip-rule="evenodd" d="M82.6705 18.5112L88.1986 0L76.1372 12.6278L82.6705 18.5112Z" fill="#E53C2C"/>
<path fill-rule="evenodd" clip-rule="evenodd" d="M38.3379 14.9238L88.1988 0H47.2403L38.3379 14.9238Z" fill="#DA2E23"/>
<path fill-rule="evenodd" clip-rule="evenodd" d="M38.3384 14.9238L47.2409 0L25.5232 15.2466L26.5283 34.6906L34.0667 22.0628L38.3384 14.9238Z" fill="#E53C2C"/>
<path fill-rule="evenodd" clip-rule="evenodd" d="M25.5225 15.2466L47.2402 0H38.948C34.8916 0 31.4814 0.717489 28.7173 2.04484C25.9533 3.47982 23.6917 5.16592 21.9328 7.17489C21.6456 7.46188 21.3943 7.74888 21.179 8.07175L25.5225 15.2466Z" fill="#A6271A"/>
<path fill-rule="evenodd" clip-rule="evenodd" d="M26.5278 34.6906L25.5227 15.2467L21.1791 8.07178C19.7791 9.82963 18.6304 11.6592 17.8407 13.5964C16.8715 15.8207 16.1176 17.8296 15.5792 19.5875C15.0048 21.7041 14.4305 23.9283 13.9279 26.2242C13.4613 28.4843 13.4254 30.6368 13.6408 32.7175C13.7484 33.8296 13.9997 34.8341 14.3946 35.7669L26.5278 34.6906Z" fill="#8E2215"/>
<path fill-rule="evenodd" clip-rule="evenodd" d="M21.5383 41.8653L32.4868 45.2016L26.5279 34.6904L14.4307 35.7667C14.7896 36.6635 15.1845 37.4886 15.7947 38.242C16.9435 39.8922 18.8819 41.112 21.5383 41.8653Z" fill="#A6271A"/>
<path fill-rule="evenodd" clip-rule="evenodd" d="M32.4865 45.2375L48.0299 49.9371C49.1427 50.2958 50.1478 50.6904 50.9734 51.1568C51.5478 51.4438 51.8709 51.9102 51.8709 52.5559C52.158 51.659 52.517 50.8698 52.8042 49.9729L26.5276 34.6904L32.4865 45.2375Z" fill="#DA2E23"/>
<path fill-rule="evenodd" clip-rule="evenodd" d="M52.7683 50.0086C53.8811 46.9592 55.2452 43.9458 56.8246 41.0758C58.4041 38.2059 60.2349 35.4794 62.4246 32.9682C63.0707 32.2507 63.6451 31.605 64.363 30.9592L26.5276 34.6902L52.7683 50.0086Z" fill="#E53C2C"/>
<path fill-rule="evenodd" clip-rule="evenodd" d="M26.5276 34.6903L64.363 30.9235L49.8247 26.7262L43.9376 25.0401C43.2197 24.789 42.4659 24.5737 41.8197 24.3226L34.066 22.0625L26.5276 34.6903Z" fill="#DA2E23"/>
<path fill-rule="evenodd" clip-rule="evenodd" d="M46.8457 71.8925C47.3123 69.0226 47.8867 66.1885 48.5328 63.4262C48.8918 62.1347 49.2508 60.7715 49.6456 59.48L22.6511 61.6683L46.5226 74.619C46.5944 73.6862 46.7021 72.7535 46.8457 71.8925Z" fill="#DA2E23"/>
<path fill-rule="evenodd" clip-rule="evenodd" d="M0 74.5828H46.5225L22.651 61.6321L0 74.5828Z" fill="#A6271A"/>
<path fill-rule="evenodd" clip-rule="evenodd" d="M0 74.5829L22.651 61.6323L5.34865 56.5381L0 74.5829Z" fill="#8E2215"/>
<path fill-rule="evenodd" clip-rule="evenodd" d="M22.651 61.6318V56.0713H5.52812L5.34863 56.5377L22.651 61.6318Z" fill="#A6271A"/>
<path fill-rule="evenodd" clip-rule="evenodd" d="M22.6511 61.6323L49.6456 59.4439C49.6456 59.3363 49.7174 59.1928 49.7174 59.0852C50.1841 57.6143 50.6508 56.1435 51.1174 54.6726C50.9379 54.852 50.7226 55.0672 50.4713 55.2466C49.8251 55.713 48.6405 56 46.8098 56H22.6511V61.6323Z" fill="#A6271A"/>
<path fill-rule="evenodd" clip-rule="evenodd" d="M82.6707 18.5112L88.1989 0L87.1938 1.00448L82.2041 17.8296H81.8451H44.2251C42.861 17.8296 41.8559 17.9013 41.102 18.009C40.3841 18.1883 39.8815 18.3677 39.4508 18.5471C39.0918 18.7982 38.8764 19.0135 38.6969 19.3004C38.5892 19.5874 38.5175 19.8744 38.4098 20.2332C38.1226 21.13 38.3021 21.8117 38.8405 22.3498C38.7328 21.9552 38.7328 21.4529 38.8764 20.9865C38.9482 20.6278 39.0559 20.2691 39.1636 19.9821C39.2713 19.7668 39.5585 19.4439 39.9174 19.2646C40.3123 19.0135 40.8508 18.8341 41.5687 18.7265C42.2866 18.5471 43.3276 18.4753 44.6917 18.4753H82.6707V18.5112ZM0 74.583H46.0199C46.0199 74.4753 46.0199 74.4036 46.0199 74.296C46.0199 74.1883 46.0917 74.009 46.0917 73.8655H45.1943H1.2205L0 74.583ZM32.4868 45.2377L48.0302 49.9372C49.143 50.296 50.1481 50.6906 50.9737 51.1569C51.1532 51.2646 51.2609 51.3363 51.3686 51.4439C51.1891 50.9776 50.9737 50.6906 50.4711 50.4395C49.6455 49.9731 48.6404 49.5426 47.5276 49.2197L32.1278 44.5202L21.1433 41.1121C18.451 40.3587 16.4767 39.1749 15.328 37.5247C15.2562 37.417 15.2203 37.3453 15.1485 37.3094C15.328 37.5964 15.5434 37.9552 15.7947 38.2421C16.9793 39.8924 18.9177 41.1121 21.5741 41.9013L32.4868 45.2377Z" fill="#7E2114"/>
<path fill-rule="evenodd" clip-rule="evenodd" d="M105.824 95.5695C106.578 95.3901 107.296 95.2107 108.014 94.9237C108.732 94.6367 109.378 94.3497 110.096 93.9192C111.46 93.1659 112.752 92.0538 113.901 90.5112C115.086 89.0403 116.019 87.1031 116.737 84.8071L125.137 56.5739H124.419L123.952 58.1165L116.234 84.0538C115.517 86.4215 114.583 88.3587 113.363 89.8296C112.178 91.3004 110.886 92.4843 109.558 93.2376C108.66 93.704 107.799 94.1345 106.901 94.4215C106.363 94.6008 105.86 94.7085 105.358 94.852C103.886 95.139 102.522 95.2466 101.23 95.2466H68.8863H66.0146C65.9069 95.2466 65.7633 95.2466 65.6556 95.2466C59.7685 95.2466 55.425 94.0627 52.4814 91.8385C51.2968 90.9058 50.2558 89.8295 49.4302 88.7174C50.3635 90.1165 51.5481 91.4439 53.0199 92.556C55.8916 94.7802 60.1993 95.8923 65.9069 96.0358H66.553H68.9222H101.804C103.06 96 104.424 95.8206 105.824 95.5695ZM77.2862 51.695C77.7529 50.7623 78.2195 49.7937 78.8298 48.9327C79.5836 47.713 80.4811 46.5291 81.4862 45.417C83.1733 43.5156 85.1836 42.0089 87.6246 40.8251C89.9938 39.6412 92.7937 39.0672 96.0963 39.0672H130.378L135.619 21.417H134.901L129.839 38.3497H121.547H95.5578C92.2553 38.3497 89.4553 38.9237 87.0861 40.1076C84.7169 41.2914 82.6708 42.7982 80.9836 44.6995C80.0503 45.7399 79.1529 46.8878 78.4349 48.0717C77.7888 49.0044 77.2503 50.0089 76.7837 51.0134C75.7427 53.3094 74.8452 55.6412 74.1273 57.9372C73.4811 60.1255 73.0145 62.2421 72.7273 64.4663C72.4401 66.6547 72.5119 68.6636 72.9068 70.4573C73.194 71.7488 73.7324 72.9327 74.5581 73.8654C74.0196 73.0403 73.6606 72.1793 73.4453 71.2107C73.0504 69.3811 72.9786 67.3722 73.2658 65.1479C73.5529 62.9596 74.0196 60.8071 74.6657 58.6905C75.3478 56.3587 76.2452 53.991 77.2862 51.695Z" fill="#C36F3C"/>
</svg>
