<svg width="26" height="40" viewBox="0 0 26 40" fill="none" xmlns="http://www.w3.org/2000/svg">
<path d="M12.9501 6.39496L19.9634 13.8089L17.6932 15.9564L12.9562 10.9488L8.24738 15.9534L5.97137 13.812L12.9501 6.39496ZM0 9.375V30.625C0 35.7944 4.20563 40 9.375 40H16.5625C21.7319 40 25.9375 35.7944 25.9375 30.625V9.375C25.9375 4.20563 21.7319 0 16.5625 0H9.375C4.20563 0 0 4.20563 0 9.375ZM9.375 36.875C5.92865 36.875 3.125 34.0714 3.125 30.625V9.375C3.125 5.92865 5.92865 3.125 9.375 3.125H16.5625C20.0089 3.125 22.8125 5.92865 22.8125 9.375V30.625C22.8125 34.0714 20.0089 36.875 16.5625 36.875H9.375ZM12.9688 33.6719C13.8318 33.6719 14.5312 32.9724 14.5312 32.1094C14.5312 31.2463 13.8318 30.5469 12.9688 30.5469C12.1057 30.5469 11.4062 31.2463 11.4062 32.1094C11.4062 32.9724 12.1057 33.6719 12.9688 33.6719ZM12.9688 27.4219C13.8318 27.4219 14.5312 26.7224 14.5312 25.8594C14.5312 24.9963 13.8318 24.2969 12.9688 24.2969C12.1057 24.2969 11.4062 24.9963 11.4062 25.8594C11.4062 26.7224 12.1057 27.4219 12.9688 27.4219ZM12.9688 21.1719C13.8318 21.1719 14.5312 20.4724 14.5312 19.6094C14.5312 18.7463 13.8318 18.0469 12.9688 18.0469C12.1057 18.0469 11.4062 18.7463 11.4062 19.6094C11.4062 20.4724 12.1057 21.1719 12.9688 21.1719Z" fill="#56CCF2"/>
</svg>
