<?xml version="1.0" standalone="no"?>
<!DOCTYPE svg PUBLIC "-//W3C//DTD SVG 20010904//EN"
 "http://www.w3.org/TR/2001/REC-SVG-20010904/DTD/svg10.dtd">
<svg version="1.0" xmlns="http://www.w3.org/2000/svg"
 width="848.000000pt" height="848.000000pt" viewBox="0 0 848.000000 848.000000"
 preserveAspectRatio="xMidYMid meet">
<metadata>
Created by potrace 1.11, written by Peter Selinger 2001-2013
</metadata>
<g transform="translate(0.000000,848.000000) scale(0.100000,-0.100000)"
fill="#000000" stroke="none">
<path d="M8167 8363 c-1 -1 -58 -4 -127 -8 -245 -12 -435 -27 -435 -35 0 0
-31 -3 -70 -5 -38 -3 -80 -7 -92 -9 -12 -3 -46 -7 -75 -10 -29 -4 -71 -9 -93
-12 -22 -3 -53 -7 -70 -9 -16 -3 -41 -7 -55 -10 -14 -3 -43 -7 -65 -10 -22 -2
-49 -6 -60 -9 -11 -2 -40 -7 -65 -11 -25 -4 -54 -9 -65 -12 -11 -2 -33 -6 -50
-9 -37 -6 -77 -14 -90 -18 -5 -1 -37 -8 -70 -15 -33 -6 -78 -16 -100 -21 -22
-5 -80 -19 -130 -31 -49 -11 -97 -23 -105 -24 -8 -2 -67 -18 -130 -35 -63 -17
-122 -33 -130 -35 -8 -2 -35 -10 -60 -18 -65 -22 -253 -80 -266 -83 -19 -3
-218 -75 -251 -90 -17 -8 -35 -14 -40 -14 -6 0 -97 -36 -204 -79 -271 -110
-281 -115 -465 -202 -58 -27 -109 -49 -115 -49 -5 0 -9 -4 -9 -10 0 -5 -7 -10
-15 -10 -13 0 -112 -47 -125 -60 -3 -3 -45 -26 -95 -51 -121 -61 -223 -117
-265 -146 -19 -12 -40 -23 -47 -23 -7 0 -13 -4 -13 -9 0 -5 -8 -11 -17 -15
-10 -3 -27 -11 -38 -18 -21 -14 -89 -56 -117 -73 -66 -39 -144 -90 -146 -97
-2 -4 -8 -8 -13 -8 -5 0 -46 -25 -90 -55 -44 -30 -84 -55 -90 -55 -5 0 -9 -4
-9 -8 0 -4 -15 -16 -32 -27 -18 -10 -37 -23 -43 -27 -5 -5 -35 -27 -65 -49
-30 -21 -60 -42 -65 -47 -6 -4 -46 -34 -90 -66 -44 -33 -152 -118 -240 -190
-162 -131 -179 -146 -241 -203 -19 -18 -37 -33 -40 -33 -2 0 -20 -15 -38 -32
-18 -18 -79 -76 -135 -128 -204 -190 -436 -430 -586 -606 -27 -32 -59 -68 -70
-80 -11 -11 -36 -41 -55 -65 -39 -49 -56 -71 -84 -102 -10 -12 -30 -38 -45
-57 -14 -19 -28 -37 -31 -40 -9 -8 -203 -270 -241 -325 -19 -27 -37 -52 -40
-55 -4 -3 -50 -72 -104 -155 -163 -251 -197 -305 -222 -355 -9 -19 -19 -37
-22 -40 -4 -3 -12 -16 -19 -29 -8 -13 -23 -40 -34 -60 -69 -120 -210 -387
-213 -401 -2 -9 -70 -145 -75 -150 -3 -3 -6 -9 -7 -15 -1 -8 -42 -100 -93
-210 -19 -39 -33 -80 -32 -88 1 -4 -2 -7 -6 -7 -5 0 -9 -6 -10 -12 0 -7 -23
-68 -51 -136 -28 -67 -51 -129 -51 -137 0 -8 -4 -15 -8 -15 -5 0 -9 -6 -9 -12
0 -7 -16 -56 -36 -108 -19 -52 -56 -162 -82 -245 -25 -82 -51 -166 -57 -185
-6 -19 -10 -36 -9 -38 0 -1 -5 -18 -13 -37 -8 -19 -13 -35 -11 -35 3 0 0 -11
-5 -25 -5 -14 -12 -36 -14 -48 -2 -12 -13 -55 -25 -96 -11 -40 -20 -76 -19
-80 0 -3 -1 -8 -2 -11 -2 -5 -7 -29 -13 -52 -1 -7 -6 -19 -10 -26 -5 -6 -6
-12 -3 -12 2 0 -2 -28 -11 -63 -19 -81 -22 -96 -28 -132 -2 -16 -11 -60 -19
-96 -14 -62 -19 -93 -32 -176 -3 -21 -7 -49 -9 -63 -3 -14 -7 -43 -10 -65 -4
-22 -9 -53 -12 -70 -3 -16 -7 -45 -9 -62 -2 -18 -6 -50 -9 -70 -3 -21 -7 -56
-9 -78 -2 -22 -7 -69 -11 -105 -10 -90 -12 -112 -21 -220 -11 -141 -12 -165
-19 -407 l-7 -223 1376 0 1376 0 -4 133 c-2 72 -9 152 -15 177 -19 70 -43 133
-58 151 -7 8 -13 20 -13 26 0 15 -74 109 -124 158 -83 81 -205 142 -321 161
-16 3 -48 10 -70 16 -22 6 -49 12 -60 13 -11 2 -31 6 -45 9 -29 7 -114 24
-148 31 -13 2 -31 6 -40 9 -9 3 -33 8 -52 11 -19 3 -55 11 -80 16 -25 6 -54
12 -65 15 -11 2 -41 8 -66 14 l-47 11 10 41 c5 22 10 57 13 77 2 20 4 36 5 36
1 0 3 11 5 25 1 14 8 52 14 85 22 108 24 120 25 143 0 12 4 22 10 22 5 0 7 3
4 6 -4 3 -2 20 3 37 5 18 11 43 14 57 3 14 7 35 10 48 3 12 7 31 10 43 2 11 7
29 10 39 3 10 7 27 9 37 2 10 10 38 17 63 7 25 14 52 15 60 2 8 17 60 34 115
17 55 37 120 45 145 7 25 29 90 49 145 20 55 39 108 41 117 2 10 10 32 18 50
30 69 67 163 67 171 0 18 33 56 44 50 6 -4 16 -8 21 -9 6 -1 96 -28 200 -59
229 -69 253 -76 274 -80 9 -2 44 -13 77 -24 34 -12 70 -22 80 -24 11 -1 24 -5
29 -9 9 -5 63 -20 90 -24 6 -1 12 -3 15 -4 36 -13 241 -18 295 -7 17 4 44 9
60 13 36 7 110 33 145 51 14 7 31 13 38 13 6 0 12 3 12 8 0 4 17 16 37 27 70
37 159 136 252 280 49 77 94 145 98 151 17 22 33 51 51 89 34 73 37 80 59 175
16 69 2 224 -27 295 -49 121 -109 207 -196 280 -32 28 -64 55 -70 60 -7 6 -31
26 -55 45 -23 19 -113 93 -198 163 -194 161 -297 245 -310 254 -8 6 66 99 174
218 17 18 50 57 75 86 72 83 437 448 535 535 50 43 97 87 106 97 9 9 19 17 22
17 3 0 23 16 44 36 21 19 55 47 76 62 l38 26 22 -26 c28 -32 165 -185 192
-213 26 -27 90 -98 195 -215 165 -185 281 -292 355 -330 38 -19 70 -33 71 -30
0 3 7 0 15 -7 59 -48 311 -63 439 -24 91 27 133 46 279 133 62 38 115 68 117
68 2 0 36 21 76 46 83 54 164 127 204 187 16 23 32 44 35 47 3 3 19 34 36 70
46 100 67 192 67 294 -1 104 -7 145 -37 236 -12 36 -22 67 -22 70 -1 3 -14 46
-30 95 -16 50 -30 92 -30 95 -1 3 -4 12 -8 20 -7 18 -30 91 -33 105 -1 6 -12
39 -24 75 -45 136 -102 316 -105 332 -4 18 19 30 125 68 36 13 71 28 78 33 6
5 12 7 12 3 0 -3 24 4 53 15 28 12 59 22 67 24 8 2 35 11 60 20 25 9 54 18 65
21 11 2 52 14 92 28 39 13 74 22 77 18 3 -3 6 -1 6 4 0 5 8 10 18 11 9 0 53
10 97 23 77 21 182 48 216 55 9 2 59 13 110 24 52 11 108 22 124 25 17 3 41 8
55 11 14 3 41 8 60 11 19 3 42 7 50 9 8 2 33 7 55 10 23 3 50 7 62 9 25 5 96
15 140 21 36 4 43 -6 49 -73 2 -24 6 -47 9 -52 3 -4 7 -28 10 -51 3 -24 10
-60 15 -79 4 -19 11 -53 14 -75 3 -22 8 -51 11 -65 3 -14 9 -50 15 -80 5 -30
12 -68 15 -85 3 -16 12 -68 21 -115 8 -47 17 -95 19 -107 3 -13 7 -35 10 -49
3 -14 13 -45 21 -67 8 -23 16 -46 17 -52 6 -24 88 -165 97 -165 6 0 10 -6 10
-12 1 -29 152 -155 228 -189 112 -51 165 -62 317 -63 l100 -1 3 1447 2 1446
-156 -2 c-86 0 -156 -2 -157 -3z"/>
<path d="M8347 4513 c-1 -1 -60 -4 -130 -7 -70 -4 -142 -8 -160 -11 -17 -3
-63 -7 -102 -10 -38 -2 -79 -6 -90 -8 -11 -3 -47 -8 -80 -12 -76 -9 -82 -10
-185 -29 -47 -9 -98 -18 -115 -21 -16 -3 -41 -8 -55 -12 -14 -4 -32 -8 -40 -9
-16 -3 -27 -5 -100 -24 -25 -6 -49 -12 -55 -13 -5 -1 -16 -6 -22 -10 -7 -5
-13 -6 -13 -4 0 3 -44 -8 -97 -25 -54 -16 -112 -33 -128 -37 -17 -4 -42 -14
-55 -21 -14 -7 -26 -12 -28 -11 -2 2 -15 -1 -30 -7 -54 -20 -187 -70 -207 -77
-11 -5 -23 -7 -27 -7 -5 1 -8 -2 -8 -8 0 -5 -6 -10 -14 -10 -8 0 -44 -13 -79
-30 -36 -16 -70 -30 -76 -30 -6 0 -11 -4 -11 -10 0 -5 -6 -10 -13 -10 -20 0
-283 -136 -379 -197 -21 -12 -42 -23 -48 -23 -5 0 -10 -4 -10 -10 0 -5 -5 -10
-11 -10 -35 0 -398 -263 -604 -437 -55 -46 -217 -197 -249 -231 -17 -19 -56
-60 -86 -91 -30 -31 -76 -81 -102 -111 -26 -30 -56 -66 -68 -80 -12 -14 -34
-41 -49 -60 -14 -19 -28 -37 -31 -40 -33 -32 -180 -237 -180 -250 0 -5 -4 -10
-8 -10 -4 0 -23 -26 -42 -57 -19 -32 -37 -60 -41 -63 -4 -3 -17 -23 -29 -45
-12 -22 -30 -53 -40 -70 -23 -37 -55 -95 -89 -160 -14 -27 -29 -53 -34 -56 -5
-3 -8 -9 -8 -13 1 -3 -18 -48 -42 -99 -24 -50 -51 -108 -60 -128 -28 -61 -97
-233 -97 -240 0 -4 -5 -20 -11 -36 -6 -15 -9 -28 -7 -29 2 0 -3 -8 -11 -17 -7
-10 -11 -17 -8 -17 3 0 -1 -17 -9 -37 -9 -20 -17 -44 -19 -52 -2 -9 -15 -54
-30 -101 -14 -47 -27 -94 -29 -105 -3 -11 -15 -67 -29 -125 -14 -58 -27 -121
-31 -140 -3 -19 -8 -46 -11 -60 -9 -45 -14 -74 -19 -115 -3 -22 -7 -49 -10
-60 -16 -81 -37 -347 -40 -517 l-2 -88 847 0 847 0 1 88 c1 48 4 103 6 122 2
19 7 64 10 99 3 36 7 72 9 80 3 9 7 36 10 61 21 160 118 491 186 631 15 33 26
59 24 59 -2 0 12 30 32 67 88 166 118 218 126 221 4 2 8 8 8 13 0 20 194 285
275 374 52 58 175 185 179 185 2 0 23 19 48 43 81 77 277 227 356 273 26 15
49 30 52 34 3 3 12 10 20 13 8 4 38 21 65 37 28 17 66 38 85 47 19 9 38 21 41
26 3 5 10 9 15 9 5 0 41 15 79 33 101 47 142 65 152 65 4 1 26 9 48 20 22 11
48 19 57 20 9 0 19 4 22 8 3 5 30 15 61 22 31 7 58 17 61 22 3 5 10 6 15 3 5
-4 15 -3 22 2 6 4 17 8 22 10 6 1 45 11 87 22 43 11 90 22 105 25 16 2 28 5
28 6 0 2 16 5 85 15 25 3 70 10 100 15 54 9 182 22 244 24 17 0 34 6 38 11 5
6 8 6 8 -1 0 -12 82 -10 102 2 6 4 8 3 5 -3 -4 -6 3 -8 18 -5 l25 4 -2 816 -3
815 -63 1 c-35 0 -64 0 -65 -1z"/>
</g>
</svg>
