<svg width="66" height="67" viewBox="0 0 66 67" fill="none" xmlns="http://www.w3.org/2000/svg">
<g filter="url(#filter0_dd)">
<rect x="12" y="12.8057" width="42" height="42" rx="10" fill="#F8F8FE"/>
</g>
<g clip-path="url(#clip0)">
<path d="M40.106 29.5419C39.7332 29.7222 39.5771 30.1708 39.7575 30.5435C40.2502 31.5613 40.5 32.6585 40.5 33.8057C40.5 37.9411 37.1354 41.3057 33 41.3057C28.8646 41.3057 25.5 37.9411 25.5 33.8057C25.5 29.6702 28.8646 26.3057 33 26.3057C34.7137 26.3057 36.3235 26.8652 37.656 27.9238C37.9792 28.1818 38.4518 28.1277 38.7098 27.8035C38.9678 27.4794 38.9138 27.0073 38.5893 26.7497C37.0118 25.496 35.0268 24.8057 33 24.8057C28.0377 24.8057 24 28.8433 24 33.8057C24 38.768 28.0377 42.8057 33 42.8057C37.9623 42.8057 42 38.768 42 33.8057C42 32.4305 41.6997 31.1127 41.1075 29.8903C40.9276 29.5168 40.4775 29.3611 40.106 29.5419Z" fill="#266F9E"/>
<path d="M33 27.8057C32.586 27.8057 32.25 28.1417 32.25 28.5557V33.8057C32.25 34.2197 32.586 34.5557 33 34.5557H36.75C37.164 34.5557 37.5 34.2197 37.5 33.8057C37.5 33.3917 37.164 33.0557 36.75 33.0557H33.75V28.5557C33.75 28.1417 33.414 27.8057 33 27.8057Z" fill="#266F9E"/>
</g>
<defs>
<filter id="filter0_dd" x="0" y="0.805664" width="66" height="66" filterUnits="userSpaceOnUse" color-interpolation-filters="sRGB">
<feFlood flood-opacity="0" result="BackgroundImageFix"/>
<feColorMatrix in="SourceAlpha" type="matrix" values="0 0 0 0 0 0 0 0 0 0 0 0 0 0 0 0 0 0 127 0"/>
<feOffset dx="-4" dy="-4"/>
<feGaussianBlur stdDeviation="4"/>
<feColorMatrix type="matrix" values="0 0 0 0 1 0 0 0 0 1 0 0 0 0 1 0 0 0 0.5 0"/>
<feBlend mode="normal" in2="BackgroundImageFix" result="effect1_dropShadow"/>
<feColorMatrix in="SourceAlpha" type="matrix" values="0 0 0 0 0 0 0 0 0 0 0 0 0 0 0 0 0 0 127 0"/>
<feOffset dx="4" dy="4"/>
<feGaussianBlur stdDeviation="4"/>
<feColorMatrix type="matrix" values="0 0 0 0 0.659722 0 0 0 0 0.665 0 0 0 0 0.791667 0 0 0 0.25 0"/>
<feBlend mode="normal" in2="effect1_dropShadow" result="effect2_dropShadow"/>
<feBlend mode="normal" in="SourceGraphic" in2="effect2_dropShadow" result="shape"/>
</filter>
<clipPath id="clip0">
<rect x="24" y="24.8057" width="18" height="18" fill="white"/>
</clipPath>
</defs>
</svg>
