<svg width="14" height="15" viewBox="0 0 14 15" fill="none" xmlns="http://www.w3.org/2000/svg">
<g clip-path="url(#clip0)">
<path d="M13.7282 12.0063L12.1762 10.9715L10.7965 10.0518C10.5302 9.87469 10.1724 9.93277 9.9758 10.1851L9.12205 11.2826C8.93866 11.5208 8.60876 11.5892 8.34577 11.4436C7.76647 11.1214 7.08144 10.818 5.56995 9.30455C4.05846 7.79112 3.75312 7.10803 3.43087 6.52873C3.28527 6.26574 3.35371 5.93584 3.59187 5.75247L4.68941 4.89873C4.94171 4.70219 4.99981 4.34434 4.82265 4.07805L3.93126 2.74081L2.86823 1.14626C2.6873 0.874844 2.3251 0.793361 2.04538 0.961113L0.819411 1.6966C0.48809 1.8918 0.244542 2.20702 0.139216 2.57689C-0.196042 3.79922 -0.263635 6.49564 4.05772 10.817C8.37908 15.1384 11.0752 15.0705 12.2976 14.7353C12.6675 14.63 12.9827 14.3864 13.1779 14.0551L13.9134 12.8291C14.0811 12.5494 13.9997 12.1872 13.7282 12.0063Z" fill="#A6A6A6"/>
</g>
<defs>
<clipPath id="clip0">
<rect y="0.874023" width="14" height="14" fill="white"/>
</clipPath>
</defs>
</svg>
