<svg width="14" height="15" viewBox="0 0 14 15" fill="none" xmlns="http://www.w3.org/2000/svg">
<g clip-path="url(#clip0)">
<path d="M6.3137 7.5273C6.67926 7.77102 7.3207 7.77104 7.68634 7.52727C7.6864 7.52725 7.68648 7.52719 7.68653 7.52716L13.9173 3.37331C13.7129 2.78225 13.1511 2.35645 12.4915 2.35645H1.50844C0.848765 2.35645 0.287038 2.78225 0.0826416 3.37331L6.31351 7.52719C6.31359 7.52725 6.31365 7.52725 6.3137 7.5273Z" fill="#A6A6A6"/>
<path d="M8.14156 8.20936C8.14147 8.20941 8.14142 8.20947 8.14137 8.2095C7.82139 8.42281 7.41062 8.52948 7 8.52948C6.58929 8.52948 6.1787 8.42283 5.85869 8.20947C5.85864 8.20944 5.85861 8.20941 5.85855 8.20939L0 4.30371V11.3331C0 12.1648 0.676681 12.8415 1.50846 12.8415H12.4916C13.3233 12.8415 14 12.1648 14 11.3331V4.30371L8.14156 8.20936Z" fill="#A6A6A6"/>
</g>
<defs>
<clipPath id="clip0">
<rect y="0.598633" width="14" height="14" fill="white"/>
</clipPath>
</defs>
</svg>
