<svg width="66" height="67" viewBox="0 0 66 67" fill="none" xmlns="http://www.w3.org/2000/svg">
<g filter="url(#filter0_dd)">
<rect x="12" y="12.9697" width="42" height="42" rx="10" fill="#F8F8FE"/>
</g>
<path d="M30.0542 37.2082C30.3893 37.9407 30.6811 38.5787 30.8802 39.0495L30.8822 39.072L30.8822 39.0721L30.8823 39.0726L30.8825 39.0749L30.8833 39.0846L30.8862 39.125C30.8886 39.1611 30.8919 39.2157 30.8952 39.289C30.901 39.4187 30.9068 39.6066 30.9079 39.8537H30.8818V39.9537V40.9345V41.0462L30.9928 41.0339L36.1874 40.459L36.2791 40.4488L36.2763 40.3566C36.2716 40.1941 36.2681 40.068 36.2664 40.0022L36.2664 40.0021C36.2537 39.5427 36.2514 39.2939 36.2538 39.1629H36.2919L36.2778 39.063C36.4733 38.5626 36.7782 37.8469 37.1303 37.0205L37.1691 36.9295C37.543 36.0518 37.966 35.0574 38.3637 34.0715C38.7613 33.0859 39.1342 32.1073 39.4079 31.2615C39.6803 30.4196 39.8586 29.6967 39.8586 29.228V29.228C39.8578 25.7223 37.0057 22.8697 33.4997 22.8697C29.9938 22.8697 27.1412 25.7223 27.1412 29.228C27.1412 29.7595 27.3254 30.5128 27.6086 31.3674C27.8927 32.2251 28.2803 33.1957 28.6947 34.166C29.1093 35.1365 29.5513 36.1083 29.9445 36.9684C29.9815 37.0494 30.0181 37.1294 30.0542 37.2082ZM33.4997 23.9578C36.4061 23.9578 38.7706 26.3219 38.7706 29.228C38.7706 29.5908 38.6186 30.201 38.3644 30.9692C38.1118 31.7329 37.763 32.6393 37.379 33.5882C37.0215 34.4714 36.6324 35.3935 36.263 36.2691C35.8526 37.2419 35.4663 38.1575 35.1743 38.8987L32.0123 38.9345C31.7349 38.2833 31.3784 37.4963 30.9959 36.6519L30.9494 36.5492C30.5368 35.6385 30.0965 34.6647 29.6927 33.7219C29.2888 32.7789 28.9221 31.8687 28.6565 31.0851C28.3898 30.298 28.2293 29.6505 28.2293 29.228C28.2293 26.3219 30.5934 23.9578 33.4997 23.9578Z" fill="#266F9E" stroke="#266F9E" stroke-width="0.2"/>
<path d="M30.9819 41.9012C30.9606 41.9159 30.9428 42.1561 31.0321 42.4662L36.1565 41.8986C36.1582 41.8618 36.1604 41.8296 36.1648 41.8058C36.1838 41.6848 36.1899 41.4177 36.189 41.1232L30.9819 41.7004V41.9012V41.9012Z" fill="#266F9E"/>
<path d="M33.6294 43.9697C35.3269 43.978 35.8733 43.2884 36.0554 42.6757L31.4335 43.1883C31.8092 43.6046 32.469 43.964 33.6294 43.9697Z" fill="#266F9E"/>
<defs>
<filter id="filter0_dd" x="0" y="0.969727" width="66" height="66" filterUnits="userSpaceOnUse" color-interpolation-filters="sRGB">
<feFlood flood-opacity="0" result="BackgroundImageFix"/>
<feColorMatrix in="SourceAlpha" type="matrix" values="0 0 0 0 0 0 0 0 0 0 0 0 0 0 0 0 0 0 127 0"/>
<feOffset dx="-4" dy="-4"/>
<feGaussianBlur stdDeviation="4"/>
<feColorMatrix type="matrix" values="0 0 0 0 1 0 0 0 0 1 0 0 0 0 1 0 0 0 0.5 0"/>
<feBlend mode="normal" in2="BackgroundImageFix" result="effect1_dropShadow"/>
<feColorMatrix in="SourceAlpha" type="matrix" values="0 0 0 0 0 0 0 0 0 0 0 0 0 0 0 0 0 0 127 0"/>
<feOffset dx="4" dy="4"/>
<feGaussianBlur stdDeviation="4"/>
<feColorMatrix type="matrix" values="0 0 0 0 0.659722 0 0 0 0 0.665 0 0 0 0 0.791667 0 0 0 0.25 0"/>
<feBlend mode="normal" in2="effect1_dropShadow" result="effect2_dropShadow"/>
<feBlend mode="normal" in="SourceGraphic" in2="effect2_dropShadow" result="shape"/>
</filter>
</defs>
</svg>
