<svg width="66" height="67" viewBox="0 0 66 67" fill="none" xmlns="http://www.w3.org/2000/svg">
<g filter="url(#filter0_dd)">
<rect x="12" y="12.3877" width="42" height="42" rx="10" fill="#F8F8FE"/>
</g>
<g clip-path="url(#clip0)">
<path d="M43.4975 27.1391C43.492 25.6897 42.3127 24.5192 40.8634 24.5247C39.8324 24.5285 38.8991 25.1358 38.478 26.0769L36.2375 25.7023L36.0184 26.9967L38.27 27.3726C38.3576 28.3489 38.9821 29.195 39.8892 29.5665L39.2501 34.3866C37.934 34.5413 36.9408 35.6548 36.9369 36.98V36.9899L29.3731 38.9843C28.9697 38.2651 28.2502 37.7787 27.4325 37.6722L26.0928 26.9501C26.7301 26.6963 27.2431 26.2035 27.5223 25.577L29.5502 25.9155L29.7661 24.6217L27.7283 24.2812C27.6045 22.8409 26.3363 21.7736 24.896 21.8975C23.4556 22.0214 22.3883 23.2895 22.5122 24.7299C22.6179 25.9584 23.5666 26.9466 24.7898 27.1023L26.1308 37.8224C24.7831 38.3554 24.1225 39.8801 24.6555 41.2278C25.1886 42.5756 26.7132 43.2361 28.061 42.7031C29.0632 42.3068 29.7211 41.3381 29.7202 40.2603V40.2505L37.2839 38.2561C37.9885 39.5185 39.583 39.9708 40.8454 39.2663C42.1078 38.5618 42.5601 36.9672 41.8556 35.7048C41.5643 35.1827 41.103 34.7761 40.5485 34.5526L41.1875 29.7325C42.5024 29.5763 43.4938 28.4632 43.4975 27.1391ZM25.1277 25.8269C24.403 25.8269 23.8156 25.2395 23.8156 24.5148C23.8156 23.7901 24.403 23.2027 25.1277 23.2027C25.8524 23.2027 26.4398 23.7901 26.4398 24.5148C26.4398 25.2395 25.8524 25.8269 25.1277 25.8269ZM27.0959 41.5725C26.3712 41.5725 25.7838 40.985 25.7838 40.2603C25.7838 39.5357 26.3712 38.9482 27.0959 38.9482C27.8206 38.9482 28.408 39.5357 28.408 40.2603C28.408 40.985 27.8206 41.5725 27.0959 41.5725ZM40.8732 36.98C40.8732 37.7047 40.2858 38.2921 39.5611 38.2921C38.8365 38.2921 38.249 37.7047 38.249 36.98C38.249 36.2554 38.8365 35.6679 39.5611 35.6679C40.2858 35.6679 40.8732 36.2554 40.8732 36.98ZM39.5611 27.1391C39.5611 26.4144 40.1486 25.8269 40.8732 25.8269C41.5979 25.8269 42.1854 26.4144 42.1854 27.1391C42.1854 27.8637 41.5979 28.4512 40.8732 28.4512C40.1486 28.4512 39.5611 27.8637 39.5611 27.1391Z" fill="#266F9E"/>
<path d="M34.9435 25.4863L33.6492 25.2703L33.4332 26.5646L34.7275 26.7806L34.9435 25.4863Z" fill="#266F9E"/>
<path d="M32.3513 25.0542L31.0571 24.838L30.8409 26.1321L32.135 26.3483L32.3513 25.0542Z" fill="#266F9E"/>
</g>
<defs>
<filter id="filter0_dd" x="0" y="0.387695" width="66" height="66" filterUnits="userSpaceOnUse" color-interpolation-filters="sRGB">
<feFlood flood-opacity="0" result="BackgroundImageFix"/>
<feColorMatrix in="SourceAlpha" type="matrix" values="0 0 0 0 0 0 0 0 0 0 0 0 0 0 0 0 0 0 127 0"/>
<feOffset dx="-4" dy="-4"/>
<feGaussianBlur stdDeviation="4"/>
<feColorMatrix type="matrix" values="0 0 0 0 1 0 0 0 0 1 0 0 0 0 1 0 0 0 0.5 0"/>
<feBlend mode="normal" in2="BackgroundImageFix" result="effect1_dropShadow"/>
<feColorMatrix in="SourceAlpha" type="matrix" values="0 0 0 0 0 0 0 0 0 0 0 0 0 0 0 0 0 0 127 0"/>
<feOffset dx="4" dy="4"/>
<feGaussianBlur stdDeviation="4"/>
<feColorMatrix type="matrix" values="0 0 0 0 0.659722 0 0 0 0 0.665 0 0 0 0 0.791667 0 0 0 0.25 0"/>
<feBlend mode="normal" in2="effect1_dropShadow" result="effect2_dropShadow"/>
<feBlend mode="normal" in="SourceGraphic" in2="effect2_dropShadow" result="shape"/>
</filter>
<clipPath id="clip0">
<rect x="22.5" y="21.8877" width="21" height="21" fill="white"/>
</clipPath>
</defs>
</svg>
