<svg width="24" height="27" viewBox="0 0 24 27" fill="none" xmlns="http://www.w3.org/2000/svg">
<g clip-path="url(#clip0)">
<path fill-rule="evenodd" clip-rule="evenodd" d="M6.23867 20.3377C6.21673 22.5118 7.74332 23.3176 9.59717 22.211L9.67415 22.1652C9.15797 18.9315 5.87273 18.6392 5.87273 14.5061C5.86643 13.7027 6.02026 12.906 6.32535 12.162C6.63044 11.4179 7.08075 10.7412 7.65032 10.1709C8.21989 9.60057 8.89745 9.1479 9.64394 8.839C10.3904 8.53009 11.1911 8.37105 11.9997 8.37105C12.8084 8.37105 13.609 8.53009 14.3555 8.839C15.102 9.1479 15.7796 9.60057 16.3492 10.1709C16.9187 10.7412 17.369 11.4179 17.6741 12.162C17.9792 12.906 18.133 13.7027 18.1267 14.5061C18.1267 18.6396 14.8411 18.9315 14.3253 22.166L14.4484 22.238C15.38 22.7845 16.2089 22.838 16.8047 22.4933C17.4004 22.1486 17.7716 21.4129 17.7612 20.3377C17.7377 18.031 18.0289 17.0907 19.2301 15.0969C18.9248 15.878 18.592 16.5272 18.4518 17.24C18.8103 16.9122 19.351 16.5959 20.1624 16.1489C22.0535 15.1069 22.1141 13.3907 20.2085 12.3225C18.2788 11.2402 17.4614 10.3775 16.3752 8.43769C16.9207 9.11459 17.3298 9.7442 17.9114 10.229C17.7675 9.73348 17.7437 9.09501 17.7601 8.16354C17.7972 6.01534 16.3324 5.10493 14.4484 6.21043C12.6875 7.24499 11.2457 7.5997 9.1457 7.56682C10.0449 7.429 10.8262 7.39537 11.567 7.10422C11.0118 7.00704 10.4083 6.7218 9.59605 6.23777C8.65927 5.678 7.80617 5.60965 7.19404 5.95586C6.58192 6.30206 6.2197 7.07762 6.23867 8.16354C6.27586 10.2415 5.84633 11.5628 4.76861 13.3515C5.09884 12.508 5.46069 11.8181 5.57671 11.0341C5.20074 11.4775 4.63138 11.8521 3.78943 12.3243C1.88389 13.3925 1.94488 15.1088 3.83592 16.1507C5.72063 17.1879 6.57262 18.1323 7.62357 20.0089C7.0769 19.332 6.66783 18.7009 6.08397 18.2165C6.23012 18.7271 6.24759 19.3789 6.23867 20.3377Z" fill="url(#paint0_linear)"/>
<path fill-rule="evenodd" clip-rule="evenodd" d="M9.82031 22.9948H14.213C14.3193 22.9945 14.4213 23.0361 14.4967 23.1105C14.5721 23.1849 14.6146 23.286 14.615 23.3916C14.6146 23.4972 14.5721 23.5984 14.4967 23.6729C14.4214 23.7474 14.3194 23.7892 14.213 23.7891H9.82031C9.71434 23.7888 9.61282 23.7467 9.53793 23.6722C9.46303 23.5978 9.42083 23.4969 9.42053 23.3916C9.42092 23.2864 9.46318 23.1856 9.53808 23.1113C9.61298 23.0369 9.71444 22.995 9.82031 22.9948ZM9.70205 24.5669C9.70244 24.6721 9.7447 24.7729 9.8196 24.8472C9.8945 24.9216 9.99595 24.9634 10.1018 24.9637H13.9323C14.0381 24.9634 14.1396 24.9216 14.2145 24.8472C14.2894 24.7729 14.3316 24.6721 14.332 24.5669C14.3317 24.4617 14.2895 24.3608 14.2146 24.2864C14.1397 24.212 14.0382 24.17 13.9323 24.1697H10.1018C9.99589 24.17 9.89438 24.212 9.81947 24.2864C9.74456 24.3608 9.70234 24.4617 9.70205 24.5669ZM10.2878 25.3613C10.3815 26.091 11.1197 26.6593 12.0167 26.6593C12.9137 26.6593 13.653 26.091 13.7456 25.3613H10.2878Z" fill="url(#paint1_linear)"/>
<path fill-rule="evenodd" clip-rule="evenodd" d="M4.19406 10.7774C3.94431 10.8982 3.66411 10.9427 3.3889 10.9053C3.11369 10.8679 2.85583 10.7502 2.6479 10.5672C2.43998 10.3842 2.29134 10.1441 2.22077 9.87717C2.1502 9.61025 2.16087 9.32852 2.25143 9.06762C2.342 8.80672 2.50839 8.57836 2.72957 8.4114C2.95075 8.24445 3.21679 8.1464 3.49405 8.12965C3.77131 8.1129 4.04734 8.1782 4.28725 8.3173C4.52716 8.4564 4.72017 8.66306 4.84189 8.91113C4.92279 9.07592 4.97021 9.25493 4.98143 9.43794C4.99265 9.62094 4.96746 9.80435 4.9073 9.97767C4.84713 10.151 4.75317 10.3108 4.63079 10.4481C4.50841 10.5853 4.36 10.6972 4.19406 10.7774Z" fill="url(#paint2_linear)"/>
<path fill-rule="evenodd" clip-rule="evenodd" d="M1.50133 8.71406C1.67484 8.63041 1.81947 8.49749 1.91692 8.33213C2.01437 8.16677 2.06025 7.97641 2.04877 7.78513C2.03728 7.59385 1.96894 7.41026 1.85239 7.25758C1.73584 7.10491 1.57632 6.99002 1.39403 6.92746C1.21173 6.8649 1.01486 6.85747 0.828314 6.90612C0.64177 6.95477 0.473946 7.05731 0.346082 7.20077C0.218217 7.34422 0.13606 7.52213 0.110008 7.712C0.0839566 7.90186 0.115181 8.09513 0.19973 8.26736C0.312909 8.4979 0.513523 8.67441 0.757545 8.75816C1.00157 8.84191 1.26906 8.82605 1.50133 8.71406Z" fill="url(#paint3_linear)"/>
<path fill-rule="evenodd" clip-rule="evenodd" d="M11.3342 5.85906C11.0893 5.72884 10.8887 5.52937 10.7578 5.28589C10.627 5.0424 10.5718 4.76583 10.5991 4.49115C10.6265 4.21648 10.7352 3.95603 10.9115 3.74274C11.0879 3.52946 11.3239 3.37292 11.5898 3.29293C11.8557 3.21293 12.1395 3.21307 12.4053 3.29333C12.6711 3.37358 12.907 3.53035 13.0831 3.7438C13.2593 3.95726 13.3677 4.21781 13.3948 4.49252C13.4219 4.76722 13.3664 5.04374 13.2353 5.28709C13.1483 5.4487 13.0301 5.59169 12.8875 5.7079C12.7448 5.82412 12.5806 5.91127 12.404 5.96438C12.2275 6.0175 12.0421 6.03554 11.8586 6.01746C11.675 5.99939 11.4968 5.94557 11.3342 5.85906Z" fill="url(#paint4_linear)"/>
<path fill-rule="evenodd" clip-rule="evenodd" d="M11.4395 2.48206C11.2695 2.39169 11.1304 2.25328 11.0396 2.08434C10.9488 1.91539 10.9104 1.72348 10.9294 1.53289C10.9484 1.3423 11.0238 1.16158 11.1462 1.01357C11.2685 0.865571 11.4323 0.756933 11.6168 0.701398C11.8012 0.645862 11.9982 0.645922 12.1826 0.701571C12.3671 0.757219 12.5307 0.865957 12.653 1.01403C12.7753 1.16211 12.8506 1.34288 12.8694 1.53349C12.8883 1.72409 12.8498 1.91597 12.7589 2.08486C12.6369 2.31133 12.4294 2.4804 12.182 2.55488C11.9346 2.62937 11.6675 2.60317 11.4395 2.48206Z" fill="url(#paint5_linear)"/>
<path fill-rule="evenodd" clip-rule="evenodd" d="M18.9074 9.23143C18.9269 8.95616 19.0282 8.69281 19.1983 8.47471C19.3685 8.25661 19.5999 8.09355 19.8634 8.00615C20.1269 7.91875 20.4105 7.91093 20.6784 7.9837C20.9463 8.05646 21.1865 8.20653 21.3686 8.41492C21.5507 8.62332 21.6664 8.88068 21.7013 9.15446C21.7361 9.42824 21.6885 9.70614 21.5644 9.95301C21.4402 10.1999 21.2452 10.4046 21.004 10.5414C20.7627 10.6781 20.486 10.7407 20.209 10.7212C19.8376 10.695 19.4919 10.5233 19.2478 10.244C19.0038 9.96464 18.8813 9.60044 18.9074 9.23143Z" fill="url(#paint6_linear)"/>
<path fill-rule="evenodd" clip-rule="evenodd" d="M22.0527 7.94605C22.0664 7.75503 22.1367 7.57231 22.2548 7.42099C22.373 7.26968 22.5336 7.15656 22.7165 7.09594C22.8993 7.03532 23.0961 7.02992 23.282 7.08042C23.468 7.13093 23.6347 7.23506 23.761 7.37967C23.8874 7.52428 23.9678 7.70286 23.992 7.89285C24.0162 8.08283 23.9832 8.27569 23.8971 8.44704C23.811 8.61838 23.6758 8.76053 23.5084 8.8555C23.341 8.95048 23.1491 8.99402 22.9568 8.98061C22.829 8.97171 22.7043 8.93788 22.5897 8.88106C22.4751 8.82424 22.3729 8.74554 22.289 8.64946C22.205 8.55338 22.141 8.44181 22.1004 8.32111C22.0599 8.20042 22.0437 8.07297 22.0527 7.94605Z" fill="url(#paint7_linear)"/>
<path fill-rule="evenodd" clip-rule="evenodd" d="M19.8055 17.6709C20.0553 17.55 20.3355 17.5054 20.6107 17.5427C20.886 17.5801 21.1439 17.6976 21.3519 17.8806C21.5599 18.0636 21.7086 18.3037 21.7792 18.5707C21.8498 18.8376 21.8392 19.1194 21.7486 19.3803C21.6581 19.6412 21.4917 19.8696 21.2705 20.0366C21.0493 20.2036 20.7833 20.3017 20.506 20.3184C20.2287 20.3352 19.9526 20.2699 19.7127 20.1307C19.4728 19.9916 19.2798 19.7849 19.1581 19.5368C19.0772 19.372 19.0298 19.1931 19.0186 19.0101C19.0074 18.8272 19.0325 18.6438 19.0927 18.4706C19.1528 18.2973 19.2467 18.1375 19.369 18.0003C19.4913 17.863 19.6397 17.7511 19.8055 17.6709Z" fill="url(#paint8_linear)"/>
<path fill-rule="evenodd" clip-rule="evenodd" d="M22.4991 19.7352C22.3256 19.8189 22.181 19.9518 22.0836 20.1172C21.9861 20.2826 21.9403 20.473 21.9518 20.6643C21.9633 20.8555 22.0317 21.0391 22.1483 21.1918C22.2649 21.3444 22.4245 21.4593 22.6068 21.5218C22.7891 21.5843 22.986 21.5917 23.1725 21.543C23.3591 21.4943 23.5269 21.3917 23.6547 21.2482C23.7825 21.1047 23.8646 20.9268 23.8906 20.7369C23.9166 20.547 23.8853 20.3537 23.8007 20.1815C23.6874 19.951 23.4868 19.7746 23.2428 19.6909C22.9988 19.6073 22.7313 19.6232 22.4991 19.7352Z" fill="url(#paint9_linear)"/>
<path fill-rule="evenodd" clip-rule="evenodd" d="M5.09252 19.2168C5.07306 19.4922 4.97183 19.7556 4.80164 19.9739C4.63145 20.1921 4.39994 20.3552 4.1364 20.4427C3.87286 20.5302 3.58912 20.538 3.32109 20.4653C3.05306 20.3925 2.81278 20.2424 2.63064 20.0339C2.44849 19.8254 2.33267 19.5679 2.29783 19.2941C2.26299 19.0202 2.31069 18.7422 2.4349 18.4952C2.5591 18.2483 2.75424 18.0435 2.99561 17.9067C3.23699 17.77 3.51376 17.7075 3.79092 17.727C4.1623 17.7532 4.50801 17.9249 4.75208 18.2042C4.99614 18.4836 5.11859 18.8478 5.09252 19.2168Z" fill="url(#paint10_linear)"/>
<path fill-rule="evenodd" clip-rule="evenodd" d="M1.9471 20.5007C1.93347 20.6917 1.86313 20.8744 1.74499 21.0257C1.62685 21.1771 1.46621 21.2902 1.28337 21.3508C1.10054 21.4114 0.903716 21.4168 0.717791 21.3663C0.531866 21.3158 0.365185 21.2117 0.23882 21.0671C0.112454 20.9225 0.0320783 20.7439 0.00785235 20.5539C-0.0163736 20.3639 0.0166382 20.171 0.102714 19.9997C0.188791 19.8283 0.324067 19.6862 0.491442 19.5912C0.658817 19.4963 0.850775 19.4527 1.04305 19.4661C1.30102 19.4842 1.54119 19.6034 1.71073 19.7974C1.88028 19.9914 1.9653 20.2444 1.9471 20.5007Z" fill="url(#paint11_linear)"/>
</g>
<defs>
<linearGradient id="paint0_linear" x1="11.8831" y1="-7.58987" x2="12.0561" y2="25.1492" gradientUnits="userSpaceOnUse">
<stop stop-color="#FFCE2D"/>
<stop offset="0.32" stop-color="#FFC521"/>
<stop offset="0.7" stop-color="#FF9900"/>
<stop offset="1" stop-color="#D15728"/>
</linearGradient>
<linearGradient id="paint1_linear" x1="11.84" y1="8.38935" x2="12.0401" y2="25.6022" gradientUnits="userSpaceOnUse">
<stop stop-color="#ABABAB"/>
<stop offset="0.34" stop-color="#7A7A7A"/>
<stop offset="0.7" stop-color="#545454"/>
<stop offset="1" stop-color="#1F1F1F"/>
</linearGradient>
<linearGradient id="paint2_linear" x1="3.54661" y1="7.1206" x2="3.60314" y2="11.3424" gradientUnits="userSpaceOnUse">
<stop stop-color="#FFCA33"/>
<stop offset="0.32" stop-color="#FFC318"/>
<stop offset="0.7" stop-color="#FF9900"/>
<stop offset="1" stop-color="#D15728"/>
</linearGradient>
<linearGradient id="paint3_linear" x1="55.2308" y1="296.045" x2="57.2898" y2="449.618" gradientUnits="userSpaceOnUse">
<stop stop-color="#FFCE2D"/>
<stop offset="0.32" stop-color="#E8A224"/>
<stop offset="0.7" stop-color="#E67826"/>
<stop offset="1" stop-color="#D15728"/>
</linearGradient>
<linearGradient id="paint4_linear" x1="914.402" y1="121.665" x2="918.673" y2="440.564" gradientUnits="userSpaceOnUse">
<stop stop-color="#FFCE2D"/>
<stop offset="0.32" stop-color="#E8A224"/>
<stop offset="0.7" stop-color="#E67826"/>
<stop offset="1" stop-color="#D15728"/>
</linearGradient>
<linearGradient id="paint5_linear" x1="633.51" y1="-35.9248" x2="635.569" y2="117.619" gradientUnits="userSpaceOnUse">
<stop stop-color="#FFCE2D"/>
<stop offset="0.32" stop-color="#E8A224"/>
<stop offset="0.7" stop-color="#E67826"/>
<stop offset="1" stop-color="#D15728"/>
</linearGradient>
<linearGradient id="paint6_linear" x1="1550.11" y1="481.319" x2="1554.37" y2="800.09" gradientUnits="userSpaceOnUse">
<stop stop-color="#FFCE2D"/>
<stop offset="0.32" stop-color="#E8A224"/>
<stop offset="0.7" stop-color="#E67826"/>
<stop offset="1" stop-color="#D15728"/>
</linearGradient>
<linearGradient id="paint7_linear" x1="1227.85" y1="305.223" x2="1229.88" y2="458.758" gradientUnits="userSpaceOnUse">
<stop stop-color="#FFCE2D"/>
<stop offset="0.32" stop-color="#E8A224"/>
<stop offset="0.7" stop-color="#E67826"/>
<stop offset="1" stop-color="#D15728"/>
</linearGradient>
<linearGradient id="paint8_linear" x1="1559.21" y1="1215.91" x2="1563.48" y2="1534.82" gradientUnits="userSpaceOnUse">
<stop stop-color="#FFCE2D"/>
<stop offset="0.32" stop-color="#E8A224"/>
<stop offset="0.7" stop-color="#E67826"/>
<stop offset="1" stop-color="#D15728"/>
</linearGradient>
<linearGradient id="paint9_linear" x1="1222.52" y1="977.856" x2="1224.56" y2="1131.41" gradientUnits="userSpaceOnUse">
<stop stop-color="#FFCE2D"/>
<stop offset="0.32" stop-color="#E8A224"/>
<stop offset="0.7" stop-color="#E67826"/>
<stop offset="1" stop-color="#D15728"/>
</linearGradient>
<linearGradient id="paint10_linear" x1="278.687" y1="1230.76" x2="282.957" y2="1549.59" gradientUnits="userSpaceOnUse">
<stop stop-color="#FFCE2D"/>
<stop offset="0.32" stop-color="#E8A224"/>
<stop offset="0.7" stop-color="#E67826"/>
<stop offset="1" stop-color="#D15728"/>
</linearGradient>
<linearGradient id="paint11_linear" x1="49.9048" y1="968.695" x2="51.9639" y2="1122.23" gradientUnits="userSpaceOnUse">
<stop stop-color="#FFCE2D"/>
<stop offset="0.32" stop-color="#E8A224"/>
<stop offset="0.7" stop-color="#E67826"/>
<stop offset="1" stop-color="#D15728"/>
</linearGradient>
<clipPath id="clip0">
<rect y="0.659424" width="24" height="26" fill="white"/>
</clipPath>
</defs>
</svg>
