<svg width="67" height="67" viewBox="0 0 67 67" fill="none" xmlns="http://www.w3.org/2000/svg">
<g filter="url(#filter0_dd)">
<rect x="12.6453" y="12.6782" width="42" height="42" rx="10" fill="#F8F8FE"/>
</g>
<path d="M33.6603 31.0512L33.6864 31.0675C34.7917 31.7548 36.1509 32.1656 37.6492 32.2596C37.9932 32.2808 38.2893 32.0198 38.3109 31.6761C38.3324 31.3322 38.0712 31.0359 37.7273 31.0144C36.2883 30.9241 35.0094 30.5039 34.0303 29.7968C33.815 29.6413 33.525 29.6391 33.3074 29.7914C32.2914 30.5023 30.9963 30.9245 29.5633 31.0144M33.6603 31.0512L28.9797 31.676C28.9582 31.3322 29.2194 31.036 29.5633 31.0144M33.6603 31.0512L33.634 31.0672C32.5011 31.7553 31.1313 32.1662 29.6414 32.2596C29.6281 32.2604 29.6148 32.2609 29.6017 32.2609C29.275 32.2609 29.0005 32.0066 28.9797 31.676L33.6603 31.0512ZM29.5633 31.0144L29.5602 30.9645L29.5633 31.0144C29.5633 31.0144 29.5633 31.0144 29.5633 31.0144Z" fill="#266F9E" stroke="#F8F8FE" stroke-width="0.1"/>
<path d="M30.95 33.7282H36.3406C36.6851 33.7282 36.9644 34.0075 36.9644 34.3521C36.9644 34.6966 36.6851 34.9759 36.3406 34.9759H30.95C30.6054 34.9759 30.3261 34.6966 30.3261 34.3521C30.3261 34.0075 30.6054 33.7282 30.95 33.7282Z" fill="#266F9E" stroke="#F8F8FE" stroke-width="0.1"/>
<path d="M35.5566 27.5421L35.528 27.583C36.2357 28.0782 37.2037 28.3376 38.3246 28.3376H40.4285C43.0017 28.3376 45.0953 30.4312 45.0953 33.0044C45.0953 35.494 43.1355 37.5346 40.6777 37.6645L40.6615 37.6654L40.6489 37.6755C39.8936 38.284 37.0579 40.3665 33.6453 40.3665C30.2326 40.3665 27.397 38.284 26.6416 37.6755L26.629 37.6654L26.6128 37.6645C24.155 37.5346 22.1953 35.494 22.1953 33.0044C22.1953 30.4312 24.2888 28.3376 26.8621 28.3376H28.966C30.0868 28.3376 31.0548 28.0782 31.7625 27.583C32.3172 27.195 32.9681 26.9899 33.6453 26.9899C34.3224 26.9899 34.9734 27.195 35.528 27.583L35.5566 27.5421ZM35.5566 27.5421C36.2537 28.0298 37.2108 28.2876 38.3246 28.2876H40.4285C43.0293 28.2876 45.1453 30.4036 45.1453 33.0044C45.1453 35.5207 43.1645 37.5831 40.6803 37.7145H26.6102C24.126 37.5831 22.1453 35.5207 22.1453 33.0044C22.1453 30.4036 24.2612 28.2876 26.8621 28.2876H28.966C30.0797 28.2876 31.0368 28.0298 31.7339 27.5421C32.2969 27.1482 32.9579 26.9399 33.6453 26.9399C34.3327 26.9399 34.9936 27.1482 35.5566 27.5421ZM26.2382 29.703V29.6418L26.1782 29.654C24.6195 29.9718 23.4429 31.3531 23.4429 33.0044C23.4429 34.6557 24.6195 36.037 26.1782 36.3547L26.2382 36.3669V36.3057V29.703ZM27.4859 36.7267V36.7512L27.5052 36.7662C28.2569 37.351 30.7667 39.1188 33.6453 39.1188C36.5239 39.1188 39.0336 37.351 39.7853 36.7662L39.8046 36.7512V36.7267V29.6353V29.5853H39.7546H38.3246C36.9209 29.5853 35.7404 29.2544 34.8127 28.6053L34.7841 28.6463L34.8127 28.6053C34.4689 28.3648 34.0651 28.2376 33.6453 28.2376C33.2254 28.2376 32.8216 28.3648 32.4778 28.6053L32.5064 28.6463L32.4778 28.6053C31.5501 29.2544 30.3696 29.5853 28.966 29.5853H27.5359H27.4859V29.6353V36.7267ZM41.0523 36.3057V36.367L41.1123 36.3547C42.671 36.037 43.8476 34.6557 43.8476 33.0044C43.8476 31.353 42.671 29.9717 41.1123 29.654L41.0523 29.6418V29.703V36.3057Z" fill="#266F9E" stroke="#F8F8FE" stroke-width="0.1"/>
<path d="M32.2976 36.4235H34.9929C35.3374 36.4235 35.6167 36.7028 35.6167 37.0474C35.6167 37.3919 35.3374 37.6712 34.9929 37.6712H32.2976C31.9531 37.6712 31.6738 37.3919 31.6738 37.0474C31.6738 36.7028 31.9531 36.4235 32.2976 36.4235Z" fill="#266F9E" stroke="#F8F8FE" stroke-width="0.1"/>
<defs>
<filter id="filter0_dd" x="0.645264" y="0.678223" width="66" height="66" filterUnits="userSpaceOnUse" color-interpolation-filters="sRGB">
<feFlood flood-opacity="0" result="BackgroundImageFix"/>
<feColorMatrix in="SourceAlpha" type="matrix" values="0 0 0 0 0 0 0 0 0 0 0 0 0 0 0 0 0 0 127 0"/>
<feOffset dx="-4" dy="-4"/>
<feGaussianBlur stdDeviation="4"/>
<feColorMatrix type="matrix" values="0 0 0 0 1 0 0 0 0 1 0 0 0 0 1 0 0 0 0.5 0"/>
<feBlend mode="normal" in2="BackgroundImageFix" result="effect1_dropShadow"/>
<feColorMatrix in="SourceAlpha" type="matrix" values="0 0 0 0 0 0 0 0 0 0 0 0 0 0 0 0 0 0 127 0"/>
<feOffset dx="4" dy="4"/>
<feGaussianBlur stdDeviation="4"/>
<feColorMatrix type="matrix" values="0 0 0 0 0.659722 0 0 0 0 0.665 0 0 0 0 0.791667 0 0 0 0.25 0"/>
<feBlend mode="normal" in2="effect1_dropShadow" result="effect2_dropShadow"/>
<feBlend mode="normal" in="SourceGraphic" in2="effect2_dropShadow" result="shape"/>
</filter>
</defs>
</svg>
