<svg width="67" height="67" viewBox="0 0 67 67" fill="none" xmlns="http://www.w3.org/2000/svg">
<g filter="url(#filter0_dd)">
<rect x="12.6453" y="12.4297" width="42" height="42" rx="10" fill="#F8F8FE"/>
</g>
<path d="M41.8531 38.7625L41.8661 38.8108C42.0606 38.7581 42.1952 38.5815 42.1952 38.3801V36.0051C42.1952 35.9426 42.1818 35.8803 42.1561 35.822L42.156 35.8216L38.5262 27.7308C38.5262 27.7308 38.5262 27.7308 38.5262 27.7308C38.4255 27.5062 38.1608 27.4052 37.9367 27.5069C37.712 27.6078 37.6123 27.8717 37.713 28.0962L37.713 28.0963L41.3035 36.1005V36.7306L36.5922 28.6547M41.8531 38.7625L41.8662 38.8108C41.8266 38.8216 41.7873 38.826 41.7494 38.826C41.5934 38.826 41.4453 38.744 41.3642 38.6048L36.2077 29.7647L34.9795 31.8709L34.9795 31.871C34.8546 32.0841 34.581 32.1545 34.3697 32.0314L34.3696 32.0314C34.1574 31.9075 34.0852 31.6347 34.2091 31.4216L34.2091 31.4216L35.8224 28.6548C35.8224 28.6548 35.8225 28.6548 35.8225 28.6547C35.9038 28.5142 36.0578 28.447 36.207 28.447C36.3563 28.447 36.5105 28.5142 36.5922 28.6547M41.8531 38.7625C42.0257 38.7158 42.1452 38.559 42.1452 38.3801V36.0051C42.1452 35.9497 42.1333 35.8943 42.1104 35.8421L41.4074 38.5796C41.4794 38.7031 41.6108 38.776 41.7494 38.776C41.7834 38.776 41.8182 38.772 41.8531 38.7625ZM36.5922 28.6547L36.5489 28.6799M36.5922 28.6547L36.5921 28.6547L36.5489 28.6799M36.5489 28.6799C36.4072 28.436 36.0067 28.436 35.8657 28.6799H36.5489Z" fill="#266F9E" stroke="#266F9E" stroke-width="0.1"/>
<path d="M32.5927 30.6717L32.5927 30.6717L32.8148 31.2619C32.8739 31.2888 32.9372 31.3012 32.9985 31.3012C33.1686 31.3012 33.3302 31.2041 33.4043 31.039C33.4043 31.039 33.4043 31.039 33.4043 31.039L34.7231 28.1266L34.7231 28.1266C34.8247 27.902 34.7258 27.638 34.501 27.5363L34.4804 27.5819L34.5011 27.5363C34.2789 27.4355 34.0124 27.5343 33.9116 27.7592C33.9115 27.7593 33.9115 27.7593 33.9115 27.7593L32.5927 30.6717Z" fill="#266F9E" stroke="#266F9E" stroke-width="0.1"/>
<path d="M36.2077 22.1009C35.9616 22.1009 35.7619 22.3006 35.7619 22.5467V24.1301C35.7619 24.3762 35.9616 24.5759 36.2077 24.5759C36.4538 24.5759 36.6536 24.3761 36.6536 24.13V22.5467C36.6536 22.3006 36.4538 22.1009 36.2077 22.1009Z" fill="#266F9E" stroke="#266F9E" stroke-width="0.1"/>
<path d="M37.7911 37.1425H36.6368C36.4088 34.0486 33.8173 31.6009 30.6661 31.6009C27.5149 31.6009 24.9242 34.0486 24.6954 37.1425H23.5411C23.295 37.1425 23.0953 37.3423 23.0953 37.5884V40.755C23.0953 41.0011 23.295 41.2009 23.5411 41.2009H37.7911C38.0372 41.2009 38.237 41.0011 38.237 40.755V37.5884C38.2369 37.3423 38.0372 37.1425 37.7911 37.1425ZM37.3453 40.3092H23.9869V38.0342H25.1244C25.3705 38.0342 25.5703 37.8345 25.5703 37.5884C25.5703 34.7786 27.8564 32.4925 30.6661 32.4925C33.4758 32.4925 35.7619 34.7786 35.7619 37.5884C35.7619 37.8345 35.9616 38.0342 36.2078 38.0342H37.3453V40.3092Z" fill="#266F9E" stroke="#266F9E" stroke-width="0.1"/>
<path d="M30.6661 34.7676C29.1106 34.7676 27.8453 36.033 27.8453 37.5885C27.8453 37.8346 28.045 38.0343 28.2911 38.0343H33.0411C33.2872 38.0343 33.487 37.8346 33.487 37.5885C33.4869 36.033 32.2216 34.7676 30.6661 34.7676ZM32.5435 37.1426H28.7887C28.9903 36.2929 29.7561 35.6593 30.6661 35.6593C31.5761 35.6593 32.3419 36.2929 32.5435 37.1426Z" fill="#266F9E" stroke="#266F9E" stroke-width="0.1"/>
<path d="M36.2077 23.6841C34.6522 23.6841 33.3869 24.9494 33.3869 26.505C33.3869 28.0605 34.6522 29.3258 36.2077 29.3258C37.7633 29.3258 39.0286 28.0605 39.0286 26.5049C39.0286 24.9494 37.7633 23.6841 36.2077 23.6841ZM36.2077 28.4341C35.1436 28.4341 34.2786 27.5683 34.2786 26.505C34.2786 25.4416 35.1436 24.5758 36.2077 24.5758C37.2718 24.5758 38.1369 25.4416 38.1369 26.5049C38.1369 27.5683 37.2718 28.4341 36.2077 28.4341Z" fill="#266F9E" stroke="#266F9E" stroke-width="0.1"/>
<path d="M36.2078 25.6634C35.7431 25.6634 35.3661 26.0413 35.3661 26.505C35.3661 26.9688 35.7431 27.3467 36.2078 27.3467C36.6724 27.3467 37.0494 26.9688 37.0494 26.505C37.0494 26.0413 36.6724 25.6634 36.2078 25.6634Z" fill="#266F9E" stroke="#266F9E" stroke-width="0.1"/>
<path d="M36.2078 38.7259C35.9617 38.7259 35.7619 38.9256 35.7619 39.1717V40.3092H35.0703V39.9634C35.0703 39.7173 34.8706 39.5175 34.6244 39.5175C34.3783 39.5175 34.1786 39.7173 34.1786 39.9634V40.3092H33.4869V39.9634C33.4869 39.7173 33.2872 39.5175 33.0411 39.5175C32.795 39.5175 32.5953 39.7173 32.5953 39.9634V40.3092H31.9036V39.1717C31.9036 38.9256 31.7039 38.7259 31.4578 38.7259C31.2117 38.7259 31.0119 38.9256 31.0119 39.1717V40.3092H30.3203V39.9634C30.3203 39.7173 30.1206 39.5175 29.8744 39.5175C29.6283 39.5175 29.4286 39.7173 29.4286 39.9634V40.3092H28.7369V39.9634C28.7369 39.7173 28.5372 39.5175 28.2911 39.5175C28.045 39.5175 27.8453 39.7173 27.8453 39.9634V40.3092H27.1536V39.1717C27.1536 38.9256 26.9539 38.7259 26.7078 38.7259C26.4617 38.7259 26.2619 38.9256 26.2619 39.1717V40.3092H25.5703V39.9634C25.5703 39.7173 25.3706 39.5175 25.1244 39.5175C24.8783 39.5175 24.6786 39.7173 24.6786 39.9634V40.755C24.6786 41.0011 24.8784 41.2009 25.1245 41.2009H36.2078C36.4539 41.2009 36.6536 41.0011 36.6536 40.755V39.1717C36.6536 38.9256 36.4539 38.7259 36.2078 38.7259Z" fill="#266F9E" stroke="#266F9E" stroke-width="0.1"/>
<defs>
<filter id="filter0_dd" x="0.645264" y="0.429688" width="66" height="66" filterUnits="userSpaceOnUse" color-interpolation-filters="sRGB">
<feFlood flood-opacity="0" result="BackgroundImageFix"/>
<feColorMatrix in="SourceAlpha" type="matrix" values="0 0 0 0 0 0 0 0 0 0 0 0 0 0 0 0 0 0 127 0"/>
<feOffset dx="-4" dy="-4"/>
<feGaussianBlur stdDeviation="4"/>
<feColorMatrix type="matrix" values="0 0 0 0 1 0 0 0 0 1 0 0 0 0 1 0 0 0 0.5 0"/>
<feBlend mode="normal" in2="BackgroundImageFix" result="effect1_dropShadow"/>
<feColorMatrix in="SourceAlpha" type="matrix" values="0 0 0 0 0 0 0 0 0 0 0 0 0 0 0 0 0 0 127 0"/>
<feOffset dx="4" dy="4"/>
<feGaussianBlur stdDeviation="4"/>
<feColorMatrix type="matrix" values="0 0 0 0 0.659722 0 0 0 0 0.665 0 0 0 0 0.791667 0 0 0 0.25 0"/>
<feBlend mode="normal" in2="effect1_dropShadow" result="effect2_dropShadow"/>
<feBlend mode="normal" in="SourceGraphic" in2="effect2_dropShadow" result="shape"/>
</filter>
</defs>
</svg>
