<svg width="67" height="67" viewBox="0 0 67 67" fill="none" xmlns="http://www.w3.org/2000/svg">
<g filter="url(#filter0_dd)">
<rect x="12.6453" y="12.4297" width="42" height="42" rx="10" fill="#F8F8FE"/>
</g>
<g clip-path="url(#clip0)">
<path d="M37.8519 41.6901L37.8369 41.6876C37.6136 41.6502 37.4021 41.801 37.3647 42.0244C37.3609 42.0474 37.359 42.0701 37.359 42.0926C37.359 42.2894 37.501 42.4631 37.7016 42.4967L37.7166 42.4992C37.7395 42.503 37.7623 42.5049 37.7848 42.5049C37.9815 42.5049 38.1552 42.3628 38.1888 42.1623C38.1927 42.1394 38.1945 42.1166 38.1945 42.0941C38.1945 41.8974 38.0524 41.7236 37.8519 41.6901Z" fill="#266F9E"/>
<path d="M29.926 42.0245C29.8886 41.8011 29.6772 41.6501 29.4538 41.6876L29.4388 41.6901C29.2382 41.7236 29.0962 41.8973 29.0962 42.0941C29.0962 42.1166 29.098 42.1393 29.1019 42.1623C29.1354 42.3628 29.3091 42.5049 29.5059 42.5049C29.5284 42.5049 29.5512 42.503 29.5741 42.4992L29.5891 42.4967C29.7896 42.4631 29.9317 42.2894 29.9317 42.0926C29.9317 42.0701 29.9298 42.0474 29.926 42.0245Z" fill="#266F9E"/>
<path d="M40.8619 36.5255C41.1073 36.5255 41.3507 36.4823 41.5911 36.3959C43.2434 35.8022 44.0892 33.3119 44.1244 33.2062C44.164 33.087 44.1469 32.9562 44.0779 32.8513C44.009 32.7464 43.8957 32.6788 43.7705 32.668C42.4976 32.5582 41.459 32.7654 40.6775 33.2846C40.7402 32.8684 40.7761 32.4685 40.7931 32.0933C40.7997 32.0933 40.8063 32.0933 40.8129 32.0933C41.382 32.0933 41.8712 31.9084 42.2709 31.5412C43.4588 30.4498 43.352 28.1069 43.3468 28.0076C43.3402 27.8784 43.2728 27.7598 43.1652 27.6879C43.0576 27.6159 42.9222 27.5991 42.8003 27.6422C41.6629 28.0453 40.9808 28.6092 40.5739 29.1677C40.5192 28.8867 40.4648 28.6607 40.4232 28.5022C40.7492 28.0271 40.8646 27.5217 40.7662 26.996C40.4869 25.5032 38.5074 24.4461 38.4232 24.4018C38.3117 24.343 38.1793 24.3389 38.0643 24.3905C37.9493 24.4421 37.8644 24.5437 37.8341 24.666C37.5338 25.8768 37.6299 26.8858 38.12 27.6648C38.6054 28.4364 39.3395 28.7452 39.6649 28.849C39.7683 29.2727 39.9251 30.0482 39.9718 31.0083C39.0725 29.9532 37.6868 29.3348 37.6694 29.3297C37.5583 29.2966 37.4385 29.312 37.3393 29.3721C37.2403 29.4323 37.1713 29.5316 37.1494 29.6454C36.868 31.1114 37.0442 32.3074 37.673 33.2004C38.3008 34.092 39.1966 34.4041 39.5686 34.4995C39.5405 34.5933 39.0469 35.8734 38.7847 36.3282C38.4482 34.6765 36.7061 33.2287 36.6238 33.1613C36.5259 33.0808 36.3962 33.0503 36.2726 33.0784C36.149 33.1065 36.0454 33.1902 35.9918 33.305C35.341 34.7012 35.2151 35.9475 35.6177 37.0092C35.9222 37.8122 36.4646 38.3247 36.8652 38.6128C36.314 39.0822 35.6915 39.506 34.9986 39.8834C35.1218 39.605 35.204 39.2964 35.204 38.9682C35.204 37.6861 33.9497 36.7014 33.8963 36.6602C33.7485 36.5459 33.5422 36.5459 33.3945 36.6602C33.3411 36.7014 32.0868 37.686 32.0868 38.9682C32.0868 39.2963 32.169 39.605 32.2922 39.8833C31.5993 39.5059 30.9767 39.0821 30.4255 38.6128C30.8261 38.3246 31.3685 37.8122 31.673 37.0091C32.0756 35.9473 31.9497 34.7011 31.2989 33.305C31.2454 33.1901 31.1417 33.1064 31.0181 33.0783C30.8945 33.0502 30.7649 33.0808 30.6669 33.1612C30.5847 33.2287 28.8425 34.6764 28.5061 36.3281C28.2439 35.8733 27.7502 34.5932 27.7221 34.4994C28.0941 34.404 28.9899 34.092 29.6178 33.2004C30.2465 32.3074 30.4227 31.1113 30.1413 29.6453C30.1194 29.5315 30.0504 29.4322 29.9514 29.372C29.8523 29.3119 29.7324 29.2965 29.6213 29.3296C29.604 29.3348 28.2183 29.9531 27.319 31.0082C27.3657 30.0481 27.5224 29.2726 27.6259 28.849C27.9513 28.745 28.6854 28.4363 29.1707 27.6648C29.6608 26.8857 29.757 25.8768 29.4567 24.6659C29.4264 24.5436 29.3414 24.442 29.2264 24.3904C29.1115 24.3388 28.9791 24.343 28.8676 24.4017C28.7835 24.446 26.8039 25.5032 26.5246 26.9959C26.4262 27.5217 26.5416 28.0271 26.8677 28.5021C26.826 28.6606 26.7716 28.8866 26.7169 29.1676C26.3101 28.6091 25.628 28.0452 24.4906 27.6422C24.3686 27.5989 24.2332 27.6158 24.1256 27.6878C24.018 27.7598 23.9507 27.8783 23.944 28.0076C23.9389 28.1068 23.832 30.4497 25.02 31.5411C25.4196 31.9083 25.9087 32.0933 26.4779 32.0933C26.4845 32.0933 26.4911 32.0932 26.4977 32.0932C26.5146 32.4684 26.5506 32.8683 26.6133 33.2845C25.8318 32.7653 24.7934 32.5581 23.5203 32.668C23.3951 32.6788 23.2818 32.7463 23.2128 32.8513C23.1438 32.9562 23.1267 33.087 23.1664 33.2062C23.2016 33.3119 24.0474 35.8021 25.6997 36.3959C25.9401 36.4823 26.1834 36.5254 26.4289 36.5254C26.7922 36.5254 27.1602 36.4309 27.5299 36.2423C27.6411 36.4661 28.1995 37.3835 28.3665 37.6095C27.4206 37.4743 26.1929 37.662 24.671 38.5861C24.5641 38.6511 24.4927 38.7612 24.477 38.8852C24.4613 39.0093 24.503 39.1337 24.5904 39.2232C24.6796 39.3146 26.7016 41.3617 28.6993 41.3617C28.7994 41.3617 28.8996 41.3566 28.9993 41.3458C29.8061 41.2585 30.4758 40.8262 30.9918 40.0604C31.4717 40.3764 31.9885 40.6671 32.542 40.9323C32.076 41.0861 31.5889 41.2254 31.0808 41.3501C30.8608 41.404 30.7262 41.6262 30.7802 41.8462C30.8261 42.0334 30.9937 42.1586 31.1782 42.1586C31.2106 42.1586 31.2435 42.1548 31.2763 42.1467C32.1201 41.9397 32.9101 41.6934 33.6455 41.4084C34.3809 41.6934 35.1709 41.9397 36.0146 42.1467C36.0475 42.1548 36.0804 42.1586 36.1127 42.1586C36.2972 42.1586 36.4648 42.0333 36.5107 41.8462C36.5647 41.6262 36.4302 41.4041 36.2102 41.3501C35.7021 41.2254 35.2149 41.086 34.749 40.9323C35.3024 40.6671 35.8193 40.3764 36.2991 40.0604C36.8152 40.8262 37.4849 41.2584 38.2916 41.3458C38.3915 41.3566 38.4914 41.3617 38.5917 41.3617C40.5892 41.3617 42.6113 39.3147 42.7006 39.2232C42.7879 39.1337 42.8296 39.0093 42.814 38.8852C42.7983 38.7612 42.7268 38.6511 42.62 38.5861C41.098 37.662 39.8704 37.4743 38.9244 37.6095C39.0913 37.3835 39.6498 36.4661 39.761 36.2423C40.1307 36.431 40.4985 36.5255 40.8619 36.5255ZM42.5181 28.6454C42.4693 29.3767 42.2775 30.4221 41.7149 30.938C41.4714 31.1613 41.1749 31.2719 40.8142 31.2728C40.7475 30.7283 40.8059 29.4697 42.5181 28.6454ZM40.7763 34.2561C41.3521 33.7711 42.1 33.4595 43.1258 33.4595C43.1315 33.4595 43.1371 33.4595 43.1428 33.4595C42.8037 34.2162 42.1516 35.3228 41.3137 35.6239C40.9347 35.7602 40.5453 35.7227 40.1284 35.5088C40.1394 35.4342 40.3894 34.5819 40.7763 34.2561ZM39.7683 28.0054C39.7652 28.007 39.7621 28.0087 39.759 28.0104C39.5036 27.9038 39.0955 27.6748 38.8144 27.2279C38.5199 26.7597 38.4219 26.1544 38.5215 25.4233C39.0878 25.8129 39.8327 26.4632 39.9601 27.1479C40.0146 27.441 39.9518 27.7235 39.7683 28.0054ZM26.4768 31.2728C26.116 31.2719 25.8195 31.1613 25.5759 30.938C25.0133 30.4221 24.8215 29.3767 24.7727 28.6454C26.4862 29.4704 26.5434 30.73 26.4768 31.2728ZM25.9782 35.6243C25.1428 35.3249 24.4892 34.2171 24.1488 33.4595C24.1542 33.4595 24.1596 33.4595 24.165 33.4595C25.1907 33.4595 25.9795 33.7265 26.5145 34.2561C26.7771 34.516 26.9384 34.801 27.0357 35.0473C27.0561 35.1081 27.1514 35.4342 27.1624 35.5088C26.7461 35.7225 26.3569 35.7601 25.9782 35.6243ZM27.3307 27.1479C27.4581 26.4633 28.2029 25.8129 28.7693 25.4233C28.8681 26.1491 28.7723 26.7511 28.4827 27.2179C28.2009 27.6721 27.7869 27.9039 27.5296 28.0111C27.5278 28.0101 27.5261 28.0091 27.5243 28.0082C27.3394 27.7253 27.276 27.442 27.3307 27.1479ZM27.4269 32.4762C27.603 31.5714 28.6926 30.7873 29.4197 30.3571C29.5237 31.3316 29.3678 32.1239 28.9542 32.7179C28.548 33.3012 27.9754 33.5593 27.6589 33.6633C27.5236 33.4497 27.3358 32.9443 27.4269 32.4762ZM28.9123 40.5301C27.6703 40.6647 26.2512 39.6014 25.5754 39.0169C26.7688 38.3943 27.8232 38.2811 28.7582 38.5412C29.514 38.7514 30.1667 39.5507 30.2536 39.6852C29.886 40.195 29.4455 40.472 28.9123 40.5301ZM29.8109 38.0379C29.7932 38.0211 29.2926 37.5363 29.2706 36.8878C29.2353 35.844 30.2075 34.7403 30.7754 34.1762C31.1327 35.14 31.1784 35.9893 30.9104 36.7066C30.6414 37.4265 30.1084 37.8485 29.8109 38.0379ZM33.6461 40.3978C33.353 40.1019 32.9071 39.5551 32.9071 38.9682C32.9071 38.377 33.3523 37.8323 33.6454 37.5378C33.9386 37.8325 34.3836 38.3771 34.3836 38.9682C34.3836 39.5588 33.9391 40.1031 33.6461 40.3978ZM36.3804 36.7067C36.1124 35.9894 36.1581 35.14 36.5153 34.1762C37.0833 34.7403 38.0351 35.8435 38.0202 36.8878C38.0146 37.277 37.8709 37.6219 37.5827 37.9338C37.5655 37.9519 37.5484 37.9699 37.531 37.9878C37.5144 38.0046 37.4974 38.0213 37.4799 38.0378C37.1817 37.8481 36.6491 37.426 36.3804 36.7067ZM41.7183 39.0184C40.9479 39.6845 39.5431 40.6564 38.3798 40.5302C37.846 40.4724 37.4051 40.1954 37.0372 39.6852C37.1241 39.5507 37.8701 38.7565 38.5327 38.5411C39.4563 38.2409 40.5237 38.3946 41.7183 39.0184ZM38.3437 32.7281C37.9248 32.1331 37.7665 31.3372 37.8711 30.357C38.5982 30.7872 39.6369 31.5828 39.8639 32.4762C39.955 32.8349 39.7667 33.4508 39.6309 33.6648C39.3176 33.5636 38.754 33.3108 38.3437 32.7281Z" fill="#266F9E"/>
</g>
<defs>
<filter id="filter0_dd" x="0.645264" y="0.429688" width="66" height="66" filterUnits="userSpaceOnUse" color-interpolation-filters="sRGB">
<feFlood flood-opacity="0" result="BackgroundImageFix"/>
<feColorMatrix in="SourceAlpha" type="matrix" values="0 0 0 0 0 0 0 0 0 0 0 0 0 0 0 0 0 0 127 0"/>
<feOffset dx="-4" dy="-4"/>
<feGaussianBlur stdDeviation="4"/>
<feColorMatrix type="matrix" values="0 0 0 0 1 0 0 0 0 1 0 0 0 0 1 0 0 0 0.5 0"/>
<feBlend mode="normal" in2="BackgroundImageFix" result="effect1_dropShadow"/>
<feColorMatrix in="SourceAlpha" type="matrix" values="0 0 0 0 0 0 0 0 0 0 0 0 0 0 0 0 0 0 127 0"/>
<feOffset dx="4" dy="4"/>
<feGaussianBlur stdDeviation="4"/>
<feColorMatrix type="matrix" values="0 0 0 0 0.659722 0 0 0 0 0.665 0 0 0 0 0.791667 0 0 0 0.25 0"/>
<feBlend mode="normal" in2="effect1_dropShadow" result="effect2_dropShadow"/>
<feBlend mode="normal" in="SourceGraphic" in2="effect2_dropShadow" result="shape"/>
</filter>
<clipPath id="clip0">
<rect x="23.1453" y="22.9297" width="21" height="21" fill="white"/>
</clipPath>
</defs>
</svg>
