<svg width="14" height="15" viewBox="0 0 14 15" fill="none" xmlns="http://www.w3.org/2000/svg">
<g clip-path="url(#clip0)">
<path d="M13.7282 11.2917L12.1762 10.2569L10.7965 9.33725C10.5302 9.16009 10.1724 9.21817 9.9758 9.47049L9.12205 10.568C8.93866 10.8062 8.60876 10.8746 8.34577 10.729C7.76647 10.4068 7.08144 10.1034 5.56995 8.58995C4.05846 7.07652 3.75312 6.39343 3.43087 5.81413C3.28527 5.55114 3.35371 5.22124 3.59187 5.03788L4.68941 4.18413C4.94171 3.98759 4.99981 3.62974 4.82265 3.36345L3.93126 2.02622L2.86823 0.431656C2.6873 0.160245 2.3251 0.0787612 2.04538 0.246513L0.819411 0.981997C0.48809 1.1772 0.244542 1.49242 0.139216 1.86229C-0.196042 3.08462 -0.263635 5.78104 4.05772 10.1024C8.37908 14.4238 11.0752 14.3559 12.2976 14.0207C12.6675 13.9154 12.9827 13.6718 13.1779 13.3405L13.9134 12.1145C14.0811 11.8348 13.9997 11.4726 13.7282 11.2917Z" fill="#7CB7DD"/>
</g>
<defs>
<clipPath id="clip0">
<rect y="0.159424" width="14" height="14" fill="white"/>
</clipPath>
</defs>
</svg>
