<svg width="67" height="67" viewBox="0 0 67 67" fill="none" xmlns="http://www.w3.org/2000/svg">
<g filter="url(#filter0_dd)">
<rect x="12.6453" y="12.4766" width="42" height="42" rx="10" fill="#F8F8FE"/>
</g>
<path d="M27.6493 39.7166C26.9239 39.7166 26.2946 39.6046 25.7613 39.3806C25.2279 39.1566 24.7906 38.8526 24.4493 38.4686C24.1079 38.0739 23.8519 37.6099 23.6813 37.0766C23.5213 36.5432 23.4413 35.9672 23.4413 35.3486V28.3886H24.9933V35.1726C24.9933 36.2819 25.2386 37.0872 25.7293 37.5886C26.2199 38.0899 26.8599 38.3406 27.6493 38.3406C28.0439 38.3406 28.4013 38.2819 28.7213 38.1646C29.0519 38.0366 29.3346 37.8446 29.5693 37.5886C29.8039 37.3326 29.9853 37.0072 30.1133 36.6126C30.2413 36.2072 30.3053 35.7272 30.3053 35.1726V28.3886H31.8573V35.3486C31.8573 35.9672 31.7719 36.5432 31.6013 37.0766C31.4413 37.6099 31.1853 38.0739 30.8333 38.4686C30.4919 38.8526 30.0546 39.1566 29.5213 39.3806C28.9986 39.6046 28.3746 39.7166 27.6493 39.7166ZM43.4969 28.3886C43.0916 29.5619 42.7022 30.6499 42.3289 31.6526C41.9662 32.6446 41.6089 33.5886 41.2569 34.4846C40.9049 35.3806 40.5529 36.2392 40.2009 37.0606C39.8596 37.8712 39.5076 38.6766 39.1449 39.4766H37.6889C37.3262 38.6766 36.9689 37.8712 36.6169 37.0606C36.2756 36.2392 35.9236 35.3806 35.5609 34.4846C35.2089 33.5886 34.8462 32.6446 34.4729 31.6526C34.0996 30.6499 33.7156 29.5619 33.3209 28.3886H35.0329C35.6089 30.0739 36.1742 31.6952 36.7289 33.2526C37.2836 34.8099 37.8542 36.2712 38.4409 37.6366C39.0276 36.2819 39.5982 34.8259 40.1529 33.2686C40.7076 31.7006 41.2676 30.0739 41.8329 28.3886H43.4969Z" fill="#266F9E"/>
<defs>
<filter id="filter0_dd" x="0.645264" y="0.476562" width="66" height="66" filterUnits="userSpaceOnUse" color-interpolation-filters="sRGB">
<feFlood flood-opacity="0" result="BackgroundImageFix"/>
<feColorMatrix in="SourceAlpha" type="matrix" values="0 0 0 0 0 0 0 0 0 0 0 0 0 0 0 0 0 0 127 0"/>
<feOffset dx="-4" dy="-4"/>
<feGaussianBlur stdDeviation="4"/>
<feColorMatrix type="matrix" values="0 0 0 0 1 0 0 0 0 1 0 0 0 0 1 0 0 0 0.5 0"/>
<feBlend mode="normal" in2="BackgroundImageFix" result="effect1_dropShadow"/>
<feColorMatrix in="SourceAlpha" type="matrix" values="0 0 0 0 0 0 0 0 0 0 0 0 0 0 0 0 0 0 127 0"/>
<feOffset dx="4" dy="4"/>
<feGaussianBlur stdDeviation="4"/>
<feColorMatrix type="matrix" values="0 0 0 0 0.659722 0 0 0 0 0.665 0 0 0 0 0.791667 0 0 0 0.25 0"/>
<feBlend mode="normal" in2="effect1_dropShadow" result="effect2_dropShadow"/>
<feBlend mode="normal" in="SourceGraphic" in2="effect2_dropShadow" result="shape"/>
</filter>
</defs>
</svg>
