<svg width="34" height="33" viewBox="0 0 34 33" fill="none" xmlns="http://www.w3.org/2000/svg">
<g clip-path="url(#clip0)">
<mask id="path-2-inside-1" fill="white">
<path d="M19.4914 13.7544C20.4485 13.7544 21.2243 14.5302 21.2243 15.4872C21.2243 16.4442 20.4485 17.22 19.4914 17.22C18.5343 17.22 17.7585 16.4442 17.7585 15.4872C17.7585 14.5302 18.5343 13.7544 19.4914 13.7544ZM16.8894 24.3434L18.2498 22.2758C16.4627 21.9953 14.8985 21.0351 13.8302 19.6692L15.8763 18.5774L14.7884 16.5391L12.7266 17.6393C12.4818 16.9279 12.3486 16.1651 12.3486 15.3717C12.3486 14.5964 12.4757 13.8503 12.7098 13.1529L14.7884 14.262L15.8763 12.2237L13.7985 11.115C14.8617 9.73488 16.428 8.76161 18.2206 8.47235V10.7508H20.5312V8.48494C22.3045 8.79124 23.8511 9.76775 24.8996 11.1437L22.9332 12.1929L24.0211 14.2312L25.9773 13.1873C26.087 13.5201 26.1726 13.8638 26.2315 14.2164H28.5665C28.4744 13.4764 28.2946 12.7634 28.0385 12.0875L30.5172 10.7649C30.6999 10.8304 30.8968 10.8664 31.1021 10.8664C32.0592 10.8664 32.835 10.0906 32.835 9.13353C32.835 8.1765 32.0592 7.40072 31.1021 7.40072C30.2827 7.40072 29.5966 7.96954 29.4161 8.73366L26.9571 10.0457C26.4677 9.34771 25.8851 8.71956 25.2271 8.17985L26.7276 5.74518C27.5107 5.5786 28.0983 4.88333 28.0983 4.05054C28.0983 3.09351 27.3224 2.31772 26.3653 2.31772C25.4082 2.31772 24.6324 3.09351 24.6324 4.05054C24.6324 4.24167 24.6638 4.42529 24.7209 4.59725L23.2733 6.94631C22.4214 6.54684 21.4992 6.27352 20.5312 6.14898V3.60902C20.8856 3.29174 21.1088 2.83093 21.1088 2.31778C21.1088 1.36074 20.333 0.584961 19.3759 0.584961C18.4188 0.584961 17.6429 1.36074 17.6429 2.31778C17.6429 2.83093 17.8661 3.29174 18.2206 3.60902V6.13957C17.3486 6.24446 16.5133 6.47002 15.7321 6.79983L14.4415 4.5783C14.4946 4.41189 14.5236 4.23462 14.5236 4.0506C14.5236 3.09356 13.7478 2.31778 12.7907 2.31778C11.8336 2.31778 11.0578 3.09356 11.0578 4.0506C11.0578 4.89096 11.656 5.59136 12.4499 5.74974L13.7321 7.95678C12.967 8.53658 12.2939 9.23167 11.7393 10.0162L9.33569 8.73366C9.15506 7.96954 8.46899 7.40072 7.64966 7.40072C6.69256 7.40072 5.91672 8.1765 5.91672 9.13353C5.91672 10.0906 6.69256 10.8664 7.64966 10.8664C7.85495 10.8664 8.05182 10.8304 8.23458 10.7649L10.6503 12.0539C10.3875 12.7398 10.2033 13.4642 10.1097 14.2165H7.6124C7.2951 13.8621 6.83425 13.6389 6.32107 13.6389C5.36397 13.6389 4.58813 14.4146 4.58813 15.3717C4.58813 16.3287 5.36397 17.1045 6.32107 17.1045C6.83425 17.1045 7.2951 16.8813 7.6124 16.5269H10.1097C10.2055 17.2967 10.3959 18.0375 10.6687 18.7375L8.21067 20.049C8.01849 19.9754 7.80996 19.9348 7.59189 19.9348C6.63479 19.9348 5.85896 20.7106 5.85896 21.6676C5.85896 22.6246 6.63479 23.4004 7.59189 23.4004C8.39869 23.4004 9.07668 22.8491 9.26967 22.1027L11.7691 20.769C12.2759 21.4774 12.8796 22.1121 13.5607 22.6534L12.0293 25.1017C11.2149 25.2436 10.5957 25.9534 10.5957 26.8083C10.5957 27.7653 11.3715 28.5411 12.3286 28.5411C13.2857 28.5411 14.0615 27.7653 14.0615 26.8083C14.0615 26.6392 14.0369 26.476 13.9917 26.3215L15.5338 23.856C15.9691 24.0518 16.4218 24.2156 16.8894 24.3434V24.3434ZM24.9213 30.1584H27.2319V27.848H24.9213V30.1584ZM24.9213 26.5131H27.2319V22.3607H24.9213V26.5131ZM33.7857 26.3016L33.7773 26.288L28.2035 17.8165C27.7409 17.0809 26.9472 16.6424 26.0766 16.6424C25.2059 16.6424 24.4122 17.0809 23.9496 17.8165L18.3845 26.2748L18.3674 26.3016C17.8864 27.0785 17.8657 28.0605 18.3135 28.8643C18.7581 29.6625 19.5975 30.1584 20.504 30.1584H22.6107V27.848H20.504C20.4298 27.848 20.3719 27.8116 20.332 27.74C20.3032 27.6882 20.2796 27.6097 20.3272 27.5258L25.8874 19.0749L25.9045 19.0481C25.9437 18.9849 26.0016 18.9528 26.0766 18.9528C26.1515 18.9528 26.2095 18.985 26.2486 19.0481L26.257 19.0617L31.8259 27.5257C31.8735 27.6097 31.85 27.6882 31.8211 27.7399C31.7812 27.8116 31.7233 27.8479 31.6491 27.8479H29.5424V30.1583H31.6491C32.5556 30.1583 33.3951 29.6625 33.8397 28.8642C34.2875 28.0605 34.2668 27.0785 33.7857 26.3016V26.3016Z"/>
</mask>
<path d="M19.4914 13.7544C20.4485 13.7544 21.2243 14.5302 21.2243 15.4872C21.2243 16.4442 20.4485 17.22 19.4914 17.22C18.5343 17.22 17.7585 16.4442 17.7585 15.4872C17.7585 14.5302 18.5343 13.7544 19.4914 13.7544ZM16.8894 24.3434L18.2498 22.2758C16.4627 21.9953 14.8985 21.0351 13.8302 19.6692L15.8763 18.5774L14.7884 16.5391L12.7266 17.6393C12.4818 16.9279 12.3486 16.1651 12.3486 15.3717C12.3486 14.5964 12.4757 13.8503 12.7098 13.1529L14.7884 14.262L15.8763 12.2237L13.7985 11.115C14.8617 9.73488 16.428 8.76161 18.2206 8.47235V10.7508H20.5312V8.48494C22.3045 8.79124 23.8511 9.76775 24.8996 11.1437L22.9332 12.1929L24.0211 14.2312L25.9773 13.1873C26.087 13.5201 26.1726 13.8638 26.2315 14.2164H28.5665C28.4744 13.4764 28.2946 12.7634 28.0385 12.0875L30.5172 10.7649C30.6999 10.8304 30.8968 10.8664 31.1021 10.8664C32.0592 10.8664 32.835 10.0906 32.835 9.13353C32.835 8.1765 32.0592 7.40072 31.1021 7.40072C30.2827 7.40072 29.5966 7.96954 29.4161 8.73366L26.9571 10.0457C26.4677 9.34771 25.8851 8.71956 25.2271 8.17985L26.7276 5.74518C27.5107 5.5786 28.0983 4.88333 28.0983 4.05054C28.0983 3.09351 27.3224 2.31772 26.3653 2.31772C25.4082 2.31772 24.6324 3.09351 24.6324 4.05054C24.6324 4.24167 24.6638 4.42529 24.7209 4.59725L23.2733 6.94631C22.4214 6.54684 21.4992 6.27352 20.5312 6.14898V3.60902C20.8856 3.29174 21.1088 2.83093 21.1088 2.31778C21.1088 1.36074 20.333 0.584961 19.3759 0.584961C18.4188 0.584961 17.6429 1.36074 17.6429 2.31778C17.6429 2.83093 17.8661 3.29174 18.2206 3.60902V6.13957C17.3486 6.24446 16.5133 6.47002 15.7321 6.79983L14.4415 4.5783C14.4946 4.41189 14.5236 4.23462 14.5236 4.0506C14.5236 3.09356 13.7478 2.31778 12.7907 2.31778C11.8336 2.31778 11.0578 3.09356 11.0578 4.0506C11.0578 4.89096 11.656 5.59136 12.4499 5.74974L13.7321 7.95678C12.967 8.53658 12.2939 9.23167 11.7393 10.0162L9.33569 8.73366C9.15506 7.96954 8.46899 7.40072 7.64966 7.40072C6.69256 7.40072 5.91672 8.1765 5.91672 9.13353C5.91672 10.0906 6.69256 10.8664 7.64966 10.8664C7.85495 10.8664 8.05182 10.8304 8.23458 10.7649L10.6503 12.0539C10.3875 12.7398 10.2033 13.4642 10.1097 14.2165H7.6124C7.2951 13.8621 6.83425 13.6389 6.32107 13.6389C5.36397 13.6389 4.58813 14.4146 4.58813 15.3717C4.58813 16.3287 5.36397 17.1045 6.32107 17.1045C6.83425 17.1045 7.2951 16.8813 7.6124 16.5269H10.1097C10.2055 17.2967 10.3959 18.0375 10.6687 18.7375L8.21067 20.049C8.01849 19.9754 7.80996 19.9348 7.59189 19.9348C6.63479 19.9348 5.85896 20.7106 5.85896 21.6676C5.85896 22.6246 6.63479 23.4004 7.59189 23.4004C8.39869 23.4004 9.07668 22.8491 9.26967 22.1027L11.7691 20.769C12.2759 21.4774 12.8796 22.1121 13.5607 22.6534L12.0293 25.1017C11.2149 25.2436 10.5957 25.9534 10.5957 26.8083C10.5957 27.7653 11.3715 28.5411 12.3286 28.5411C13.2857 28.5411 14.0615 27.7653 14.0615 26.8083C14.0615 26.6392 14.0369 26.476 13.9917 26.3215L15.5338 23.856C15.9691 24.0518 16.4218 24.2156 16.8894 24.3434V24.3434ZM24.9213 30.1584H27.2319V27.848H24.9213V30.1584ZM24.9213 26.5131H27.2319V22.3607H24.9213V26.5131ZM33.7857 26.3016L33.7773 26.288L28.2035 17.8165C27.7409 17.0809 26.9472 16.6424 26.0766 16.6424C25.2059 16.6424 24.4122 17.0809 23.9496 17.8165L18.3845 26.2748L18.3674 26.3016C17.8864 27.0785 17.8657 28.0605 18.3135 28.8643C18.7581 29.6625 19.5975 30.1584 20.504 30.1584H22.6107V27.848H20.504C20.4298 27.848 20.3719 27.8116 20.332 27.74C20.3032 27.6882 20.2796 27.6097 20.3272 27.5258L25.8874 19.0749L25.9045 19.0481C25.9437 18.9849 26.0016 18.9528 26.0766 18.9528C26.1515 18.9528 26.2095 18.985 26.2486 19.0481L26.257 19.0617L31.8259 27.5257C31.8735 27.6097 31.85 27.6882 31.8211 27.7399C31.7812 27.8116 31.7233 27.8479 31.6491 27.8479H29.5424V30.1583H31.6491C32.5556 30.1583 33.3951 29.6625 33.8397 28.8642C34.2875 28.0605 34.2668 27.0785 33.7857 26.3016V26.3016Z" fill="#266F9E" stroke="#F8F8FE" mask="url(#path-2-inside-1)"/>
</g>
<defs>
<clipPath id="clip0">
<rect x="0.484863" y="0.584961" width="33" height="32" fill="white"/>
</clipPath>
</defs>
</svg>
