<svg width="28" height="30" viewBox="0 0 28 30" fill="none" xmlns="http://www.w3.org/2000/svg">
<g clip-path="url(#clip0)">
<path d="M14 0.0429688C6.26155 0.0429688 0 6.52872 0 14.543C0 22.5578 6.2621 29.043 14 29.043C21.7384 29.043 28 22.5572 28 14.543C28 6.52815 21.7379 0.0429688 14 0.0429688ZM14 26.7773C7.4707 26.7773 2.1875 21.305 2.1875 14.543C2.1875 7.78047 7.47113 2.30859 14 2.30859C20.5293 2.30859 25.8125 7.78093 25.8125 14.543C25.8125 21.3055 20.5289 26.7773 14 26.7773Z" fill="#FFCA33"/>
<path d="M14 7.34262C13.3959 7.34262 12.9062 7.84978 12.9062 8.47543V15.7703C12.9062 16.396 13.3959 16.9032 14 16.9032C14.6041 16.9032 15.0938 16.396 15.0938 15.7703V8.47543C15.0938 7.84978 14.6041 7.34262 14 7.34262Z" fill="#FFCA33"/>
<path d="M14 21.3489C14.8155 21.3489 15.4766 20.6642 15.4766 19.8196C15.4766 18.975 14.8155 18.2903 14 18.2903C13.1845 18.2903 12.5234 18.975 12.5234 19.8196C12.5234 20.6642 13.1845 21.3489 14 21.3489Z" fill="#FFCA33"/>
</g>
<defs>
<clipPath id="clip0">
<rect y="0.0429688" width="28" height="29" fill="white"/>
</clipPath>
</defs>
</svg>
