<svg width="29" height="30" viewBox="0 0 29 30" fill="none" xmlns="http://www.w3.org/2000/svg">
<g clip-path="url(#clip0)">
<path d="M14.1118 0.236816C6.37337 0.236816 0.111816 6.72256 0.111816 14.7368C0.111816 22.7516 6.37392 29.2368 14.1118 29.2368C21.8503 29.2368 28.1118 22.7511 28.1118 14.7368C28.1118 6.722 21.8497 0.236816 14.1118 0.236816ZM14.1118 26.9712C7.58251 26.9712 2.29932 21.4989 2.29932 14.7368C2.29932 7.97432 7.58295 2.50244 14.1118 2.50244C20.6411 2.50244 25.9243 7.97478 25.9243 14.7368C25.9243 21.4993 20.6407 26.9712 14.1118 26.9712Z" fill="#FFCA33"/>
<path d="M14.1118 7.5365C13.5077 7.5365 13.0181 8.04366 13.0181 8.66931V15.9642C13.0181 16.5899 13.5077 17.097 14.1118 17.097C14.7159 17.097 15.2056 16.5899 15.2056 15.9642V8.66931C15.2056 8.04366 14.7159 7.5365 14.1118 7.5365Z" fill="#FFCA33"/>
<path d="M14.1118 21.5427C14.9273 21.5427 15.5884 20.858 15.5884 20.0134C15.5884 19.1688 14.9273 18.4841 14.1118 18.4841C13.2963 18.4841 12.6353 19.1688 12.6353 20.0134C12.6353 20.858 13.2963 21.5427 14.1118 21.5427Z" fill="#FFCA33"/>
</g>
<defs>
<clipPath id="clip0">
<rect x="0.111816" y="0.236816" width="28" height="29" fill="white"/>
</clipPath>
</defs>
</svg>
