<?xml version="1.0" standalone="no"?>
<!DOCTYPE svg PUBLIC "-//W3C//DTD SVG 20010904//EN"
 "http://www.w3.org/TR/2001/REC-SVG-20010904/DTD/svg10.dtd">
<svg version="1.0" xmlns="http://www.w3.org/2000/svg"
 width="864.000000pt" height="864.000000pt" viewBox="0 0 864.000000 864.000000"
 preserveAspectRatio="xMidYMid meet">
<metadata>
Created by potrace 1.11, written by Peter Selinger 2001-2013
</metadata>
<g transform="translate(0.000000,864.000000) scale(0.100000,-0.100000)"
fill="#000000" stroke="none">
<path d="M4199 8419 c-8 -5 -30 -15 -50 -24 -43 -19 -107 -79 -132 -122 -23
-41 -43 -111 -42 -143 2 -51 16 -120 26 -125 5 -4 7 -10 5 -14 -9 -14 70 -105
116 -133 58 -36 85 -43 168 -42 74 0 92 4 147 32 55 28 101 78 132 142 22 46
26 68 25 137 0 47 -5 87 -12 96 -7 7 -10 16 -7 19 3 3 -1 11 -10 18 -8 7 -15
18 -15 25 0 16 -79 89 -116 108 -16 8 -42 18 -59 22 -39 11 -158 13 -176 4z"/>
<path d="M4267 7604 c-1 -1 -16 -5 -32 -8 -17 -2 -30 -5 -30 -6 0 -1 -9 -3
-20 -5 -44 -9 -133 -64 -185 -115 -270 -271 -91 -731 293 -755 265 -16 491
208 473 470 -14 205 -152 365 -357 411 -27 6 -137 13 -142 8z"/>
<path d="M3005 6802 c-2 -3 -24 -7 -47 -9 -24 -3 -61 -12 -83 -20 -22 -8 -49
-17 -60 -20 -11 -4 -22 -9 -25 -13 -3 -3 -21 -16 -40 -28 -56 -33 -136 -124
-176 -197 -19 -37 -63 -159 -73 -205 -17 -80 -23 -171 -26 -385 -2 -115 -5
-232 -9 -260 -3 -27 -8 -72 -11 -100 -35 -332 -165 -706 -371 -1065 -49 -85
-60 -77 -20 12 13 29 33 78 46 108 13 30 29 69 36 85 7 17 20 53 29 80 10 28
22 61 28 75 5 14 11 30 12 35 2 6 12 47 24 92 19 74 28 151 14 113 -14 -35
-155 -152 -300 -249 -51 -33 -94 -61 -97 -61 -10 0 -272 -159 -295 -179 -13
-12 -27 -21 -30 -21 -14 0 -149 -141 -183 -190 -37 -57 -76 -137 -84 -174 -17
-79 -20 -107 -18 -158 6 -146 80 -289 218 -420 38 -38 73 -68 77 -68 3 0 19
-11 35 -25 16 -14 41 -31 57 -38 15 -6 27 -15 27 -19 0 -5 6 -8 14 -8 7 0 19
-7 26 -15 7 -8 16 -12 21 -9 5 3 9 1 9 -4 0 -4 16 -14 35 -22 19 -8 35 -17 35
-22 0 -4 7 -8 15 -8 8 0 15 -5 15 -12 0 -6 3 -9 6 -6 5 5 58 -24 89 -50 6 -4
17 -11 25 -14 13 -5 166 -111 195 -135 6 -5 33 -26 60 -48 75 -60 190 -168
260 -246 68 -75 165 -197 165 -207 0 -6 4 -12 8 -14 12 -4 147 -207 199 -298
11 -19 30 -52 42 -72 33 -56 18 -46 -31 20 -114 153 -241 305 -320 386 -48 49
-90 88 -92 85 -2 -2 2 -38 10 -79 21 -111 25 -170 29 -445 5 -365 17 -439 95
-600 77 -157 228 -271 390 -293 56 -8 165 -7 205 2 17 3 41 8 55 11 86 17 225
75 326 136 31 19 31 21 22 62 -5 23 -11 50 -13 60 -2 10 -7 27 -10 37 -3 10
-8 29 -10 42 -3 12 -21 66 -41 118 -75 193 -203 387 -399 604 -11 13 -54 60
-95 106 -41 46 -84 93 -95 106 -11 12 -40 45 -65 74 -25 29 -51 59 -57 66 -7
7 -13 17 -13 23 0 6 -4 11 -8 11 -5 0 -23 21 -42 48 -18 26 -48 67 -65 92 -29
41 -51 80 -120 205 -20 37 -75 168 -79 190 -2 6 -12 42 -23 80 -30 100 -35
123 -47 203 -3 18 -8 52 -11 75 -8 50 -20 320 -15 337 1 3 3 39 5 80 2 41 6
89 9 105 3 17 8 53 12 80 3 28 8 53 10 56 2 3 5 19 8 35 3 16 15 61 26 99 11
39 23 81 26 95 3 13 10 30 16 37 6 7 8 13 4 13 -4 0 3 18 14 40 11 22 18 40
15 40 -6 0 134 277 149 293 6 7 32 44 58 82 177 264 473 513 775 652 73 33
195 82 218 87 6 2 30 9 55 16 62 18 61 18 95 25 17 3 46 10 65 15 19 4 57 11
83 15 27 3 59 8 70 11 12 2 56 6 97 9 41 2 77 5 80 5 27 7 301 -8 351 -19 24
-5 62 -12 84 -15 22 -3 76 -14 120 -26 44 -12 87 -23 96 -25 8 -2 51 -17 95
-34 43 -17 85 -31 92 -31 6 0 12 -5 12 -12 0 -6 3 -9 6 -6 6 7 200 -91 261
-132 24 -17 48 -30 53 -30 4 0 10 -3 12 -7 2 -5 39 -35 83 -67 83 -61 289
-262 340 -331 17 -22 32 -42 36 -45 3 -3 36 -51 73 -108 64 -97 174 -313 191
-374 2 -5 4 -10 5 -13 1 -3 3 -8 5 -12 1 -5 7 -20 13 -36 7 -15 14 -38 17 -50
2 -12 16 -67 30 -122 14 -55 27 -118 30 -140 2 -22 4 -40 5 -40 4 0 9 -59 14
-152 3 -56 6 -105 7 -110 1 -4 1 -10 0 -13 -1 -3 -3 -59 -5 -125 -2 -66 -7
-131 -10 -145 -4 -14 -8 -43 -10 -65 -11 -100 -52 -258 -96 -366 -37 -90 -134
-276 -151 -289 -3 -3 -12 -16 -19 -30 -12 -22 -120 -169 -145 -196 -5 -6 -25
-29 -44 -52 -18 -23 -47 -57 -65 -75 -80 -86 -238 -264 -272 -306 -10 -13 -24
-28 -30 -35 -6 -6 -38 -49 -72 -96 -34 -47 -66 -90 -71 -96 -43 -53 -160 -298
-163 -341 -1 -7 -6 -13 -11 -13 -6 0 -8 -3 -4 -6 3 -4 0 -22 -8 -40 -8 -19
-11 -34 -8 -34 3 0 0 -6 -6 -13 -6 -8 -9 -16 -6 -18 2 -3 -2 -30 -9 -62 -10
-43 -11 -59 -2 -67 7 -5 57 -31 112 -58 209 -104 368 -128 562 -88 29 6 134
60 163 83 53 44 103 103 140 164 21 36 39 68 39 71 0 4 5 19 12 35 6 15 12 33
14 38 1 6 9 36 17 67 23 85 29 160 33 403 3 225 8 333 19 408 7 44 12 79 20
137 2 19 7 46 10 60 3 14 8 36 11 50 12 62 65 225 104 320 58 141 223 460 242
468 4 2 8 9 8 15 0 7 9 23 20 37 l20 25 -16 -40 c-8 -22 -26 -64 -40 -93 -13
-29 -24 -59 -24 -67 0 -8 -4 -15 -10 -15 -5 0 -9 -3 -8 -7 1 -5 -17 -57 -41
-118 -42 -109 -91 -265 -91 -291 0 -9 25 5 63 34 78 62 190 132 381 239 283
160 393 252 481 402 141 241 88 507 -144 716 -25 22 -52 47 -60 55 -17 16
-124 85 -186 120 -86 49 -103 59 -155 91 -59 36 -179 114 -195 127 -5 4 -35
25 -65 47 -146 106 -342 296 -437 423 -15 20 -31 39 -34 42 -24 20 -299 449
-299 467 0 5 69 -80 159 -196 61 -81 177 -218 207 -246 86 -82 107 -99 101
-82 -4 10 -12 48 -17 85 -6 37 -13 78 -16 92 -3 14 -7 149 -9 300 -4 261 -10
394 -20 410 -2 4 -7 22 -10 41 -19 115 -88 250 -170 335 -203 209 -500 210
-865 4 -49 -27 -94 -50 -99 -50 -5 0 -11 -3 -13 -7 -1 -5 -25 -19 -53 -33 -27
-14 -70 -37 -95 -51 -25 -14 -49 -26 -55 -27 -22 -4 -50 -15 -55 -21 -8 -10
-160 -69 -258 -101 -105 -34 -216 -63 -322 -84 -72 -14 -104 -19 -200 -31 -25
-4 -58 -8 -74 -11 -15 -3 -88 -7 -161 -9 -73 -2 -137 -5 -142 -6 -18 -3 -126
1 -122 5 2 2 31 7 64 11 33 4 71 8 85 10 14 2 45 6 70 9 25 3 62 9 83 12 20 3
47 7 60 9 12 2 42 6 66 9 24 4 47 9 52 12 4 2 27 7 51 10 24 4 50 10 59 15 9
4 27 10 40 13 13 2 42 11 64 19 l40 14 -57 12 c-31 7 -80 21 -110 32 -29 11
-66 25 -83 31 -41 15 -273 135 -365 190 -149 87 -354 169 -382 152 -4 -3 -8
-2 -8 3 0 4 -17 9 -38 10 -20 1 -59 3 -85 5 -26 2 -50 2 -52 0z m-975 -2392
c-6 -11 -13 -20 -16 -20 -2 0 0 9 6 20 6 11 13 20 16 20 2 0 0 -9 -6 -20z"/>
<path d="M800 6443 c0 -4 -13 -9 -30 -10 -52 -4 -128 -44 -171 -90 -41 -45
-82 -120 -73 -135 3 -4 1 -8 -4 -8 -11 0 -8 -127 5 -166 41 -122 152 -204 283
-210 211 -9 363 176 316 386 -11 47 -39 93 -83 137 -51 51 -107 79 -178 88
-28 4 -53 9 -57 12 -5 2 -8 1 -8 -4z"/>
<path d="M7800 6380 c-8 -5 -17 -7 -21 -4 -18 11 -122 -52 -164 -98 -148 -165
-74 -428 140 -498 47 -16 156 -16 185 0 11 6 20 8 20 5 0 -4 13 3 29 14 16 12
32 21 36 21 16 0 87 86 108 129 31 68 30 188 -3 256 -34 71 -108 138 -172 159
-64 20 -140 27 -158 16z"/>
<path d="M6848 6081 c-118 -38 -215 -118 -267 -218 -112 -221 -29 -486 189
-602 33 -18 60 -30 60 -26 0 3 12 -1 28 -8 15 -7 63 -15 107 -16 133 -4 249
44 339 139 49 51 98 140 111 200 12 55 14 147 3 193 -5 23 -11 47 -12 52 -6
32 -57 114 -102 163 -47 52 -93 82 -189 122 -50 21 -201 22 -267 1z"/>
<path d="M1511 6024 c-161 -42 -291 -180 -326 -345 -38 -180 53 -378 215 -471
56 -32 146 -62 165 -54 8 3 17 2 19 -3 14 -22 180 10 257 49 57 29 154 129
184 189 53 106 64 251 26 344 -6 16 -11 31 -11 35 0 14 -76 121 -106 150 -41
39 -112 80 -172 99 -63 21 -185 24 -251 7z"/>
<path d="M6899 3016 c-117 -33 -234 -128 -284 -231 -123 -251 1 -544 267 -626
61 -19 196 -28 218 -14 6 4 25 9 41 12 70 11 189 95 241 171 29 43 65 123 74
167 18 86 3 197 -39 283 -50 106 -151 191 -282 237 -38 14 -189 14 -236 1z"/>
<path d="M1571 2959 c-53 -10 -131 -41 -131 -51 0 -5 -7 -8 -15 -8 -32 0 -166
-155 -180 -210 -1 -3 -4 -12 -8 -20 -25 -61 -30 -167 -12 -255 13 -65 65 -153
124 -211 30 -29 61 -54 67 -54 7 0 14 -4 16 -8 5 -12 107 -53 147 -59 20 -3
59 -6 86 -6 305 1 522 307 418 592 -13 36 -30 72 -38 81 -8 9 -15 21 -15 26 0
15 -90 98 -136 127 -88 54 -215 76 -323 56z"/>
<path d="M691 2394 c-84 -30 -135 -76 -178 -158 -49 -96 -40 -212 24 -309 128
-192 432 -171 533 37 27 56 39 127 30 176 -4 22 -6 40 -3 40 12 0 -54 107 -86
139 -81 81 -215 112 -320 75z"/>
<path d="M7759 2352 c-121 -38 -184 -88 -226 -179 -23 -50 -32 -136 -21 -198
22 -122 162 -234 295 -237 65 -1 89 4 150 34 74 36 111 81 163 198 9 20 6 127
-5 165 -11 41 -51 103 -91 140 -29 28 -63 47 -129 71 -23 8 -115 12 -136 6z"/>
<path d="M3597 1278 c-6 -4 -14 -5 -18 -3 -9 6 -79 -63 -80 -80 -7 -73 5 -108
48 -141 l35 -26 726 0 c400 1 737 1 749 1 23 1 92 62 94 83 2 20 2 51 1 74 -3
29 -52 81 -87 90 -37 9 -1453 11 -1468 2z"/>
<path d="M3650 888 c-87 -52 -85 -174 3 -217 41 -20 59 -20 687 -18 521 2 649
5 665 15 37 25 57 62 58 107 1 48 -19 86 -60 112 -25 17 -73 18 -676 18 -600
1 -651 0 -677 -17z"/>
<path d="M3775 522 c-1 -2 2 -20 7 -40 5 -20 10 -43 10 -49 1 -7 5 -13 10 -13
4 0 8 -9 8 -20 0 -11 5 -20 10 -20 6 0 10 -7 10 -15 0 -9 31 -46 68 -84 67
-66 173 -131 242 -145 14 -3 43 -10 65 -15 48 -12 224 -7 282 8 23 6 66 21 95
34 29 13 58 25 63 28 17 6 57 41 113 97 56 55 111 156 115 208 l2 29 -548 0
c-302 0 -550 -1 -552 -3z"/>
</g>
</svg>
