<svg width="424" height="351" fill="none" xmlns="http://www.w3.org/2000/svg"><path d="M375.667 187.72a148.282 148.282 0 00-63.869-121.91l-84.411 121.91h148.28z" fill="#C6E6DA" stroke="#fff"/><path d="M311.798 65.81a148.274 148.274 0 00-62.483-24.74l-21.928 146.649 84.411-121.908z" fill="#A6CEE3" stroke="#fff"/><path d="M249.315 41.07a148.28 148.28 0 00-51.044 292.044l29.115-145.394 21.929-146.65z" fill="#79BFA5" stroke="#fff"/><path d="M198.271 333.113a148.268 148.268 0 00123.11-30.711 148.277 148.277 0 0054.287-114.683H227.387l-29.116 145.394z" fill="#F2CB56" stroke="#fff"/><path d="M358.732 118.906l28.868-15.123" stroke="#C9CF52"/><path d="M350.064 95h-.876v-8.4h.876l3.036 4.068 3.036-4.068H357V95h-.876v-7.056l-2.748 3.672h-.54l-2.772-3.672V95zm10.244 0h-.888v-8.4h.888V95zm6.387.144c-1.224 0-2.252-.408-3.084-1.224-.816-.816-1.224-1.856-1.224-3.12 0-1.256.408-2.292 1.224-3.108.824-.824 1.852-1.236 3.084-1.236.912 0 1.696.208 2.352.624v.912c-.736-.472-1.516-.708-2.34-.708-.96 0-1.772.336-2.436 1.008-.656.656-.984 1.492-.984 2.508 0 1.024.328 1.864.984 2.52.664.664 1.484.996 2.46.996s1.808-.28 2.496-.84v.924c-.688.496-1.532.744-2.532.744zM376.96 95h-5.94v-8.4h5.76v.804h-4.872v2.688h3.996v.804h-3.996v3.3h5.052V95zm1.94 0h-1.044l3.372-4.56-2.82-3.84h1.044l2.316 3.12 2.328-3.12h1.02l-2.82 3.828L385.668 95h-1.056l-2.856-3.852L378.9 95zm14.84-2.856h-3.372v-.804h3.372v.804zM404.361 95h-5.724v-.66l2.832-2.7c.624-.592 1.06-1.068 1.308-1.428.256-.376.384-.796.384-1.26 0-.496-.176-.896-.528-1.2-.352-.312-.812-.468-1.38-.468-.888 0-1.696.376-2.424 1.128v-.996a3.631 3.631 0 012.508-.96c.776 0 1.42.22 1.932.66.52.448.78 1.024.78 1.728 0 .56-.14 1.072-.42 1.536-.28.456-.76 1.004-1.44 1.644l-2.256 2.172h4.428V95zm1.455-4.2c0-1.232.316-2.26.948-3.084.64-.84 1.472-1.26 2.496-1.26 1.016 0 1.844.416 2.484 1.248.632.824.948 1.856.948 3.096s-.316 2.272-.948 3.096c-.64.832-1.468 1.248-2.484 1.248-1.024 0-1.856-.416-2.496-1.248-.632-.824-.948-1.856-.948-3.096zm6 0c0-1-.24-1.836-.72-2.508-.48-.672-1.092-1.008-1.836-1.008s-1.356.336-1.836 1.008c-.48.672-.72 1.508-.72 2.508s.236 1.84.708 2.52c.48.664 1.096.996 1.848.996s1.364-.332 1.836-.996c.48-.672.72-1.512.72-2.52zm4.572 4.2h-.756l4.92-8.4h.756l-4.92 8.4zm-.3-8.544c.584 0 1.068.196 1.452.588.384.384.576.86.576 1.428 0 .56-.192 1.04-.576 1.44-.384.392-.868.588-1.452.588-.576 0-1.056-.196-1.44-.588-.376-.4-.564-.88-.564-1.44 0-.56.188-1.036.564-1.428.384-.392.864-.588 1.44-.588zm1.308 2.016c0-.384-.124-.704-.372-.96a1.23 1.23 0 00-.936-.396 1.23 1.23 0 00-.936.396c-.24.256-.36.576-.36.96 0 .392.12.72.36.984.24.256.552.384.936.384s.696-.128.936-.384c.248-.264.372-.592.372-.984zm3.432 2.628c.592 0 1.072.196 1.44.588.384.4.576.88.576 1.44 0 .56-.192 1.04-.576 1.44-.368.384-.848.576-1.44.576-.576 0-1.056-.192-1.44-.576-.376-.4-.564-.88-.564-1.44 0-.56.188-1.04.564-1.44.384-.392.864-.588 1.44-.588zm-.936 3c.24.256.552.384.936.384s.696-.128.936-.384c.24-.248.36-.572.36-.972s-.124-.724-.372-.972a1.192 1.192 0 00-.924-.396c-.368 0-.68.132-.936.396-.24.248-.36.572-.36.972s.12.724.36.972z" fill="#333"/><path d="M281.975 49.854l11.997-30.3" stroke="#C9CF52"/><path d="M259.064 11h-.876V2.6h.876l3.036 4.068 3.036-4.068H266V11h-.876V3.944l-2.748 3.672h-.54l-2.772-3.672V11zm10.244 0h-.888V2.6h.888V11zm6.387.144c-1.224 0-2.252-.408-3.084-1.224-.816-.816-1.224-1.856-1.224-3.12 0-1.256.408-2.292 1.224-3.108.824-.824 1.852-1.236 3.084-1.236.912 0 1.696.208 2.352.624v.912c-.736-.472-1.516-.708-2.34-.708-.96 0-1.772.336-2.436 1.008-.656.656-.984 1.492-.984 2.508 0 1.024.328 1.864.984 2.52.664.664 1.484.996 2.46.996s1.808-.28 2.496-.84v.924c-.688.496-1.532.744-2.532.744zM285.96 11h-5.94V2.6h5.76v.804h-4.872v2.688h3.996v.804h-3.996v3.3h5.052V11zm1.94 0h-1.044l3.372-4.56-2.82-3.84h1.044l2.316 3.12 2.328-3.12h1.02l-2.82 3.828L294.668 11h-1.056l-2.856-3.852L287.9 11zm14.84-2.856h-3.372V7.34h3.372v.804zM310.277 11h-.876V3.56l-1.884 1.08v-.852l1.98-1.188h.78V11zm7.561 0h-5.724v-.66l2.832-2.7c.624-.592 1.06-1.068 1.308-1.428.256-.376.384-.796.384-1.26 0-.496-.176-.896-.528-1.2-.352-.312-.812-.468-1.38-.468-.888 0-1.696.376-2.424 1.128v-.996a3.631 3.631 0 012.508-.96c.776 0 1.42.22 1.932.66.52.448.78 1.024.78 1.728 0 .56-.14 1.072-.42 1.536-.28.456-.76 1.004-1.44 1.644l-2.256 2.172h4.428V11zm3.53 0h-.756l4.92-8.4h.756l-4.92 8.4zm-.3-8.544c.584 0 1.068.196 1.452.588.384.384.576.86.576 1.428 0 .56-.192 1.04-.576 1.44-.384.392-.868.588-1.452.588-.576 0-1.056-.196-1.44-.588-.376-.4-.564-.88-.564-1.44 0-.56.188-1.036.564-1.428.384-.392.864-.588 1.44-.588zm1.308 2.016c0-.384-.124-.704-.372-.96a1.23 1.23 0 00-.936-.396 1.23 1.23 0 00-.936.396c-.24.256-.36.576-.36.96 0 .392.12.72.36.984.24.256.552.384.936.384s.696-.128.936-.384c.248-.264.372-.592.372-.984zm3.432 2.628c.592 0 1.072.196 1.44.588.384.4.576.88.576 1.44 0 .56-.192 1.04-.576 1.44-.368.384-.848.576-1.44.576-.576 0-1.056-.192-1.44-.576-.376-.4-.564-.88-.564-1.44 0-.56.188-1.04.564-1.44.384-.392.864-.588 1.44-.588zm-.936 3c.24.256.552.384.936.384s.696-.128.936-.384c.24-.248.36-.572.36-.972s-.124-.724-.372-.972a1.192 1.192 0 00-.924-.396c-.368 0-.68.132-.936.396-.24.248-.36.572-.36.972s.12.724.36.972z" fill="#333"/><path d="M81.321 162.19l-32.102-5.611" stroke="#C9CF52"/><path d="M5.712 148h-.876v-8.4h.876l3.036 4.068 3.036-4.068h.864v8.4h-.876v-7.056l-2.748 3.672h-.54l-2.772-3.672V148zm10.244 0h-.888v-8.4h.888v8.4zm6.387.144c-1.224 0-2.252-.408-3.084-1.224-.816-.816-1.224-1.856-1.224-3.12 0-1.256.408-2.292 1.224-3.108.824-.824 1.852-1.236 3.084-1.236.912 0 1.696.208 2.352.624v.912c-.736-.472-1.516-.708-2.34-.708-.96 0-1.772.336-2.436 1.008-.656.656-.984 1.492-.984 2.508 0 1.024.328 1.864.984 2.52.664.664 1.484.996 2.46.996s1.808-.28 2.496-.84v.924c-.688.496-1.532.744-2.532.744zM32.608 148h-5.94v-8.4h5.76v.804h-4.871v2.688h3.995v.804h-3.995v3.3h5.052V148zm1.94 0h-1.044l3.372-4.56-2.82-3.84H35.1l2.316 3.12 2.328-3.12h1.02l-2.82 3.828L41.316 148H40.26l-2.856-3.852L34.548 148zm14.84-2.856h-3.372v-.804h3.372v.804zM59.566 148h-.864v-2.316H54.19v-.708l4.524-5.376h.852v5.28h1.392v.804h-1.392V148zm-.864-7.224l-3.48 4.104h3.48v-4.104zm7.906 2.796c.56.144 1 .404 1.32.78.32.376.48.828.48 1.356 0 .744-.304 1.336-.912 1.776-.608.44-1.368.66-2.28.66-.912 0-1.672-.22-2.28-.66-.608-.44-.912-1.032-.912-1.776 0-.528.16-.98.48-1.356.328-.376.772-.636 1.332-.78a2.36 2.36 0 01-1.02-.756 1.908 1.908 0 01-.372-1.164c0-.648.264-1.176.792-1.584.528-.408 1.188-.612 1.98-.612.8 0 1.464.204 1.992.612.528.408.792.936.792 1.584 0 .44-.124.828-.372 1.164a2.36 2.36 0 01-1.02.756zm-3.324-1.848c0 .448.184.808.552 1.08.368.272.828.408 1.38.408.56 0 1.024-.14 1.392-.42.368-.28.552-.636.552-1.068 0-.448-.188-.812-.564-1.092-.376-.28-.836-.42-1.38-.42-.544 0-1.004.14-1.38.42a1.29 1.29 0 00-.552 1.092zm.288 5.172c.448.328.996.492 1.644.492.648 0 1.196-.164 1.644-.492.448-.336.672-.748.672-1.236 0-.504-.22-.912-.66-1.224-.448-.312-1-.468-1.656-.468-.656 0-1.204.156-1.644.468-.44.312-.66.72-.66 1.224 0 .488.22.9.66 1.236zM71.966 148h-.756l4.92-8.4h.756l-4.92 8.4zm-.3-8.544c.584 0 1.068.196 1.452.588.384.384.576.86.576 1.428 0 .56-.192 1.04-.576 1.44-.384.392-.868.588-1.452.588-.576 0-1.056-.196-1.44-.588-.376-.4-.564-.88-.564-1.44 0-.56.188-1.036.564-1.428.384-.392.864-.588 1.44-.588zm1.308 2.016c0-.384-.124-.704-.372-.96a1.23 1.23 0 00-.936-.396 1.23 1.23 0 00-.936.396c-.24.256-.36.576-.36.96 0 .392.12.72.36.984.24.256.552.384.936.384s.696-.128.936-.384c.248-.264.372-.592.372-.984zm3.432 2.628c.592 0 1.072.196 1.44.588.384.4.576.88.576 1.44 0 .56-.192 1.04-.576 1.44-.368.384-.848.576-1.44.576-.576 0-1.056-.192-1.44-.576-.376-.4-.564-.88-.564-1.44 0-.56.188-1.04.564-1.44.384-.392.864-.588 1.44-.588zm-.936 3c.24.256.552.384.936.384s.696-.128.936-.384c.24-.248.36-.572.36-.972s-.124-.724-.372-.972a1.192 1.192 0 00-.924-.396c-.368 0-.68.132-.936.396-.24.248-.36.572-.36.972s.12.724.36.972z" fill="#333"/><path d="M321.381 302.402l20.658 25.205" stroke="#C9CF52"/><path d="M316.064 347h-.876v-8.4h.876l3.036 4.068 3.036-4.068H323v8.4h-.876v-7.056l-2.748 3.672h-.54l-2.772-3.672V347zm10.244 0h-.888v-8.4h.888v8.4zm6.387.144c-1.224 0-2.252-.408-3.084-1.224-.816-.816-1.224-1.856-1.224-3.12 0-1.256.408-2.292 1.224-3.108.824-.824 1.852-1.236 3.084-1.236.912 0 1.696.208 2.352.624v.912c-.736-.472-1.516-.708-2.34-.708-.96 0-1.772.336-2.436 1.008-.656.656-.984 1.492-.984 2.508 0 1.024.328 1.864.984 2.52.664.664 1.484.996 2.46.996s1.808-.28 2.496-.84v.924c-.688.496-1.532.744-2.532.744zM342.96 347h-5.94v-8.4h5.76v.804h-4.872v2.688h3.996v.804h-3.996v3.3h5.052V347zm1.94 0h-1.044l3.372-4.56-2.82-3.84h1.044l2.316 3.12 2.328-3.12h1.02l-2.82 3.828 3.372 4.572h-1.056l-2.856-3.852L344.9 347zm14.84-2.856h-3.372v-.804h3.372v.804zm7.309 3c-.984 0-1.8-.204-2.448-.612v-.924c.68.472 1.48.708 2.4.708.632 0 1.184-.176 1.656-.528.472-.36.708-.844.708-1.452 0-.576-.208-1.036-.624-1.38-.408-.352-.96-.528-1.656-.528-.336 0-.648.04-.936.12v-.612l2.592-2.532h-3.792v-.804h4.992v.66l-2.508 2.46a3.051 3.051 0 011.956.744c.576.48.864 1.104.864 1.872 0 .832-.308 1.508-.924 2.028-.616.52-1.376.78-2.28.78zm10.086-.144h-5.724v-.66l2.832-2.7c.624-.592 1.06-1.068 1.308-1.428.256-.376.384-.796.384-1.26 0-.496-.176-.896-.528-1.2-.352-.312-.812-.468-1.38-.468-.888 0-1.696.376-2.424 1.128v-.996a3.631 3.631 0 012.508-.96c.776 0 1.42.22 1.932.66.52.448.78 1.024.78 1.728 0 .56-.14 1.072-.42 1.536-.28.456-.76 1.004-1.44 1.644l-2.256 2.172h4.428V347zm3.53 0h-.756l4.92-8.4h.756l-4.92 8.4zm-.3-8.544c.584 0 1.068.196 1.452.588.384.384.576.86.576 1.428 0 .56-.192 1.04-.576 1.44-.384.392-.868.588-1.452.588-.576 0-1.056-.196-1.44-.588-.376-.4-.564-.88-.564-1.44 0-.56.188-1.036.564-1.428.384-.392.864-.588 1.44-.588zm1.308 2.016c0-.384-.124-.704-.372-.96a1.23 1.23 0 00-.936-.396 1.23 1.23 0 00-.936.396c-.24.256-.36.576-.36.96 0 .392.12.72.36.984.24.256.552.384.936.384s.696-.128.936-.384c.248-.264.372-.592.372-.984zm3.432 2.628c.592 0 1.072.196 1.44.588.384.4.576.88.576 1.44 0 .56-.192 1.04-.576 1.44-.368.384-.848.576-1.44.576-.576 0-1.056-.192-1.44-.576-.376-.4-.564-.88-.564-1.44 0-.56.188-1.04.564-1.44.384-.392.864-.588 1.44-.588zm-.936 3c.24.256.552.384.936.384s.696-.128.936-.384c.24-.248.36-.572.36-.972s-.124-.724-.372-.972a1.192 1.192 0 00-.924-.396c-.368 0-.68.132-.936.396-.24.248-.36.572-.36.972s.12.724.36.972z" fill="#333"/></svg>