<svg width="79" height="36" fill="none" xmlns="http://www.w3.org/2000/svg"><path d="M47.833 5.9L44.856 15h-2.262l-2.002-6.162L38.525 15h-2.249l-2.99-9.1h2.184l2.054 6.396L39.669 5.9h1.95l2.08 6.448L45.818 5.9h2.015zm5.468 9.256c-.944 0-1.798-.204-2.56-.611a4.609 4.609 0 01-1.782-1.677c-.424-.72-.637-1.525-.637-2.418 0-.893.213-1.694.637-2.405a4.579 4.579 0 011.781-1.69c.763-.407 1.617-.611 2.561-.611.945 0 1.794.204 2.548.611.754.407 1.348.97 1.781 1.69.434.71.65 1.512.65 2.405 0 .893-.216 1.699-.65 2.418a4.608 4.608 0 01-1.78 1.677c-.755.407-1.604.611-2.549.611zm0-1.794c.538 0 1.023-.121 1.456-.364a2.658 2.658 0 001.014-1.04c.252-.442.377-.945.377-1.508 0-.563-.125-1.066-.377-1.508a2.569 2.569 0 00-1.014-1.027 2.848 2.848 0 00-1.456-.377c-.537 0-1.022.126-1.456.377a2.659 2.659 0 00-1.027 1.027 3.082 3.082 0 00-.364 1.508c0 .563.122 1.066.364 1.508.252.442.594.789 1.027 1.04.434.243.92.364 1.456.364zM65.661 15l-1.755-2.535H61.97V15h-2.106V5.9h3.94c.805 0 1.503.134 2.092.403.598.269 1.058.65 1.378 1.144.32.494.481 1.079.481 1.755 0 .676-.165 1.261-.494 1.755-.32.485-.78.858-1.378 1.118L67.923 15h-2.262zm-.039-5.798c0-.511-.165-.901-.494-1.17-.33-.277-.81-.416-1.443-.416H61.97v3.172h1.716c.633 0 1.114-.139 1.443-.416.33-.277.494-.667.494-1.17zm7.116 2.223l-1.222 1.274V15h-2.093V5.9h2.093v4.251l4.03-4.251h2.34l-3.77 4.056L78.106 15H75.65l-2.912-3.575z" fill="#F0BC5E"/><path d="M1.128 30h4.224l.528-7.728c.096-1.296 0-2.88 0-2.88h.048s.576 1.8.96 2.88l1.8 4.968h3.6l1.8-4.968c.384-1.08.96-2.88.96-2.88h.048s-.096 1.584 0 2.88L15.624 30h4.2l-1.392-17.16h-4.56l-2.496 7.248c-.384 1.104-.864 2.832-.864 2.832h-.048s-.48-1.728-.864-2.832L7.104 12.84h-4.56L1.128 30zm20.334-6.144c0 3.864 3.12 6.432 7.008 6.432s7.008-2.568 7.008-6.432c0-3.888-3.12-6.504-7.032-6.504-3.864 0-6.984 2.616-6.984 6.504zm4.2 0c0-1.872 1.296-3.048 2.808-3.048 1.512 0 2.808 1.176 2.808 3.048 0 1.848-1.296 2.976-2.808 2.976-1.512 0-2.808-1.128-2.808-2.976zM37.556 30h4.152v-5.592c0-1.752.84-3.288 2.688-3.288.912 0 1.368.48 1.368 1.632V30h4.152v-8.016c0-3.48-1.944-4.632-4.44-4.632-2.184 0-3.36 1.176-3.936 2.136h-.048s.048-.36.048-.768v-1.08h-3.984V30zm14.328-6.192c0 3.288 2.376 6.48 6.791 6.48 1.897 0 3.937-.648 5.28-1.8l-1.535-2.904c-1.009.672-2.184 1.248-3.409 1.248-1.32 0-2.568-.696-2.88-2.208h7.8c.049-.432.097-.864.097-1.296 0-3.432-2.065-5.976-5.713-5.976-3.983 0-6.431 2.832-6.431 6.456zm4.343-1.56c.217-.984.793-1.848 1.992-1.848 1.056 0 1.704.84 1.704 1.848h-3.696zm9.808 8.88l-1.32 3.048s1.248.864 2.88.864c1.968 0 4.128-.96 5.16-3.72l5.064-13.68h-4.536l-1.56 5.76c-.168.672-.408 1.848-.408 1.848h-.048s-.24-1.248-.456-1.92l-1.824-5.688h-4.704l5.256 12.12-.24.576c-.432 1.056-1.32 1.248-1.992 1.248-.6 0-1.272-.456-1.272-.456z" fill="#79BFA5"/></svg>