<svg width="75" height="75" fill="none" xmlns="http://www.w3.org/2000/svg"><rect width="75" height="75" rx="37.5" fill="#fff"/><circle cx="62.5" cy="13.5" r="5.5" fill="#FE5959"/><path d="M58.611 33.083H57V33H39v8h11.303c-1.649 4.657-6.08 8-11.303 8-6.627 0-12-5.373-12-12s5.373-12 12-12c3.059 0 5.842 1.154 7.961 3.039l5.657-5.657C49.046 19.053 44.268 17 39 17c-11.045 0-20 8.955-20 20s8.955 20 20 20 20-8.955 20-20c0-1.341-.138-2.65-.389-3.917z" fill="#FFC107"/><path d="M21.307 27.691l6.57 4.819c1.78-4.402 6.086-7.51 11.125-7.51 3.059 0 5.842 1.154 7.96 3.039l5.658-5.657C49.047 19.053 44.269 17 39 17c-7.682 0-14.344 4.337-17.694 10.691z" fill="#FF3D00"/><path d="M39 57c5.166 0 9.86-1.977 13.41-5.192l-6.19-5.238A11.91 11.91 0 0139 49c-5.202 0-9.619-3.317-11.283-7.946l-6.522 5.025C24.505 52.556 31.227 57 39 57z" fill="#4CAF50"/><path d="M58.611 33.083H57V33H39v8h11.303a12.04 12.04 0 01-4.087 5.571l.003-.002 6.19 5.238C51.971 52.205 59 47 59 37c0-1.341-.138-2.65-.389-3.917z" fill="#1976D2"/></svg>