<svg width="92" height="73" fill="none" xmlns="http://www.w3.org/2000/svg"><path d="M79.137 30.543h-2.47v-.126h-27.6v12.166h17.331a18.383 18.383 0 01-17.33 12.167c-10.162 0-18.4-8.172-18.4-18.25 0-10.079 8.238-18.25 18.4-18.25 4.69 0 8.957 1.755 12.206 4.622l8.674-8.604c-5.477-5.062-12.803-8.185-20.88-8.185C32.13 6.083 18.4 19.703 18.4 36.5c0 16.797 13.731 30.417 30.667 30.417S79.734 53.297 79.734 36.5c0-2.04-.212-4.03-.597-5.957z" fill="#FFC107"/><path d="M21.938 22.343l10.075 7.328A18.391 18.391 0 0149.068 18.25c4.69 0 8.958 1.755 12.207 4.622l8.674-8.604c-5.477-5.062-12.803-8.185-20.88-8.185a30.681 30.681 0 00-27.132 16.26z" fill="#FF3D00"/><path d="M49.067 66.916c7.92 0 15.118-3.006 20.56-7.896l-9.491-7.966a18.36 18.36 0 01-11.07 3.696 18.383 18.383 0 01-17.3-12.085l-10 7.642a30.67 30.67 0 0027.3 16.61z" fill="#4CAF50"/><path d="M79.137 30.543h-2.47v-.126h-27.6v12.166h17.33a18.322 18.322 0 01-6.266 8.473l.005-.003 9.49 7.966c-.67.605 10.107-7.31 10.107-22.519 0-2.04-.212-4.03-.596-5.957z" fill="#1976D2"/></svg>