<svg width="70" height="70" fill="none" xmlns="http://www.w3.org/2000/svg"><path d="M35 32.841c6.22 0 11.26-5.041 11.26-11.26 0-6.219-5.04-11.26-11.26-11.26-6.218 0-11.26 5.041-11.26 11.26 0 6.219 5.042 11.26 11.26 11.26z" fill="#FFD071"/><path d="M69.906 67.748h-2.252V70h2.252v-2.252zm-67.56 0H.094V70h2.252v-2.252zm8.127-18.016h14.392V47.48H12.232l-.724-2.895 2.581-1.787.676 2.703 2.184-.546-.882-3.527 8.122-5.622c1.644 7.666 4.003 12.934 4.155 13.267l.3.659h12.71l.3-.66c.152-.334 2.51-5.601 4.155-13.267l8.122 5.622-.882 3.527 2.185.546.675-2.703 2.581 1.787-.724 2.896H45.133v2.252h14.392l1.528-6.114-14.768-10.223c.649-3.592 1.1-7.601 1.1-11.814C47.385 7.593 36.061.636 35.58.348L34.999 0l-.58.348c-.482.288-11.806 7.245-11.806 21.233 0 4.213.451 8.222 1.1 11.814L8.945 43.618l1.528 6.114zM35 2.669c2.233 1.583 10.134 7.963 10.134 18.912 0 8.615-2.01 16.493-3.608 21.395h-2.022v2.252h1.249a56.746 56.746 0 01-.867 2.252h-9.773a56.746 56.746 0 01-.867-2.252h8.006v-2.252h-8.778c-1.597-4.902-3.608-12.78-3.608-21.395 0-10.95 7.901-17.33 10.134-18.912z" fill="#000"/><path d="M35 22.707c.62 0 1.125.506 1.125 1.126 0 .62-.505 1.126-1.126 1.126-.62 0-1.126-.505-1.126-1.126h-2.252c0 1.466.945 2.705 2.252 3.171v2.46h2.252v-2.46a3.373 3.373 0 002.252-3.17A3.382 3.382 0 0035 20.454c-.62 0-1.126-.505-1.126-1.126 0-.62.506-1.126 1.126-1.126.62 0 1.126.506 1.126 1.126h2.252a3.373 3.373 0 00-2.252-3.17v-2.46h-2.252v2.46a3.373 3.373 0 00-2.252 3.17A3.382 3.382 0 0035 22.707zm23.508 38.99a8.96 8.96 0 00-8.87-7.461c-2.948 0-5.562 1.43-7.206 3.626a6.731 6.731 0 00-2.928-1.28v-4.598h-2.252v6.756h1.126a4.48 4.48 0 012.923 1.105 8.939 8.939 0 00-.575 4.713l2.228-.326a6.763 6.763 0 016.684-7.745 6.71 6.71 0 016.366 4.542 7.868 7.868 0 00-5.975 1.957l1.498 1.682a5.616 5.616 0 013.741-1.424 5.64 5.64 0 015.517 4.504H9.215a5.64 5.64 0 015.517-4.504 5.6 5.6 0 013.917 1.586l1.568-1.618a7.843 7.843 0 00-6.22-2.183 6.708 6.708 0 016.365-4.541 6.747 6.747 0 015.636 3.055 6.683 6.683 0 00-1.132 3.7h2.252a4.509 4.509 0 014.504-4.503h1.126v-6.756h-2.252v4.597a6.703 6.703 0 00-2.916 1.277 9.006 9.006 0 00-7.218-3.622 8.959 8.959 0 00-8.87 7.46 7.891 7.891 0 00-4.552 6.052H4.598V70h60.805v-2.252H63.06a7.891 7.891 0 00-4.552-6.051z" fill="#000"/></svg>