<svg width="61" height="61" fill="none" xmlns="http://www.w3.org/2000/svg"><circle cx="30.5" cy="30.5" r="30.5" fill="#F3F3F3"/><path d="M16.375 26.625h2.25v5.625h-2.25v-5.625zm4.5 1.125h2.25v5.625h-2.25V27.75zm4.5-2.25h2.25v5.625h-2.25V25.5zm4.5 1.125h2.25v4.5h-2.25v-4.5zm4.5 2.25h2.25v4.5h-2.25v-4.5z" fill="#F0BC5E"/><path d="M43.375 24.938H42.25a.563.563 0 01-.563-.563h-1.124c0 .93.757 1.688 1.687 1.688v1.125h1.125v-1.125a1.69 1.69 0 001.688-1.688 1.69 1.69 0 00-1.688-1.688H42.25a.563.563 0 010-1.125h1.125c.31 0 .563.252.563.563h1.124a1.69 1.69 0 00-1.687-1.688v-1.125H42.25v1.125a1.69 1.69 0 00-1.688 1.688c0 .93.758 1.688 1.688 1.688h1.125a.563.563 0 010 1.125z" fill="#000"/><path d="M48.438 23.813v-.236a5.62 5.62 0 00-.855-2.981l-1.851-2.961.574-.862a2.63 2.63 0 00.444-1.465v-.103a2.645 2.645 0 00-2.642-2.643c-.838 0-1.54.561-1.77 1.325a1.84 1.84 0 00-.82-.2h-.786a1.86 1.86 0 00-1.545 2.889l.706 1.06-1.85 2.96c-.037.06-.063.123-.097.183a2.794 2.794 0 00-1.321-.341h-20.25a2.816 2.816 0 00-2.813 2.812v16.875a2.816 2.816 0 002.813 2.813h4.5v1.124c-1.24 0-2.25 1.01-2.25 2.25v1.126h15.75v-1.126c0-1.24-1.01-2.25-2.25-2.25v-1.124h4.5a2.79 2.79 0 001.141-.244 5.064 5.064 0 005.047 4.743 5.068 5.068 0 005.062-5.062v-2.25a5.068 5.068 0 00-4.5-5.03V34.5c0-.31.253-.563.563-.563h2.812a1.69 1.69 0 001.688-1.687 1.69 1.69 0 00-1.688-1.688h-2.813a.563.563 0 01-.562-.562v-.591a5.632 5.632 0 005.063-5.596zm-7.705-9h.785c.404 0 .732.328.732.732v.393h1.125V14.42c0-.404.328-.732.733-.732.836 0 1.517.68 1.517 1.517v.103c0 .3-.088.592-.255.842l-.608.913h-3.899l-.74-1.111a.733.733 0 01.61-1.14zm.141 3.374h3.877l1.878 3.005a4.49 4.49 0 01.684 2.385v.235c0 2.482-2.02 4.5-4.5 4.5a4.505 4.505 0 01-4.5-4.5v-.235c0-.845.236-1.67.683-2.385l1.878-3.005zm-24.499 3.375h20.25c.307 0 .603.086.862.24-.19.57-.3 1.167-.3 1.775v.235c0 1.261.422 2.422 1.126 3.36v10.14H14.686V23.25c0-.93.758-1.688 1.688-1.688zm16.875 24.75h-13.5c0-.62.505-1.124 1.125-1.124h11.25c.62 0 1.125.504 1.125 1.124zM31 44.063h-9v-1.124h9v1.124zm-14.625-2.25a1.69 1.69 0 01-1.688-1.687v-1.688h23.358a5.026 5.026 0 00-.295 1.688v1.245a1.682 1.682 0 01-1.125.443h-20.25zm26.438 4.5a3.942 3.942 0 01-3.938-3.937v-.563h7.875v.563a3.942 3.942 0 01-3.938 3.938zm3.937-6.187v.563h-7.875v-.563a3.94 3.94 0 012.25-3.552v1.302c0 .93.757 1.688 1.688 1.688a1.69 1.69 0 001.687-1.688v-1.302a3.94 3.94 0 012.25 3.552zm-3.938-3.938c.192 0 .379.02.563.046v1.642a.563.563 0 01-1.125 0v-1.642c.184-.027.371-.045.563-.045zm1.126-4.5h2.812a.563.563 0 010 1.125h-2.813A1.69 1.69 0 0042.25 34.5v.596a5.038 5.038 0 00-2.813 1.266v-8.06a5.588 5.588 0 002.813 1.107V30c0 .93.757 1.688 1.688 1.688z" fill="#000"/><path d="M24.25 40.688a.562.562 0 100-1.125.562.562 0 000 1.124zm2.25 0a.562.562 0 100-1.125.562.562 0 000 1.124zm2.25 0a.562.562 0 100-1.125.562.562 0 000 1.124zM16.938 23.813h1.125v2.812h-1.125v-2.813zm0 8.437h1.125v2.813h-1.125V32.25zm4.5-7.312h1.125v2.812h-1.125v-2.813zm0 8.437h1.125v2.813h-1.125v-2.813zm4.5-10.687h1.125V25.5h-1.125v-2.813zm0 8.437h1.125v2.813h-1.125v-2.813zm4.5-7.312h1.125v2.812h-1.125v-2.813zm0 7.312h1.125v2.813h-1.125v-2.813zm4.5-5.062h1.124v2.812h-1.124v-2.813zm0 7.312h1.124v2.813h-1.124v-2.813z" fill="#000"/></svg>