<svg width="61" height="61" fill="none" xmlns="http://www.w3.org/2000/svg"><circle cx="30.5" cy="30.5" r="30.5" fill="#F3F3F3"/><path d="M32.688 33.938h-3.376v-4.512a2.815 2.815 0 01-1.125-2.238A2.816 2.816 0 0131 24.375a2.816 2.816 0 012.813 2.813c0 .879-.425 1.71-1.126 2.238v4.512zm12.374-7.875h-3.375v-5.625h-2.14l3.827-6.124 3.827 6.124h-2.14v5.625zm-24.75 0h-3.375v-5.625h-2.14l3.827-6.124 3.827 6.124h-2.14v5.625z" fill="#F0BC5E"/><path d="M48.438 29.594l-3.847-1.282h-6.675c-.315-2.41-.708-4.97-.735-5.148l-.073-.477h-.676c-.124 0-.246-.011-.37-.018v-5.044A5.068 5.068 0 0031 12.562a5.068 5.068 0 00-5.063 5.063v5.044c-.123.007-.245.018-.37.018h-.675l-.073.477c-.027.179-.42 2.738-.735 5.148H17.41l-3.846 1.282v11.311l3.374-1.125v4.845a2.816 2.816 0 002.813 2.813h22.5a2.816 2.816 0 002.813-2.813V39.78l3.374 1.125v-11.31zM27.061 17.625A3.942 3.942 0 0131 13.687a3.942 3.942 0 013.938 3.938v4.902a7.047 7.047 0 01-1.126-.34v-4.562A2.816 2.816 0 0031 14.812a2.816 2.816 0 00-2.813 2.813v4.562c-.363.144-.74.258-1.125.34v-4.902zm5.625 3.993a7.162 7.162 0 01-1.29-1.016L31 20.205l-.398.397a7.162 7.162 0 01-1.29 1.016v-3.993c0-.93.758-1.688 1.688-1.688.93 0 1.688.758 1.688 1.688v3.993zm-6.828 2.19A8.178 8.178 0 0031 21.77a8.178 8.178 0 005.14 2.036c.248 1.64 1.047 7.062 1.047 8.443 0 .465-1.423 1.846-5.345 3.746a1.95 1.95 0 01-1.683 0c-3.923-1.9-5.346-3.281-5.346-3.746 0-1.381.8-6.803 1.046-8.443zm2.2 12.38h-8.872v1.124h23.625v-1.124H33.94c2.9-1.56 4.371-2.883 4.371-3.938 0-.535-.106-1.598-.254-2.813h5.88v9H18.061v-9h5.88c-.148 1.215-.255 2.277-.255 2.813 0 1.055 1.473 2.377 4.372 3.938zm-13.372 3.156v-8.938l2.25-.75v8.939l-2.25.75zm27.563 6.968h-22.5a1.69 1.69 0 01-1.688-1.687v-5.063h25.875v5.063a1.69 1.69 0 01-1.687 1.688zm5.063-6.968l-2.25-.75v-8.939l2.25.75v8.94z" fill="#000"/><path d="M20.313 41.813h-1.125v2.25c0 .62.504 1.124 1.125 1.124h3.375v-1.124h-3.375v-2.25zm6.75 2.25h1.125v1.124h-1.125v-1.124zm-2.25 0h1.125v1.124h-1.125v-1.124z" fill="#000"/></svg>