<svg width="1112" height="495" fill="none" xmlns="http://www.w3.org/2000/svg"><path d="M22.785 468.739H1086.21" stroke="#F0F0F0"/><ellipse cx="312.528" cy="456.927" rx="1.786" ry="1.89" fill="#A6CEE3"/><path d="M22.785 1v467.739M119.219 1v467.739M216.098 1v467.739M312.531 1v467.739M409.404 1v467.739M506.285 1v467.739M602.713 1v467.739M699.594 1v467.739M796.471 1v467.739M892.906 1v467.739M989.781 1v467.739M1086.66 1v467.739M22.785 439.446H1086.21M22.785 410.154H1086.21M22.785 380.861H1086.21M22.785 351.568H1086.21M22.785 322.275H1086.21M22.785 292.983H1086.21M22.785 263.69H1086.21M22.785 234.87H1086.21M22.785 205.577H1086.21M22.785 176.284H1086.21M22.785 146.991H1086.21M22.785 117.699H1086.21M22.785 88.406H1086.21M22.785 59.113H1086.21M22.785 29.82H1086.21M22.785 1H1086.21" stroke="#F0F0F0"/><path d="M22.785 310.464S71.001 88.406 119.217 88.406s48.216-17.481 96.878-17.481c48.216 0 48.216 386.002 96.432 386.002s48.216-70.397 96.878-70.397c48.216 0 48.216-333.087 96.432-333.087 48.662 0 48.662 222.058 96.878 222.058s48.216 111.029 96.432 111.029c48.662 0 48.662-52.443 96.878-52.443s48.216 29.293 96.432 29.293c48.663 0 48.663-321.748 96.878-321.748s96.875 321.748 96.875 321.748" stroke="#79BFA5" stroke-width="2"/><ellipse cx="22.786" cy="310.464" rx="1.786" ry="1.89" fill="#A6CEE3"/><ellipse cx="119.219" cy="88.406" rx="1.786" ry="1.89" fill="#A6CEE3"/><ellipse cx="216.094" cy="70.924" rx="1.786" ry="1.89" fill="#A6CEE3"/><ellipse cx="409.405" cy="386.53" rx="1.786" ry="1.89" fill="#A6CEE3"/><ellipse cx="505.839" cy="53.444" rx="1.786" ry="1.89" fill="#A6CEE3"/><ellipse cx="602.715" cy="275.502" rx="1.786" ry="1.89" fill="#A6CEE3"/><ellipse cx="699.149" cy="386.53" rx="1.786" ry="1.89" fill="#A6CEE3"/><ellipse cx="796.026" cy="334.087" rx="1.786" ry="1.89" fill="#A6CEE3"/><ellipse cx="892.458" cy="363.38" rx="1.786" ry="1.89" fill="#A6CEE3"/><ellipse cx="989.335" cy="41.632" rx="1.786" ry="1.89" fill="#A6CEE3"/><ellipse cx="1086.22" cy="363.38" rx="1.786" ry="1.89" fill="#A6CEE3"/><path d="M1.765 491H.733l2.712-3.864c-.624-.104-1.112-.356-1.464-.756-.344-.4-.516-.9-.516-1.5 0-.696.236-1.248.708-1.656.472-.416 1.116-.624 1.932-.624h3.768v8.4h-.888v-3.78H4.417L1.765 491zm2.4-4.584h2.82v-3.012h-2.82c-.576 0-1.024.132-1.344.396-.32.264-.48.636-.48 1.116 0 .48.16.852.48 1.116.32.256.768.384 1.344.384zM10.937 491h-.864v-5.796h.864v2.436H14.5v-2.436h.864V491H14.5v-2.58h-3.564V491zm9.724 0h-3.252v-5.796h3.048c.552 0 .98.136 1.284.408.312.264.468.62.468 1.068 0 .624-.24 1.048-.72 1.272.736.216 1.104.712 1.104 1.488 0 .488-.168.872-.504 1.152-.336.272-.812.408-1.428.408zm-2.388-2.616v1.86h2.208c.392 0 .696-.08.912-.24.216-.16.324-.388.324-.684 0-.296-.108-.524-.324-.684-.216-.168-.52-.252-.912-.252h-2.208zm0-2.424v1.704h1.944c.36 0 .64-.072.84-.216.2-.152.3-.364.3-.636 0-.568-.38-.852-1.14-.852h-1.944zm8.018 4.404c.4 0 .78-.092 1.14-.276a2.64 2.64 0 00.875-.696v-.804a3.404 3.404 0 00-1.884-.576c-.527 0-.948.104-1.26.312a.98.98 0 00-.456.852c0 .376.149.668.445.876.296.208.675.312 1.14.312zm-.24.78c-.616 0-1.14-.168-1.572-.504-.424-.352-.636-.824-.636-1.416 0-.584.224-1.052.672-1.404.447-.344 1.015-.516 1.703-.516a4.05 4.05 0 012.088.564v-.576c0-.968-.636-1.452-1.908-1.452-.68 0-1.311.196-1.895.588v-.84c.567-.352 1.26-.528 2.075-.528.793 0 1.42.188 1.884.564.473.368.709.896.709 1.584v2.388c0 .224.047.4.143.528a.5.5 0 00.409.192c.128 0 .24-.024.335-.072v.672c-.128.088-.32.132-.575.132a1.18 1.18 0 01-.733-.228c-.192-.16-.311-.392-.36-.696-.584.68-1.364 1.02-2.34 1.02zm6.273-1.068v3.324h-.864v-8.196h.864v.924c.544-.712 1.291-1.068 2.244-1.068.855 0 1.556.296 2.1.888.544.592.816 1.308.816 2.148 0 .848-.273 1.568-.817 2.16-.544.592-1.244.888-2.1.888-.952 0-1.7-.356-2.243-1.068zm0-2.928v1.908c.168.384.44.7.816.948.376.24.783.36 1.224.36.648 0 1.18-.216 1.596-.648.423-.448.636-.988.636-1.62 0-.632-.212-1.168-.636-1.608-.416-.432-.949-.648-1.596-.648a2.16 2.16 0 00-1.212.372c-.377.24-.653.552-.828.936zM42.016 491h-2.928v-5.796h.864v1.944h2.028c.672 0 1.208.176 1.608.528.4.344.6.808.6 1.392 0 .584-.192 1.052-.576 1.404-.384.352-.916.528-1.596.528zm-2.064-3.096v2.34h1.908c.456 0 .812-.1 1.068-.3.256-.208.384-.496.384-.864 0-.376-.128-.664-.384-.864-.256-.208-.612-.312-1.068-.312h-1.908zm58.257 3.348h-.888v-.864c-1.368-.024-2.408-.38-3.12-1.068-.704-.68-1.056-1.524-1.056-2.532 0-.992.352-1.84 1.056-2.544.704-.704 1.744-1.068 3.12-1.092v-.768h.888v.768c1.376.024 2.416.384 3.12 1.08.712.696 1.068 1.544 1.068 2.544 0 .992-.356 1.836-1.068 2.532-.704.696-1.744 1.056-3.12 1.08v.864zm-.888-1.668v-5.628c-1.096.008-1.916.284-2.46.828-.536.536-.804 1.2-.804 1.992 0 .784.268 1.444.804 1.98.544.544 1.364.82 2.46.828zm.888-5.628v5.628c.576-.008 1.08-.092 1.512-.252.44-.16.784-.372 1.032-.636.248-.272.432-.568.552-.888.12-.32.18-.664.18-1.032 0-.792-.268-1.456-.804-1.992-.544-.544-1.368-.82-2.472-.828zm8.833 7.188c-.904 0-1.664-.284-2.28-.852-.608-.56-.912-1.288-.912-2.184 0-.864.272-1.588.816-2.172.552-.584 1.26-.876 2.124-.876.464 0 .876.096 1.236.288.36.184.644.428.852.732.208.304.364.628.468.972.104.336.156.676.156 1.02v.24h-4.764c.048.624.296 1.124.744 1.5.456.368 1.032.552 1.728.552.672 0 1.292-.18 1.86-.54v.768c-.472.368-1.148.552-2.028.552zm-2.292-3.54h3.876a1.972 1.972 0 00-.504-1.212c-.296-.368-.752-.552-1.368-.552-.576 0-1.048.176-1.416.528-.36.36-.556.772-.588 1.236zm9.627 3.396h-3.252v-5.796h3.048c.552 0 .98.136 1.284.408.312.264.468.62.468 1.068 0 .624-.24 1.048-.72 1.272.736.216 1.104.712 1.104 1.488 0 .488-.168.872-.504 1.152-.336.272-.812.408-1.428.408zm-2.388-2.616v1.86h2.208c.392 0 .696-.08.912-.24.216-.16.324-.388.324-.684 0-.296-.108-.524-.324-.684-.216-.168-.52-.252-.912-.252h-2.208zm0-2.424v1.704h1.944c.36 0 .64-.072.84-.216.2-.152.3-.364.3-.636 0-.568-.38-.852-1.14-.852h-1.944zm6.926 4.116v3.324h-.864v-8.196h.864v.924c.544-.712 1.292-1.068 2.244-1.068.856 0 1.556.296 2.1.888.544.592.816 1.308.816 2.148 0 .848-.272 1.568-.816 2.16-.544.592-1.244.888-2.1.888-.952 0-1.7-.356-2.244-1.068zm0-2.928v1.908c.168.384.44.7.816.948.376.24.784.36 1.224.36.648 0 1.18-.216 1.596-.648.424-.448.636-.988.636-1.62 0-.632-.212-1.168-.636-1.608-.416-.432-.948-.648-1.596-.648a2.16 2.16 0 00-1.212.372c-.376.24-.652.552-.828.936zm8.721 3.216c.4 0 .78-.092 1.14-.276a2.64 2.64 0 00.876-.696v-.804a3.404 3.404 0 00-1.884-.576c-.528 0-.948.104-1.26.312a.98.98 0 00-.456.852c0 .376.148.668.444.876.296.208.676.312 1.14.312zm-.24.78c-.616 0-1.14-.168-1.572-.504-.424-.352-.636-.824-.636-1.416 0-.584.224-1.052.672-1.404.448-.344 1.016-.516 1.704-.516a4.05 4.05 0 012.088.564v-.576c0-.968-.636-1.452-1.908-1.452-.68 0-1.312.196-1.896.588v-.84c.568-.352 1.26-.528 2.076-.528.792 0 1.42.188 1.884.564.472.368.708.896.708 1.584v2.388c0 .224.048.4.144.528a.5.5 0 00.408.192c.128 0 .24-.024.336-.072v.672c-.128.088-.32.132-.576.132-.288 0-.532-.076-.732-.228-.192-.16-.312-.392-.36-.696-.584.68-1.364 1.02-2.34 1.02zm4.641-.144v-.792c.04.008.116.012.228.012.504 0 .848-.32 1.032-.96.152-.512.248-1.248.288-2.208l.048-1.848h4.332V491h-.864v-5.04h-2.64l-.036 1.116c-.016.432-.032.744-.048.936-.072.784-.188 1.36-.348 1.728-.144.384-.364.7-.66.948-.296.24-.656.348-1.08.324-.128 0-.212-.004-.252-.012zm10.891 0H140v-5.796h.864v1.944h2.028c.672 0 1.208.176 1.608.528.4.344.6.808.6 1.392 0 .584-.192 1.052-.576 1.404-.384.352-.916.528-1.596.528zm-2.064-3.096v2.34h1.908c.456 0 .812-.1 1.068-.3.256-.208.384-.496.384-.864 0-.376-.128-.664-.384-.864-.256-.208-.612-.312-1.068-.312h-1.908zM202.359 491h-.876v-8.4h.876l3.036 4.068 3.036-4.068h.864v8.4h-.876v-7.056l-2.748 3.672h-.54l-2.772-3.672V491zm11.084-.636c.4 0 .78-.092 1.14-.276a2.64 2.64 0 00.876-.696v-.804a3.404 3.404 0 00-1.884-.576c-.528 0-.948.104-1.26.312a.98.98 0 00-.456.852c0 .376.148.668.444.876.296.208.676.312 1.14.312zm-.24.78c-.616 0-1.14-.168-1.572-.504-.424-.352-.636-.824-.636-1.416 0-.584.224-1.052.672-1.404.448-.344 1.016-.516 1.704-.516a4.05 4.05 0 012.088.564v-.576c0-.968-.636-1.452-1.908-1.452-.68 0-1.312.196-1.896.588v-.84c.568-.352 1.26-.528 2.076-.528.792 0 1.42.188 1.884.564.472.368.708.896.708 1.584v2.388c0 .224.048.4.144.528a.5.5 0 00.408.192c.128 0 .24-.024.336-.072v.672c-.128.088-.32.132-.576.132-.288 0-.532-.076-.732-.228-.192-.16-.312-.392-.36-.696-.584.68-1.364 1.02-2.34 1.02zm6.273-1.068v3.324h-.864v-8.196h.864v.924c.544-.712 1.292-1.068 2.244-1.068.856 0 1.556.296 2.1.888.544.592.816 1.308.816 2.148 0 .848-.272 1.568-.816 2.16-.544.592-1.244.888-2.1.888-.952 0-1.7-.356-2.244-1.068zm0-2.928v1.908c.168.384.44.7.816.948.376.24.784.36 1.224.36.648 0 1.18-.216 1.596-.648.424-.448.636-.988.636-1.62 0-.632-.212-1.168-.636-1.608-.416-.432-.948-.648-1.596-.648a2.16 2.16 0 00-1.212.372c-.376.24-.652.552-.828.936zm8.821 3.852h-.864v-5.04h-2.1v-.756h5.064v.756h-2.1V491zm63.192 0h-.924l3.744-8.448h.828l3.756 8.448h-.936l-1.044-2.316h-4.404l-1.02 2.316zm3.228-7.332l-1.908 4.236h3.816l-1.908-4.236zm6.407 7.332h-.864v-5.796h5.208V491h-.864v-5.04h-3.48V491zm7.242-.924v3.324h-.864v-8.196h.864v.924c.544-.712 1.292-1.068 2.244-1.068.856 0 1.556.296 2.1.888.544.592.816 1.308.816 2.148 0 .848-.272 1.568-.816 2.16-.544.592-1.244.888-2.1.888-.952 0-1.7-.356-2.244-1.068zm0-2.928v1.908c.168.384.44.7.816.948.376.24.784.36 1.224.36.648 0 1.18-.216 1.596-.648.424-.448.636-.988.636-1.62 0-.632-.212-1.168-.636-1.608-.416-.432-.948-.648-1.596-.648a2.16 2.16 0 00-1.212.372c-.376.24-.652.552-.828.936zm9.537 3.996c-.904 0-1.664-.284-2.28-.852-.608-.56-.912-1.288-.912-2.184 0-.864.272-1.588.816-2.172.552-.584 1.26-.876 2.124-.876.464 0 .876.096 1.236.288.36.184.644.428.852.732.208.304.364.628.468.972.104.336.156.676.156 1.02v.24h-4.764c.048.624.296 1.124.744 1.5.456.368 1.032.552 1.728.552.672 0 1.292-.18 1.86-.54v.768c-.472.368-1.148.552-2.028.552zm-2.292-3.54h3.876a1.972 1.972 0 00-.504-1.212c-.296-.368-.752-.552-1.368-.552-.576 0-1.048.176-1.416.528-.36.36-.556.772-.588 1.236zm5.526 3.396v-.792c.04.008.116.012.228.012.504 0 .848-.32 1.032-.96.152-.512.248-1.248.288-2.208l.048-1.848h4.332V491h-.864v-5.04h-2.64l-.036 1.116c-.016.432-.032.744-.048.936-.072.784-.188 1.36-.348 1.728-.144.384-.364.7-.66.948-.296.24-.656.348-1.08.324-.128 0-.212-.004-.252-.012zm10.891 0H329.1v-5.796h.864v1.944h2.028c.672 0 1.208.176 1.608.528.4.344.6.808.6 1.392 0 .584-.192 1.052-.576 1.404-.384.352-.916.528-1.596.528zm-2.064-3.096v2.34h1.908c.456 0 .812-.1 1.068-.3.256-.208.384-.496.384-.864 0-.376-.128-.664-.384-.864-.256-.208-.612-.312-1.068-.312h-1.908zM398.207 491h-.876v-8.4h.876l3.036 4.068 3.036-4.068h.864v8.4h-.876v-7.056l-2.748 3.672h-.54l-2.772-3.672V491zm11.083-.636c.4 0 .78-.092 1.14-.276a2.64 2.64 0 00.876-.696v-.804a3.404 3.404 0 00-1.884-.576c-.528 0-.948.104-1.26.312a.98.98 0 00-.456.852c0 .376.148.668.444.876.296.208.676.312 1.14.312zm-.24.78c-.616 0-1.14-.168-1.572-.504-.424-.352-.636-.824-.636-1.416 0-.584.224-1.052.672-1.404.448-.344 1.016-.516 1.704-.516a4.05 4.05 0 012.088.564v-.576c0-.968-.636-1.452-1.908-1.452-.68 0-1.312.196-1.896.588v-.84c.568-.352 1.26-.528 2.076-.528.792 0 1.42.188 1.884.564.472.368.708.896.708 1.584v2.388c0 .224.048.4.144.528a.5.5 0 00.408.192c.128 0 .24-.024.336-.072v.672c-.128.088-.32.132-.576.132-.288 0-.532-.076-.732-.228-.192-.16-.312-.392-.36-.696-.584.68-1.364 1.02-2.34 1.02zm6.213-.144h-.804v-5.796h.864v4.524l3.708-4.524h.804V491h-.864v-4.512L415.263 491zm1.896-6.78c-.584 0-1.056-.164-1.416-.492-.36-.336-.544-.78-.552-1.332h.768c0 .336.108.608.324.816.216.208.504.312.864.312.352 0 .636-.104.852-.312.216-.208.328-.48.336-.816h.756c-.008.544-.192.984-.552 1.32-.36.336-.82.504-1.38.504zm73.808 6.78h-.744v-8.4h.876v6.912l5.22-6.912h.78v8.4h-.876v-6.936L490.967 491zm13.459.144c-.768 0-1.416-.252-1.944-.756s-.828-1.144-.9-1.92h-1.428V491h-.864v-5.796h.864v2.484h1.44c.072-.768.372-1.396.9-1.884.536-.496 1.18-.744 1.932-.744.848 0 1.54.292 2.076.876.552.592.828 1.316.828 2.172 0 .856-.276 1.576-.828 2.16-.536.584-1.228.876-2.076.876zm0-.78c.6 0 1.092-.216 1.476-.648.384-.432.576-.968.576-1.608 0-.648-.192-1.188-.576-1.62-.384-.432-.876-.648-1.476-.648-.592 0-1.08.216-1.464.648-.384.432-.576.972-.576 1.62 0 .64.192 1.176.576 1.608.384.432.872.648 1.464.648zm5.372.636h-.864v-5.796h.864v2.436h3.564v-2.436h.864V491h-.864v-2.58h-3.564V491zm9.4 0h-2.928v-5.796h.864v1.944h2.028c.672 0 1.208.176 1.608.528.4.344.6.808.6 1.392 0 .584-.192 1.052-.576 1.404-.384.352-.916.528-1.596.528zm-2.064-3.096v2.34h1.908c.456 0 .812-.1 1.068-.3.256-.208.384-.496.384-.864 0-.376-.128-.664-.384-.864-.256-.208-.612-.312-1.068-.312h-1.908zM588.125 491h-.744v-8.4h.876v6.912l5.22-6.912h.78v8.4h-.876v-6.936L588.125 491zm13.459.144c-.768 0-1.416-.252-1.944-.756s-.828-1.144-.9-1.92h-1.428V491h-.864v-5.796h.864v2.484h1.44c.072-.768.372-1.396.9-1.884.536-.496 1.18-.744 1.932-.744.848 0 1.54.292 2.076.876.552.592.828 1.316.828 2.172 0 .856-.276 1.576-.828 2.16-.536.584-1.228.876-2.076.876zm0-.78c.6 0 1.092-.216 1.476-.648.384-.432.576-.968.576-1.608 0-.648-.192-1.188-.576-1.62-.384-.432-.876-.648-1.476-.648-.592 0-1.08.216-1.464.648-.384.432-.576.972-.576 1.62 0 .64.192 1.176.576 1.608.384.432.872.648 1.464.648zm3.564.636v-.792c.04.008.116.012.228.012.504 0 .848-.32 1.032-.96.152-.512.248-1.248.288-2.208l.048-1.848h4.332V491h-.864v-5.04h-2.64l-.036 1.116c-.016.432-.032.744-.048.936-.072.784-.188 1.36-.348 1.728-.144.384-.364.7-.66.948-.296.24-.656.348-1.08.324-.128 0-.212-.004-.252-.012zm10.892 0h-2.928v-5.796h.864v1.944h2.028c.672 0 1.208.176 1.608.528.4.344.6.808.6 1.392 0 .584-.192 1.052-.576 1.404-.384.352-.916.528-1.596.528zm-2.064-3.096v2.34h1.908c.456 0 .812-.1 1.068-.3.256-.208.384-.496.384-.864 0-.376-.128-.664-.384-.864-.256-.208-.612-.312-1.068-.312h-1.908zM680.698 491h-.924l3.744-8.448h.828l3.756 8.448h-.936l-1.044-2.316h-4.404l-1.02 2.316zm3.228-7.332l-1.908 4.236h3.816l-1.908-4.236zm8.795 7.332h-3.252v-5.796h3.048c.552 0 .98.136 1.284.408.312.264.468.62.468 1.068 0 .624-.24 1.048-.72 1.272.736.216 1.104.712 1.104 1.488 0 .488-.168.872-.504 1.152-.336.272-.812.408-1.428.408zm-2.388-2.616v1.86h2.208c.392 0 .696-.08.912-.24.216-.16.324-.388.324-.684 0-.296-.108-.524-.324-.684-.216-.168-.52-.252-.912-.252h-2.208zm0-2.424v1.704h1.944c.36 0 .64-.072.84-.216.2-.152.3-.364.3-.636 0-.568-.38-.852-1.14-.852h-1.944zm6.926 5.04h-.864v-5.796h4.356v.756h-3.492V491zm5.273 2.448c-.416 0-.724-.056-.924-.168v-.804a1.7 1.7 0 00.792.192c.352 0 .656-.148.912-.444.256-.288.524-.768.804-1.44l-2.58-5.58h.96l2.052 4.56 1.992-4.56h.936l-2.868 6.444c-.52 1.2-1.212 1.8-2.076 1.8zm8.843-2.304c-.888 0-1.624-.288-2.208-.864-.584-.584-.876-1.312-.876-2.184 0-.864.296-1.584.888-2.16.584-.584 1.32-.876 2.208-.876.672 0 1.256.14 1.752.42v.804a3.253 3.253 0 00-1.632-.444c-.672 0-1.228.216-1.668.648-.44.416-.66.956-.66 1.62 0 .648.22 1.188.66 1.62.448.424 1.004.636 1.668.636.64 0 1.22-.168 1.74-.504v.792c-.544.328-1.168.492-1.872.492zm5.803-.144h-.864v-5.04h-2.1v-.756h5.064v.756h-2.1V491zm55.081.144c-1.224 0-2.252-.408-3.084-1.224-.816-.816-1.224-1.856-1.224-3.12 0-1.256.408-2.292 1.224-3.108.824-.824 1.852-1.236 3.084-1.236.912 0 1.696.208 2.352.624v.912c-.736-.472-1.516-.708-2.34-.708-.96 0-1.772.336-2.436 1.008-.656.656-.984 1.492-.984 2.508 0 1.024.328 1.864.984 2.52.664.664 1.484.996 2.46.996s1.808-.28 2.496-.84v.924c-.688.496-1.532.744-2.532.744zm6.929 0c-.904 0-1.664-.284-2.28-.852-.608-.56-.912-1.288-.912-2.184 0-.864.272-1.588.816-2.172.552-.584 1.26-.876 2.124-.876.464 0 .876.096 1.236.288.36.184.644.428.852.732.208.304.364.628.468.972.104.336.156.676.156 1.02v.24h-4.764c.048.624.296 1.124.744 1.5.456.368 1.032.552 1.728.552.672 0 1.292-.18 1.86-.54v.768c-.472.368-1.148.552-2.028.552zm-2.292-3.54h3.876a1.972 1.972 0 00-.504-1.212c-.296-.368-.752-.552-1.368-.552-.576 0-1.048.176-1.416.528-.36.36-.556.772-.588 1.236zm7.24 3.396h-.864v-5.796h.864v2.436h3.564v-2.436h.864V491h-.864v-2.58h-3.564V491zm8.728 0H792v-5.04h-2.1v-.756h5.064v.756h-2.1V491zm3.955 0h-.984l1.728-2.316c-.472-.08-.836-.268-1.092-.564-.248-.304-.372-.688-.372-1.152 0-.536.18-.964.54-1.284.368-.32.88-.48 1.536-.48h2.988V491h-.864v-2.16h-1.86l-1.62 2.16zm1.488-2.916h1.992v-2.124h-1.992c-.424 0-.752.092-.984.276-.224.184-.336.448-.336.792 0 .344.112.608.336.792.232.176.56.264.984.264zm7.731 3.06c-.992 0-1.764-.344-2.316-1.032-.552-.688-.828-1.624-.828-2.808 0-1.52.388-2.636 1.164-3.348.264-.264.724-.528 1.38-.792.288-.104.576-.192.864-.264.296-.08.612-.156.948-.228a19.539 19.539 0 011.068-.204v.804c-.824.16-1.46.292-1.908.396-.888.208-1.548.54-1.98.996-.448.472-.688 1.188-.72 2.148.24-.416.584-.744 1.032-.984.456-.24.968-.36 1.536-.36.76 0 1.396.256 1.908.768.512.504.768 1.152.768 1.944 0 .872-.28 1.584-.84 2.136-.56.552-1.252.828-2.076.828zm0-.78c.568 0 1.048-.196 1.44-.588.4-.4.6-.912.6-1.536 0-.6-.192-1.08-.576-1.44-.376-.368-.848-.552-1.416-.552-.52 0-.988.156-1.404.468a2.58 2.58 0 00-.9 1.08c.04.816.252 1.448.636 1.896.392.448.932.672 1.62.672zm5.391-.288v3.324h-.864v-8.196h.864v.924c.544-.712 1.292-1.068 2.244-1.068.856 0 1.556.296 2.1.888.544.592.816 1.308.816 2.148 0 .848-.272 1.568-.816 2.16-.544.592-1.244.888-2.1.888-.952 0-1.7-.356-2.244-1.068zm0-2.928v1.908c.168.384.44.7.816.948.376.24.784.36 1.224.36.648 0 1.18-.216 1.596-.648.424-.448.636-.988.636-1.62 0-.632-.212-1.168-.636-1.608-.416-.432-.948-.648-1.596-.648a2.16 2.16 0 00-1.212.372c-.376.24-.652.552-.828.936zm9.693 3.852h-2.928v-5.796h.864v1.944h2.028c.672 0 1.208.176 1.608.528.4.344.6.808.6 1.392 0 .584-.192 1.052-.576 1.404-.384.352-.916.528-1.596.528zm-2.064-3.096v2.34h1.908c.456 0 .812-.1 1.068-.3.256-.208.384-.496.384-.864 0-.376-.128-.664-.384-.864-.256-.208-.612-.312-1.068-.312h-1.908zm50.093-4.2c.808-.832 1.816-1.248 3.024-1.248 1.2 0 2.204.416 3.012 1.248.808.832 1.212 1.864 1.212 3.096 0 1.24-.404 2.276-1.212 3.108-.8.824-1.804 1.236-3.012 1.236-1.216 0-2.224-.412-3.024-1.236-.8-.824-1.2-1.86-1.2-3.108 0-1.24.4-2.272 1.2-3.096zm.66 5.604c.632.672 1.42 1.008 2.364 1.008s1.732-.336 2.364-1.008c.64-.68.96-1.516.96-2.508s-.32-1.828-.96-2.508c-.632-.672-1.42-1.008-2.364-1.008s-1.732.336-2.364 1.008c-.64.68-.96 1.516-.96 2.508s.32 1.828.96 2.508zm8.457-4.104h.864v2.388l2.76-2.388h1.176l-3.06 2.616L883.5 491h-1.236l-3.132-2.856V491h-.864v-5.796zm8.596 5.796H886v-5.04h-2.1v-.756h5.064v.756h-2.1V491zm3.955 0h-.984l1.728-2.316c-.472-.08-.836-.268-1.092-.564-.248-.304-.372-.688-.372-1.152 0-.536.18-.964.54-1.284.368-.32.88-.48 1.536-.48h2.988V491h-.864v-2.16h-1.86l-1.62 2.16zm1.488-2.916h1.992v-2.124h-1.992c-.424 0-.752.092-.984.276-.224.184-.336.448-.336.792 0 .344.112.608.336.792.232.176.56.264.984.264zm7.731 3.06c-.992 0-1.764-.344-2.316-1.032-.552-.688-.828-1.624-.828-2.808 0-1.52.388-2.636 1.164-3.348.264-.264.724-.528 1.38-.792.288-.104.576-.192.864-.264.296-.08.612-.156.948-.228a19.539 19.539 0 011.068-.204v.804c-.824.16-1.46.292-1.908.396-.888.208-1.548.54-1.98.996-.448.472-.688 1.188-.72 2.148.24-.416.584-.744 1.032-.984.456-.24.968-.36 1.536-.36.76 0 1.396.256 1.908.768.512.504.768 1.152.768 1.944 0 .872-.28 1.584-.84 2.136-.56.552-1.252.828-2.076.828zm0-.78c.568 0 1.048-.196 1.44-.588.4-.4.6-.912.6-1.536 0-.6-.192-1.08-.576-1.44-.376-.368-.848-.552-1.416-.552-.52 0-.988.156-1.404.468a2.58 2.58 0 00-.9 1.08c.04.816.252 1.448.636 1.896.392.448.932.672 1.62.672zm5.391-.288v3.324h-.864v-8.196h.864v.924c.544-.712 1.292-1.068 2.244-1.068.856 0 1.556.296 2.1.888.544.592.816 1.308.816 2.148 0 .848-.272 1.568-.816 2.16-.544.592-1.244.888-2.1.888-.952 0-1.7-.356-2.244-1.068zm0-2.928v1.908c.168.384.44.7.816.948.376.24.784.36 1.224.36.648 0 1.18-.216 1.596-.648.424-.448.636-.988.636-1.62 0-.632-.212-1.168-.636-1.608-.416-.432-.948-.648-1.596-.648a2.16 2.16 0 00-1.212.372c-.376.24-.652.552-.828.936zm9.693 3.852h-2.928v-5.796h.864v1.944h2.028c.672 0 1.208.176 1.608.528.4.344.6.808.6 1.392 0 .584-.192 1.052-.576 1.404-.384.352-.916.528-1.596.528zm-2.064-3.096v2.34h1.908c.456 0 .812-.1 1.068-.3.256-.208.384-.496.384-.864 0-.376-.128-.664-.384-.864-.256-.208-.612-.312-1.068-.312h-1.908zM969.476 491h-.888v-8.4h.888v3.492h4.992V482.6h.888v8.4h-.888v-4.104h-4.992V491zm8.529-5.04c.584-.6 1.336-.9 2.256-.9.92 0 1.672.3 2.256.9.584.584.876 1.3.876 2.148 0 .848-.292 1.564-.876 2.148-.592.592-1.344.888-2.256.888-.912 0-1.664-.296-2.256-.888-.584-.584-.876-1.3-.876-2.148 0-.848.292-1.564.876-2.148zm4.5 2.148c0-.64-.212-1.18-.636-1.62-.424-.432-.96-.648-1.608-.648-.648 0-1.184.216-1.608.648-.424.44-.636.98-.636 1.62 0 .632.212 1.168.636 1.608.424.432.96.648 1.608.648.648 0 1.184-.216 1.608-.648.424-.44.636-.976.636-1.608zM985.53 491h-.984l1.728-2.316c-.472-.08-.836-.268-1.092-.564-.248-.304-.372-.688-.372-1.152 0-.536.18-.964.54-1.284.368-.32.88-.48 1.536-.48h2.988V491h-.864v-2.16h-1.86l-1.62 2.16zm1.488-2.916h1.992v-2.124h-1.992c-.424 0-.752.092-.984.276-.224.184-.336.448-.336.792 0 .344.112.608.336.792.232.176.56.264.984.264zm7.73 3.06c-.992 0-1.764-.344-2.316-1.032-.552-.688-.828-1.624-.828-2.808 0-1.52.388-2.636 1.164-3.348.264-.264.724-.528 1.38-.792.288-.104.576-.192.864-.264.296-.08.612-.156.948-.228a19.539 19.539 0 011.068-.204v.804c-.824.16-1.46.292-1.908.396-.888.208-1.548.54-1.98.996-.448.472-.688 1.188-.72 2.148.24-.416.584-.744 1.032-.984.456-.24.968-.36 1.536-.36.76 0 1.396.256 1.908.768.512.504.768 1.152.768 1.944 0 .872-.28 1.584-.84 2.136-.56.552-1.252.828-2.076.828zm0-.78c.568 0 1.048-.196 1.44-.588.4-.4.6-.912.6-1.536 0-.6-.192-1.08-.576-1.44-.376-.368-.848-.552-1.416-.552-.52 0-.988.156-1.404.468a2.58 2.58 0 00-.9 1.08c.04.816.252 1.448.636 1.896.392.448.932.672 1.62.672zm5.392-.288v3.324h-.864v-8.196h.864v.924c.54-.712 1.29-1.068 2.24-1.068.86 0 1.56.296 2.1.888.55.592.82 1.308.82 2.148 0 .848-.27 1.568-.82 2.16-.54.592-1.24.888-2.1.888-.95 0-1.7-.356-2.24-1.068zm0-2.928v1.908c.17.384.44.7.82.948.37.24.78.36 1.22.36.65 0 1.18-.216 1.6-.648.42-.448.63-.988.63-1.62 0-.632-.21-1.168-.63-1.608-.42-.432-.95-.648-1.6-.648-.43 0-.84.124-1.21.372-.38.24-.65.552-.83.936zm9.69 3.852h-2.93v-5.796h.87v1.944h2.03c.67 0 1.2.176 1.6.528.4.344.6.808.6 1.392 0 .584-.19 1.052-.57 1.404-.39.352-.92.528-1.6.528zm-2.06-3.096v2.34h1.91c.45 0 .81-.1 1.06-.3.26-.208.39-.496.39-.864 0-.376-.13-.664-.39-.864-.25-.208-.61-.312-1.06-.312h-1.91zm53.62 4.968h-.83v-2.676h.79c.52-.728.89-1.58 1.12-2.556.23-.992.34-2.336.34-4.032V482.6h5.19v7.596h1.27v2.676h-.83V491h-7.05v1.872zm.96-2.676h4.76v-6.792h-3.42v.564c0 2.864-.45 4.94-1.34 6.228zm11.03.948c-.9 0-1.66-.284-2.28-.852-.61-.56-.91-1.288-.91-2.184 0-.864.27-1.588.81-2.172.56-.584 1.26-.876 2.13-.876.46 0 .87.096 1.23.288.36.184.65.428.86.732.2.304.36.628.46.972.11.336.16.676.16 1.02v.24h-4.76c.04.624.29 1.124.74 1.5.46.368 1.03.552 1.73.552.67 0 1.29-.18 1.86-.54v.768c-.47.368-1.15.552-2.03.552zm-2.29-3.54h3.87a1.956 1.956 0 00-.5-1.212c-.3-.368-.75-.552-1.37-.552-.57 0-1.05.176-1.41.528-.36.36-.56.772-.59 1.236zm6.37-2.4h.87v2.388l2.76-2.388h1.17l-3.06 2.616 3.5 3.18h-1.24l-3.13-2.856V491h-.87v-5.796zm8.33 5.16c.4 0 .78-.092 1.14-.276.36-.184.66-.416.88-.696v-.804a3.396 3.396 0 00-1.88-.576c-.53 0-.95.104-1.26.312a.97.97 0 00-.46.852c0 .376.15.668.44.876.3.208.68.312 1.14.312zm-.24.78c-.61 0-1.14-.168-1.57-.504-.42-.352-.63-.824-.63-1.416 0-.584.22-1.052.67-1.404.45-.344 1.01-.516 1.7-.516.75 0 1.45.188 2.09.564v-.576c0-.968-.64-1.452-1.91-1.452-.68 0-1.31.196-1.89.588v-.84c.56-.352 1.26-.528 2.07-.528.79 0 1.42.188 1.89.564.47.368.7.896.7 1.584v2.388c0 .224.05.4.15.528.1.128.24.192.41.192.12 0 .24-.024.33-.072v.672c-.13.088-.32.132-.57.132-.29 0-.54-.076-.74-.228-.19-.16-.31-.392-.36-.696-.58.68-1.36 1.02-2.34 1.02zm8.25 0c-1 0-1.77-.344-2.32-1.032-.55-.688-.83-1.624-.83-2.808 0-1.52.39-2.636 1.17-3.348.26-.264.72-.528 1.38-.792.28-.104.57-.192.86-.264.3-.08.61-.156.95-.228.1-.024.28-.06.53-.108s.43-.08.54-.096v.804c-.83.16-1.46.292-1.91.396-.89.208-1.55.54-1.98.996-.45.472-.69 1.188-.72 2.148.24-.416.58-.744 1.03-.984.46-.24.97-.36 1.54-.36.76 0 1.39.256 1.9.768.52.504.77 1.152.77 1.944 0 .872-.28 1.584-.84 2.136-.56.552-1.25.828-2.07.828zm0-.78c.56 0 1.04-.196 1.44-.588.4-.4.6-.912.6-1.536 0-.6-.2-1.08-.58-1.44-.38-.368-.85-.552-1.42-.552-.52 0-.98.156-1.4.468-.42.296-.72.656-.9 1.08.04.816.25 1.448.64 1.896.39.448.93.672 1.62.672zm5.39-.288v3.324h-.87v-8.196h.87v.924c.54-.712 1.29-1.068 2.24-1.068.86 0 1.56.296 2.1.888.54.592.82 1.308.82 2.148 0 .848-.28 1.568-.82 2.16-.54.592-1.24.888-2.1.888-.95 0-1.7-.356-2.24-1.068zm0-2.928v1.908c.16.384.44.7.81.948.38.24.79.36 1.23.36.64 0 1.18-.216 1.59-.648.43-.448.64-.988.64-1.62 0-.632-.21-1.168-.64-1.608-.41-.432-.95-.648-1.59-.648-.44 0-.84.124-1.22.372-.37.24-.65.552-.82.936zm9.69 3.852h-2.93v-5.796h.87v1.944h2.02c.68 0 1.21.176 1.61.528.4.344.6.808.6 1.392 0 .584-.19 1.052-.57 1.404-.39.352-.92.528-1.6.528zm-2.06-3.096v2.34h1.9c.46 0 .82-.1 1.07-.3.26-.208.39-.496.39-.864 0-.376-.13-.664-.39-.864-.25-.208-.61-.312-1.07-.312h-1.9z" fill="#000"/></svg>