<svg width="61" height="61" fill="none" xmlns="http://www.w3.org/2000/svg"><circle cx="30.5" cy="30.5" r="30.5" fill="#F3F3F3"/><g clip-path="url(#clip0)"><path d="M25.773 35.611h10.452v11.613H25.773V35.611zM31 33.87a6.976 6.976 0 01-6.967-6.968 6.975 6.975 0 016.968-6.968 6.975 6.975 0 016.968 6.968A6.976 6.976 0 0131 33.87z" fill="#FFCB57"/><path d="M30.13 27.482h1.742a.872.872 0 010 1.742H30.13a.872.872 0 01-.871-.87v-.291h-1.161v.29c0 1.121.911 2.033 2.032 2.033h.29v1.16h1.161v-1.16h.29a2.035 2.035 0 002.033-2.033c0-1.12-.911-2.032-2.032-2.032H30.13a.872.872 0 010-1.742h1.742c.48 0 .87.39.87.871v.29h1.162v-.29c0-1.12-.911-2.032-2.032-2.032h-.29v-1.161H30.42v1.16h-.29c-1.12 0-2.032.912-2.032 2.033 0 1.12.911 2.032 2.032 2.032zm15.386 9.871h-8.71v-2.322H25.193v2.322h-8.71v9.29h-1.16v1.162h31.354v-1.161h-1.161v-9.29zM41.45 43.16v3.484h-4.645V43.16h4.645zm1.162 0h1.742v3.484h-1.742V43.16zm1.742-1.161h-4.646v-3.484h4.645v3.483zm-5.807-3.484v3.483h-1.742v-3.483h1.742zm-2.903-2.323v10.452h-9.29V36.192h9.29zM25.193 43.16v3.484h-4.645V43.16h4.645zm0-1.161h-1.742v-3.484h1.742v3.483zm-2.903-3.484v3.483h-4.645v-3.483h4.645zm-4.645 4.645h1.742v3.484h-1.742V43.16z" fill="#000"/><path d="M31 38.515a1.162 1.162 0 010 2.322h-.58v2.323h1.161v-1.235a2.326 2.326 0 001.742-2.25A2.325 2.325 0 0031 37.354a2.325 2.325 0 00-2.322 2.323h1.161c0-.64.52-1.161 1.161-1.161zm-.58 5.806h1.161v1.161H30.42v-1.161zm0-29.953v4.405h1.16v-4.405l.752.75.82-.82L31 12.145l-2.152 2.153.82.82.752-.75zm-7.55 1.162v4.985h1.162v-4.986l.75.75.822-.82-2.153-2.153L21.3 15.46l.82.82.752-.75zm4.066-.241h1.16v1.161h-1.16v-1.16zm0 2.322h1.16v1.162h-1.16V17.61zm-4.065 4.065h1.161v1.161h-1.16v-1.161zm15.097-6.146v4.985h1.162v-4.986l.75.75.821-.82-2.152-2.153-2.152 2.153.82.82.751-.75zm-4.066-.241h1.162v1.161h-1.162v-1.16zm0 2.322h1.162v1.162h-1.162V17.61zm4.065 4.065h1.161v1.161h-1.161v-1.161zm9.871 24.968h1.161v1.16h-1.161v-1.16zm-34.838 0h1.161v1.16H13v-1.16z" fill="#000"/></g><defs><clipPath id="clip0"><path fill="#fff" transform="translate(13 12)" d="M0 0h36v36H0z"/></clipPath></defs></svg>