<svg width="70" height="70" fill="none" xmlns="http://www.w3.org/2000/svg"><g clip-path="url(#clip0)"><path d="M30.483 1.13c-13.094 0-23.71 10.614-23.71 23.709h5.646v-3.387h2.01a28.14 28.14 0 0018.312-6.775V1.13h-2.258z" fill="#FFCB57"/><path d="M45.16 25.968a5.652 5.652 0 00-5.644 5.645 5.652 5.652 0 005.645 5.645 5.652 5.652 0 005.645-5.645 5.652 5.652 0 00-5.645-5.645zm3.388 5.645a3.33 3.33 0 01-.34 1.45l-1.45-1.45 1.45-1.45c.212.44.34.928.34 1.45zm-1.936-3.047l-1.451 1.45-1.451-1.45a3.33 3.33 0 011.45-.34c.522 0 1.01.127 1.452.34zm-4.498 4.498a3.332 3.332 0 01-.34-1.451c0-.522.127-1.01.34-1.45l1.45 1.45-1.45 1.45zm1.596 1.596l1.45-1.45 1.452 1.45c-.442.213-.93.34-1.451.34a3.33 3.33 0 01-1.451-.34z" fill="#F0BC5E"/><path d="M5.645 24.839h2.258c0-12.451 10.13-22.58 22.58-22.58h1.13V14.15a27.032 27.032 0 01-17.185 6.172H11.29v21.451c0 7.323 5.396 13.394 12.419 14.486V70H33.87V58.71h-2.258v9.032h-5.645v-11.29h7.903V0h-3.387C16.787 0 5.645 11.142 5.645 24.839zm20.322 29.355c-6.848 0-12.42-5.572-12.42-12.42V22.581h.881a29.296 29.296 0 0017.184-5.575v30.253c-1.942-.505-3.387-2.257-3.387-4.356h-2.258c0 3.35 2.447 6.132 5.645 6.673v4.618h-5.645z" fill="#3F3A34"/><path d="M0 35c0 4.357 3.545 7.903 7.903 7.903h1.13V27.097h-1.13C3.545 27.097 0 30.642 0 35zm6.774 5.531a5.654 5.654 0 01-4.516-5.53 5.654 5.654 0 014.516-5.532v11.062zM22.58 29.355a3.391 3.391 0 00-3.387 3.387 3.391 3.391 0 003.387 3.387 3.391 3.391 0 003.388-3.387 3.391 3.391 0 00-3.387-3.387zm0 4.516a1.131 1.131 0 01-1.129-1.13 1.13 1.13 0 011.13-1.128 1.13 1.13 0 011.128 1.129 1.13 1.13 0 01-1.128 1.129zm39.518-6.774h-1.13v15.806h1.13C66.456 42.903 70 39.357 70 35c0-4.358-3.545-7.903-7.903-7.903zm1.129 13.434V29.468a5.655 5.655 0 014.516 5.531 5.654 5.654 0 01-4.516 5.532zM36.129 22.58h20.323v19.194c0 6.848-5.572 12.42-12.42 12.42H36.13v2.258h7.903c8.093 0 14.678-6.585 14.678-14.678V20.323H36.129v2.258zM44.032 0H36.13v2.258h2.258v4.516H36.13v2.258h4.516V2.258h2.258v9.032H36.13v2.258h9.032V2.316c6.32.572 11.29 5.894 11.29 12.361v3.387h2.259v-3.387C58.71 6.585 52.125 0 44.032 0zm16.935 11.29h2.258V6.566a3.383 3.383 0 002.258-3.179A3.391 3.391 0 0062.096 0a3.391 3.391 0 00-3.387 3.387c0 1.47.947 2.712 2.258 3.18v4.723zm1.13-9.032a1.13 1.13 0 011.128 1.13 1.13 1.13 0 01-1.129 1.128c-.622 0-1.129-.507-1.129-1.129s.507-1.129 1.13-1.129z" fill="#3F3A34"/><path d="M49.677 45.161a4.52 4.52 0 00-4.516-4.516H36.13v2.258h2.258v4.517H36.13v2.258h9.032a4.52 4.52 0 004.516-4.517zm-2.258 0a2.26 2.26 0 01-2.258 2.258v-4.516a2.26 2.26 0 012.258 2.258zm-6.774-2.258h2.258v4.517h-2.258v-4.517zm-1.129-27.096h-2.258v2.258h2.258v-2.258zm5.644 0h-2.258v2.258h2.258v-2.258zm5.647 0h-2.258v2.258h2.258v-2.258zM45.161 58.71h-2.258v4.516H36.13v2.258h14.677v2.258H36.13V70h16.935v-6.774h-7.903V58.71zm18.066-45.162h-2.258v11.29h2.258v-11.29z" fill="#3F3A34"/></g><defs><clipPath id="clip0"><path fill="#fff" d="M0 0h70v70H0z"/></clipPath></defs></svg>