<svg width="70" height="70" fill="none" xmlns="http://www.w3.org/2000/svg"><path d="M31.719 63.438l2.187-7.657-3.281-2.187 2.188-9.844h5.468l-2.187 6.563 3.281 2.187L35 63.438h-3.281z" fill="#F0BC5E"/><path d="M48.77 29.094a7.664 7.664 0 00-6.693-3.938H20.042a7.645 7.645 0 00-7.263 5.235l-.748 2.244v15.867h2.188V37.187H29.53v1.094h-1.093a3.285 3.285 0 00-3.282 3.282v9.843H21.5v2.188h3.656v2.187H21.5v2.188h3.656v7.656a3.285 3.285 0 003.282 3.281h13.125a3.285 3.285 0 003.28-3.281v-7.656H48.5V55.78h-3.656v-2.187h3.663v-2.188h-3.663v-9.843a3.285 3.285 0 00-3.282-3.282H40.47v-1.093h9.843v11.816H52.5V35.81l-3.73-6.716zM14.218 35v-2.01l.635-1.907a5.462 5.462 0 015.188-3.74h13.864v4.376h-1.093A3.285 3.285 0 0029.53 35H14.22zm22.968-1.094c.604 0 1.094.49 1.094 1.094v3.281h-6.56V35c0-.604.49-1.094 1.093-1.094h4.376zm4.376 6.563c.603 0 1.093.49 1.093 1.093v24.063c0 .604-.49 1.094-1.093 1.094H28.437c-.603 0-1.093-.49-1.093-1.094V41.562c0-.603.49-1.093 1.093-1.093h13.125zM40.468 35a3.285 3.285 0 00-3.282-3.281h-1.093v-4.375h5.983a5.474 5.474 0 014.78 2.812L49.548 35h-9.08z" fill="#000"/><path d="M68.906 25.156a4.38 4.38 0 00-4.375-4.375H57.97a2.19 2.19 0 01-2.188-2.187 2.19 2.19 0 012.188-2.188h6.562a4.38 4.38 0 004.375-4.375 4.38 4.38 0 00-4.375-4.375H25.098c-.29-2.456-2.361-4.375-4.894-4.375a19.72 19.72 0 01-8.777-2.072l-.231-.115H5.469V3.28H1.094v2.19h4.375v6.562H1.094v2.188h4.375v2.187h5.727l.23-.115a19.72 19.72 0 018.778-2.072c2.533 0 4.604-1.919 4.894-4.375h39.433a2.19 2.19 0 012.188 2.187 2.19 2.19 0 01-2.188 2.188H57.97a4.38 4.38 0 00-4.375 4.375 4.38 4.38 0 004.375 4.375h6.562a2.19 2.19 0 012.188 2.187 2.19 2.19 0 01-2.188 2.188H53.36a14.202 14.202 0 00-11.98-6.563H21.243c-5.969 0-11.342 3.771-13.372 9.386L1.46 47.902a7.735 7.735 0 00-.367 2.35c0 4.255 3.461 7.717 7.716 7.717h.315V55.78H8.81c-1.788 0-3.363-.867-4.375-2.187h4.69v-2.188H3.407a5.492 5.492 0 01.125-2.801L9.929 30.91a12.064 12.064 0 0111.314-7.94h20.136a12.02 12.02 0 0110.594 6.326l4.183 7.77 1.324.265a8.693 8.693 0 00-.605 3.139c0 4.824 3.925 8.75 8.75 8.75.366 0 .73-.034 1.094-.08v2.267h-5.847v2.188h5.644a3.277 3.277 0 01-3.08 2.187h-2.562v2.188h2.563a5.475 5.475 0 005.47-5.469v-8.839a7.677 7.677 0 00-6.155-7.507l-5.158-1.032-3.01-5.59h9.947a4.38 4.38 0 004.375-4.376zM9.844 14.22H7.656V3.28h2.188v10.94zm13.125-4.953a2.768 2.768 0 01-2.765 2.765c-2.79 0-5.583.553-8.173 1.596V3.873a21.945 21.945 0 008.173 1.596 2.768 2.768 0 012.765 2.765v1.032zm36.69 28.5l2.663.533a5.483 5.483 0 014.397 5.362v3.267a6.446 6.446 0 01-1.094.103 6.569 6.569 0 01-6.563-6.562c0-.933.21-1.853.598-2.703z" fill="#000"/><path d="M16.406 39.375h2.188v2.188h-2.188v-2.188zm0 4.375h2.188v2.188h-2.188V43.75z" fill="#000"/><path d="M54.688 62.344c-4.221 0-7.657-3.436-7.657-7.657 0-4.22 3.436-7.656 7.657-7.656 4.22 0 7.656 3.436 7.656 7.657 0 4.22-3.436 7.656-7.657 7.656zm0-9.844a2.19 2.19 0 00-2.188 2.188 2.19 2.19 0 002.188 2.187 2.19 2.19 0 002.187-2.188 2.19 2.19 0 00-2.188-2.187zm-39.375 9.844c-4.221 0-7.657-3.436-7.657-7.657 0-4.22 3.436-7.656 7.657-7.656 4.22 0 7.656 3.436 7.656 7.657 0 4.22-3.436 7.656-7.657 7.656zm0-9.844a2.19 2.19 0 00-2.188 2.188 2.19 2.19 0 002.188 2.187 2.19 2.19 0 002.187-2.188 2.19 2.19 0 00-2.188-2.187z" fill="#F0BC5E"/><path d="M54.688 57.969a3.285 3.285 0 01-3.282-3.282 3.285 3.285 0 013.282-3.28 3.285 3.285 0 013.28 3.28 3.285 3.285 0 01-3.28 3.282zm0-4.375a1.094 1.094 0 100 2.188 1.094 1.094 0 000-2.188zm-39.375 4.375a3.285 3.285 0 01-3.282-3.282 3.285 3.285 0 013.281-3.28 3.285 3.285 0 013.282 3.28 3.285 3.285 0 01-3.282 3.282zm0-4.375a1.094 1.094 0 100 2.188 1.094 1.094 0 000-2.188z" fill="#000"/></svg>