<svg width="16" height="16" fill="none" xmlns="http://www.w3.org/2000/svg"><path d="M8 2.24c-.593 0-1.09.411-1.235.96H.96a.322.322 0 00-.281.159.323.323 0 000 .322c.059.1.166.16.281.159h5.806c.144.549.642.96 1.234.96.593 0 1.09-.411 1.234-.96h5.806a.322.322 0 00.281-.159.323.323 0 000-.322.322.322 0 00-.28-.159H9.232a1.282 1.282 0 00-1.234-.96zm0 .64a.632.632 0 01.635.67.632.632 0 01-.636.61.632.632 0 01-.636-.67.632.632 0 01.636-.61zm4.48 3.84c-.593 0-1.09.411-1.235.96H.96a.322.322 0 00-.281.159.323.323 0 000 .322c.059.1.166.16.281.159h10.286c.144.549.642.96 1.234.96.593 0 1.09-.411 1.234-.96h1.326a.322.322 0 00.281-.159.323.323 0 000-.322.322.322 0 00-.28-.159h-1.327a1.282 1.282 0 00-1.234-.96zm0 .64a.632.632 0 01.635.67.632.632 0 01-.636.61.632.632 0 01-.636-.67.632.632 0 01.636-.61zm-8 3.84c-.593 0-1.09.411-1.235.96H.96a.322.322 0 00-.281.159.323.323 0 000 .322c.059.1.166.16.281.159h2.286c.144.549.642.96 1.234.96.593 0 1.09-.411 1.234-.96h9.326a.322.322 0 00.281-.159.323.323 0 000-.322.322.322 0 00-.28-.159H5.712a1.282 1.282 0 00-1.234-.96zm0 .64a.632.632 0 01.635.67.632.632 0 01-.636.61.632.632 0 01-.636-.67.632.632 0 01.636-.61z" fill="#79BFA5"/></svg>