<svg width="23" height="22" fill="none" xmlns="http://www.w3.org/2000/svg"><path d="M8.85 3.438c-2.44 0-4.446 2.003-4.446 4.447v6.23c0 2.441 2.003 4.447 4.445 4.447h6.227c2.44 0 4.445-2.003 4.445-4.447v-6.23c0-2.441-2.002-4.447-4.445-4.447H8.85zm0 1.374h6.226a3.067 3.067 0 013.071 3.073v6.23c0 1.7-1.371 3.072-3.07 3.072H8.848a3.067 3.067 0 01-3.07-3.072v-6.23c0-1.7 1.371-3.072 3.07-3.072zm7.171 1.504a.62.62 0 00-.622.623.62.62 0 00.622.623.62.62 0 00.623-.623.62.62 0 00-.623-.623zm-4.058.559A4.135 4.135 0 007.84 11a4.135 4.135 0 004.123 4.125A4.135 4.135 0 0016.086 11a4.135 4.135 0 00-4.123-4.125zm0 1.375A2.737 2.737 0 0114.71 11a2.737 2.737 0 01-2.748 2.75A2.737 2.737 0 019.214 11a2.737 2.737 0 012.749-2.75z" fill="#B0C0D5"/></svg>