<svg width="46" height="45" fill="none" xmlns="http://www.w3.org/2000/svg"><ellipse cx="23.463" cy="22.5" rx="22.488" ry="22.5" fill="#3D9CF4"/><path d="M19.85 15.438c-2.44 0-4.446 2.003-4.446 4.447v6.23c0 2.441 2.003 4.448 4.445 4.448h6.227c2.44 0 4.445-2.004 4.445-4.448v-6.23c0-2.441-2.002-4.448-4.445-4.448H19.85zm0 1.374h6.226a3.067 3.067 0 013.071 3.073v6.23c0 1.7-1.371 3.073-3.07 3.073h-6.228a3.067 3.067 0 01-3.07-3.073v-6.23c0-1.7 1.371-3.073 3.07-3.073zm7.171 1.504a.62.62 0 00-.622.623.62.62 0 00.622.623.62.62 0 00.623-.623.62.62 0 00-.623-.623zm-4.058.559A4.135 4.135 0 0018.84 23a4.135 4.135 0 004.123 4.125A4.135 4.135 0 0027.086 23a4.135 4.135 0 00-4.123-4.125zm0 1.375A2.737 2.737 0 0125.71 23a2.737 2.737 0 01-2.748 2.75A2.737 2.737 0 0120.214 23a2.737 2.737 0 012.749-2.75z" fill="#B0C0D5"/></svg>