<svg width="43" height="43" fill="none" xmlns="http://www.w3.org/2000/svg"><path d="M22.193 42.996v-8.323l.625-.062c1.979-.196 3.85-.83 5.563-1.883l.727 1.183a14.393 14.393 0 01-5.527 2.005V41.5a19.9 19.9 0 006.583-1.856l.598 1.252a21.305 21.305 0 01-7.83 2.05l-.739.049z" fill="#000"/><path d="M26.355 13.871h4.161v11.79h-4.161v-11.79zm-6.935 2.774h4.16v9.016h-4.16v-9.016zm-6.936 2.775h4.161v6.241h-4.161V19.42z" fill="#F0BC5E"/><path d="M34.61 22.818c-.072.732-.205 1.45-.396 2.15H8.787a13.317 13.317 0 01-.464-3.468c0-7.266 5.91-13.177 13.177-13.177 6.803 0 12.44 5.098 13.11 11.859l.063.624h8.323l-.049-.739C42.206 8.814 32.785 0 21.5 0 9.645 0 0 9.645 0 21.5c0 11.285 8.814 20.706 20.067 21.447l.74.049v-8.323l-.625-.062a13.114 13.114 0 01-10.943-8.256h24.51a13.343 13.343 0 01-1.02 2.026l1.182.727a14.396 14.396 0 002.005-5.527h5.585a19.929 19.929 0 01-1.855 6.583l1.252.598a21.33 21.33 0 002.05-7.83l.048-.738h-8.323l-.062.624zm6.89-3.399h-5.584c-.985-6.931-6.727-12.126-13.722-12.452V1.404c10 .343 18.283 8.075 19.307 18.015zM19.42 35.916v5.585C9.247 40.455 1.386 31.809 1.386 21.5c0-10.857 8.65-19.728 19.42-20.096V6.97c-7.708.366-13.872 6.733-13.872 14.53A14.507 14.507 0 0019.42 35.916z" fill="#000"/><path d="M13.871 16.645h1.387v1.387h-1.387v-1.387zm0-2.774h1.387v1.387h-1.387v-1.387zm6.936 0h1.387v1.387h-1.387v-1.387zm0-2.774h1.387v1.387h-1.387v-1.387z" fill="#000"/><path d="M35.37 43c-4.206 0-7.628-3.423-7.628-7.629 0-4.206 3.422-7.63 7.629-7.63 4.206 0 7.629 3.424 7.629 7.63C43 39.577 39.577 43 35.37 43z" fill="#F0BC5E"/><path d="M35.371 34.677a.694.694 0 010-1.387c.382 0 .694.311.694.694h1.387c0-.903-.582-1.666-1.387-1.953v-1.515h-1.387v1.515a2.078 2.078 0 00-1.387 1.953c0 1.147.933 2.08 2.08 2.08a.694.694 0 11-.693.694H33.29c0 .903.581 1.666 1.387 1.953v1.515h1.387V38.71a2.078 2.078 0 001.387-1.953c0-1.147-.934-2.08-2.08-2.08z" fill="#000"/></svg>