<svg width="59" height="59" fill="none" xmlns="http://www.w3.org/2000/svg"><path d="M.081 59H58.92v-6.643H.08V59zm1.898-4.745h55.042v2.847H1.979v-2.847zm56.249-40.807l-16.133-9.49H36L29.5 0l-6.503 3.958h-6.093L.772 13.448h-.69v6.643h58.837v-6.643h-.691zm-16.65-7.592l12.907 7.592h-2.892L39.12 5.856h2.459zm-24.157 0h2.458L7.407 13.448H4.515L17.42 5.856zm39.6 12.337H1.979v-2.847h22.776v-1.898H11.057L29.5 2.222l18.443 11.226H34.245v1.898H57.02v2.847zM1.979 46.663v4.745h11.388v-4.745H10.52V25.785h2.847v-4.744H1.979v4.744h2.847v20.878H1.979zm9.49 1.898v.949H3.877v-.949h7.592zM3.877 23.887v-.949h7.592v.95H3.876zm2.847 1.898h1.898v20.878H6.724V25.785zm9.49 20.878v4.745h11.388v-4.745h-2.847V25.785h2.847v-4.744H16.214v4.744h2.847v20.878h-2.847zm9.49 1.898v.949h-7.592v-.949h7.592zm-7.592-24.674v-.949h7.592v.95H18.11zm2.847 1.898h1.898v20.878h-1.898V25.785zm10.439 20.878v4.745h11.387v-4.745h-2.847V25.785h2.847v-4.744H31.398v4.744h2.847v20.878h-2.847zm9.49 1.898v.949h-7.593v-.949h7.593zm-7.593-24.674v-.949h7.593v.95h-7.593zm2.848 1.898h1.898v20.878h-1.898V25.785zm9.49 20.878v4.745H57.02v-4.745h-2.847V25.785h2.847v-4.744H45.633v4.744h2.847v20.878h-2.847zm9.49 1.898v.949H47.53v-.949h7.592zM47.53 23.887v-.949h7.592v.95H47.53zm2.847 1.898h1.898v20.878h-1.898V25.785z" fill="#333"/><path d="M29.5 18.193a6.651 6.651 0 01-6.643-6.643A6.651 6.651 0 0129.5 4.907a6.651 6.651 0 016.643 6.643 6.652 6.652 0 01-6.643 6.643z" fill="#F2CB56"/></svg>