<svg width="32" height="32" fill="none" xmlns="http://www.w3.org/2000/svg"><path d="M25.809 18.5a1.31 1.31 0 01-1.309-1.309v-2.382a1.31 1.31 0 011.895-1.171l2.381 1.191c.447.223.724.672.724 1.171 0 .498-.277.948-.723 1.171l-2.383 1.191a1.32 1.32 0 01-.585.138zM4.5 25h6v2h-6v-2zm0-18.5h8v3h-8v-3z" fill="#F2CB56"/><path d="M29 22.5h-7.5V10.893c.182-.094.359-.194.529-.307l1.788 2.236A4.487 4.487 0 0022.5 16c0 2.482 2.018 4.5 4.5 4.5s4.5-2.018 4.5-4.5c0-2.481-2.018-4.5-4.5-4.5-.883 0-1.704.259-2.4.7l-1.792-2.24a5.483 5.483 0 001.667-3.46h1.716l1 2h4.118L30.059 6l1.25-2.5h-4.118l-1 2h-1.716A5.506 5.506 0 0019 .5c-1.34 0-2.567.483-3.522 1.281A1.498 1.498 0 0014 .5H8c-.651 0-1.201.42-1.408 1H3A2.503 2.503 0 00.5 4v25c0 1.378 1.121 2.5 2.5 2.5h16c1.378 0 2.5-1.122 2.5-2.5v-1.5H29c1.378 0 2.5-1.122 2.5-2.5s-1.122-2.5-2.5-2.5zm1.5-6.5c0 1.93-1.57 3.5-3.5 3.5s-3.5-1.57-3.5-3.5 1.57-3.5 3.5-3.5 3.5 1.57 3.5 3.5zm-2.691-8.5l-.5-1h1.882l.5 1h-1.882zm0-3h1.882l-.5 1h-1.882l.5-1zm-21.217 0c.207.58.757 1 1.408 1h5.525a5.505 5.505 0 00-.025.5 5.48 5.48 0 001.789 4.047l-.763 1A6.455 6.455 0 0011 10a6.508 6.508 0 00-6.5 6.5c0 3.584 2.916 6.5 6.5 6.5s6.5-2.916 6.5-6.5a6.478 6.478 0 00-2.181-4.844l.763-1.002c.714.449 1.535.74 2.418.82V22.5h-2.591l-3.617 1.357A1.227 1.227 0 0011.5 25c0 .506.319.965.793 1.144l3.616 1.356H18.5v1h-15v-24h3.092zM13.5 19h-1v-4h1v4zm-2 0h-1v-5h1v5zm-2 0h-1v-2h1v2zm5.74 1a5.492 5.492 0 01-8.48 0h8.48zm.653-1H14.5v-5h-2v-1h-3v3h-2v3H6.107a5.464 5.464 0 01-.607-2.5c0-3.033 2.468-5.5 5.5-5.5 3.033 0 5.5 2.467 5.5 5.5 0 .9-.222 1.749-.607 2.5zm-3.249 6.208a.222.222 0 010-.415L15.5 23.72v2.558l-2.856-1.071zM16.5 26.5v-1h10v1h-10zm10-2h-10v-1h10v1zm-6-2h-1V11.475a5.41 5.41 0 001-.188V22.5zM19 1.5a4.505 4.505 0 014.47 4h-2.02a2.505 2.505 0 00-2.45-2A2.503 2.503 0 0016.5 6c0 1.378 1.122 2.5 2.5 2.5 1.207 0 2.217-.86 2.45-2h2.02a4.505 4.505 0 01-4.47 4A4.505 4.505 0 0114.5 6c0-2.481 2.018-4.5 4.5-4.5zm1.408 5c-.207.58-.757 1-1.408 1-.827 0-1.5-.673-1.5-1.5s.673-1.5 1.5-1.5c.651 0 1.201.42 1.408 1H18.5v1h1.908zM7.5 2a.5.5 0 01.5-.5h6a.5.5 0 01.5.5v.848a5.469 5.469 0 00-.786 1.65L8 4.5a.5.5 0 01-.5-.5V2zm13 27c0 .827-.673 1.5-1.5 1.5H3c-.827 0-1.5-.673-1.5-1.5V4c0-.827.673-1.5 1.5-1.5h3.5v1h-3c-.551 0-1 .449-1 1v24c0 .552.449 1 1 1h15a1 1 0 001-1v-1h1V29zm8.5-2.5h-1.5v-3H29c.827 0 1.5.673 1.5 1.5s-.673 1.5-1.5 1.5z" fill="#000"/><path d="M4.5 24.5h6v1h-6v-1zm0 2h6v1h-6v-1zm0-20h1v1h-1v-1zm2 0h6v1h-6v-1zm-2 2h1v1h-1v-1zm2 0h6v1h-6v-1z" fill="#000"/></svg>