<svg width="42" height="43" fill="none" xmlns="http://www.w3.org/2000/svg"><g clip-path="url(#clip0)"><path d="M21.109 29.142a3.2 3.2 0 012.145.825l3.377 3.028a3.366 3.366 0 011.117 2.515c0 .81-.284 1.586-.805 2.196l-.142.167-7.817-8.003-.014-.021a3.212 3.212 0 012.01-.707h.129zm-7.573-7.753v.131a3.35 3.35 0 01-.697 2.058l-7.824-8.01-.007-.006.163-.146a3.204 3.204 0 014.602.319l2.957 3.457c.522.61.806 1.386.806 2.197zM28.425.04c-4.851 0-8.798 4.042-8.798 9.008v4.158h.692c0-.091-.011-.18-.002-.272.134-1.442 1.396-2.5 2.81-2.5h.396a6.85 6.85 0 004.902-2.079 6.85 6.85 0 004.902 2.08h.396c1.414 0 2.677 1.057 2.81 2.499.01.092-.002.18-.002.272h.692V9.048c0-4.966-3.947-9.007-8.798-9.007z" fill="#F0BC5E"/><path d="M42 27.427c0-2.154-1.413-4.072-3.436-4.663l-6.039-1.766V19.19a6.264 6.264 0 001.648-2.556 3.348 3.348 0 002.17-1.098c.64-.72.955-1.693.864-2.668-.164-1.753-1.694-3.127-3.485-3.127h-.395a6.142 6.142 0 01-4.424-1.875l-.478-.49-.479.49a6.142 6.142 0 01-4.423 1.875h-.513v.003c-1.74.057-3.208 1.409-3.368 3.124-.09.975.225 1.948.864 2.669a3.354 3.354 0 002.17 1.098 6.256 6.256 0 001.688 2.592V21l-6.039 1.766c-2.023.59-3.436 2.508-3.436 4.662v3.67a2.477 2.477 0 01-1.155-.653l-1.47-1.505a2.705 2.705 0 01-.759-1.876c0-.698.277-1.38.759-1.875l.794-.814a4.054 4.054 0 001.154-2.851v-.133c0-.977-.346-1.92-.974-2.656l-2.955-3.457A3.902 3.902 0 007.317 13.9c-.955 0-1.876.354-2.594.998l-2.554 2.287A6.568 6.568 0 000 22.077c0 1.115.282 2.217.816 3.189 3.564 6.487 8.727 11.968 14.932 15.85l1.523.953c.973.609 2.09.93 3.232.93 1.79 0 3.49-.79 4.667-2.167l2.28-2.668a4.087 4.087 0 00.89-3.479H42v-7.258zm-7.362-4.37l-2.348 4.325-2.863-2.444 2.587-2.648 2.623.767zM35.859 13a2.094 2.094 0 01-.518 1.604 2.025 2.025 0 01-.854.56 6.33 6.33 0 00.029-.572v-3.315c.728.283 1.27.94 1.343 1.723zm-14.351 1.605A2.095 2.095 0 0120.99 13c.073-.784.615-1.44 1.344-1.723v3.314c0 .194.011.384.028.573a2.031 2.031 0 01-.854-.56zm2.18-.013V11.12a7.445 7.445 0 004.737-1.824 7.445 7.445 0 004.737 1.824v3.471c0 2.675-2.125 4.85-4.737 4.85-2.613 0-4.738-2.175-4.738-4.85zm4.737 6.236a5.93 5.93 0 002.747-.677v1.043l-2.747 2.812-2.707-2.771V20.17a5.923 5.923 0 002.707.658zm-3.581 1.471l2.578 2.64-2.863 2.444-2.341-4.315 2.626-.768zm1.588 14.954l-2.28 2.668a4.802 4.802 0 01-3.649 1.694 4.754 4.754 0 01-2.526-.728l-1.523-.953c-6.007-3.758-11.007-9.065-14.459-15.347a5.225 5.225 0 01-.641-2.508 5.17 5.17 0 011.706-3.85l2.553-2.288a2.556 2.556 0 011.704-.656c.746 0 1.455.33 1.947.905l2.955 3.457a2.69 2.69 0 01.64 1.744v.133a2.66 2.66 0 01-.758 1.872l-.794.813a4.116 4.116 0 00-1.155 2.855c0 1.063.42 2.104 1.155 2.856l1.47 1.505a3.87 3.87 0 002.789 1.182 3.87 3.87 0 002.789-1.182l.794-.814c.49-.5 1.139-.775 1.83-.775h.128c.627 0 1.232.233 1.704.656l3.377 3.025c.56.502.883 1.23.883 1.992a2.68 2.68 0 01-.64 1.744zM40.647 33.3h-4.08v-4.85h-1.355v4.85h-7.437a4.02 4.02 0 00-.696-.826l-3.376-3.025a3.89 3.89 0 00-2.596-.999h-.128c-1.053 0-2.042.42-2.787 1.182l-.793.813a2.48 2.48 0 01-1.156.653v-3.67c0-1.539 1.01-2.908 2.454-3.33l2.185-.64 3.288 6.06 3.578-3.053v5.45H29.1v-5.45l3.58 3.053 3.292-6.069 2.22.65c1.444.421 2.454 1.791 2.454 3.33V33.3z" fill="#000"/></g><defs><clipPath id="clip0"><path fill="#fff" d="M0 0h42v43H0z"/></clipPath></defs></svg>