<svg width="105" height="105" fill="none" xmlns="http://www.w3.org/2000/svg"><path d="M47.578 95.156l3.281-11.484-4.922-3.281 3.282-14.766h8.203l-3.281 9.844 4.922 3.281L52.5 95.156h-4.922z" fill="#F0BC5E"/><path d="M73.154 43.64a11.496 11.496 0 00-10.04-5.906h-33.05c-4.952 0-9.33 3.157-10.894 7.852l-1.122 3.367v23.8h3.281V55.782h22.969v1.64h-1.64a4.928 4.928 0 00-4.923 4.923V77.11H32.25v3.282h5.484v3.28H32.25v3.282h5.484v11.484a4.928 4.928 0 004.922 4.922h19.688a4.928 4.928 0 004.922-4.921V86.953h5.484v-3.281h-5.484V80.39h5.494v-3.282h-5.494V62.344a4.928 4.928 0 00-4.922-4.922h-1.64v-1.64h14.765v17.725h3.281V53.716L73.154 43.64zM21.328 52.5v-3.016l.953-2.86a8.193 8.193 0 017.782-5.608h20.796v6.562h-1.64a4.928 4.928 0 00-4.922 4.922H21.328zm34.453-1.64c.906 0 1.64.734 1.64 1.64v4.922h-9.843V52.5c0-.906.735-1.64 1.64-1.64h6.563zm6.563 9.843c.905 0 1.64.735 1.64 1.64v36.094c0 .906-.735 1.641-1.64 1.641H42.656c-.905 0-1.64-.735-1.64-1.64V62.343c0-.906.735-1.64 1.64-1.64h19.688zm-1.64-8.203a4.928 4.928 0 00-4.923-4.922h-1.64v-6.562h8.974a8.21 8.21 0 017.171 4.218l4.036 7.266H60.703z" fill="#000"/><path d="M103.359 37.734a6.569 6.569 0 00-6.562-6.562h-9.844a3.285 3.285 0 01-3.281-3.281 3.284 3.284 0 013.281-3.282h9.844a6.569 6.569 0 006.562-6.562 6.569 6.569 0 00-6.562-6.563h-59.15c-.434-3.684-3.542-6.562-7.341-6.562a29.568 29.568 0 01-13.165-3.11l-.348-.171h-8.59v3.28H1.641v3.282h6.562v9.844H1.641v3.281h6.562v3.281h8.59l.347-.172a29.58 29.58 0 0113.166-3.109c3.8 0 6.907-2.877 7.341-6.562h59.15a3.284 3.284 0 013.281 3.28 3.284 3.284 0 01-3.281 3.282h-9.844a6.57 6.57 0 00-6.562 6.563 6.57 6.57 0 006.562 6.562h9.844a3.284 3.284 0 013.281 3.281 3.284 3.284 0 01-3.281 3.282h-16.76a21.303 21.303 0 00-17.969-9.844H31.864c-8.953 0-17.013 5.657-20.058 14.078L2.19 71.853a11.604 11.604 0 00-.55 3.526c0 6.381 5.193 11.574 11.575 11.574h.473v-3.281h-.473c-2.682 0-5.045-1.301-6.562-3.281h7.035v-3.282H5.11a8.239 8.239 0 01.187-4.202l9.596-26.543c2.574-7.123 9.396-11.91 16.97-11.91h30.204a18.03 18.03 0 0115.891 9.489l6.276 11.654 1.985.398a13.019 13.019 0 00-.907 4.708c0 7.237 5.888 13.125 13.124 13.125.55 0 1.096-.05 1.641-.12v3.401h-8.77v3.282h8.467c-.68 1.904-2.484 3.28-4.62 3.28H91.31v3.282h3.845c4.523 0 8.203-3.68 8.203-8.203V65.492c0-5.453-3.881-10.192-9.231-11.261l-7.738-1.547-4.513-8.387h14.92a6.569 6.569 0 006.562-6.563zM14.766 21.328h-3.282V4.922h3.282v16.406zM34.453 13.9a4.152 4.152 0 01-4.147 4.148 32.93 32.93 0 00-12.26 2.393V5.81a32.916 32.916 0 0012.26 2.393 4.152 4.152 0 014.147 4.148v1.548zM89.49 56.65l3.993.8a8.225 8.225 0 016.595 8.043v4.9a9.674 9.674 0 01-1.64.155c-5.43 0-9.844-4.415-9.844-9.844 0-1.4.315-2.78.896-4.054z" fill="#000"/><path d="M24.61 59.063h3.28v3.28h-3.28v-3.28zm0 6.562h3.28v3.281h-3.28v-3.281z" fill="#000"/><path d="M82.031 93.516c-6.33 0-11.484-5.154-11.484-11.485 0-6.33 5.153-11.484 11.484-11.484S93.516 75.7 93.516 82.03 88.362 93.516 82.03 93.516zm0-14.766a3.284 3.284 0 00-3.281 3.281 3.285 3.285 0 003.281 3.281 3.285 3.285 0 003.281-3.28 3.285 3.285 0 00-3.28-3.282zM22.969 93.516c-6.331 0-11.485-5.154-11.485-11.485 0-6.33 5.154-11.484 11.485-11.484 6.33 0 11.484 5.153 11.484 11.484S29.3 93.516 22.97 93.516zm0-14.766a3.285 3.285 0 00-3.282 3.281 3.285 3.285 0 003.282 3.281 3.285 3.285 0 003.281-3.28 3.284 3.284 0 00-3.281-3.282z" fill="#F0BC5E"/><path d="M82.031 86.953a4.928 4.928 0 01-4.922-4.922 4.928 4.928 0 014.922-4.922 4.928 4.928 0 014.922 4.922 4.928 4.928 0 01-4.922 4.922zm0-6.562a1.641 1.641 0 10.001 3.282 1.641 1.641 0 000-3.282zm-59.062 6.562a4.928 4.928 0 01-4.922-4.922 4.928 4.928 0 014.922-4.922 4.928 4.928 0 014.922 4.922 4.928 4.928 0 01-4.922 4.922zm0-6.562a1.641 1.641 0 100 3.282 1.641 1.641 0 000-3.282z" fill="#000"/></svg>