<svg width="105" height="105" fill="none" xmlns="http://www.w3.org/2000/svg"><path d="M45.726 1.694c-19.642 0-35.565 15.922-35.565 35.564h8.468v-5.08h3.014a42.209 42.209 0 0027.47-10.162V1.694h-3.387z" fill="#FFCB57"/><path d="M67.742 38.952c-4.669 0-8.468 3.798-8.468 8.467 0 4.67 3.799 8.468 8.468 8.468 4.67 0 8.468-3.798 8.468-8.468 0-4.669-3.799-8.467-8.468-8.467zm5.08 8.467c0 .783-.19 1.514-.509 2.177l-2.176-2.177 2.176-2.176c.318.662.51 1.394.51 2.176zm-2.904-4.57l-2.176 2.176-2.176-2.176a4.997 4.997 0 012.176-.51c.783 0 1.514.191 2.176.51zm-6.747 6.747a4.997 4.997 0 01-.51-2.177c0-.782.192-1.514.51-2.176l2.176 2.176-2.176 2.177zm2.395 2.394l2.176-2.176 2.176 2.176a4.997 4.997 0 01-2.176.51 4.997 4.997 0 01-2.176-.51z" fill="#F0BC5E"/><path d="M8.468 37.258h3.387c0-18.676 15.194-33.87 33.87-33.87h1.694v17.839a40.547 40.547 0 01-25.775 9.257h-4.708V62.66c0 10.985 8.095 20.09 18.629 21.728V105h15.242V88.064h-3.388v13.549h-8.467V84.677h11.855V0h-5.081C25.18 0 8.468 16.714 8.468 37.258zM38.952 81.29c-10.272 0-18.63-8.357-18.63-18.629v-28.79h1.322c9.28 0 18.307-2.949 25.775-8.363v45.38c-2.912-.757-5.08-3.385-5.08-6.533h-3.387c0 5.025 3.67 9.197 8.467 10.009v6.926h-8.467z" fill="#3F3A34"/><path d="M0 52.5c0 6.535 5.318 11.855 11.855 11.855h1.693v-23.71h-1.693C5.318 40.645 0 45.963 0 52.5zm10.161 8.297c-3.86-.786-6.774-4.207-6.774-8.297 0-4.09 2.915-7.51 6.774-8.297v16.594zm23.71-16.765a5.087 5.087 0 00-5.08 5.08c0 2.802 2.279 5.081 5.08 5.081s5.08-2.279 5.08-5.08-2.279-5.08-5.08-5.08zm0 6.774c-.933 0-1.693-.76-1.693-1.693s.76-1.694 1.693-1.694 1.694.76 1.694 1.694c0 .933-.76 1.693-1.694 1.693zm59.274-10.161h-1.693v23.71h1.693c6.537 0 11.855-5.32 11.855-11.855 0-6.537-5.318-11.855-11.855-11.855zm1.694 20.152V44.202c3.86.785 6.774 4.208 6.774 8.296 0 4.092-2.915 7.513-6.774 8.299zM54.193 33.871h30.484v28.79c0 10.272-8.357 18.63-18.629 18.63H54.193v3.386h11.855c12.14 0 22.016-9.876 22.016-22.016V30.484h-33.87v3.387zM66.048 0H54.193v3.387h3.388v6.774h-3.388v3.387h6.775V3.388h3.387v13.548H54.193v3.387h13.549V3.473c9.48.86 16.935 8.843 16.935 18.543v5.08h3.387v-5.08C88.064 9.876 78.188 0 66.048 0zm25.404 16.936h3.387V9.85c1.966-.701 3.387-2.564 3.387-4.77 0-2.8-2.28-5.08-5.08-5.08a5.087 5.087 0 00-5.082 5.08c0 2.206 1.421 4.069 3.388 4.77v7.086zm1.693-13.549c.933 0 1.694.76 1.694 1.694 0 .933-.76 1.693-1.694 1.693-.933 0-1.693-.76-1.693-1.693 0-.934.76-1.694 1.693-1.694z" fill="#3F3A34"/><path d="M74.516 67.742a6.781 6.781 0 00-6.774-6.774H54.193v3.387h3.388v6.774h-3.388v3.387h13.549a6.781 6.781 0 006.774-6.774zm-3.387 0a3.39 3.39 0 01-3.387 3.387v-6.774a3.39 3.39 0 013.387 3.387zm-10.161-3.387h3.387v6.774h-3.387v-6.774zM59.274 23.71h-3.387v3.387h3.387V23.71zm8.468 0h-3.387v3.387h3.387V23.71zm8.468 0h-3.387v3.387h3.387V23.71zm-8.468 64.354h-3.387v6.775H54.193v3.387H76.21v3.387H54.193V105h25.404V94.839H67.742v-6.775zm27.097-67.741h-3.387v16.935h3.387V20.323z" fill="#3F3A34"/></svg>