<svg width="30" height="31" fill="none" xmlns="http://www.w3.org/2000/svg"><g clip-path="url(#clip0)"><path d="M19.992 8.042c.347-1.065 1.257-1.86 2.364-2.011l.745-1.802-2.562-2.647-1.51 1.016a8.038 8.038 0 00-1.812-.776L16.844 0h-3.688l-.373 1.822a8.03 8.03 0 00-1.811.776l-1.51-1.016-2.56 2.646.73 1.798c1.11.153 2.002.987 2.36 2.063l.17-.384C11.027 5.758 12.926 4.5 15 4.5c2.054 0 3.947 1.242 4.82 3.165l.172.377z" fill="#F2CB56"/><path d="M18.973 13.636l-2.038-.527v-.24A3.547 3.547 0 0018.387 10v-.874c0-1.942-1.473-3.568-3.283-3.624-.928-.03-1.8.321-2.463.986A3.529 3.529 0 0011.613 9v1c0 1.145.55 2.219 1.451 2.869v.24l-2.038.527c-1.079.279-1.833 1.276-1.833 2.426v.883l1.35-.31a5.28 5.28 0 012.849.133l2.215.732c.24 0 .477.035.707.103l3.04.897h.485l.967-.526v-1.912c0-1.15-.754-2.147-1.833-2.426z" fill="#F2CB56"/><path d="M30 13h-1.087l-1.62.881a2.364 2.364 0 00-.578-.245l-2.038-.527v-.24A3.547 3.547 0 0026.129 10v-.874c0-1.942-1.473-3.568-3.283-3.624a3.303 3.303 0 00-2.462.986A3.529 3.529 0 0019.354 9v1c0 1.145.55 2.219 1.453 2.869v.24l-1.936.5.103.027c.448.116.835.36 1.14.683l1.66-.429v-1.583l-.241-.144A2.523 2.523 0 0120.323 10V9c0-.682.26-1.32.735-1.794a2.344 2.344 0 011.759-.704c1.292.04 2.344 1.217 2.344 2.624V10c0 .888-.464 1.717-1.21 2.164l-.243.144.002 1.582 2.418.624L19.719 18h-.296l-2.975-.878a2.95 2.95 0 00-.718-.107l-2.19-.723a5.79 5.79 0 00-3.1-.146l-2.755.633.039-.142.018-.924-2.552-1.538 1.1-.285v-1.583l-.241-.144A2.523 2.523 0 014.839 10V9c0-.682.26-1.32.735-1.794a2.347 2.347 0 011.759-.704c1.293.04 2.344 1.217 2.344 2.624V10c0 .888-.464 1.717-1.21 2.164l-.243.144.002 1.582 1.66.43a2.388 2.388 0 011.14-.684l.103-.026-1.936-.501v-.24A3.547 3.547 0 0010.645 10v-.874c0-1.942-1.473-3.568-3.283-3.624a3.302 3.302 0 00-2.462.986A3.529 3.529 0 003.87 9v1c0 1.145.55 2.219 1.452 2.869v.24l-1.33.344L1.583 12H0v10.36L4.76 24h.927l.116-.419 1.46.905c.023.82.66 1.48 1.452 1.508.028.816.662 1.472 1.452 1.5.028.816.662 1.472 1.451 1.5.03.835.69 1.506 1.505 1.506.303 0 .599-.097.848-.27l.429.39c.268.245.614.38.973.38h.09c.805 0 1.46-.672 1.47-1.502.797-.01 1.442-.677 1.452-1.5.797-.01 1.443-.678 1.452-1.501.804-.02 1.453-.699 1.453-1.535 0-.05-.002-.1-.007-.15L30 20.31V13zM.968 13h.352l3.48 2.098-1.755 7.257-2.077-.715V13zm3.95 10l-.953-.328 1.706-7.05 1.103.665v.143L4.958 23h-.04zm3.308 1.44c0-.148.057-.292.159-.397l.85-.879A.537.537 0 019.62 23c.299 0 .542.252.542.56a.574.574 0 01-.159.397l-.85.879a.537.537 0 01-.384.164.552.552 0 01-.542-.56zm1.451 1.5c0-.148.058-.292.16-.397l.85-.879a.538.538 0 01.383-.164c.3 0 .543.252.543.56a.574.574 0 01-.159.397l-.85.879a.537.537 0 01-.384.164.552.552 0 01-.543-.56zm1.452 1.5c0-.148.058-.292.159-.397l.85-.879a.537.537 0 01.384-.164c.3 0 .543.252.543.56a.574.574 0 01-.16.397l-.85.879a.537.537 0 01-.383.164.552.552 0 01-.543-.56zm1.994 2.06a.552.552 0 01-.542-.56c0-.148.057-.292.158-.397l.851-.879a.537.537 0 01.384-.164c.299 0 .542.252.542.56a.574.574 0 01-.159.397l-.85.879a.537.537 0 01-.384.164zm2.34.5h-.09a.492.492 0 01-.333-.13l-.362-.33.364-.376c.13-.134.23-.293.304-.464l.44.378c.115.1.182.245.182.4a.514.514 0 01-.505.522zm4.34-4.5h-.084a.509.509 0 01-.333-.125l-2.624-2.26-.62.77 2.548 2.193c.115.1.181.245.181.4a.514.514 0 01-.505.522h-.105a.495.495 0 01-.323-.121l-2.628-2.263-.62.769 2.548 2.194a.525.525 0 01.181.4.514.514 0 01-.504.521.784.784 0 01-.51-.19l-1.08-.93a1.504 1.504 0 00-1.299-.874c-.027-.816-.662-1.471-1.451-1.5-.028-.816-.662-1.471-1.452-1.5C11.095 22.67 10.433 22 9.62 22c-.398 0-.787.167-1.068.457l-.85.879c-.051.053-.093.112-.136.171l-1.487-.921 1.303-4.713 3.267-.75a4.83 4.83 0 012.596.121l.713.236-2.417 1.248c-.552.286-.895.86-.895 1.498v.1c0 .923.727 1.674 1.621 1.674.294 0 .583-.082.834-.239l1.802-1.116a.974.974 0 011.16.115l4.088 3.802a.55.55 0 01.173.4.53.53 0 01-.52.538zm9.23-5.809l-8.153 4.212a1.337 1.337 0 00-.083-.083l-4.087-3.802a1.902 1.902 0 00-2.306-.23L12.6 20.903a.633.633 0 01-.335.096.665.665 0 01-.653-.675v-.099c0-.257.138-.488.36-.603l2.7-1.395a2.042 2.042 0 011.508-.144l3.04.897.737.02 9.074-4.936v5.626z" fill="#000"/></g><defs><clipPath id="clip0"><path fill="#fff" d="M0 0h30v31H0z"/></clipPath></defs></svg>