<svg width="44" height="44" fill="none" xmlns="http://www.w3.org/2000/svg"><path d="M36.438 29.563a6.883 6.883 0 01-6.876-6.875 6.883 6.883 0 016.875-6.875 6.883 6.883 0 016.876 6.874 6.883 6.883 0 01-6.876 6.875zm-24.75 2.062h6.874v2.75h-6.875v-2.75z" fill="#F0BC5E"/><path d="M35.063 33.688v-4.264a6.808 6.808 0 01-1.376-.44v6.078h1.376a1.376 1.376 0 010 2.75H8.938a1.376 1.376 0 01-1.376-1.374c0-.759.617-1.376 1.375-1.376h1.376v-5.5h8.25v-13.75h-7.721A11.69 11.69 0 0122.427 7.57c5.19.184 9.586 3.861 10.877 9.006.408-.21.84-.38 1.29-.505-1.229-4.646-4.748-8.187-9.157-9.413V4.125A3.441 3.441 0 0022 .687a3.441 3.441 0 00-3.438 3.438v2.54a13.052 13.052 0 00-9.145 9.148H.687v13.75h8.25v4.125a2.753 2.753 0 00-2.75 2.75 2.753 2.753 0 002.75 2.75h8.306A4.816 4.816 0 0022 43.312a4.816 4.816 0 004.758-4.124h8.305a2.753 2.753 0 002.75-2.75 2.753 2.753 0 00-2.75-2.75zM19.937 4.125c0-1.137.926-2.063 2.063-2.063s2.063.926 2.063 2.063v2.238a12.723 12.723 0 00-1.587-.167c-.864-.03-1.711.033-2.538.166V4.125zM12.66 22.688l4.527-4.528v9.055l-4.527-4.527zm-1.174-.771c-.994.994-2.728.994-3.722 0l-4.73-4.73h13.181l-4.729 4.73zm-4.896.77l-4.527 4.528V18.16l4.527 4.527zm1.08.865c.591.331 1.26.51 1.955.51.696 0 1.364-.179 1.955-.51l4.635 4.636H3.035l4.635-4.636zM22 41.938a3.444 3.444 0 01-3.368-2.75h6.736A3.444 3.444 0 0122 41.938z" fill="#000"/><path d="M36.438 26.813a.687.687 0 100-1.375.687.687 0 000 1.375zm-.688-8.25h1.375v5.5H35.75v-5.5zM22.377 8.944A9.854 9.854 0 0022 8.937v1.376c.11 0 .22.002.33.005 2.77.098 5.29 1.492 6.912 3.825l1.129-.786c-1.873-2.69-4.786-4.298-7.994-4.413zM11.688 33.688h6.874v1.374h-6.875v-1.374zm0-2.75h6.874v1.375h-6.875v-1.376z" fill="#000"/></svg>