<svg width="105" height="105" fill="none" xmlns="http://www.w3.org/2000/svg"><path d="M52.5 49.262c9.328 0 16.89-7.562 16.89-16.89s-7.562-16.89-16.89-16.89-16.89 7.562-16.89 16.89 7.562 16.89 16.89 16.89z" fill="#FFD071"/><path d="M104.86 101.622h-3.378V105h3.378v-3.378zm-101.342 0H.14V105h3.378v-3.378zm12.193-27.025H37.3V71.22H18.35l-1.085-4.343 3.87-2.68 1.014 4.055 3.277-.82-1.323-5.29 12.183-8.433c2.467 11.5 6.005 19.4 6.233 19.9l.45.989h19.065l.45-.99c.227-.5 3.766-8.401 6.232-19.9l12.183 8.433-1.323 5.29 3.277.82 1.013-4.056 3.872 2.68-1.087 4.344h-18.95v3.379H89.29l2.292-9.17L69.43 50.093c.973-5.388 1.65-11.403 1.65-17.721C71.08 11.389 54.093.954 53.37.522L52.5 0l-.87.522c-.723.432-17.71 10.867-17.71 31.85 0 6.319.678 12.333 1.651 17.721L13.419 65.428l2.292 9.17zm36.79-70.594c3.349 2.375 15.2 11.945 15.2 28.369 0 12.923-3.016 24.739-5.411 32.091h-3.034v3.378h1.873a85.356 85.356 0 01-1.3 3.379h-14.66a85.196 85.196 0 01-1.3-3.379h12.01v-3.378H42.71c-2.395-7.352-5.412-19.168-5.412-32.091 0-16.424 11.852-25.994 15.201-28.369z" fill="#000"/><path d="M52.5 34.06c.93 0 1.69.76 1.69 1.69 0 .93-.76 1.689-1.69 1.689-.93 0-1.689-.758-1.689-1.69h-3.378c0 2.2 1.417 4.058 3.378 4.757v3.69h3.378v-3.69c1.961-.699 3.378-2.557 3.378-4.756a5.073 5.073 0 00-5.067-5.067c-.93 0-1.689-.759-1.689-1.69 0-.93.758-1.688 1.69-1.688.93 0 1.688.758 1.688 1.689h3.378c0-2.2-1.417-4.057-3.378-4.756v-3.69h-3.378v3.69c-1.96.699-3.378 2.557-3.378 4.756A5.073 5.073 0 0052.5 34.06zm35.262 58.485a13.44 13.44 0 00-13.305-11.191c-4.421 0-8.343 2.145-10.81 5.438-1.293-.974-2.788-1.65-4.39-1.92v-6.896h-3.379V88.11h1.69c1.63 0 3.166.611 4.384 1.658a13.407 13.407 0 00-.863 7.069l3.343-.488a10.11 10.11 0 01-.109-1.483c0-5.59 4.546-10.134 10.135-10.134 4.425 0 8.17 2.81 9.548 6.811a11.936 11.936 0 00-1.103-.055 11.803 11.803 0 00-7.86 2.991l2.247 2.523a8.424 8.424 0 015.613-2.136c4.077 0 7.489 2.907 8.274 6.756H13.823c.786-3.85 4.196-6.756 8.275-6.756 2.206 0 4.293.844 5.876 2.38l2.351-2.427a11.766 11.766 0 00-9.33-3.276c1.378-4 5.12-6.811 9.548-6.811 3.43 0 6.587 1.745 8.453 4.582-1.057 1.598-1.697 3.496-1.697 5.552h3.378a6.763 6.763 0 016.756-6.756h1.69V77.976h-3.379v6.896c-1.628.273-3.108.963-4.374 1.915a13.509 13.509 0 00-10.827-5.433c-6.657 0-12.2 4.744-13.305 11.191a11.837 11.837 0 00-6.828 9.077H6.896V105h91.208v-3.378H94.59a11.837 11.837 0 00-6.829-9.077z" fill="#000"/></svg>