<svg width="43" height="43" fill="none" xmlns="http://www.w3.org/2000/svg"><path d="M32.688 43l1.208-3.625H16.557a2.66 2.66 0 01-2.656-2.656V27.63h1.382v9.088c0 .703.571 1.274 1.274 1.274h19.257l-.634 1.901 3.168-1.9h1.911c.703 0 1.274-.572 1.274-1.275V25.452c0-.703-.572-1.275-1.275-1.275H25.645v-1.381h14.613a2.66 2.66 0 012.656 2.656v11.267a2.659 2.659 0 01-2.656 2.656h-1.527L32.688 43z" fill="#333"/><path d="M15.973 15.888h10.362v9.778a2.66 2.66 0 01-2.656 2.656h-.798l1.382 3.454-6.217-3.454H2.742a2.66 2.66 0 01-2.657-2.656V14.4a2.66 2.66 0 012.657-2.656h11.85v2.764l1.381 1.381z" fill="#F0BC5E"/><path d="M32.688 20.204l1.208-3.625H16.557a2.66 2.66 0 01-2.656-2.656V2.656A2.66 2.66 0 0116.557 0H40.26a2.659 2.659 0 012.655 2.656v11.268a2.659 2.659 0 01-2.656 2.655h-1.527l-6.043 3.625zM16.558 1.382c-.704 0-1.275.57-1.275 1.274v11.268c0 .702.571 1.273 1.274 1.273h19.257l-.634 1.901 3.168-1.9h1.911c.703 0 1.274-.572 1.274-1.275V2.656c0-.703-.572-1.274-1.275-1.274h-23.7z" fill="#333"/><path d="M39.46 4.145H17.356v1.381h22.106V4.145zm0 3.454H17.356V8.98h22.106V7.6zm-3.453 3.454H17.356v1.381h18.65v-1.381zm3.453 0h-1.38v1.381h1.381v-1.381zm-26.94 4.835H3.54v1.382h8.98v-1.382zm10.361 3.454H3.54v1.382h19.34v-1.382zm-3.453 3.454H3.54v1.381h15.888v-1.381zm3.454 0H21.5v1.381h1.382v-1.381zM39.46 26.94H28.408v1.382H39.46v-1.381zm0 3.455H26.335v1.381H39.46v-1.381zm-3.453 3.453H17.356v1.382h18.65v-1.382zm3.453 0h-1.38v1.382h1.381v-1.382z" fill="#333"/></svg>