<svg width="59" height="59" fill="none" xmlns="http://www.w3.org/2000/svg"><path d="M41.871 31.404H17.129V10.468H41.87v20.936z" fill="#F2CB56"/><path d="M9.516 0v59h39.968V0H9.516zm38.065 57.097H11.419V1.903h36.162v55.194z" fill="#333"/><path d="M43.548 33.306h-4.305c-1.175 0-2.13.956-2.13 2.13v3.352c0 1.176.955 2.131 2.13 2.131h4.304c1.175 0 2.13-.955 2.13-2.13v-3.352c0-1.175-.955-2.13-2.13-2.13zm-4.306 1.904h4.305c.126 0 .227.1.227.226v.725h-4.758v-.725c0-.126.1-.227.227-.227zm4.306 3.806h-4.305a.226.226 0 01-.227-.227v-.725h4.758v.725c0 .126-.1.227-.226.227zm-23.564-2.855h-6.661v1.904h6.661V36.16zm25.694 6.662H13.323v1.903h32.355v-1.903zM19.984 55.194h19.032v-8.565H19.984v8.565zm1.903-1.904v-.951h15.226v.951H21.887zm15.226-4.758v1.904H21.887v-1.904h15.226zM15.226 12.37h-1.903v1.904h1.903v-1.903zm0 3.807h-1.903v1.904h1.903v-1.904zm0 3.807h-1.903v1.903h1.903v-1.903zm0 3.806h-1.903v1.904h1.903V23.79zm0 3.807h-1.903V29.5h1.903v-1.903zM45.677 12.37h-1.903v1.904h1.903v-1.903zm0 3.807h-1.903v1.904h1.903v-1.904zm0 3.807h-1.903v1.903h1.903v-1.903zm0 3.806h-1.903v1.904h1.903V23.79zm0 3.807h-1.903V29.5h1.903v-1.903zM35.21 8.565h10.468V6.66H35.21V4.556c0-.938-.763-1.701-1.702-1.701h-8.016c-.938 0-1.701.763-1.701 1.701v2.105H13.323v1.904H35.21zm-9.516-3.807h7.613v1.903h-7.613V4.758z" fill="#333"/></svg>