<svg width="33" height="32" fill="none" xmlns="http://www.w3.org/2000/svg"><path d="M28.873 15.386l-.408-.306-5.264 6.606-5.154-6.386v-1.48l5.156 6.5 5.878-7.41-.406-.305c-1.306-.98-3.108-2.105-5.472-2.105-2.182 0-3.88.957-5.156 1.876V8c0-1.378-1.157-2.5-2.578-2.5h-.54v1h.54c.853 0 1.547.673 1.547 1.5v21c0 .827-.694 1.5-1.547 1.5H3.094c-.853 0-1.547-.673-1.547-1.5V8c0-.827.694-1.5 1.547-1.5h.54v-1h-.54C1.672 5.5.516 6.622.516 8v21c0 1.378 1.156 2.5 2.578 2.5h12.375a2.572 2.572 0 002.408-1.631 9.49 9.49 0 005.326 1.631c5.118 0 9.281-4.038 9.281-9 0-2.8-1.316-5.392-3.61-7.114zm-5.67-3.886c1.473 0 2.856.495 4.43 1.597l-4.43 5.583-4.43-5.583c1.575-1.102 2.957-1.597 4.43-1.597zm5.438 4.994c1.793 1.523 2.812 3.685 2.812 6.006 0 2.026-.787 3.873-2.072 5.284l-5.493-5.326 4.753-5.963zm-4.922 7.213l4.933 4.784a8.342 8.342 0 01-4.933 1.984v-6.768zm-1.032-1.035v7.806a8.394 8.394 0 01-4.64-1.74V16.922l4.64 5.75z" fill="#000"/><path d="M2.578 20.5v8c0 .552.463 1 1.031 1h11.344c.569 0 1.031-.448 1.031-1v-8c0-.552-.462-1-1.03-1H3.608c-.568 0-1.03.448-1.03 1zm4.125 0v2H3.61v-2h3.094zm4.125 5H7.734v-2h3.094v2zm1.031-2h3.095v2h-3.095v-2zm-1.03 3v2H7.733v-2h3.094zm-4.126-1H3.61v-2h3.094v2zm1.031-3v-2h3.094v2H7.734zm-4.125 4h3.094v2H3.61v-2zm8.25 2v-2h3.095v2h-3.095zm3.094-6H11.86v-2h3.094v2zm10.313-.5h1.03v1h-1.03v-1zm2.062 0h1.031v1h-1.03v-1zm2.062 0h1.032v1H29.39v-1zm-10.312 5.5h1.031v1h-1.03v-1zm0-2h1.031v1h-1.03v-1zm0-2h1.031v1h-1.03v-1zm-4.125-10H3.61c-.568 0-1.03-.448-1.03-1v-4c0-.551.462-1 1.03-1h.946v1H3.61v4h11.344v-4h-.945v-1h.945c.569 0 1.031.449 1.031 1v4c0 .552-.462 1-1.03 1z" fill="#000"/><path d="M9.281 11.5C6.154 11.5 3.61 9.033 3.61 6S6.154.5 9.281.5s5.672 2.467 5.672 5.5-2.544 5.5-5.672 5.5z" fill="#F2CB56"/><path d="M9.281 5.5a.508.508 0 01-.515-.5v-.5h.515c.285 0 .516.224.516.5h1.031c0-.651-.432-1.201-1.031-1.408V2.5H8.766v1H7.734V5c0 .827.694 1.5 1.547 1.5.285 0 .516.224.516.5v.5H9.28a.508.508 0 01-.515-.5H7.734c0 .651.433 1.201 1.032 1.408V9.5h1.03v-1h1.032V7c0-.827-.694-1.5-1.547-1.5z" fill="#000"/><path d="M9.281 18.5c1.14 0 2.063-.895 2.063-2s-.924-2-2.063-2c-1.139 0-2.062.895-2.062 2s.923 2 2.062 2zm5.157-.5c.854 0 1.546-.672 1.546-1.5s-.692-1.5-1.546-1.5c-.855 0-1.547.672-1.547 1.5s.692 1.5 1.546 1.5zM4.125 18c.854 0 1.547-.672 1.547-1.5S4.979 15 4.125 15s-1.547.672-1.547 1.5.693 1.5 1.547 1.5z" fill="#F2CB56"/></svg>