<svg width="59" height="59" fill="none" xmlns="http://www.w3.org/2000/svg"><g clip-path="url(#clip0)"><path d="M45.417 32.069l-1.346-1.346a1.743 1.743 0 000-2.462c-.657-.658-1.803-.658-2.461 0l-1.346-1.346.952-.952a1.743 1.743 0 000-2.462c-.658-.657-1.804-.657-2.462 0l-.952.952-1.346-1.346 1.904-1.904a1.743 1.743 0 000-2.461 1.743 1.743 0 00-2.462 0l-1.904 1.904-1.346-1.346.952-.952c.33-.33.51-.766.51-1.23a1.743 1.743 0 00-2.97-1.23l-.953.95-1.346-1.346.952-.952a3.65 3.65 0 015.153 0 3.626 3.626 0 011.017 1.98 3.652 3.652 0 013.742.876 3.65 3.65 0 01.876 3.743c.725.12 1.421.457 1.98 1.016a3.65 3.65 0 01.876 3.743c.725.12 1.42.458 1.98 1.016a3.648 3.648 0 010 5.155zM30.745 43.097l-2.726 2.725-6.64 2.846-9.635 8.672 1.274 1.414 3.236-2.913c.387.195.771.396 1.16.57l.78-1.736c-.14-.063-.278-.139-.417-.204l4.641-4.178 6.687-2.865 2.985-2.986-1.345-1.345z" fill="#333"/><path d="M24.512 10.06L10.083 24.49l3.317 3.317 3.261-3.153.012-.012a2.01 2.01 0 012.838 0c.674.674.78 1.74.252 2.532l-2.799 4.196 17.554 17.554 14.43-14.43L24.511 10.06zm8.466 22.896a4.899 4.899 0 01-6.927-6.927 4.899 4.899 0 016.927 6.927z" fill="#F2CB56"/><path d="M29.516 35.342a5.81 5.81 0 01-4.137-1.714 5.81 5.81 0 01-1.714-4.136c0-1.564.609-3.033 1.714-4.137a5.809 5.809 0 014.137-1.714c1.563 0 3.032.609 4.136 1.714a5.809 5.809 0 011.714 4.137 5.81 5.81 0 01-1.715 4.136 5.805 5.805 0 01-4.135 1.714zm0-9.796a3.924 3.924 0 00-2.791 1.156 3.916 3.916 0 00-1.157 2.79c0 1.054.411 2.045 1.157 2.79a3.921 3.921 0 002.79 1.157 3.924 3.924 0 002.79-1.156 3.916 3.916 0 001.157-2.79 3.924 3.924 0 00-1.156-2.791 3.918 3.918 0 00-2.79-1.157zm-14.12 8.177l1.584 1.055 4.366-6.548a3.922 3.922 0 00-.489-4.935 3.916 3.916 0 00-5.531 0l-5.727 5.726-1.903 9.52-3.006 3.007c-.081-.166-.173-.328-.25-.496l-1.728.798c.174.376.37.744.561 1.114L.285 45.953l1.346 1.346L9.45 39.48l1.904-9.519 5.319-5.32a2.01 2.01 0 012.838 0c.674.675.78 1.74.252 2.533l-4.367 6.549zM3.895 19.195l-1.766-.71a29.531 29.531 0 00-1.237 3.808l1.845.463a27.704 27.704 0 011.158-3.561zm3.704-6.489l-1.51-1.16a29.232 29.232 0 00-2.216 3.334l1.652.942A27.747 27.747 0 017.6 12.706zM.382 34.211c.21 1.313.514 2.626.904 3.9l1.82-.556a27.446 27.446 0 01-.845-3.644l-1.879.3zm1.528-4.719c0-1.02.057-2.047.168-3.054L.186 26.23a29.799 29.799 0 00-.17 3.997l1.904-.045c-.006-.23-.009-.462-.01-.69zm52.15-16.381a29.94 29.94 0 00-2.441-3.167l-1.426 1.26a27.89 27.89 0 012.285 2.965l1.582-1.058zM12.903 7.443l-1.147-1.52a30.108 30.108 0 00-3.024 2.62l1.34 1.352a28.023 28.023 0 012.83-2.452zm44.188 20.785l1.902-.088a29.657 29.657 0 00-.45-3.974l-1.873.34c.223 1.222.364 2.473.421 3.722zm.466-7.942a29.625 29.625 0 00-1.503-3.708l-1.713.833a27.698 27.698 0 011.407 3.468l1.809-.593zM19.414 3.794l-.697-1.772a29.51 29.51 0 00-3.613 1.715l.932 1.66a27.315 27.315 0 013.378-1.603zM30.41 1.902c1.247.04 2.5.165 3.725.372L34.45.396A29.763 29.763 0 0030.47 0l-.06 1.902zM43.495 53.3l.967 1.641a29.753 29.753 0 003.301-2.258l-1.178-1.494c-.98.77-2.019 1.48-3.09 2.112zm1.038-46.973a27.628 27.628 0 012.995 2.249l1.244-1.443a29.844 29.844 0 00-3.201-2.403l-1.038 1.597zm-6.758-3.183a27.59 27.59 0 013.488 1.36l.812-1.722a29.233 29.233 0 00-3.73-1.454l-.57 1.816zm16.01 39.51l1.673.91a29.49 29.49 0 001.668-3.64l-1.781-.673a27.306 27.306 0 01-1.56 3.403zm2.64-6.987l1.855.423c.297-1.295.506-2.625.624-3.952l-1.896-.17a27.502 27.502 0 01-.583 3.699zm-7.064 13.011l1.37 1.324a29.506 29.506 0 002.58-3.058l-1.533-1.127a27.959 27.959 0 01-2.417 2.861zm-12.754 7.499l.49 1.84a29.095 29.095 0 003.786-1.287l-.733-1.757c-1.148.48-2.34.885-3.543 1.204zm-15.334 1.656c1.28.37 2.596.656 3.91.851l.278-1.884c-1.23-.18-2.46-.449-3.658-.796l-.53 1.83zM22.532.816l.448 1.85a27.779 27.779 0 013.69-.633L26.473.138a29.757 29.757 0 00-3.942.678zm6.983 56.28l-.324-.002-.017 1.904.34.002c1.222 0 2.45-.075 3.653-.224l-.234-1.888a28.137 28.137 0 01-3.418.208z" fill="#333"/></g><defs><clipPath id="clip0"><path fill="#fff" d="M0 0h59v59H0z"/></clipPath></defs></svg>