<svg width="31" height="32" fill="none" xmlns="http://www.w3.org/2000/svg"><path d="M21.313 2.5h-1.938v1h1.938c.8 0 1.453.673 1.453 1.5v1.5h-.97v1h.97v6.64h.968V5c0-1.378-1.086-2.5-2.422-2.5z" fill="#000"/><path d="M19.86 6.5h.968v1h-.969v-1zm-3.876 4h3.875v1h-3.875v-1zm-2.28.146l-.899.928a3.792 3.792 0 00-2.633-1.074c-2.137 0-3.875 1.794-3.875 4s1.738 4 3.875 4c2.136 0 3.875-1.794 3.875-4 0-.794-.228-1.534-.617-2.156l.96-.99-.686-.707zm-.626 3.854c0 1.654-1.303 3-2.906 3-1.603 0-2.906-1.346-2.906-3 0-1.655 1.303-3 2.906-3 .75 0 1.433.297 1.949.781l-2.918 3.012-.626-.646-.685.707 1.311 1.353 3.524-3.637c.224.425.351.912.351 1.43zm2.906-2h.97v1h-.97v-1zm1.938 0h.969v1h-.97v-1z" fill="#000"/><path d="M1.453 20V7.5h17.438v-1H1.453V5c0-.827.652-1.5 1.453-1.5h1.938v-1H2.906C1.571 2.5.484 3.622.484 5v15c0 1.378 1.087 2.5 2.422 2.5h10.681v-1H2.907c-.802 0-1.454-.673-1.454-1.5z" fill="#000"/><path d="M20.828 8.5H3.391c-.535 0-.97.448-.97 1v10c0 .552.435 1 .97 1h10.535v-1H3.39v-10h17.437v4.525h.969V9.5c0-.552-.435-1-.969-1z" fill="#000"/><path d="M4.36 17.5h.968v1H4.36v-1zm0-2h.968v1H4.36v-1zm0-2h.968v1H4.36v-1z" fill="#000"/><path d="M21.797 31.5c-4.808 0-8.719-4.038-8.719-9s3.912-9 8.719-9c4.807 0 8.719 4.038 8.719 9s-3.912 9-8.72 9zm0-15.5c-3.472 0-6.297 2.916-6.297 6.5s2.825 6.5 6.297 6.5c3.472 0 6.297-2.916 6.297-6.5S25.269 16 21.797 16z" fill="#F2CB56"/><path d="M21.797 15.5c-3.74 0-6.781 3.14-6.781 7s3.042 7 6.78 7c3.74 0 6.782-3.14 6.782-7s-3.042-7-6.781-7zm5.788 7.5a6.072 6.072 0 01-1.354 3.37l-1.352-1.395-.685.707 1.352 1.396a5.69 5.69 0 01-3.265 1.397V26.5h-.969v1.974a5.69 5.69 0 01-3.265-1.397l1.352-1.396-.685-.707-1.352 1.396A6.072 6.072 0 0116.008 23h1.914v-1h-1.913a6.071 6.071 0 011.354-3.371l1.352 1.395.685-.707-1.352-1.395a5.69 5.69 0 013.265-1.398V18.5h.969v-1.974a5.69 5.69 0 013.265 1.397l-1.352 1.396.685.707 1.352-1.396A6.071 6.071 0 0127.586 22h-1.914v1h1.913z" fill="#000"/><path d="M21.313 22.293l-1.796 1.854.685.707 2.08-2.147V20.5h-.97v1.793zM13.563 2.5h2.906v1h-2.907v-1zm-5.813 0h2.906v1H7.75v-1z" fill="#000"/><path d="M18.89 5.5h-1.937c-.534 0-.969-.449-.969-1v-3c0-.551.435-1 .97-1h1.937c.534 0 .968.449.968 1v3c0 .551-.434 1-.968 1zm-5.812 0h-1.937c-.535 0-.97-.449-.97-1v-3c0-.551.435-1 .97-1h1.937c.534 0 .969.449.969 1v3c0 .551-.435 1-.969 1zm-5.812 0H5.328c-.534 0-.969-.449-.969-1v-3c0-.551.435-1 .97-1h1.937c.534 0 .968.449.968 1v3c0 .551-.434 1-.968 1z" fill="#F2CB56"/></svg>