<svg width="57" height="58" fill="none" xmlns="http://www.w3.org/2000/svg"><path d="M5.344 23.563h3.562v9.062H5.344v-9.063zm7.125 1.812h3.562v9.063H12.47v-9.063zm7.125-3.625h3.562v9.063h-3.562V21.75zm7.125 1.813h3.562v7.25H26.72v-7.25zm7.125 3.625h3.562v7.25h-3.562v-7.25z" fill="#F0BC5E"/><path d="M48.094 20.844h-1.782a.9.9 0 01-.89-.907H43.64c0 1.5 1.198 2.72 2.672 2.72v1.812h1.78v-1.813c1.474 0 2.673-1.22 2.673-2.718 0-1.5-1.2-2.72-2.672-2.72h-1.782a.9.9 0 01-.89-.905c0-.5.4-.907.89-.907h1.782a.9.9 0 01.89.906h1.782c0-1.498-1.2-2.718-2.672-2.718V11.78h-1.782v1.813c-1.473 0-2.671 1.22-2.671 2.719 0 1.498 1.198 2.718 2.672 2.718h1.78a.9.9 0 01.891.907.9.9 0 01-.89.906z" fill="#000"/><path d="M56.11 19.031v-.38a9.172 9.172 0 00-1.354-4.803l-2.93-4.77.909-1.388c.46-.7.703-1.517.703-2.36v-.167c0-2.347-1.877-4.257-4.184-4.257-1.326 0-2.437.904-2.803 2.134a2.874 2.874 0 00-1.299-.321H43.91c-1.622 0-2.941 1.342-2.941 2.993 0 .593.17 1.167.494 1.66l1.118 1.707-2.93 4.77c-.058.095-.1.199-.154.296a4.364 4.364 0 00-2.09-.551H5.343c-2.456 0-4.453 2.033-4.453 4.531v27.188c0 2.498 1.997 4.53 4.453 4.53h7.125v1.813c-1.965 0-3.563 1.626-3.563 3.625v1.813h24.938V55.28c0-1.999-1.598-3.625-3.563-3.625v-1.812h7.125c.63 0 1.245-.137 1.807-.392.263 4.258 3.741 7.642 7.99 7.642 4.42 0 8.016-3.659 8.016-8.157v-3.624c0-4.192-3.124-7.651-7.125-8.103v-.96c0-.5.4-.906.89-.906h4.453c1.474 0 2.672-1.22 2.672-2.719 0-1.499-1.198-2.719-2.672-2.719h-4.453a.9.9 0 01-.89-.906v-.953c4.494-.455 8.015-4.325 8.015-9.016zm-12.2-14.5h1.243c.64 0 1.16.53 1.16 1.181v.632h1.78V3.9c0-.652.52-1.181 1.161-1.181 1.325 0 2.402 1.096 2.402 2.444v.167c0 .484-.14.953-.403 1.355l-.964 1.471h-6.172l-1.172-1.79a1.19 1.19 0 01-.195-.654c0-.651.52-1.18 1.16-1.18zm.224 5.438h6.138l2.973 4.84a7.327 7.327 0 011.083 3.842v.38c0 3.998-3.196 7.25-7.125 7.25-3.928 0-7.125-3.252-7.125-7.25v-.38c0-1.36.374-2.688 1.083-3.841l2.973-4.841zm-38.79 5.437h32.062c.486 0 .955.138 1.365.386a9.182 9.182 0 00-.474 2.86v.38c0 2.03.668 3.9 1.781 5.413v16.336H2.672V18.125c0-1.499 1.199-2.719 2.672-2.719zm26.718 39.875H10.689c0-1 .798-1.812 1.78-1.812h17.813c.983 0 1.782.813 1.782 1.812zM28.5 51.656H14.25v-1.812H28.5v1.812zM5.344 48.031c-1.473 0-2.672-1.22-2.672-2.718v-2.72h36.983a8.224 8.224 0 00-.468 2.72v2.005a2.638 2.638 0 01-1.78.713H5.343zm41.86 7.25c-3.439 0-6.235-2.846-6.235-6.343v-.907h12.468v.907c0 3.497-2.796 6.343-6.234 6.343zm6.233-9.968v.906H40.97v-.907a6.355 6.355 0 013.562-5.722v2.097c0 1.5 1.199 2.72 2.672 2.72s2.672-1.22 2.672-2.72V39.59a6.355 6.355 0 013.563 5.722zm-6.234-6.344c.303 0 .599.03.89.072v2.647a.9.9 0 01-.89.906.9.9 0 01-.89-.907v-2.646a6.15 6.15 0 01.89-.072zm1.781-7.25h4.453a.9.9 0 01.891.906.9.9 0 01-.89.906h-4.454c-1.473 0-2.672 1.22-2.672 2.719v.96a7.913 7.913 0 00-4.453 2.04V26.265a8.76 8.76 0 004.453 1.784V29c0 1.499 1.2 2.719 2.672 2.719z" fill="#000"/><path d="M17.813 46.219c.491 0 .89-.406.89-.907 0-.5-.399-.906-.89-.906a.899.899 0 00-.891.907c0 .5.399.906.89.906zm3.562 0c.492 0 .89-.406.89-.907 0-.5-.398-.906-.89-.906a.899.899 0 00-.89.907c0 .5.398.906.89.906zm3.563 0c.491 0 .89-.406.89-.907 0-.5-.399-.906-.89-.906a.899.899 0 00-.891.907c0 .5.399.906.89.906zM6.234 19.031h1.782v4.532H6.234V19.03zm0 13.594h1.782v4.531H6.234v-4.531zm7.126-11.781h1.78v4.531h-1.78v-4.531zm0 13.594h1.78v4.53h-1.78v-4.53zm7.124-17.219h1.782v4.531h-1.782v-4.531zm0 13.594h1.782v4.53h-1.782v-4.53zm7.126-11.782h1.78v4.532h-1.78V19.03zm0 11.782h1.78v4.53h-1.78v-4.53zm7.124-8.157h1.782v4.532h-1.782v-4.532zm0 11.782h1.782v4.53h-1.782v-4.53z" fill="#000"/></svg>