<svg width="55" height="56" fill="none" xmlns="http://www.w3.org/2000/svg"><path d="M39.92 18.967a3.625 3.625 0 00-1.775-3.13h-.272c.174-.426.273-.894.273-1.386 0-1.995-1.59-3.613-3.549-3.613h-.125c-.395-1.555-1.771-2.71-3.423-2.71-1.652 0-3.028 1.155-3.424 2.71h-.25c-.396-1.555-1.772-2.71-3.424-2.71s-3.027 1.155-3.423 2.71h-.124c-1.96 0-3.549 1.618-3.549 3.613 0 .492.099.96.273 1.386h-.272a3.625 3.625 0 00-1.775 3.13 3.61 3.61 0 002.08 3.28 2.708 2.708 0 001.469 3.79h.134c-.08.342-.135.694-.135 1.06 0 2.493 1.987 4.515 4.436 4.515 2.45 0 4.435-2.022 4.435-4.516 0 2.494 1.987 4.517 4.436 4.517 2.45 0 4.435-2.023 4.435-4.517 0-.365-.054-.717-.135-1.057h.135a2.708 2.708 0 001.47-3.791 3.61 3.61 0 002.079-3.28zM55 18.064v-.903c0-1.993-1.592-3.613-3.548-3.613v-1.806h-1.775v1.806c-1.957 0-3.548 1.62-3.548 3.613 0 1.992 1.591 3.613 3.548 3.613h1.775c.978 0 1.774.81 1.774 1.806s-.796 1.807-1.774 1.807h-1.775c-.978 0-1.774-.81-1.774-1.807v-.903H46.13v.903c0 1.993 1.591 3.613 3.548 3.613V28h1.775v-1.806c1.956 0 3.548-1.62 3.548-3.613 0-1.992-1.592-3.613-3.548-3.613h-1.775c-.978 0-1.774-.81-1.774-1.806s.796-1.807 1.774-1.807h1.775c.978 0 1.774.81 1.774 1.807v.903H55zM5.323 13.548v-1.806H3.548v1.806C1.591 13.548 0 15.168 0 17.16s1.591 3.613 3.548 3.613h1.775c.978 0 1.774.81 1.774 1.806s-.796 1.807-1.774 1.807H3.548c-.978 0-1.774-.81-1.774-1.807v-.903H0v.903c0 1.993 1.591 3.613 3.548 3.613V28h1.775v-1.806c1.957 0 3.548-1.62 3.548-3.613 0-1.992-1.591-3.613-3.548-3.613H3.548c-.978 0-1.774-.81-1.774-1.806s.796-1.807 1.774-1.807h1.775c.978 0 1.774.81 1.774 1.807v.903H8.87v-.903c0-1.993-1.591-3.613-3.548-3.613z" fill="#FFCB57"/><path d="M33.71 37.935h-1.774v1.806h1.774v-1.806zm3.548 0h-1.775v1.806h1.775v-1.806zm-17.742 0h-1.774v1.806h1.774v-1.806zm3.548 0H21.29v1.806h1.774v-1.806z" fill="#3F3A34"/><path d="M47.256 27.778c-1.05 4.208-3.391 8.063-6.598 10.854a9.888 9.888 0 00-2.992 4.723h-7.505V32.2a5.195 5.195 0 001.774.316c2.935 0 5.323-2.43 5.323-5.42 0-.16-.01-.318-.024-.475a3.628 3.628 0 001.697-3.976 4.545 4.545 0 00.017-7.345c.05-.275.084-.558.084-.849 0-2.302-1.707-4.185-3.896-4.46-.674-1.623-2.252-2.765-4.088-2.765-1.456 0-2.74.728-3.548 1.834-.81-1.106-2.093-1.834-3.549-1.834-1.836 0-3.414 1.142-4.088 2.765-2.189.275-3.896 2.158-3.896 4.46 0 .291.033.574.085.85a4.545 4.545 0 00.017 7.345 3.628 3.628 0 001.697 3.975 5.272 5.272 0 00-.025.476c0 2.988 2.388 5.419 5.323 5.419.623 0 1.218-.116 1.774-.316v11.155H17.32a10.275 10.275 0 00-3.065-4.798c-3.164-2.786-5.479-6.614-6.517-10.78l-1.72.444c1.127 4.52 3.64 8.677 7.077 11.702a8.498 8.498 0 012.358 3.43h-1.26v1.807H15.9c.042.332.068.665.068 1v.808h-1.774v1.806h1.774v1.806h-1.774v1.807h1.774V56h23.065v-3.613h1.774V50.58h-1.774v-1.806h1.774v-1.806h-1.774v-.809c0-.336.026-.67.065-.998h1.709v-1.806h-1.275a8.073 8.073 0 012.28-3.351c3.483-3.03 6.027-7.215 7.166-11.782l-1.721-.444zM31.048 9.032c1.467 0 2.661 1.216 2.661 2.71s-1.194 2.71-2.661 2.71v1.806c2.392 0 4.333-1.941 4.42-4.355a2.7 2.7 0 011.79 2.548c0 1.494-1.195 2.71-2.662 2.71v1.806c1.502 0 2.828-.768 3.63-1.935.506.505.806 1.2.806 1.936a2.715 2.715 0 01-1.561 2.458l-.848.395.427.842c.138.27.208.546.208.82 0 .49-.21.931-.535 1.263-.86-1.812-2.681-3.069-4.788-3.069v1.807c1.957 0 3.548 1.62 3.548 3.613 0 1.992-1.591 3.612-3.548 3.612s-3.548-1.62-3.548-3.612V11.742c0-1.494 1.194-2.71 2.66-2.71zM19.516 27.097c0-1.993 1.591-3.613 3.548-3.613v-1.807c-2.107 0-3.927 1.257-4.788 3.07a1.808 1.808 0 01-.535-1.263c0-.275.07-.55.207-.821l.427-.843-.847-.395a2.713 2.713 0 01-1.56-2.457c0-.737.3-1.431.805-1.936.803 1.167 2.128 1.936 3.63 1.936V17.16c-1.467 0-2.662-1.216-2.662-2.71a2.7 2.7 0 011.79-2.548c.087 2.414 2.029 4.355 4.42 4.355V14.45c-1.467 0-2.661-1.215-2.661-2.71 0-1.493 1.194-2.709 2.661-2.709s2.661 1.216 2.661 2.71v15.355c0 1.992-1.591 3.612-3.548 3.612s-3.548-1.62-3.548-3.612zm7.096 4.028c.337-.307.637-.654.888-1.039.25.385.55.732.887 1.039v12.23h-1.775v-12.23zm10.646 23.068H17.74v-1.806h19.517v1.806zm0-3.613H17.74v-1.806h19.517v1.806zm0-4.42v.808H17.74v-.808c0-.335-.02-.668-.055-.999H37.31c-.033.33-.053.663-.053.998z" fill="#3F3A34"/><path d="M26.651 1.824c7.915-.334 15.351 4.085 18.98 11.235l1.577-.829C43.264 4.458 35.156-.335 26.58.02c-7.904.324-15.103 5-18.786 12.207l1.573.835C12.758 6.429 19.38 2.123 26.65 1.824z" fill="#3F3A34"/></svg>