<svg width="58" height="58" fill="none" xmlns="http://www.w3.org/2000/svg"><path d="M31.719 35.344H26.28v-7.27a4.536 4.536 0 01-1.812-3.605A4.536 4.536 0 0129 19.937a4.536 4.536 0 014.531 4.532 4.536 4.536 0 01-1.812 3.606v7.269zm19.937-12.688H46.22v-9.062h-3.447l6.166-9.866 6.166 9.866h-3.448v9.062zm-39.875 0H6.344v-9.062H2.896l6.167-9.866 6.166 9.866H11.78v9.062z" fill="#F0BC5E"/><path d="M57.094 28.347l-6.197-2.066H40.142a417.381 417.381 0 00-1.184-8.294l-.118-.768h-1.088c-.2 0-.397-.02-.596-.03V9.063c0-4.497-3.66-8.156-8.156-8.156-4.497 0-8.156 3.659-8.156 8.156v8.128c-.199.01-.395.029-.596.029H19.16l-.118.768c-.044.288-.677 4.41-1.184 8.294H7.103L.906 28.347v18.222l5.438-1.812v7.806a4.536 4.536 0 004.531 4.53h36.25a4.536 4.536 0 004.531-4.53v-7.806l5.438 1.813V28.346zM22.656 9.062A6.351 6.351 0 0129 2.72a6.351 6.351 0 016.344 6.344v7.897a11.36 11.36 0 01-1.813-.547v-7.35A4.536 4.536 0 0029 4.53a4.536 4.536 0 00-4.531 4.532v7.35a11.36 11.36 0 01-1.813.547V9.063zm9.063 6.433a11.545 11.545 0 01-2.078-1.636L29 13.22l-.64.64a11.545 11.545 0 01-2.079 1.636V9.063A2.722 2.722 0 0129 6.342a2.722 2.722 0 012.719 2.72v6.432zm-11.001 3.528A13.176 13.176 0 0029 15.742a13.176 13.176 0 008.282 3.281c.398 2.642 1.687 11.376 1.687 13.602 0 .749-2.294 2.973-8.612 6.035a3.14 3.14 0 01-2.713 0c-6.319-3.062-8.613-5.286-8.613-6.035 0-2.226 1.289-10.96 1.687-13.602zm3.544 19.946H9.97v1.812h38.06V38.97H33.738c4.672-2.514 7.043-4.645 7.043-6.344 0-.863-.171-2.574-.41-4.531h9.473v14.5H8.156v-14.5h9.472c-.238 1.957-.41 3.668-.41 4.531 0 1.7 2.372 3.83 7.044 6.344zM2.72 44.055V29.653l3.625-1.208v14.402L2.72 44.055zM47.125 55.28h-36.25a2.722 2.722 0 01-2.719-2.718v-8.157h41.688v8.157a2.722 2.722 0 01-2.719 2.718zm8.156-11.226l-3.625-1.208V28.445l3.625 1.207v14.403z" fill="#000"/><path d="M11.781 48.031H9.97v3.625c0 1 .813 1.813 1.812 1.813h5.438v-1.813h-5.44v-3.625zm10.875 3.625h1.813v1.813h-1.813v-1.813zm-3.625 0h1.813v1.813H19.03v-1.813z" fill="#000"/></svg>