<svg width="64" height="64" fill="none" xmlns="http://www.w3.org/2000/svg"><path d="M43.354 45.42H14.451V12.386h28.903V45.42zM52.646 0a3.1 3.1 0 00-3.097 3.097v30.968h6.193V3.097A3.1 3.1 0 0052.646 0z" fill="#F0BC5E"/><path d="M20.645 4.129h2.064v2.064h-2.064V4.13zm14.453 0h2.064v2.064h-2.064V4.13zm-10.323 0h8.258v2.064h-8.258V4.13zm5.162 47.484h-2.065a3.1 3.1 0 00-3.097 3.097v2.064a3.1 3.1 0 003.097 3.097h2.065a3.1 3.1 0 003.096-3.097V54.71a3.1 3.1 0 00-3.096-3.097zm1.032 5.161c0 .57-.463 1.032-1.032 1.032h-2.065c-.57 0-1.032-.462-1.032-1.032V54.71c0-.57.463-1.033 1.032-1.033h2.065c.57 0 1.032.463 1.032 1.033v2.064zm10.322-4.129h-4.129a2.067 2.067 0 00-2.064 2.065v2.064c0 1.139.926 2.065 2.064 2.065h4.13a2.067 2.067 0 002.064-2.065V54.71a2.067 2.067 0 00-2.065-2.065zm-4.129 4.13V54.71h4.13l.001 2.064h-4.13zm-16.517-4.13h-4.13a2.067 2.067 0 00-2.064 2.065v2.064c0 1.139.926 2.065 2.065 2.065h4.129a2.067 2.067 0 002.064-2.065V54.71a2.067 2.067 0 00-2.064-2.065zm-4.13 4.13V54.71h4.13l.002 2.064h-4.131zm1.335-32.303l1.46-1.46 16.515 16.516-1.46 1.46L17.85 24.471zm4.13-6.194l1.46-1.46 16.516 16.516-1.46 1.46L21.98 18.278z" fill="#000"/><path d="M54.71 33.032h-7.226V5.162A5.167 5.167 0 0042.322 0H15.484a5.167 5.167 0 00-5.162 5.161v5.162H8.258a2.067 2.067 0 00-2.065 2.064v6.194c0 1.138.926 2.064 2.065 2.064h2.064V58.84A5.167 5.167 0 0015.484 64h26.838a5.167 5.167 0 005.162-5.161v-1.033h2.064a2.067 2.067 0 002.065-2.064v-4.13a2.067 2.067 0 00-2.065-2.064h-2.064V45.42h7.225a3.1 3.1 0 003.097-3.096V36.13a3.1 3.1 0 00-3.096-3.097zm-9.29 14.452H12.386V10.323h33.032v37.16zM15.483 2.064h26.838a3.1 3.1 0 013.097 3.097v3.097H12.387V5.161a3.1 3.1 0 013.097-3.096zm-5.162 10.323v2.065H8.258v-2.065h2.064zm-2.064 6.194v-2.065h2.064v2.065H8.258zm34.064 43.355H15.484a3.1 3.1 0 01-3.097-3.097v-9.29h33.032v9.29a3.1 3.1 0 01-3.097 3.096zm7.226-10.323v4.129h-2.064v-4.13h2.064zm6.194-9.29c0 .57-.463 1.032-1.032 1.032h-7.226v-8.258h7.225c.57 0 1.033.462 1.033 1.032v6.194z" fill="#000"/></svg>