<svg width="64" height="64" fill="none" xmlns="http://www.w3.org/2000/svg"><path d="M47 25c-1.654 0-3-1.346-3-3s1.346-3 3-3 3 1.346 3 3-1.346 3-3 3zm1.08-8h-2.16a2.012 2.012 0 01-1.993-1.834l-.916-11.003A2.923 2.923 0 0145.92 1h2.16a2.923 2.923 0 012.909 3.171l-.917 10.995A2.01 2.01 0 0148.08 17zM36 44h20v14H36V44z" fill="#F0BC5E"/><path d="M43.293 27.707L45.586 30l-2.293 2.293 1.414 1.414L47 31.414l2.293 2.293 1.414-1.414L48.414 30l2.293-2.293-1.414-1.414L47 28.586l-2.293-2.293-1.414 1.414zm10.414 6L56 31.414l2.293 2.293 1.414-1.414L57.414 30l2.293-2.293-1.414-1.414L56 28.586l-2.293-2.293-1.414 1.414L54.586 30l-2.293 2.293 1.414 1.414zm-13.414-7.414L38 28.586l-2.293-2.293-1.414 1.414L36.586 30l-2.293 2.293 1.414 1.414L38 31.414l2.293 2.293 1.414-1.414L39.414 30l2.293-2.293-1.414-1.414zM61 43H33c-1.103 0-2 .897-2 2v16c0 1.103.897 2 2 2h28c1.103 0 2-.897 2-2V45c0-1.103-.897-2-2-2zm.001 14H57V45h4l.001 12zM37 57V45h18v12H37zm-2-12v12h-2V45h2zm-2 16v-2h28.002v2H33z" fill="#000"/><path d="M60 13h-9.747l-.167 2H60c.552 0 1 .449 1 1v18a1 1 0 01-1 1h-9.414l-3.879 3.879c-.238.238-.707.045-.707-.293V35H34a1 1 0 01-1-1v-7.486c.231-.502.456-1.008.667-1.523.031.001.06.009.091.009A5.249 5.249 0 0039 19.757v-.647c0-1.412-.251-2.801-.723-4.11h5.636l-.167-2h-6.402a12.105 12.105 0 00-1.26-1.772l-.071-.083A11.858 11.858 0 0027 7c-1.626 0-3.058.792-3.972 1.997l-5.358-.029h-.072c-4.423 0-8.68 2.08-11.397 5.575l-.085.11a14.817 14.817 0 00-3.118 9.083L3 26.003A3.01 3.01 0 004.2 28.4a10.956 10.956 0 013.937 5.72l.664 2.324-1.409 2.584A5.863 5.863 0 006.861 39 5.867 5.867 0 001 44.861V63h21.056A6.952 6.952 0 0029 56.056V44c0-.807-.324-1.537-.844-2.077l.017-.035a7.862 7.862 0 00.827-3.5v-5.073a39.617 39.617 0 002-3.024V34c0 1.654 1.346 3 3 3h10v1.586A2.417 2.417 0 0046.414 41a2.43 2.43 0 001.707-.707L51.414 37H60c1.654 0 3-1.346 3-3V16c0-1.654-1.346-3-3-3zM27 56.056A4.95 4.95 0 0122.056 61a4.957 4.957 0 01-3.054-1.057L6.618 50.214l-1.236 1.572L17.109 61H3V44.861A3.865 3.865 0 016.861 41c1.079 0 2.117.456 2.847 1.252L19 52.389V54h2V43h5a1 1 0 011 1v12.056zm-8-13.673v2.852l-.116-.203a7.964 7.964 0 00-2.544-2.688l1.076-2.69A7.868 7.868 0 0019 42.383zm0-5.211V34a1 1 0 012 0v1h2v-1a3.001 3.001 0 00-1.884-2.78A2.995 2.995 0 0124 29c1.654 0 3 1.346 3 3v6.388c0 .899-.213 1.801-.615 2.606l-.021.043c-.121-.015-.24-.037-.364-.037h-5.558A5.867 5.867 0 0119 37.172zm-1.853 8.851L19 49.265v.164l-5.748-6.271a6.003 6.003 0 013.895 2.865zm11.525-15.758C27.963 28.365 26.145 27 24 27c-2.468 0-4.512 1.802-4.915 4.158A2.993 2.993 0 0017 34v2.882l-1.783-.891-.895 1.789 1.407.704-1.189 2.972A7.932 7.932 0 0011.938 41h-.664l-.091-.1a5.845 5.845 0 00-1.811-1.327l5.68-10.413-1.019-5.091a1.75 1.75 0 01-.033-.34c0-.953.775-1.729 1.764-1.729.998 0 1.896.555 2.342 1.447l.621 1.241 3.566-3.567A3.857 3.857 0 0125 20c1.008 0 1.994.409 2.707 1.121l2.343 2.343a5.225 5.225 0 001.625 1.1 37.251 37.251 0 01-3.003 5.701zm2.793-8.215l-2.344-2.343A5.868 5.868 0 0025 18a5.868 5.868 0 00-4.121 1.707l-1.748 1.748A4.628 4.628 0 0015.729 20a3.733 3.733 0 00-3.657 4.461l.876 4.378-2.782 5.101-.106-.369A12.978 12.978 0 005.4 26.8a.99.99 0 01-.4-.799l-.003-2.269a12.817 12.817 0 012.697-7.854l.085-.11a12.516 12.516 0 019.817-4.801h.063l4.443.024A5.02 5.02 0 0022 12c0 2.206 1.794 4 4 4s4-1.794 4-4h-2c0 1.103-.897 2-2 2s-2-.897-2-2c0-1.654 1.346-3 3-3a9.858 9.858 0 017.495 3.448l.071.083A10.11 10.11 0 0137 19.11v.647A3.246 3.246 0 0133.758 23a3.217 3.217 0 01-2.293-.95z" fill="#000"/></svg>