<svg width="64" height="64" fill="none" xmlns="http://www.w3.org/2000/svg"><g clip-path="url(#clip0)"><path d="M15.484 38.194H1.032l-.573 1.89 5.336 3.557a4.435 4.435 0 004.927 0l5.335-3.556-.573-1.891z" fill="#F0BC5E"/><path d="M61.935 61.935H64V64h-2.065v-2.065zm-33.032 0V22.71h1.878l15.922 5.97a3.48 3.48 0 001.228.223h.188a3.499 3.499 0 003.494-3.494 3.478 3.478 0 00-2.197-3.245l-18.475-7.39a7.161 7.161 0 00-1.496-.418l-4.67-.779v-.715a6.172 6.172 0 002.064-4.604V6.194A6.2 6.2 0 0020.645 0a6.2 6.2 0 00-6.193 6.194v2.064c0 1.828.8 3.468 2.064 4.604v.846L9.343 16.1a3.091 3.091 0 00-2.117 2.937v16.577c0 .556.137 1.078.362 1.548H2.065A2.067 2.067 0 000 39.226v8.258c0 1.139.926 2.064 2.065 2.064h10.322v12.387H4.13V64h55.742v-2.065H28.903zM16.516 6.194a4.133 4.133 0 014.13-4.13 4.133 4.133 0 014.128 4.13v2.064a4.133 4.133 0 01-4.129 4.13 4.133 4.133 0 01-4.129-4.13V6.194zM2.065 39.226h12.387v8.258H2.066v-8.258zm12.387 10.322a2.067 2.067 0 002.064-2.064v-8.258a2.067 2.067 0 00-2.064-2.065V20.645h-2.065v14.968a1.55 1.55 0 01-1.548 1.548 1.55 1.55 0 01-1.549-1.548V19.036c0-.445.284-.838.706-.98l8.585-2.86V14.09c.647.23 1.34.362 2.064.362.725 0 1.418-.132 2.065-.362v1.236l6.396 1.066c.362.061.721.16 1.067.3l18.475 7.39c.548.217.9.74.9 1.327 0 .789-.642 1.43-1.43 1.43h-.187c-.171 0-.34-.03-.502-.092l-16.274-6.102h-4.316v41.29h-5.162v-27.87h-2.064v27.87h-5.161V49.548zM0 61.935h2.065V64H0v-2.065z" fill="#000"/><path d="M45.419 64c-10.245 0-18.581-8.336-18.581-18.58 0-10.246 8.336-18.581 18.58-18.581C55.663 26.839 64 35.174 64 45.419 64 55.664 55.663 64 45.42 64zm0-32c-7.4 0-13.42 6.02-13.42 13.42 0 7.398 6.02 13.419 13.42 13.419 7.399 0 13.419-6.02 13.419-13.42 0-7.399-6.02-13.42-13.42-13.42z" fill="#F0BC5E"/><path d="M44.387 38.194v8.258h5.161v-2.065h-3.097v-6.193h-2.064z" fill="#000"/><path d="M45.42 30.968c-3.44 0-6.777 1.238-9.397 3.485l1.345 1.567a12.39 12.39 0 017.02-2.941v3.05h2.064v-3.044c6.007.499 10.804 5.296 11.303 11.302H54.71v2.065h3.05a12.38 12.38 0 01-2.94 7.019l1.568 1.345a14.453 14.453 0 003.484-9.397c0-7.969-6.483-14.451-14.452-14.451zm1.033 26.792v-3.05h-2.065v3.044c-6.006-.499-10.803-5.296-11.302-11.302h3.044v-2.065h-3.05a12.381 12.381 0 012.94-7.019l-1.567-1.345a14.454 14.454 0 00-3.484 9.396c0 7.97 6.482 14.452 14.451 14.452 3.44 0 6.777-1.238 9.397-3.485l-1.344-1.567a12.38 12.38 0 01-7.02 2.941z" fill="#000"/></g><defs><clipPath id="clip0"><path fill="#fff" d="M0 0h64v64H0z"/></clipPath></defs></svg>