<svg width="64" height="64" fill="none" xmlns="http://www.w3.org/2000/svg"><path d="M31.894 37a5.194 5.194 0 01-2.323-.548c-6.748-3.396-10.325-6.09-11.338-7.367l-.235-.296.02-.377c.155-2.979 1.353-11.542 2.421-18.562l.129-.85h1.774c3.159 0 6.13-1.23 8.364-3.464.688-.69 1.896-.69 2.586.001A11.755 11.755 0 0041.656 9h1.756l.125.855c.952 6.505 2.154 15.178 2.41 18.211l.039.46-.325.327c-.612.618-3.23 2.985-11.214 7.475a5.213 5.213 0 01-2.553.672z" fill="#F0BC5E"/><path d="M63 35.929v-5h-1c-.728 0-1.431.112-2.091.32a6.998 6.998 0 00-.866-3.903l-2.67-4.806-.887.532a6.993 6.993 0 00-3.027 8.312 6.943 6.943 0 00-2.458-.454h-.858c.854-1.05.857-1.618.857-1.93 0-3.04-2.888-22.329-3.011-23.148L46.861 5h-5.205a7.777 7.777 0 01-5.536-2.293A5.783 5.783 0 0032 1a5.787 5.787 0 00-4.121 1.707A7.777 7.777 0 0122.343 5h-5.198l-.133.844C16.889 6.623 14 24.968 14 29c0 .595.236 1.24.678 1.929H14c-.866 0-1.692.165-2.458.454a6.994 6.994 0 00-3.027-8.312l-.887-.531-2.67 4.807a6.995 6.995 0 00-.866 3.902 6.985 6.985 0 00-2.091-.32H1v5c0 1.93.785 3.68 2.053 4.948-.123.034-.247.063-.37.104l-.949.315 1.316 3.949a7.279 7.279 0 003.673 4.234c.2.1.405.182.61.263a8.039 8.039 0 00-2.042 1.48l-.707.707 2.707 2.707A8.027 8.027 0 0013 57a8.006 8.006 0 004.952-1.706l.048.049.378-.378c2.201.184 5.769 1.92 9.244 3.622.649.318 1.301.635 1.952.949C27.469 60.4 25.529 61 24 61v2c2.258 0 5.064-1.015 8-2.333C34.936 61.985 37.742 63 40 63v-2c-1.529 0-3.469-.6-5.575-1.464.651-.314 1.303-.631 1.952-.949 3.475-1.702 7.044-3.439 9.244-3.622l.379.378.048-.048A8.011 8.011 0 0051 57c2.156 0 4.183-.84 5.707-2.364l2.707-2.707-.707-.707a8.039 8.039 0 00-2.042-1.48c.205-.081.41-.163.61-.263a7.275 7.275 0 003.673-4.234l1.316-3.949-.949-.315c-.122-.041-.246-.07-.37-.104A6.972 6.972 0 0063 35.929zm-2 0a5.008 5.008 0 01-4 4.899v-2.899a5.008 5.008 0 014-4.899v2.899zm-5.321-10.518l1.615 2.906a4.999 4.999 0 01.321 4.163 7.028 7.028 0 00-1.498 1.668c-.073-.151-.134-.306-.215-.453l-1.197-2.155a5.007 5.007 0 01.974-6.129zM51 33.029c2.279.465 4 2.484 4 4.899v3.869c-.12.078-.235.16-.35.245a7.706 7.706 0 00-3.612-5.674c-.013-.147-.038-.292-.038-.439v-2.9zm1.051 12.583l-1.18 3.54c-.04.011-.082.018-.122.03a8.103 8.103 0 00.321-2.253 8.006 8.006 0 00-1.769-5.037 5.706 5.706 0 01.593-2.515l.513-1.027c2.01 1.495 2.802 4.162 1.931 6.538a7.518 7.518 0 00-.287.724zm-7.122 3.317c0-1.621.631-3.146 1.778-4.293l1.235-1.235a6.026 6.026 0 011.128 3.528 6.03 6.03 0 01-1.778 4.293l-1.235 1.235a6.026 6.026 0 01-1.128-3.528zM18.856 7h3.487a9.764 9.764 0 006.95-2.879c1.446-1.446 3.968-1.446 5.414 0A9.762 9.762 0 0041.657 7h3.481c1.059 7.103 2.86 19.767 2.862 21.997-.061.729-2.764 3.561-12.572 9.074-2.057 1.158-4.67 1.215-6.752.168C19.919 33.834 16 30.424 16 29c0-3.402 2.278-18.28 2.856-22zm-.914 45.457l-1.235-1.235a6.032 6.032 0 01-1.778-4.293c0-1.283.395-2.506 1.128-3.528l1.235 1.235a6.034 6.034 0 011.778 4.293 6.012 6.012 0 01-1.128 3.528zm-4.691-3.275c-.04-.012-.082-.019-.122-.03l-1.18-3.54a7.26 7.26 0 00-.288-.726c-.871-2.375-.078-5.043 1.931-6.538l.513 1.027c.392.783.587 1.647.593 2.515a8.008 8.008 0 00-1.769 5.037c0 .776.113 1.532.322 2.255zM13 35.929c0 .147-.025.293-.038.439a7.708 7.708 0 00-3.612 5.674 7.8 7.8 0 00-.35-.244v-3.869a5.008 5.008 0 014-4.899v2.899zm-6.294-7.612l1.615-2.907a5.007 5.007 0 01.974 6.129l-1.197 2.155c-.081.146-.142.302-.215.453a7.028 7.028 0 00-1.498-1.668 4.993 4.993 0 01.321-4.162zM3 35.929V33.03c2.279.465 4 2.484 4 4.899v2.899a5.009 5.009 0 01-4-4.899zm1.949 8.683l-.654-1.962a5.33 5.33 0 015.481 2.963c.083.223.18.443.285.662l.644 1.932a5.334 5.334 0 01-5.756-3.595zM13 55a6.034 6.034 0 01-4.293-1.778l-1.234-1.234a6.08 6.08 0 017.82.648l1.235 1.235A6.027 6.027 0 0113 55zm22.498 1.791A184.16 184.16 0 0132 58.471a184.16 184.16 0 01-3.498-1.68c-3.185-1.56-6.222-3.038-8.651-3.606a8.008 8.008 0 001.22-4.256 8.016 8.016 0 00-2.364-5.707l-2.042-2.042a7.727 7.727 0 00-.77-2.698l-.951-1.902c.02-.218.056-.434.056-.651V31.39c1.808 2.375 6.076 5.266 12.777 8.637a9.227 9.227 0 004.118.973c1.574 0 3.135-.41 4.514-1.185 7.904-4.444 11.208-7.109 12.592-8.718v4.831c0 .218.036.433.057.651l-.951 1.902a7.727 7.727 0 00-.77 2.698l-2.042 2.042a8.02 8.02 0 00-2.364 5.707c0 1.53.43 2.99 1.22 4.256-2.431.569-5.468 2.047-8.653 3.607zm19.795-3.569A6.034 6.034 0 0151 55a6.027 6.027 0 01-3.528-1.129l1.235-1.235a6.08 6.08 0 017.82-.648l-1.234 1.234zm3.758-8.61c-.82 2.461-3.283 3.926-5.756 3.595l.644-1.932a7.79 7.79 0 00.285-.661c1.003-2.071 3.229-3.267 5.481-2.964l-.654 1.962z" fill="#000"/><path d="M25.386 27.73l2.066 1.539L32 25.532l4.547 3.738 2.066-1.539-2.246-5.168 4.864-3.198-.947-2.362L34.759 17l-1.398-5h-2.725l-1.377 4.995-5.546.009-.945 2.36 4.864 3.198-2.246 5.168zm.469-8.73l4.928-.007 1.22-4.423L33.24 19l4.902.001-4.28 2.815 1.797 4.136L32 22.943l-3.66 3.009 1.797-4.136L25.855 19z" fill="#000"/></svg>