<svg width="64" height="64" fill="none" xmlns="http://www.w3.org/2000/svg"><path d="M17 62c-5.514 0-10-4.486-10-10s4.486-10 10-10 10 4.486 10 10-4.486 10-10 10zm26-33c-7.18 0-13 5.82-13 13h10v12.638c.965.228 1.966.362 3 .362 7.18 0 13-5.82 13-13s-5.82-13-13-13z" fill="#F0BC5E"/><path d="M25.002 38.984l2 .031c.01-.622.062-1.25.156-1.868l-1.978-.299a15.942 15.942 0 00-.178 2.136zm7.236-12.999a15.738 15.738 0 00-6.576 8.721l1.916.572a13.74 13.74 0 015.742-7.611l1.275-.819-1.08-1.682-1.277.819z" fill="#000"/><path d="M53.926 22.621l-2.847-1.83A2.998 2.998 0 0053 18.001a2.994 2.994 0 00-2.624-2.963L55 10.414V10a4.405 4.405 0 00-3.853-4.364l-1.841-.23.96-3.119L44.599.87l-2.551 3.4-1.588-2.382-6.768 1.354.733 2.198-1.573.196A4.405 4.405 0 0029 10v.414l4.624 4.624A2.994 2.994 0 0031 18c0 1.273.8 2.356 1.921 2.791l-2.847 1.83A19.674 19.674 0 0021 39.241c0 .587.035 1.174.086 1.76H13v-8H6c-2.757 0-5 2.242-5 5v20c0 2.756 2.243 5 5 5h35v-4h2.241C54.136 59 63 50.136 63 39.24a19.674 19.674 0 00-9.074-16.62zm-3.027-15a2.404 2.404 0 012.07 1.995L47.586 15h-1.232l2.355-7.654 2.19.274zM39.54 4.111l2.413 3.618 3.45-4.6 2.332.583L44.262 15h-4.541L36.307 4.76l3.233-.648zM33.101 7.62l1.969-.246L37.612 15h-1.198l-5.383-5.384a2.404 2.404 0 012.07-1.996zM34 17h16a1.001 1.001 0 010 2H34a1.001 1.001 0 010-2zM6 35h5v6H6c-1.654 0-3-1.346-3-3s1.346-3 3-3zm33 26H6c-1.654 0-3-1.346-3-3V41.998A4.973 4.973 0 006 43h33v18zm2-18.424A4.95 4.95 0 0043 43c1.654 0 3 1.346 3 3s-1.346 3-3 3h-2v-6.424zM43.241 57H41v-6h2c2.757 0 5-2.243 5-5s-2.243-5-5-5c-1.654 0-3-1.346-3-3s1.346-3 3-3h3v3h2v-5h-4v-2h-2v2.101a5.009 5.009 0 00-4 4.9 4.95 4.95 0 001.026 3H23.097A18.117 18.117 0 0123 39.24a17.687 17.687 0 018.155-14.938L36.293 21h11.414l5.138 3.303A17.687 17.687 0 0161 39.241c0 9.792-7.967 17.76-17.759 17.76z" fill="#000"/><path d="M16 59h2v-2c1.654 0 3-1.346 3-3s-1.346-3-3-3h-2a1.001 1.001 0 010-2h3v1h2v-3h-3v-2h-2v2c-1.654 0-3 1.346-3 3s1.346 3 3 3h2a1.001 1.001 0 010 2h-3v-1h-2v3h3v2zm43-20.019l-2 .037.001.223c0 .527-.03 1.061-.09 1.585l1.986.23c.07-.6.104-1.21.104-1.814l-.002-.26zM47.676 52.267l.646 1.893a15.742 15.742 0 0010.147-10.863l-1.933-.516a13.744 13.744 0 01-8.86 9.486zM35 50h2v-5h-5v2h3v3zm2 4h-2v3h-3v2h5v-5z" fill="#000"/></svg>