<svg width="87" height="87" fill="none" xmlns="http://www.w3.org/2000/svg"><g clip-path="url(#clip0)"><path d="M29.906 59.813h27.188l8.156-6.992V12.234h-43.5v40.587l8.156 6.992z" fill="#F0BC5E"/><path d="M43.5 47.578c6.745 0 12.234-5.488 12.234-12.234v-1.36h-2.718v1.36c0 5.246-4.269 9.515-9.516 9.515s-9.516-4.27-9.516-9.515v-2.719a6.805 6.805 0 016.797-6.797 6.805 6.805 0 016.797 6.797v2.719a1.36 1.36 0 01-2.719 0v-2.719a4.083 4.083 0 00-4.078-4.078 4.083 4.083 0 00-4.078 4.078v2.719a4.083 4.083 0 004.078 4.078c1.048 0 1.996-.41 2.719-1.06a4.045 4.045 0 002.719 1.06 4.083 4.083 0 004.078-4.078v-2.719c0-5.246-4.269-9.516-9.516-9.516s-9.515 4.27-9.515 9.516v2.719c0 6.746 5.489 12.234 12.234 12.234zm-1.36-12.234c0 .75-.61 1.36-1.359 1.36a1.36 1.36 0 01-1.36-1.36v-2.719a1.36 1.36 0 012.719 0v2.719zM31.266 6.797h13.593v2.719H31.266v-2.72zm16.312 0h2.719v2.719h-2.719v-2.72zm5.438 0h2.718v2.719h-2.718v-2.72zM43.5 69.328a4.083 4.083 0 00-4.078 4.078 4.083 4.083 0 004.078 4.078 4.083 4.083 0 004.078-4.078 4.083 4.083 0 00-4.078-4.078zm0 5.438a1.36 1.36 0 01-1.36-1.36 1.36 1.36 0 012.719 0c0 .75-.61 1.36-1.359 1.36zm-10.875-5.438a4.083 4.083 0 00-4.078 4.078 4.083 4.083 0 004.078 4.078 4.083 4.083 0 004.078-4.078 4.083 4.083 0 00-4.078-4.078zm0 5.438a1.36 1.36 0 01-1.36-1.36 1.36 1.36 0 012.719 0c0 .75-.61 1.36-1.359 1.36zm19.031-1.36a4.083 4.083 0 004.078 4.078 4.083 4.083 0 004.078-4.078 4.083 4.083 0 00-4.078-4.078 4.083 4.083 0 00-4.078 4.078zm5.438 0a1.36 1.36 0 01-2.719 0 1.36 1.36 0 012.719 0z" fill="#000"/><path d="M66.61 33.367V8.157a6.805 6.805 0 00-6.797-6.798H27.187a6.805 6.805 0 00-6.796 6.797v25.211l-9.947 8.704a2.716 2.716 0 00-.928 2.046v34.727a6.805 6.805 0 006.796 6.797h54.376a6.805 6.805 0 006.796-6.797V44.117c0-.784-.338-1.53-.928-2.047l-9.947-8.703zm0 3.613l7.438 6.51-7.439 6.376V36.98zM23.11 8.156a4.083 4.083 0 014.078-4.078h32.624a4.083 4.083 0 014.079 4.078v44.04l-7.3 6.257H30.409l-7.3-6.257V8.156zM20.39 36.98v12.886l-7.438-6.377 7.439-6.509zm-8.156 41.864v-32.39L28.037 60 12.44 80.056a4.031 4.031 0 01-.206-1.212zm58.453 4.078H16.313a4.033 4.033 0 01-2.163-.635l16.42-21.115h25.857L72.85 82.287a4.033 4.033 0 01-2.162.635zm4.079-4.078c0 .425-.083.826-.206 1.212L58.963 60l15.803-13.546v32.39zm-62.532-66.61h2.72V23.11h-2.72V12.234zM6.797 6.797h2.719v21.75h-2.72V6.797zM1.36 1.36h2.718v32.624H1.36V1.36zm70.687 10.874h2.719V23.11h-2.72V12.234zm5.437-5.437h2.72v21.75h-2.72V6.797zm5.438-5.437h2.719v32.624h-2.72V1.36z" fill="#000"/></g><defs><clipPath id="clip0"><path fill="#fff" d="M0 0h87v87H0z"/></clipPath></defs></svg>