<svg width="45" height="45" fill="none" xmlns="http://www.w3.org/2000/svg"><g clip-path="url(#clip0)"><path d="M13.277 22.464l3.912 1.95a.5.5 0 00.475-.015l3.483-2.025-2.108 1.868a.5.5 0 00-.17.375v4.55c0 .48.614.682.9.3l1.692-2.248 4.183 2.382a.5.5 0 00.737-.336l2.609-13a.5.5 0 00-.672-.564l-15 5.85a.5.5 0 00-.041.913zm14.553-5.5L25.537 28.39l-3.963-2.257a.501.501 0 00-.647.134l-1.057 1.405v-2.83l5.7-5.05c.452-.4-.067-1.11-.582-.807L17.395 23.4l-2.662-1.326 13.097-5.108z" fill="#000"/></g><defs><clipPath id="clip0"><path fill="#fff" transform="translate(13 15)" d="M0 0h16v16H0z"/></clipPath></defs></svg>