<svg width="45" height="45" fill="none" xmlns="http://www.w3.org/2000/svg"><ellipse cx="22.488" cy="22.5" rx="22.488" ry="22.5" fill="#3D9CF4"/><g clip-path="url(#clip0)"><path d="M19.268 25.121l-.265 3.723c.379 0 .543-.163.74-.358l1.774-1.697 3.677 2.694c.674.376 1.149.178 1.33-.62l2.414-11.315.001-.001c.214-.997-.36-1.387-1.017-1.143l-14.186 5.434c-.969.376-.954.916-.165 1.161l3.627 1.129 8.424-5.274c.396-.263.757-.118.46.145l-6.814 6.122z" fill="#fff"/></g><defs><clipPath id="clip0"><path fill="#fff" transform="translate(12.993 15)" d="M0 0h15.992v16H0z"/></clipPath></defs></svg>