<svg width="70" height="70" fill="none" xmlns="http://www.w3.org/2000/svg"><path d="M59.306 11.87l-.243-.166v.327c0 .604-.49 1.094-1.094 1.094H42.656c-.603 0-1.093-.49-1.093-1.094v-.318h-.017l-.279.19a11.86 11.86 0 00-5.173 9.795c0 2.029.275 4.049.819 6.003l.223.8h.232a3.271 3.271 0 013.1-2.251h1.094v-2.01a4.8 4.8 0 013.282-4.553h9.843a4.375 4.375 0 014.376 4.375v2.188h1.093c1.45 0 2.667.947 3.101 2.252h.232l.223-.8c.544-1.955.82-3.975.82-6.004a11.85 11.85 0 00-5.226-9.829z" fill="#F0BC5E"/><path d="M36.174 43.377l-1.815-1.815a1.531 1.531 0 01-.453-1.093c0-.414.16-.802.453-1.094l.52-.52a4.117 4.117 0 001.215-2.931c0-.821-.242-1.617-.697-2.299l-1.163-1.744a1.956 1.956 0 01-.328-1.087c0-.658.157-1.317.45-1.904l.73-1.458a9.597 9.597 0 001.008-4.273c0-2.529-.98-4.911-2.754-6.711l-4.722-4.784h-.18v.367c0 .604-.49 1.094-1.094 1.094H12.03c-.604 0-1.094-.49-1.094-1.094v-.366h-.18l-4.722 4.784a9.497 9.497 0 00-2.754 6.71c0 1.476.348 2.953 1.009 4.273l.73 1.458a4.31 4.31 0 01.449 1.904c0 .387-.114.764-.33 1.087l-1.162 1.743a4.147 4.147 0 00.518 5.23l.52.52c.294.293.454.681.454 1.095 0 .413-.16.801-.453 1.093L3.2 43.377a7.15 7.15 0 00-2.107 5.088A7.18 7.18 0 002.3 52.456l1.107 1.66.038-.005c2.025-5.039 6.35-8.982 11.867-10.361l.9-4.501h.01a6.564 6.564 0 01-5.285-6.437H9.844a3.281 3.281 0 110-6.562h1.094v-.986a5.47 5.47 0 014.395-5.362l1.073-.215a5.462 5.462 0 004.375 2.188h4.375a3.26 3.26 0 001.709-.48 5.469 5.469 0 011.573 3.839v1.016h1.093a3.281 3.281 0 110 6.562h-1.093a6.564 6.564 0 01-5.287 6.437h.011l.9 4.5A17.3 17.3 0 0134 50.555l1 1.947 1.193-2.202a17.323 17.323 0 012.063-2.34 7.134 7.134 0 00-2.082-4.582z" fill="#F0BC5E"/><path d="M45.938 27.344a1.094 1.094 0 100-2.188 1.094 1.094 0 000 2.188zm8.75 0a1.094 1.094 0 100-2.188 1.094 1.094 0 000 2.188zm-2.968-9.067l1.547-1.547 4.375 4.375-1.547 1.547-4.375-4.375zm-5.469 0l1.547-1.547 4.375 4.375-1.547 1.547-4.375-4.375zm9.53 13.442h-2.187a2.19 2.19 0 01-2.188 2.187h-4.375v2.188h4.375a4.38 4.38 0 004.375-4.375zm-17.5-24.063h2.188v4.375a2.19 2.19 0 002.187 2.188H57.97a2.19 2.19 0 002.187-2.188V7.656h2.188v4.375h2.187v-8.75a2.19 2.19 0 00-2.187-2.187H38.28a2.19 2.19 0 00-2.187 2.187V5.47a2.19 2.19 0 002.187 2.187zm19.688 4.375H42.656V7.656H57.97v4.375zM38.28 3.281h24.063V5.47H38.28V3.28zM15.313 27.344a1.094 1.094 0 100-2.188 1.094 1.094 0 000 2.188zm8.75 0a1.094 1.094 0 100-2.188 1.094 1.094 0 000 2.188z" fill="#000"/><path d="M55.631 42.89l-.574-2.87a7.669 7.669 0 005.013-6.114h.086a4.38 4.38 0 004.375-4.375 4.38 4.38 0 00-4.375-4.375V22.97H57.97v9.843a5.475 5.475 0 01-5.469 5.47h-4.375a5.475 5.475 0 01-5.469-5.47V24.24a3.7 3.7 0 012.533-3.514l-.692-2.075a5.883 5.883 0 00-4.028 5.589v.916a4.38 4.38 0 00-4.375 4.375 4.38 4.38 0 004.375 4.375h.087a7.666 7.666 0 005.012 6.114l-.574 2.87A18.368 18.368 0 0035 50.074a18.492 18.492 0 00-9.992-7.178l-.576-2.877a7.669 7.669 0 005.013-6.114h.086a4.38 4.38 0 004.375-4.375 4.38 4.38 0 00-4.375-4.375h-.003a6.516 6.516 0 00-1.147-3.629 4.346 4.346 0 001.15-2.933h-2.187a2.19 2.19 0 01-2.188 2.187v-4.375H22.97v4.375h-2.19v-4.375h-2.187v3.767c-1.302-.759-2.188-2.155-2.188-3.767H14.22c0 .9.182 1.757.51 2.538-2.814.748-4.827 3.278-4.877 6.212h-.008A4.38 4.38 0 005.47 29.53a4.38 4.38 0 004.375 4.375h.087a7.666 7.666 0 005.012 6.114l-.574 2.87A18.381 18.381 0 001.094 60.56v8.346h67.812V60.56a18.38 18.38 0 00-13.275-17.67zm6.713-13.359a2.19 2.19 0 01-2.188 2.188v-4.375a2.19 2.19 0 012.188 2.187zm-24.063 0a2.19 2.19 0 012.188-2.187v4.375a2.19 2.19 0 01-2.188-2.188zM61.682 48.81c-1.93 2.778-4.612 4.873-7.725 6.04a17.47 17.47 0 003.844-8.77 16.138 16.138 0 013.881 2.73zM49.219 62.344v4.375h-8.75v-9.844H38.28v9.844h-4.375v-6.16c0-3.78 1.302-7.305 3.525-10.101a18.593 18.593 0 0011.788 7.328v2.37H47.03v2.188h2.188zM45.833 44.92l2.208 1.105-2.688 1.612c-.21-.8-.34-1.62-.42-2.45.295-.1.596-.184.9-.267zm8.96 0c.303.083.604.167.9.266a15.103 15.103 0 01-.421 2.451l-2.688-1.612 2.208-1.105zm-4.48 2.293l.811.486-.506 1.52h-.612L49.5 47.7l.813-.488zm-.207 4.193h.413l.678 3.222c-.286.282-.575.562-.886.82-.31-.258-.598-.538-.884-.82l.679-3.222zm2.88 1.105l-.449-2.134.508-1.525 1.484.89a15.24 15.24 0 01-1.542 2.769zm-5.407-3.659l.508 1.525-.45 2.134a15.311 15.311 0 01-1.543-2.768l1.485-.89zm.546-8.383H52.5c.139 0 .275-.013.411-.021l.54 2.697-3.139 1.57-3.137-1.57.539-2.697c.136.008.272.02.411.02zm-5.301 5.61a17.47 17.47 0 003.844 8.771c-3.113-1.168-5.795-3.262-7.725-6.04a16.138 16.138 0 013.88-2.73zM31.719 60.56v6.16H20.78v-4.375h2.188v-2.188H20.78v-2.34c4.75-.842 8.928-3.464 11.777-7.334.428.54.824 1.106 1.184 1.7a18.384 18.384 0 00-2.023 8.378zM15.207 44.92l3.127 1.564a4.66 4.66 0 01-3.148 2.602 15.219 15.219 0 01-.879-3.9c.296-.1.598-.183.9-.266zm8.956.002c.304.085.606.175.904.277a15.268 15.268 0 01-.878 3.887 4.663 4.663 0 01-3.148-2.602l3.122-1.562zm-4.476 3.562a6.818 6.818 0 003.568 2.594 15.232 15.232 0 01-3.567 4.372 15.228 15.228 0 01-3.567-4.372 6.82 6.82 0 003.567-2.594zm11.366.331a16.43 16.43 0 01-7.721 6.035 17.461 17.461 0 003.843-8.764 16.285 16.285 0 013.878 2.73zm.666-19.284a2.19 2.19 0 01-2.188 2.188v-4.375a2.19 2.19 0 012.188 2.187zm-24.063 0a2.19 2.19 0 012.188-2.187v4.375a2.19 2.19 0 01-2.188-2.188zm4.375 3.282v-7.549a4.387 4.387 0 013.518-4.29l.45-.089a6.538 6.538 0 004.782 2.084h4.375c.487 0 .946-.099 1.384-.245.516.732.804 1.597.804 2.51v7.578a5.475 5.475 0 01-5.469 5.47H17.5a5.475 5.475 0 01-5.469-5.47zm5.469 7.656h4.375c.139 0 .274-.013.411-.021l.54 2.697-3.139 1.57-3.138-1.57.54-2.697c.137.008.272.02.411.02zm-5.301 5.61a17.47 17.47 0 003.844 8.771c-3.113-1.168-5.795-3.262-7.725-6.04a16.138 16.138 0 013.88-2.73zM3.28 60.56c0-3.78 1.302-7.305 3.525-10.101a18.593 18.593 0 0011.788 7.328v2.37h-2.188v2.188h2.188v4.375h-8.75v-9.844H7.656v9.844H3.281v-6.16zm63.438 6.16h-4.375v-9.844h-2.188v9.844h-8.75v-4.375h2.188v-2.188h-2.188v-2.34a18.606 18.606 0 0011.79-7.355A16.202 16.202 0 0166.72 60.56v6.159zM7.656 7.656h2.188v4.375a2.19 2.19 0 002.187 2.188h15.313a2.19 2.19 0 002.187-2.188V7.656h2.188a2.19 2.19 0 002.187-2.187V3.28a2.19 2.19 0 00-2.187-2.187H7.656A2.19 2.19 0 005.47 3.28v2.19a2.19 2.19 0 002.187 2.187zm19.688 4.375H12.03V7.656h15.313v4.375zM7.656 3.281H31.72V5.47H7.657V3.28z" fill="#000"/><path d="M25.156 30.625v-1.094H14.22v1.094a5.475 5.475 0 005.469 5.469 5.475 5.475 0 005.468-5.469zm-8.563 1.094h6.189a3.288 3.288 0 01-3.095 2.187 3.288 3.288 0 01-3.094-2.187zm3.095 21.875a1.094 1.094 0 100-2.188 1.094 1.094 0 000 2.188z" fill="#000"/></svg>