<svg width="16" height="16" fill="none" xmlns="http://www.w3.org/2000/svg"><path d="M3 1v1h-.5C1.676 2 1 2.676 1 3.5v9c0 .824.676 1.5 1.5 1.5h10c.824 0 1.5-.676 1.5-1.5v-9c0-.824-.676-1.5-1.5-1.5H12V1h-1v1H4V1H3zm-.5 2H3v1h1V3h7v1h1V3h.5c.281 0 .5.219.5.5V5H2V3.5c0-.281.219-.5.5-.5zM2 6h11v6.5c0 .281-.219.5-.5.5h-10a.494.494 0 01-.5-.5V6zm3 1v1h1V7H5zm2 0v1h1V7H7zm2 0v1h1V7H9zm2 0v1h1V7h-1zM3 9v1h1V9H3zm2 0v1h1V9H5zm2 0v1h1V9H7zm2 0v1h1V9H9zm2 0v1h1V9h-1zm-8 2v1h1v-1H3zm2 0v1h1v-1H5zm2 0v1h1v-1H7z" fill="#000"/></svg>