<svg width="70" height="70" fill="none" xmlns="http://www.w3.org/2000/svg"><path d="M65.625 10.938H4.375a2.187 2.187 0 00-2.188 2.187v7.656h16.407l2.187-2.187h47.032v-5.469a2.187 2.187 0 00-2.188-2.188z" fill="#F0BC5E"/><path d="M16.406 16.406H14.22V14.22h2.187v2.187zm-4.375 0H9.844V14.22h2.187v2.187zm-4.375 0H5.47V14.22h2.187v2.187z" fill="#000"/><path d="M65.625 9.844H4.375a3.285 3.285 0 00-3.281 3.281v43.75a3.285 3.285 0 003.281 3.281h61.25a3.285 3.285 0 003.281-3.281v-43.75a3.285 3.285 0 00-3.281-3.281zm1.094 47.031c0 .604-.491 1.094-1.094 1.094H4.375c-.603 0-1.094-.49-1.094-1.094v-43.75c0-.604.491-1.094 1.094-1.094h61.25c.603 0 1.094.49 1.094 1.094v43.75z" fill="#000"/><path d="M52.5 20.781v2.188h8.297l-18.14 18.14-12.032-12.03L5.789 53.913l1.547 1.547 6.883-6.883v7.203h6.562V42.015l2.188-2.187V55.78h6.562V33.265l1.094-1.093 1.094 1.093v22.516h6.562V39.828l2.188 2.187v13.766h6.562V39.828l2.188-2.188v18.141h6.562V31.078l6.563-6.563v8.297h2.187v-12.03H52.5zM18.594 53.594h-2.188V46.39l2.188-2.187v9.39zm8.75 0h-2.188V37.64l2.188-2.187v18.14zm8.75 0h-2.188V35.453l2.188 2.187v15.954zm8.75 0h-2.188v-9.391l2.188-2.188v11.579zm8.75 0h-2.188V35.453l2.188-2.188v20.329z" fill="#000"/><path d="M5.469 22.969h17.5v10.937h-17.5V22.97z" fill="#F0BC5E"/><path d="M5.469 22.969h2.187v2.187H5.47V22.97zm4.375 0h13.125v2.187H9.844V22.97zm-4.375 4.375h2.187v2.187H5.47v-2.187zm4.375 0h13.125v2.187H9.844v-2.187zm-4.375 4.375h2.187v2.187H5.47V31.72zm4.375 0h13.125v2.187H9.844V31.72z" fill="#000"/></svg>