<svg width="70" height="70" fill="none" xmlns="http://www.w3.org/2000/svg"><path d="M44.844 40.469H25.156v7.656h19.688v-7.656zM68.906 2.188H55.781v14.218h13.125V2.188z" fill="#F0BC5E"/><path d="M45.718 25.298l-.12-.15a14.483 14.483 0 00-11.361-5.46c-8.023 0-14.55 6.526-14.55 14.549v10.607h1.094a4.375 4.375 0 014.375-4.375v-1.094c0-1.209.98-2.188 2.188-2.188h4.375a7.92 7.92 0 005.6-2.32l.962-.96.962.96a7.919 7.919 0 003.887 2.134c1 .22 1.714 1.102 1.714 2.127v1.34a4.375 4.375 0 014.375 4.376h1.093V31.627a6.662 6.662 0 00-4.594-6.329zM16.406 57.969H1.094V33.906h15.312V57.97zM8.75 1.094H4.375v15.312H8.75V1.094zm8.75 3.281h-4.375v12.031H17.5V4.375zm8.75 4.375h-4.375v7.656h4.375V8.75z" fill="#F0BC5E"/><path d="M53.11 59.227L41.564 57.06v-2.373h-.007c.318-.24.628-.492.922-.768a10.935 10.935 0 002.55-3.626c2.93-.1 5.285-2.498 5.285-5.45 0-2.64-1.882-4.85-4.375-5.358v-.358a3.26 3.26 0 00-2.573-3.197 6.802 6.802 0 01-3.349-1.837l-1.734-1.734-1.735 1.735a6.783 6.783 0 01-4.828 1.999h-4.375a3.285 3.285 0 00-3.281 3.281v.11a5.478 5.478 0 00-4.375 5.359c0 2.986 2.409 5.414 5.385 5.46a11.29 11.29 0 003.446 4.384h-.081v2.373L16.89 59.227a9.846 9.846 0 00-7.524 6.561l-1.04 3.118h53.348l-1.04-3.118a9.847 9.847 0 00-7.523-6.561zm-4.984-14.383c0 1.498-1.017 2.752-2.391 3.143.129-.672.203-1.357.203-2.05v-4.173a3.277 3.277 0 012.188 3.08zM27.344 38.28h4.375a8.954 8.954 0 006.375-2.64l.188-.188.188.188a9 9 0 004.423 2.427c.505.112.858.548.858 1.06v.247h-17.5c0-.604.49-1.094 1.093-1.094zm-5.469 6.563c0-1.424.918-2.627 2.188-3.08V45.6c0 .824.095 1.627.26 2.404a3.277 3.277 0 01-2.448-3.16zm4.375.756v-4.037h17.5v4.375a8.67 8.67 0 01-2.767 6.386 8.7 8.7 0 01-6.566 2.345c-4.58-.296-8.167-4.28-8.167-9.07zm8.025 11.252a10.848 10.848 0 005.1-.894v1.8c-.237.523-1.305 2.398-4.374 2.398-3.046 0-4.126-1.861-4.375-2.401V55.93c1.13.51 2.355.838 3.65.922zM11.362 66.72l.08-.238a7.664 7.664 0 015.853-5.105l11.63-2.181c.712 1.188 2.435 3.149 6.076 3.149 3.64 0 5.363-1.961 6.075-3.148l11.63 2.181a7.666 7.666 0 015.854 5.105l.079.237H11.362zm.669-28.439H5.47v2.188h6.562V38.28zm0 4.375H5.47v2.188h6.562v-2.188zm0 4.375H5.47v2.188h6.562V47.03zm0 4.375H5.47v2.188h6.562v-2.188zm17.5-36.093H1.094V17.5H29.53v-2.188zM54.234 1.094L39.695 15.633l1.547 1.547L55.14 3.28h13.766V1.094H54.234z" fill="#000"/><path d="M68.906 5.469H55.781v2.187h13.125V5.47zm0 4.375H55.781v2.187h13.125V9.844zm0 4.375H66.72v2.187h2.187V14.22zm-4.375 0h-8.75v2.187h8.75V14.22zM63.438 26.25H61.25v3.281h2.188V26.25zm-4.961 1.15l-1.547 1.547 2.32 2.32 1.547-1.547-2.32-2.32zm.586 4.319H55.78v2.187h3.282V31.72zm.187 2.64l-2.32 2.32 1.547 1.547 2.32-2.32-1.546-1.547zm4.188 1.735H61.25v3.281h2.188v-3.281zm1.998-1.735l-1.546 1.547 2.32 2.32 1.547-1.547-2.32-2.32zm3.47-2.64h-3.281v2.187h3.281V31.72zm-2.696-4.32l-2.32 2.32 1.546 1.546 2.32-2.32L66.21 27.4zm-2.772 14.164H61.25v7.656h2.188v-7.657zm0 9.843H61.25v2.188h2.188v-2.188z" fill="#000"/></svg>