<svg width="14" height="8" fill="none" xmlns="http://www.w3.org/2000/svg"><path d="M6.585.002c-.735-.008-1.36 0-1.711.172-.235.113-.414.37-.305.383.137.02.445.086.61.308.21.285.202.93.202.93S5.5 3.568 5.096 3.79c-.277.152-.656-.156-1.476-1.566A13.377 13.377 0 012.885.697S2.827.55 2.717.471C2.585.373 2.401.34 2.401.34L.444.355S.151.365.046.49C-.052.607.038.838.038.838S1.569 4.42 3.303 6.225C4.893 7.88 6.698 7.77 6.698 7.77h.82s.246-.027.371-.16c.117-.125.114-.359.114-.359s-.016-1.098.492-1.262c.504-.156 1.144 1.063 1.828 1.531.52.356.914.278.914.278l1.828-.028s.953-.058.5-.812c-.035-.059-.262-.555-1.355-1.57-1.149-1.063-.997-.891.386-2.73.84-1.122 1.176-1.805 1.07-2.102-.1-.278-.718-.203-.718-.203l-2.059.011s-.152-.02-.265.047a.576.576 0 00-.18.223s-.328.867-.762 1.605C8.768 3.795 8.397 3.88 8.25 3.783c-.348-.226-.262-.906-.262-1.387 0-1.511.23-2.136-.445-2.3-.223-.055-.387-.09-.957-.094z" fill="#fff"/></svg>