<?xml version="1.0" encoding="utf-8"?>
<!-- Generator: Adobe Illustrator 24.1.0, SVG Export Plug-In . SVG Version: 6.00 Build 0)  -->
<!DOCTYPE svg PUBLIC "-//W3C//DTD SVG 1.1//EN" "http://www.w3.org/Graphics/SVG/1.1/DTD/svg11.dtd" [
	<!ENTITY ns_extend "http://ns.adobe.com/Extensibility/1.0/">
	<!ENTITY ns_ai "http://ns.adobe.com/AdobeIllustrator/10.0/">
	<!ENTITY ns_graphs "http://ns.adobe.com/Graphs/1.0/">
	<!ENTITY ns_vars "http://ns.adobe.com/Variables/1.0/">
	<!ENTITY ns_imrep "http://ns.adobe.com/ImageReplacement/1.0/">
	<!ENTITY ns_sfw "http://ns.adobe.com/SaveForWeb/1.0/">
	<!ENTITY ns_custom "http://ns.adobe.com/GenericCustomNamespace/1.0/">
	<!ENTITY ns_adobe_xpath "http://ns.adobe.com/XPath/1.0/">
]>
<svg version="1.1" id="Слой_1" xmlns:x="&ns_extend;" xmlns:i="&ns_ai;" xmlns:graph="&ns_graphs;"
	 xmlns="http://www.w3.org/2000/svg" xmlns:xlink="http://www.w3.org/1999/xlink" x="0px" y="0px" viewBox="0 0 841.9 595.3"
	 style="enable-background:new 0 0 841.9 595.3;" xml:space="preserve">
<style type="text/css">
	.st0{fill:none;stroke:#000000;stroke-miterlimit:10;}
</style>
<metadata>
	<sfw  xmlns="&ns_sfw;">
		<slices></slices>
		<sliceSourceBounds  bottomLeftOrigin="true" height="136.9" width="196" x="307.3" y="227.9"></sliceSourceBounds>
	</sfw>
</metadata>
<path class="st0" d="M340.6,313.4c-16.5-3.5-10.8-23.8-20.2-41.2c-7.7-14.3-12.2-25.7-12.6-33.8c-0.3-4.9,3.6-7.4,7.9-7.3
	c43.6,0.7,89.6,76.7,89.6,76.7s46-76,89.6-76.7c4.3-0.1,8.1,2.5,7.9,7.3c-0.4,8.2-5,19.5-12.6,33.8c-9.3,17.4-3.7,37.7-20.2,41.2"/>
<path class="st0" d="M469.3,313.4L469.3,313.4c21.6,8-18.5,69.1-37.9,49.7c-18.3-18.3-26.5-32.3-26.5-32.3s-8.1,14-26.5,32.3
	c-19.4,19.4-59.5-41.7-37.9-49.7"/>
</svg>
