<?xml version="1.0" encoding="utf-8"?>
<!-- Generator: Adobe Illustrator 24.1.0, SVG Export Plug-In . SVG Version: 6.00 Build 0)  -->
<!DOCTYPE svg PUBLIC "-//W3C//DTD SVG 1.1 Tiny//EN" "http://www.w3.org/Graphics/SVG/1.1/DTD/svg11-tiny.dtd" [
	<!ENTITY ns_extend "http://ns.adobe.com/Extensibility/1.0/">
	<!ENTITY ns_ai "http://ns.adobe.com/AdobeIllustrator/10.0/">
	<!ENTITY ns_graphs "http://ns.adobe.com/Graphs/1.0/">
	<!ENTITY ns_vars "http://ns.adobe.com/Variables/1.0/">
	<!ENTITY ns_imrep "http://ns.adobe.com/ImageReplacement/1.0/">
	<!ENTITY ns_sfw "http://ns.adobe.com/SaveForWeb/1.0/">
	<!ENTITY ns_custom "http://ns.adobe.com/GenericCustomNamespace/1.0/">
	<!ENTITY ns_adobe_xpath "http://ns.adobe.com/XPath/1.0/">
]>
<svg version="1.1" baseProfile="tiny" id="Слой_1" xmlns:x="&ns_extend;" xmlns:i="&ns_ai;" xmlns:graph="&ns_graphs;"
	 xmlns="http://www.w3.org/2000/svg" xmlns:xlink="http://www.w3.org/1999/xlink" x="0px" y="0px" viewBox="0 0 841.9 595.3"
	 xml:space="preserve">
<metadata>
	<sfw  xmlns="&ns_sfw;">
		<slices></slices>
		<sliceSourceBounds  bottomLeftOrigin="true" height="170.7" width="218.5" x="296.2" y="191.1"></sliceSourceBounds>
	</sfw>
</metadata>
<path d="M499.5,233.6c-60.6,6.8-94.2,68.6-94.2,68.6c9,5.1-75-102.1-109.1-57.6c-0.3,11.2,5.8,31.5,16.3,47.1
	c7.2,10.7,0.5,38.1,28,36.1c-16.5-3.5-10.8-23.8-20.1-41.2c-48.8-109.5,98.7,32.5,84.9,35.5c-4.8,6.3,65.3-103,97.5-69.4
	c-7,15.9-16.5,67.9-32.8,75c27.5,2,20.8-25.4,28-36.1C509.9,273.2,527.8,230.5,499.5,233.6z"/>
<path d="M469.7,340.3c20.1,34.5-34.6,84.9-64.3,17.4c-29.8,67.6-84.4,16.9-64.4-17.4c-51.5,18.9,37.8,109.8,64.4,34.5
	C431.9,450.1,521.1,359.2,469.7,340.3z"/>
</svg>
