<?xml version="1.0" encoding="UTF-8"?>
<svg xmlns="http://www.w3.org/2000/svg" xmlns:xlink="http://www.w3.org/1999/xlink" width="240pt" height="221pt" viewBox="0 0 240 221" version="1.1">
<defs>
<linearGradient id="linear0" gradientUnits="userSpaceOnUse" x1="371.97" y1="763.68" x2="548.51" y2="0.74" gradientTransform="matrix(0.29484,0,0,0.350317,0,0)">
<stop offset="0.15" style="stop-color:rgb(64.313725%,25.882353%,0%);stop-opacity:1;"/>
<stop offset="0.74" style="stop-color:rgb(94.901961%,75.686275%,49.019608%);stop-opacity:1;"/>
</linearGradient>
</defs>
<g id="surface1">
<path style=" stroke:none;fill-rule:nonzero;fill:rgb(37.647059%,33.333333%,76.862745%);fill-opacity:1;" d="M 116.617188 14.15625 C 148.085938 -3.523438 177.789062 -3.574219 202.617188 9.695312 C 227.511719 22.855469 247.539062 49.335938 261.140625 82.25 C 274.191406 115.488281 274.179688 151.191406 263.519531 180.070312 C 252.710938 209.382812 234.722656 231.480469 210.210938 247.253906 C 197.230469 255.195312 183.582031 260.636719 166.238281 263.976562 C 149.117188 267.265625 128.296875 268.457031 106.238281 266.757812 C 62.460938 263.496094 13.402344 248.164062 3.050781 213.582031 C -2.808594 196.414062 0.871094 176.730469 8.160156 156.925781 C 15.570312 137.085938 26.589844 117.125 38.15625 98.730469 C 49.847656 80.308594 62.085938 63.445312 74.6875 49.152344 C 87.402344 34.824219 100.484375 23.058594 116.617188 14.15625 Z M 116.617188 14.15625 "/>
<path style=" stroke:none;fill-rule:nonzero;fill:url(#linear0);" d="M 116.617188 14.15625 C 148.085938 -3.523438 177.789062 -3.574219 202.617188 9.695312 C 227.511719 22.855469 247.539062 49.335938 261.140625 82.25 C 274.191406 115.488281 274.179688 151.191406 263.519531 180.070312 C 252.710938 209.382812 234.722656 231.480469 210.210938 247.253906 C 197.230469 255.195312 183.582031 260.636719 166.238281 263.976562 C 149.117188 267.265625 128.296875 268.457031 106.238281 266.757812 C 62.460938 263.496094 13.402344 248.164062 3.050781 213.582031 C -2.808594 196.414062 0.871094 176.730469 8.160156 156.925781 C 15.570312 137.085938 26.589844 117.125 38.15625 98.730469 C 49.847656 80.308594 62.085938 63.445312 74.6875 49.152344 C 87.402344 34.824219 100.484375 23.058594 116.617188 14.15625 Z M 116.617188 14.15625 "/>
</g>
</svg>
