<svg fill="none" height="36" viewBox="0 0 168 36" width="168" xmlns="http://www.w3.org/2000/svg" xmlns:xlink="http://www.w3.org/1999/xlink"><linearGradient id="a" gradientUnits="userSpaceOnUse" x1="6.31772" x2="33.912" y1="31.833" y2="4.5823"><stop offset="0" stop-color="#0090c6"/><stop offset="1" stop-color="#1eddd6"/></linearGradient><clipPath id="b"><path d="m0 0h168v36h-168z"/></clipPath><g clip-path="url(#b)"><path d="m37.0858 13.8831c-.6971-.3294-1.3477-.4235-1.9519-.4235-.6506.047-1.2548-.3295-1.5801-.9412l-2.1842-3.81178c-.3253-.56471-.2788-1.31765.0465-1.88236.4647-.8.6971-1.74117.6041-2.77647-.1859-2.11764-1.9054-3.858822-3.9967-4.04705684-1.8589-.18823516-3.4854.75294084-4.3219 2.21176684-.3254.5647-.9295.94117-1.5801.94117h-4.2755c-.6507 0-1.2548-.37647-1.5801-.94117-.8365-1.458826-2.5096-2.400002-4.322-2.21176684-2.09131.23529384-3.76434 1.97646684-3.9967 4.09411684-.09295 1.03529.13942 1.97647.60415 2.77647.32531.56471.37178 1.27059.04647 1.88235l-2.13776 3.81173c-.32531.6118-.97593.9412-1.67303.9412-.37178 0-.79004 0-1.2083.0941-1.76597.3765-3.160161 1.8353-3.439 3.6236-.46473 2.8235 1.67303 5.3176 4.41494 5.3176h.09294c.65063 0 1.30125.3294 1.62656.8941l2.23071 3.9059c.32531.5647.27883 1.2706-.04648 1.8824-.46473.8-.69709 1.7411-.60415 2.7294.18589 2.1176 1.9054 3.8117 3.95025 4.047 1.8124.1883 3.4854-.7059 4.322-2.1647.3253-.5647.9294-.9411 1.58-.9411h4.3685c.6506 0 1.2548.3764 1.5801.9411.79 1.3647 2.2772 2.2588 3.9502 2.2118 2.3236-.0471 4.322-2.0235 4.3685-4.3765.0929-2.5412-1.9519-4.6588-4.4615-4.6588-1.7659 0-3.2995 1.0353-4.0431 2.5882-.2788.6118-.9295.9883-1.6266.9883h-3.9502c-.6971 0-1.3012-.3765-1.6265-.9883-.6971-1.5059-2.2772-2.5882-4.0432-2.5882-.0929 0-.1859 0-.2323 0-.6507.0471-1.3013-.3294-1.6266-.8941l-2.13776-3.7647c-.32531-.6118-.27884-1.3647.04647-1.9294 0-.0471.04647-.0471.04647-.0942.32531-.5647.92946-.9411 1.58009-.9411l4.46143-.0471c.6971 0 1.3012.3765 1.6265.9882.7901 1.3647 2.2307 2.2589 3.8573 2.2589 1.673 0 3.1137-.9412 3.9037-2.3059.3253-.6118.9295-.9883 1.6266-.9883h5.5767c.5112 1.9295 2.2308 3.2942 4.322 3.2942 2.649 0 4.7403-2.3059 4.4614-5.0353-.1858-1.6471-1.2547-3.0118-2.6489-3.6706zm-17.195-.4235c-1.766 0-3.2531 1.0353-3.9967 2.4941-.2789.6117-.9295.9411-1.5801.9411l-4.1826.0471c-.69706 0-1.30121-.3765-1.62652-.9882-.04648-.0941-.09295-.1883-.13942-.2824-.32532-.5647-.37179-1.2235-.04648-1.7882l2.23072-3.95296c.3253-.61176.9759-.94117 1.6265-.94117h.1859c1.766 0 3.2531-1.0353 3.9967-2.54118.2789-.61176.9295-.98823 1.5801-.98823h3.9967c.6506 0 1.3012.37647 1.5801.98823.7435 1.50588 2.2307 2.54118 3.9966 2.54118h.1859c.6971-.04706 1.3013.32941 1.6266.94117l2.0913 3.71766c.3253.6118.3718 1.3176 0 1.8823-.2324.3765-.4183.8-.5112 1.2706h-5.4838c-.6971 0-1.3013-.4235-1.6266-1.0353-.7436-1.3176-2.2307-2.3058-3.9037-2.3058z" fill="url(#a)"/><path d="m59.9037 12.4706c.4183 0 .7436-.0471 1.0224-.2823.2789-.2353.3718-.5648.3718-.9412 0-.4236-.1394-.7059-.4182-.9883-.2789-.2353-.6042-.37643-.976-.37643h-7.6215c-.4183 0-.7436.14113-.976.42353-.2788.2824-.4182.6118-.4182.9882v13.3647c0 .4236.1394.753.4182.9883.2789.2823.6042.4235.976.4235h7.6215c.4183 0 .7436-.1412.976-.3765.2788-.2353.4182-.5647.4182-.9411 0-.3765-.1394-.6589-.4182-.9412-.2789-.2824-.6042-.4235-.976-.4235h-6.1809v-4.2824h5.1585c.4183 0 .7436-.1412 1.0224-.3765.2789-.2353.3718-.5647.3718-.9411 0-.4236-.1394-.7059-.4182-.9883-.2789-.2353-.6042-.3765-.976-.3765h-5.1585v-3.9529zm17.8922 1.0353c-.883 0-1.7195.2824-2.4166.8s-1.2548 1.1294-1.5801 1.7412c-.5112-1.6941-1.766-2.5412-3.6714-2.5412-.79 0-1.4871.1882-2.0913.6118-.6506.3764-1.1618.847-1.5801 1.4117v-.3764c0-.4236-.1394-.753-.3717-.9883-.2789-.2823-.6042-.4235-.976-.4235-.4182 0-.7435.1412-.9759.4235-.2789.2824-.3718.6118-.3718.9883v9.5529c0 .4235.1394.7529.3718.9882.2788.2824.6041.4236.9759.4236.4183 0 .7436-.1412.976-.4236.2788-.2823.3717-.6117.3717-.9882v-5.9294c0-.8.2324-1.4588.6971-1.9765.4648-.5176 1.1619-.7529 1.9984-.7529s1.3942.2353 1.7195.7059c.3253.4705.5112 1.1294.5112 2.0235v5.9294c0 .4235.1394.7529.3718.9882.2788.2824.6041.4236.9759.4236.4183 0 .7436-.1412.9759-.4236.2789-.2823.3718-.6117.3718-.9882v-5.9294c0-.8.2324-1.4588.6971-1.9765.4647-.5176 1.1618-.7529 1.9983-.7529.8366 0 1.3942.2353 1.7196.7059.3253.4705.5112 1.1294.5112 2.0235v5.9294c0 .4235.1394.7529.3717.9882.2789.2824.6042.4236.976.4236.4182 0 .7435-.1412.9759-.4236.2788-.2823.3718-.6117.3718-.9882v-5.9294c0-1.6471-.2788-2.9177-.883-3.8588-.4647-.9412-1.5336-1.4118-3.0207-1.4118zm16.3585.8c-.8365-.5647-1.8125-.8-2.8349-.8-.6971 0-1.3942.1882-2.0448.5176-.6506.3295-1.1618.753-1.5336 1.2236v-.0941c0-.4236-.1394-.753-.3718-.9883-.2788-.2823-.6041-.4235-.9759-.4235-.4183 0-.7436.1412-.976.4235-.2788.2824-.3717.6118-.3717.9883v14.1647c0 .4235.1394.7529.3717 1.0353.2789.2823.6042.3764.976.3764.4182 0 .7435-.1411.9759-.4235.2788-.2824.3718-.6118.3718-.9882v-4.5177c.4182.4235.9759.8 1.6265 1.0824.6507.2823 1.3478.4706 2.0449.4706 1.0224 0 1.9518-.2824 2.7883-.8.8366-.5647 1.4872-1.3177 1.9984-2.3059.4647-.9883.7435-2.0706.7435-3.3412 0-1.2235-.2323-2.3529-.7435-3.2941-.5112-.9883-1.2083-1.7412-2.0448-2.3059zm-.7901 8.3765c-.6041.7529-1.4406 1.1294-2.4166 1.1294-.9759 0-1.8124-.3765-2.4166-1.1294-.6041-.753-.9294-1.6471-.9294-2.7765s.3253-2.0235.9294-2.7765c.6042-.7529 1.4407-1.0823 2.4166-1.0823.976 0 1.8125.3764 2.4166 1.0823.6042.753.9295 1.6471.9295 2.7765 0 1.0824-.3253 2.0235-.9295 2.7765zm12.5477-9.1765c-.79 0-1.487.1882-2.091.6118-.651.3764-1.162.847-1.58 1.4117v-5.1294c0-.42351-.14-.75293-.372-.98822-.279-.28235-.604-.42353-.976-.42353-.418 0-.744.14118-.976.42353-.2788.28235-.3718.61172-.3718.98822v14.3059c0 .4235.1395.7529.3718.9882.279.2824.604.4236.976.4236.418 0 .744-.1412.976-.4236.279-.2823.372-.6117.372-.9882v-5.9294c0-.8.232-1.4588.697-1.9765.465-.5176 1.162-.7529 1.998-.7529.837 0 1.394.2353 1.72.7059.325.4705.511 1.1294.511 2.0235v5.9294c0 .4235.139.7529.372.9882.278.2824.604.4236.976.4236.371 0 .743-.1412.975-.4236.279-.2823.372-.6117.372-.9882v-5.9294c0-1.6471-.279-2.9177-.883-3.8588-.511-.9412-1.533-1.4118-3.067-1.4118zm17.149 0c-.419 0-.744.1412-.976.4235-.279.2824-.372.6118-.372.9883-.418-.4236-.976-.753-1.627-1.0353-.65-.2824-1.301-.4236-2.044-.4236-1.023 0-1.952.2824-2.789.8-.836.5647-1.487 1.3177-1.998 2.3059-.465.9883-.744 2.0706-.744 3.3412 0 1.2235.233 2.3529.744 3.2941.511.9883 1.162 1.7412 1.998 2.2588.837.5647 1.813.8 2.835.8.697 0 1.394-.1411 2.045-.4706.65-.3294 1.162-.7058 1.533-1.1294 0 .4236.14.753.419.9883.232.2823.557.3764.976.3764.418 0 .743-.1411.976-.4235.278-.2823.371-.6117.371-.9882v-9.6941c0-.4236-.139-.753-.371-1.0353-.279-.2824-.605-.3765-.976-.3765zm-2.185 9.1765c-.604.7529-1.44 1.0823-2.416 1.0823s-1.813-.3764-2.417-1.0823c-.604-.753-.929-1.6471-.929-2.7765s.325-2.0235.929-2.7765c.604-.7529 1.441-1.1294 2.417-1.1294s1.812.3765 2.416 1.1294c.605.753.93 1.6471.93 2.7765s-.325 2.0235-.93 2.7765zm14.5-4.4706c-.697-.3294-1.58-.6588-2.649-.9883-1.255-.4235-2.184-.847-2.881-1.3176-.651-.4706-1.023-1.1765-1.023-2.0706 0-.847.372-1.5529 1.069-2.0235.697-.5177 1.627-.753 2.696-.753.743 0 1.44.1412 2.137.4706s1.209.7059 1.627 1.2236c.093.0941.232.1411.372.1411.186 0 .371-.0941.511-.2353.139-.1411.232-.2823.232-.4705 0-.1883-.093-.4236-.325-.6589-.465-.5647-1.115-1.0353-1.952-1.3647-.836-.32939-1.673-.47057-2.602-.47057-1.023 0-1.906.18824-2.696.56467-.79.3765-1.394.8471-1.812 1.5059-.419.6118-.651 1.3647-.651 2.1647 0 .8941.186 1.6471.604 2.2589.418.6117.93 1.0823 1.627 1.4117.65.3765 1.487.6588 2.463.9883.883.2823 1.626.5647 2.231.847.557.2824 1.022.6588 1.394 1.0824.372.4235.557.9882.557 1.647 0 .8471-.371 1.553-1.068 2.0706-.744.5177-1.627.8-2.742.8-1.766 0-3.253-.6588-4.462-1.9765-.139-.1411-.325-.2353-.511-.2353s-.325.0942-.511.2353c-.14.1412-.233.3295-.233.5177 0 .2353.093.4235.279.5647.79.8 1.627 1.3647 2.463 1.7412.837.3764 1.813.5647 2.928.5647 1.023 0 1.906-.1883 2.742-.5647.79-.3765 1.441-.8941 1.859-1.5059.465-.6588.651-1.3647.651-2.1177 0-1.0353-.233-1.8353-.651-2.447-.418-.8-.976-1.2706-1.673-1.6zm13.338-3.3883c-.883-.5176-1.859-.8-2.928-.8s-2.045.2824-2.928.8c-.883.5177-1.58 1.2706-2.091 2.2118s-.744 1.9765-.744 3.153c0 1.1764.233 2.2117.744 3.1529s1.208 1.6941 2.091 2.2118c.883.5176 1.859.8 2.928.8s2.045-.2824 2.928-.8c.883-.5177 1.58-1.2706 2.091-2.2118s.744-1.9765.744-3.1529c0-1.1765-.233-2.2118-.744-3.153s-1.208-1.6941-2.091-2.2118zm.883 7.8589c-.372.7529-.93 1.3176-1.58 1.7411-.697.4236-1.441.6118-2.231.6118-.837 0-1.58-.2353-2.231-.6588-.65-.4235-1.208-.9882-1.58-1.7412-.372-.7529-.604-1.5529-.604-2.4941s.186-1.7412.604-2.4941c.372-.753.93-1.3177 1.58-1.7412.651-.4235 1.394-.6588 2.231-.6588.836 0 1.58.2353 2.231.6588.697.4235 1.208.9882 1.58 1.7412.371.7529.557 1.5529.557 2.4941.047.9412-.139 1.7882-.557 2.5412zm9.759-13.4118c-.372-.14117-.744-.18823-1.208-.18823-.93 0-1.673.28235-2.231.8-.558.51763-.836 1.27063-.836 2.25883v2.4h-1.674c-.185 0-.325.0471-.464.1882-.14.0941-.186.2824-.186.4706 0 .1883.046.3294.186.4706.139.1412.279.1882.464.1882h1.674v9.553c0 .1882.046.3765.185.5176.14.1412.279.1883.512.1883.186 0 .371-.0471.511-.1883.139-.1411.186-.2823.186-.5176v-9.6h2.556c.186 0 .325-.0471.464-.1883.14-.1411.186-.2823.186-.4705 0-.1883-.046-.3295-.186-.4706-.139-.1412-.278-.1883-.464-.1883h-2.556v-2.4c0-.5647.139-1.0353.418-1.3647s.651-.4706 1.115-.4706c.186 0 .465.0471.79.1412.186.0941.372.0941.512.0941.139 0 .278-.047.418-.1882.139-.1412.186-.2824.186-.47059-.047-.23529-.186-.42353-.558-.56471zm7.993 6.3529c.186 0 .326-.047.465-.1882.14-.0941.186-.2823.186-.4706 0-.1882-.046-.3294-.186-.4706-.139-.1411-.279-.1882-.465-.1882h-2.277v-2.5412c0-.1882-.046-.3764-.186-.5176-.139-.1412-.279-.1883-.511-.1883-.186 0-.372.0471-.511.1883s-.186.2823-.186.5176v2.5883h-1.673c-.186 0-.325.047-.465.1882-.139.1412-.186.2823-.186.4706 0 .1882.047.3294.186.4706.14.1411.279.1882.465.1882h1.673v7.8118c0 .847.139 1.4588.465 1.8353.279.3764.604.6117.929.7058.326.0942.697.0942 1.116.0942.325 0 .604-.0942.883-.2353.232-.1412.371-.3294.371-.5647 0-.1412-.046-.2824-.139-.4236-.093-.0941-.232-.1882-.372-.1882-.093 0-.186 0-.325.0471-.14.047-.233.047-.325.047-.372 0-.651-.0941-.837-.3294-.232-.1882-.325-.6118-.325-1.1765v-7.6706z" fill="#4c4c4c"/></g></svg>