<svg fill="none" height="30" viewBox="0 0 125 30" width="125" xmlns="http://www.w3.org/2000/svg" xmlns:xlink="http://www.w3.org/1999/xlink"><linearGradient id="a" gradientUnits="userSpaceOnUse" x1="-.000695" x2="25.0139" y1="11.6748" y2="11.6748"><stop offset="0" stop-color="#919698"/><stop offset="1" stop-color="#919698"/></linearGradient><clipPath id="b"><path d="m0 0h125v29.1667h-125z"/></clipPath><g clip-path="url(#b)"><g fill="#919698"><path d="m56.4525 11.9686c4.5079 0 7.7674 3.1908 7.7674 7.4936 0 .2913-.0416.8208-.0832 1.1121-.0416.4104-.3884.7017-.7767.7017h-12.3447c.1665 2.7406 2.7047 5.3223 5.7424 5.3223 1.8031 0 3.2595-.6487 4.2443-1.2313.5964-.331.86-.5296 1.2067-.0794.2636.331.4716.609.7352.94.3051.3707.4716.609-.1665 1.0591-1.0264.7812-3.3428 1.8801-6.2971 1.8801-5.1876 0-8.4055-3.8925-8.4055-8.5925-.0277-4.6338 3.1902-8.6057 8.3777-8.6057zm4.7992 7.0037c-.1249-2.3698-2.1916-4.5014-4.7992-4.5014-2.8712 0-5.1043 1.9594-5.4094 4.5014z"/><path d="m68.7971.873905c0-.410425.3884-.7811316.8183-.7811316h1.3316c.43 0 .8184.3707066.8184.7811316v12.153895s1.7615-1.0592 4.5911-1.0592c5.1459 0 8.239 3.76 8.239 8.5528 0 4.7132-3.426 8.6321-7.8091 8.6321-3.2179 0-5.2707-2.1713-5.2707-2.1713l-.2635 1.0989c-.0833.3707-.3468.6488-.7352.6488h-.9016c-.4299 0-.8183-.3707-.8183-.7812zm7.6703 25.711195c3.1347 0 5.1043-2.8201 5.1043-6.0108 0-3.2702-1.8864-5.8519-5.6175-5.8519-2.358 0-4.1611.9798-4.1611.9798v8.182s1.5951 2.7009 4.6743 2.7009z"/><path d="m88.6873 6.85813c0-1.09888.9015-1.95945 2.0112-1.95945 1.1512 0 2.0528.86057 2.0528 1.95945 0 1.05916-.9016 1.91973-2.0528 1.91973-1.1097 0-2.0112-.86057-2.0112-1.91973zm.5964 6.30197c0-.4104.3883-.7811.8183-.7811h1.3316c.43 0 .8183.3707.8183.7811v14.8151c0 .4104-.3883.7811-.8183.7811h-1.3316c-.43 0-.8183-.3707-.8183-.7811z"/><path d="m98.1884 13.1602c0-.4104.3884-.7811.8184-.7811h.8183c.3889 0 .5969.1588.6799.4898l.388 1.271s2.011-2.1713 5.576-2.1713c2.524 0 4.369.94 5.493 2.6612.208-.1589 2.954-2.6612 6.394-2.6612 4.979 0 6.644 3.1113 6.644 7.3612v8.6322c0 .4104-.389.7811-.818.7811h-1.374c-.43 0-.818-.3707-.818-.7811v-8.6322c0-3.0716-1.373-4.6206-3.856-4.6206-2.788 0-4.633 1.7609-5.229 2.2904.125.7017.208 1.4696.208 2.3302v8.6322c0 .4104-.388.7811-.818.7811h-1.374c-.43 0-.818-.3707-.818-.7811v-8.6322c0-3.1113-1.456-4.6206-4.078-4.6206-3.037 0-4.882 2.3302-4.882 2.3302v10.9226c0 .4104-.389.7811-.819.7811h-1.3311c-.43 0-.8183-.3707-.8183-.7811v-14.8018z"/><path d="m45.7029 0c-.4993 0-.9016.330988-1.0542.781132l-.0554.238308-.541 2.55523c-.1664.84733-.3745 1.74762-.5825 2.63467l-.0971.45014c-.4855 2.10508-.9987 4.23662-1.5535 6.34172-.5826 2.2507-1.2345 4.3823-1.9003 6.3153-.3883 1.1253-.7906 2.1183-1.1928 2.9524-.2219.4634-.4439.9003-.6935 1.2842-.2497.384-1.0819 2.0654-2.3441.1721-.222-.331-.4716-.7282-.749-1.2313-.9987-1.88-1.8864-4.1704-2.6493-6.1563l-.5687-1.4829c-.5825-1.5357-1.179-3.1112-1.8447-4.6867-.0694-.1589-.1387-.3178-.2081-.47667-.43-.99296-.9571-2.15804-1.609-3.3496-.3606-.64874-.7074-1.17832-1.0541-1.66818-.3745-.5031-.8322-1.0724-1.5396-1.58874-.3884-.26479-.7629-.46338-1.1513-.5693-.4438-.1324-.9432-.14564-1.387-.05296-.4161.09268-.8322.26479-1.2345.54282-.3745.25155-.6519.52958-.9154.80761-.541.60902-.9155 1.2048-1.2068 1.72114 0 0 3.3844-.45014 5.4095 2.8465.0277.03972.0416.06619.0694.10591.0554.10592.1248.21184.1803.31775.4022.79437.8738 1.70792 1.387 2.92592.6103 1.4564 1.1929 2.9524 1.8032 4.5412.2496.6487.4993 1.2974.749 1.9462.3883.9929.8599 2.1713 1.3593 3.3363.3883.9136.9293 2.1316 1.6089 3.3364.2636.4501.6103 1.0592 1.0542 1.6549.3606.4899.8322 1.0724 1.498 1.5888.3606.2648.7212.4634 1.0958.5958.4299.1588.9154.2118 1.3454.1456.5409-.0662.9848-.278 1.2622-.4501.3467-.2119.6796-.4767.9432-.7547.5825-.5958.957-1.2048 1.2761-1.7344.3051-.5296.5964-1.0989.8738-1.7344.4438-1.0326.86-2.1183 1.2761-3.4422.749-2.3434 1.2899-4.6339 1.7615-6.7787.43-1.9197.8322-4.01154 1.29-6.58001l.097-.52958c.1526-.90029.3052-1.77409.4439-2.68762l.4022-2.74058.0555-.37071c0-.01324 0-.01324 0-.02648-.0138-.556058-.4993-1.04592-1.1096-1.04592z"/></g><path d="m19.5982 5.50765c-.2913.51634-.5548 1.11212-.8461 1.76086-.2497.5693-.4716 1.15184-.6797 1.7079l-.5687 1.69469c-.3467 1.1121-.6935 2.0918-1.0541 2.9789-.3884.9797-.8184 1.8667-1.2622 2.6479-.3468.5957-.8738 1.4166-1.5119 1.9727-.5687.4766-1.068.6752-1.6506.6752-.5686-.0133-1.2483-.3045-1.9141-.8341-.52705-.4104-1.08187-.9797-1.73378-1.7874-.49933-.6355-1.01254-1.3636-1.52574-2.1712-.84609-1.3902-1.69219-2.9392-2.52441-4.63387-1.55349-3.17749-2.56602-5.91807-3.467601-8.23498-.041611-.1324-.138703-.22508-.263537-.27803-.055482-.013244-.110963-.026484-.166445-.026484-.124833 0-.235796.026484-.319019.105914-.0693517.07944-.1387037.18536-.11096294.31775.02774084.09268.04161114.17211.06935194.26479.638038 2.40959 1.539613 5.52088 2.829563 8.92341.54094 1.4034 1.28994 3.2702 2.27474 5.1502.49934.9532.99867 1.8006 1.52575 2.5817.6519.9797 1.30381 1.7476 2.02507 2.4096.44386.4104.88771.7282 1.34542.993.5687.3177 1.1096.5163 1.6367.5957.5964.0927 1.2345.053 1.817-.1324.5549-.1721 1.0958-.4501 1.6506-.8605 1.0958-.8341 1.8448-1.88 2.3857-2.7009.5687-.8738 1.0819-1.827 1.6506-3.1113.43-.9797.86-2.0521 1.2899-3.2834l.5549-1.5093c.1941-.5031.4022-.96646.5964-1.42984.9848-2.44932 2.3025-2.55523 3.3566-.88705-2.0667-3.65411-5.4094-2.89946-5.4094-2.89946z" fill="url(#a)"/></g></svg>