<svg fill="none" height="45" viewBox="0 0 191 45" width="191" xmlns="http://www.w3.org/2000/svg" xmlns:xlink="http://www.w3.org/1999/xlink"><linearGradient id="a" gradientUnits="userSpaceOnUse" x1="-.001111" x2="38.2212" y1="18.0036" y2="18.0036"><stop offset="0" stop-color="#28e2ff"/><stop offset="1" stop-color="#2e3192"/></linearGradient><clipPath id="b"><path d="m0 0h191v44.9774h-191z"/></clipPath><g clip-path="url(#b)"><g fill="#272a51"><path d="m86.2594 18.4567c6.8881 0 11.8686 4.9203 11.8686 11.5557 0 .4491-.0635 1.2658-.1271 1.7149-.0636.6329-.5935 1.0821-1.1869 1.0821h-18.8626c.2543 4.2262 4.1328 8.2074 8.7743 8.2074 2.7552 0 4.9806-1.0004 6.4853-1.8987.9114-.5104 1.3141-.8167 1.8439-.1225.4027.5104.7206.9391 1.1233 1.4495.4663.5717.7206.9392-.2543 1.6334-1.5684 1.2045-5.1078 2.8991-9.6221 2.8991-7.9265 0-12.8435-6.0024-12.8435-13.2503-.0424-7.1457 4.8746-13.2706 12.8011-13.2706zm7.3331 10.8003c-.1907-3.6546-3.3486-6.9416-7.3331-6.9416-4.3871 0-7.7993 3.0216-8.2656 6.9416z"/><path d="m105.122 1.34764c0-.632913.593-1.204574 1.25-1.204574h2.035c.657 0 1.25.571661 1.25 1.204574v18.74226s2.692-1.6333 7.016-1.6333c7.863 0 12.589 5.7983 12.589 13.189 0 7.2683-5.235 13.3116-11.932 13.3116-4.917 0-8.054-3.3483-8.054-3.3483l-.403 1.6945c-.127.5717-.53 1.0004-1.123 1.0004h-1.378c-.657 0-1.25-.5716-1.25-1.2045zm11.72 39.64876c4.79 0 7.8-4.3487 7.8-9.2691 0-5.0429-2.883-9.0241-8.584-9.0241-3.603 0-6.358 1.5109-6.358 1.5109v12.6173s2.437 4.165 7.142 4.165z"/><path d="m135.514 10.5758c0-1.69453 1.378-3.0216 3.073-3.0216 1.759 0 3.137 1.32707 3.137 3.0216 0 1.6334-1.378 2.9604-3.137 2.9604-1.695 0-3.073-1.327-3.073-2.9604zm.911 9.7183c0-.6329.594-1.2046 1.251-1.2046h2.035c.657 0 1.25.5717 1.25 1.2046v22.846c0 .6329-.593 1.2045-1.25 1.2045h-2.035c-.657 0-1.251-.5716-1.251-1.2045z"/><path d="m150.032 20.2941c0-.6329.593-1.2045 1.25-1.2045h1.251c.593 0 .911.245 1.038.7554l.594 1.96s3.073-3.3483 8.52-3.3483c3.857 0 6.676 1.4495 8.393 4.1037.317-.245 4.514-4.1037 9.77-4.1037 7.609 0 10.152 4.7978 10.152 11.3515v13.3115c0 .6329-.594 1.2046-1.251 1.2046h-2.098c-.657 0-1.25-.5717-1.25-1.2046v-13.3115c0-4.7366-2.098-7.1253-5.892-7.1253-4.26 0-7.079 2.7154-7.99 3.532.19 1.0821.318 2.2662.318 3.5933v13.3115c0 .6329-.594 1.2046-1.251 1.2046h-2.098c-.657 0-1.25-.5717-1.25-1.2046v-13.3115c0-4.7979-2.226-7.1253-6.231-7.1253-4.642 0-7.461 3.5933-7.461 3.5933v16.8435c0 .6329-.593 1.2046-1.25 1.2046h-2.035c-.657 0-1.25-.5717-1.25-1.2046v-22.8256z"/><path d="m69.8341 0c-.763 0-1.3776.510411-1.6108 1.20457l-.0848.3675-.8265 3.94037c-.2543 1.30665-.5723 2.69497-.8902 4.06287l-.1483.69419c-.7418 3.2462-1.526 6.5332-2.3738 9.7794-.8901 3.4708-1.8862 6.7579-2.9035 9.7387-.5935 1.7354-1.2081 3.2666-1.8227 4.5529-.3391.7145-.6782 1.3883-1.0597 1.9804-.3815.592-1.6531 3.1849-3.5818.2654-.3391-.5104-.7206-1.1229-1.1445-1.8988-1.5259-2.8991-2.8823-6.4311-4.048-9.4936l-.869-2.2867c-.8901-2.3683-1.8015-4.7978-2.8188-7.2274-.1059-.245-.2119-.49-.3179-.735-.657-1.5312-1.4624-3.3278-2.4585-5.16532-.551-1.00041-1.0809-1.81707-1.6107-2.57248-.5723-.77582-1.2717-1.65373-2.3526-2.44997-.5934-.40833-1.1656-.71457-1.7591-.87791-.6782-.20416-1.4411-.22458-2.1194-.08166-.6358.14291-1.2716.40833-1.8862.83707-.5723.38792-.9961.81666-1.3988 1.24541-.8266.93915-1.3988 1.85789-1.8439 2.65413 0 0 5.1713-.69416 8.2657 4.38953.0423.0613.0635.1021.1059.1633.0848.1634.1908.3267.2755.49.6147 1.225 1.3353 2.6338 2.1194 4.5121.9326 2.2458 1.8227 4.5528 2.7553 7.0028.3815 1.0004.7629 2.0008 1.1444 3.0012.5935 1.5313 1.3141 3.3483 2.0771 5.145.5934 1.4087 1.4199 3.287 2.4584 5.1449.4027.6942.9326 1.6333 1.6108 2.5521.551.7554 1.2716 1.6537 2.2889 2.4499.5511.4084 1.1021.7146 1.6744.9188.657.245 1.3988.3266 2.0558.2246.8266-.1021 1.5048-.4288 1.9286-.6942.5299-.3267 1.0385-.735 1.4412-1.1637.8902-.9188 1.4624-1.8579 1.9499-2.6746.4662-.8166.9113-1.6945 1.3352-2.6745.6782-1.5925 1.314-3.2667 1.9498-5.3083 1.1445-3.6137 1.9711-7.1458 2.6917-10.4532.657-2.9604 1.2716-6.1862 1.971-10.147l.1484-.8167c.2331-1.38828.4662-2.73577.6782-4.1445l.6146-4.22621.0848-.57166c0-.02041 0-.02041 0-.04083-.0212-.857491-.763-1.6129-1.6955-1.6129z"/></g><path d="m29.946 8.49329c-.4451.79624-.8478 1.71501-1.2929 2.71541-.3815.8779-.7206 1.7762-1.0385 2.6337l-.8689 2.6133c-.5299 1.715-1.0597 3.2258-1.6108 4.5937-.5934 1.5108-1.2504 2.8787-1.9286 4.0833-.5299.9187-1.3352 2.1845-2.3102 3.042-.8689.735-1.6319 1.0413-2.522 1.0413-.869-.0204-1.9075-.4696-2.9248-1.2863-.8054-.6329-1.6531-1.5108-2.6493-2.7562-.7629-.98-1.5471-2.1029-2.3313-3.3483-1.29283-2.1437-2.58566-4.5324-3.8573-7.1457-2.37372-4.89998-3.92088-9.12618-5.29849-12.69906-.06358-.20416-.21194-.34708-.402681-.42874-.084776-.02042-.169552-.04084-.254327-.04084-.190746 0-.360298.04084-.487461.16334-.1059703.12249-.2119401.28583-.16955218.48999.04238788.14292.06358188.26541.10597018.40833.974921 3.71579 2.352531 8.51368 4.323571 13.76068.82656 2.1641 1.97104 5.0429 3.47581 7.942.76298 1.47 1.52596 2.7766 2.33136 3.9812.9961 1.5108 1.9922 2.695 3.0943 3.7158.6782.6329 1.3564 1.1229 2.0558 1.5312.869.49 1.6955.7963 2.5009.9188.9113.1429 1.8863.0816 2.7764-.2042.8478-.2654 1.6743-.6942 2.5221-1.3271 1.6743-1.2862 2.8188-2.8991 3.6453-4.1649.869-1.3475 1.6532-2.8175 2.5221-4.7979.657-1.5108 1.3141-3.1645 1.9711-5.0633l.8477-2.3274c.2967-.7759.6146-1.4904.9114-2.205 1.5047-3.7771 3.5182-3.9404 5.1289-1.3679-3.1579-5.63495-8.2656-4.47121-8.2656-4.47121z" fill="url(#a)"/></g></svg>